<mxfile host="app.diagrams.net" modified="2024-04-04T05:54:18.383Z" agent="Mozilla/5.0 (Windows NT 10.0; Win64; x64) AppleWebKit/537.36 (KHTML, like Gecko) Chrome/123.0.0.0 Safari/537.36" etag="wHGnkDbslxxoA_lT2aop" version="24.2.1" type="github">
  <diagram name="第 1 页" id="wh8OYNI59U4x2zCxQUa4">
    <mxGraphModel dx="1925" dy="736" grid="1" gridSize="10" guides="1" tooltips="1" connect="1" arrows="1" fold="1" page="1" pageScale="1" pageWidth="827" pageHeight="1169" math="0" shadow="0">
      <root>
        <mxCell id="0" />
        <mxCell id="1" parent="0" />
        <UserObject label="" plantUmlData="{&#xa;  &quot;data&quot;: &quot;@startuml\n\nskinparam linetype \&quot;solid\&quot;\nskinparam linewidth 1\nskinparam rounded true\n\nactor 管理员 as 管理员\nactor 主管 as 主管\nactor 采购员 as 采购员\nactor 销售经理 as 销售经理\nactor 仓库管理员 as 仓库管理员\n\nusecase 进货管理\nusecase 销售管理\nusecase 库存管理\nusecase 统计报表\nusecase 基础资料\nusecase 系统管理\n\n管理员 -&gt; 进货管理\n管理员 -&gt; 销售管理\n管理员 -&gt; 库存管理\n管理员 -&gt; 统计报表\n管理员 -&gt; 基础资料\n管理员 -&gt; 系统管理\n\n主管 -&gt; 进货管理\n主管 -&gt; 进货入库\n主管 -&gt; 退货出库\n主管 -&gt; 进货单据查询\n主管 -&gt; 退货单据查询\n主管 -&gt; 当前库存查询\n\n采购员 -&gt; 销售管理\n采购员 -&gt; 销售出库\n\n销售经理 -&gt; 库存管理\n销售经理 -&gt; 商品报损\n\n仓库管理员 -&gt; 进货入库\n仓库管理员 -&gt; 退货出库\n仓库管理员 -&gt; 进货单据查询\n仓库管理员 -&gt; 退货单据查询\n仓库管理员 -&gt; 当前库存查询\n仓库管理员 -&gt; 销售出库\n仓库管理员 -&gt; 客户退货\n仓库管理员 -&gt; 销售单据查询\n\n@enduml\n&quot;,&#xa;  &quot;format&quot;: &quot;svg&quot;&#xa;}" id="Gx-qXyAOR5Icjh0oVwRY-1">
          <mxCell style="shape=image;noLabel=1;verticalAlign=top;aspect=fixed;imageAspect=0;image=data:image/svg+xml,PD94bWwgdmVyc2lvbj0iMS4wIiBlbmNvZGluZz0idXMtYXNjaWkiIHN0YW5kYWxvbmU9Im5vIj8+PHN2ZyB4bWxucz0iaHR0cDovL3d3dy53My5vcmcvMjAwMC9zdmciIHhtbG5zOnhsaW5rPSJodHRwOi8vd3d3LnczLm9yZy8xOTk5L3hsaW5rIiBjb250ZW50U3R5bGVUeXBlPSJ0ZXh0L2NzcyIgaGVpZ2h0PSIxNTlweCIgcHJlc2VydmVBc3BlY3RSYXRpbz0ibm9uZSIgc3R5bGU9IndpZHRoOjIxNDNweDtoZWlnaHQ6MTU5cHg7YmFja2dyb3VuZDojRkZGRkZGOyIgdmVyc2lvbj0iMS4xIiB2aWV3Qm94PSIwIDAgMjE0MyAxNTkiIHdpZHRoPSIyMTQzcHgiIHpvb21BbmRQYW49Im1hZ25pZnkiPjxkZWZzLz48Zz48IS0tZW50aXR5ID8/Py0tPjxnIGlkPSJlbGVtXyYjMzE2NDk7JiMyOTcwMjsmIzIxNTkyOyI+PGVsbGlwc2UgY3g9IjI3IiBjeT0iODYuMzkiIGZpbGw9IiNGMUYxRjEiIHJ4PSI4IiByeT0iOCIgc3R5bGU9InN0cm9rZTojMTgxODE4O3N0cm9rZS13aWR0aDowLjU7Ii8+PHBhdGggZD0iTTI3LDk0LjM5IEwyNywxMjEuMzkgTTE0LDEwMi4zOSBMNDAsMTAyLjM5IE0yNywxMjEuMzkgTDE0LDEzNi4zOSBNMjcsMTIxLjM5IEw0MCwxMzYuMzkgIiBmaWxsPSJub25lIiBzdHlsZT0ic3Ryb2tlOiMxODE4MTg7c3Ryb2tlLXdpZHRoOjAuNTsiLz48dGV4dCBmaWxsPSIjMDAwMDAwIiBmb250LWZhbWlseT0ic2Fucy1zZXJpZiIgZm9udC1zaXplPSIxNCIgbGVuZ3RoQWRqdXN0PSJzcGFjaW5nIiB0ZXh0TGVuZ3RoPSI0MiIgeD0iNiIgeT0iMTUxLjEyNDQiPiYjMzE2NDk7JiMyOTcwMjsmIzIxNTkyOzwvdGV4dD48L2c+PCEtLWVudGl0eSA/Py0tPjxnIGlkPSJlbGVtXyYjMjAwMjc7JiMzMTY0OTsiPjxlbGxpcHNlIGN4PSI1MDgiIGN5PSI4Ni4zOSIgZmlsbD0iI0YxRjFGMSIgcng9IjgiIHJ5PSI4IiBzdHlsZT0ic3Ryb2tlOiMxODE4MTg7c3Ryb2tlLXdpZHRoOjAuNTsiLz48cGF0aCBkPSJNNTA4LDk0LjM5IEw1MDgsMTIxLjM5IE00OTUsMTAyLjM5IEw1MjEsMTAyLjM5IE01MDgsMTIxLjM5IEw0OTUsMTM2LjM5IE01MDgsMTIxLjM5IEw1MjEsMTM2LjM5ICIgZmlsbD0ibm9uZSIgc3R5bGU9InN0cm9rZTojMTgxODE4O3N0cm9rZS13aWR0aDowLjU7Ii8+PHRleHQgZmlsbD0iIzAwMDAwMCIgZm9udC1mYW1pbHk9InNhbnMtc2VyaWYiIGZvbnQtc2l6ZT0iMTQiIGxlbmd0aEFkanVzdD0ic3BhY2luZyIgdGV4dExlbmd0aD0iMjgiIHg9IjQ5NCIgeT0iMTUxLjEyNDQiPiYjMjAwMjc7JiMzMTY0OTs8L3RleHQ+PC9nPjwhLS1lbnRpdHkgPz8/LS0+PGcgaWQ9ImVsZW1fJiMzNzMxOTsmIzM2MTQxOyYjMjE1OTI7Ij48ZWxsaXBzZSBjeD0iMTU2OSIgY3k9Ijg2LjM5IiBmaWxsPSIjRjFGMUYxIiByeD0iOCIgcnk9IjgiIHN0eWxlPSJzdHJva2U6IzE4MTgxODtzdHJva2Utd2lkdGg6MC41OyIvPjxwYXRoIGQ9Ik0xNTY5LDk0LjM5IEwxNTY5LDEyMS4zOSBNMTU1NiwxMDIuMzkgTDE1ODIsMTAyLjM5IE0xNTY5LDEyMS4zOSBMMTU1NiwxMzYuMzkgTTE1NjksMTIxLjM5IEwxNTgyLDEzNi4zOSAiIGZpbGw9Im5vbmUiIHN0eWxlPSJzdHJva2U6IzE4MTgxODtzdHJva2Utd2lkdGg6MC41OyIvPjx0ZXh0IGZpbGw9IiMwMDAwMDAiIGZvbnQtZmFtaWx5PSJzYW5zLXNlcmlmIiBmb250LXNpemU9IjE0IiBsZW5ndGhBZGp1c3Q9InNwYWNpbmciIHRleHRMZW5ndGg9IjQyIiB4PSIxNTQ4IiB5PSIxNTEuMTI0NCI+JiMzNzMxOTsmIzM2MTQxOyYjMjE1OTI7PC90ZXh0PjwvZz48IS0tZW50aXR5ID8/Pz8tLT48ZyBpZD0iZWxlbV8mIzM4MTQ0OyYjMjE4MDY7JiMzMjQ2MzsmIzI5NzAyOyI+PGVsbGlwc2UgY3g9IjE4ODEiIGN5PSI4Ni4zOSIgZmlsbD0iI0YxRjFGMSIgcng9IjgiIHJ5PSI4IiBzdHlsZT0ic3Ryb2tlOiMxODE4MTg7c3Ryb2tlLXdpZHRoOjAuNTsiLz48cGF0aCBkPSJNMTg4MSw5NC4zOSBMMTg4MSwxMjEuMzkgTTE4NjgsMTAyLjM5IEwxODk0LDEwMi4zOSBNMTg4MSwxMjEuMzkgTDE4NjgsMTM2LjM5IE0xODgxLDEyMS4zOSBMMTg5NCwxMzYuMzkgIiBmaWxsPSJub25lIiBzdHlsZT0ic3Ryb2tlOiMxODE4MTg7c3Ryb2tlLXdpZHRoOjAuNTsiLz48dGV4dCBmaWxsPSIjMDAwMDAwIiBmb250LWZhbWlseT0ic2Fucy1zZXJpZiIgZm9udC1zaXplPSIxNCIgbGVuZ3RoQWRqdXN0PSJzcGFjaW5nIiB0ZXh0TGVuZ3RoPSI1NiIgeD0iMTg1MyIgeT0iMTUxLjEyNDQiPiYjMzgxNDQ7JiMyMTgwNjsmIzMyNDYzOyYjMjk3MDI7PC90ZXh0PjwvZz48IS0tZW50aXR5ID8/Pz8/LS0+PGcgaWQ9ImVsZW1fJiMyMDE3OTsmIzI0MjExOyYjMzE2NDk7JiMyOTcwMjsmIzIxNTkyOyI+PGVsbGlwc2UgY3g9IjcyOSIgY3k9Ijg2LjM5IiBmaWxsPSIjRjFGMUYxIiByeD0iOCIgcnk9IjgiIHN0eWxlPSJzdHJva2U6IzE4MTgxODtzdHJva2Utd2lkdGg6MC41OyIvPjxwYXRoIGQ9Ik03MjksOTQuMzkgTDcyOSwxMjEuMzkgTTcxNiwxMDIuMzkgTDc0MiwxMDIuMzkgTTcyOSwxMjEuMzkgTDcxNiwxMzYuMzkgTTcyOSwxMjEuMzkgTDc0MiwxMzYuMzkgIiBmaWxsPSJub25lIiBzdHlsZT0ic3Ryb2tlOiMxODE4MTg7c3Ryb2tlLXdpZHRoOjAuNTsiLz48dGV4dCBmaWxsPSIjMDAwMDAwIiBmb250LWZhbWlseT0ic2Fucy1zZXJpZiIgZm9udC1zaXplPSIxNCIgbGVuZ3RoQWRqdXN0PSJzcGFjaW5nIiB0ZXh0TGVuZ3RoPSI3MCIgeD0iNjk0IiB5PSIxNTEuMTI0NCI+JiMyMDE3OTsmIzI0MjExOyYjMzE2NDk7JiMyOTcwMjsmIzIxNTkyOzwvdGV4dD48L2c+PGcgaWQ9ImVsZW1fJiMzNjgyNzsmIzM2MTM1OyYjMzE2NDk7JiMyOTcwMjsiPjxlbGxpcHNlIGN4PSI2MDguMDgzMyIgY3k9IjExNS40ODU2IiBmaWxsPSIjRjFGMUYxIiByeD0iNTEuMDgzMyIgcnk9IjEzLjU5NTYiIHN0eWxlPSJzdHJva2U6IzE4MTgxODtzdHJva2Utd2lkdGg6MC41OyIvPjx0ZXh0IGZpbGw9IiMwMDAwMDAiIGZvbnQtZmFtaWx5PSJzYW5zLXNlcmlmIiBmb250LXNpemU9IjE0IiBsZW5ndGhBZGp1c3Q9InNwYWNpbmciIHRleHRMZW5ndGg9IjU2IiB4PSI1ODAuMDgzMyIgeT0iMTE5LjIyNzciPiYjMzY4Mjc7JiMzNjEzNTsmIzMxNjQ5OyYjMjk3MDI7PC90ZXh0PjwvZz48ZyBpZD0iZWxlbV8mIzM4MTQ0OyYjMjE4MDY7JiMzMTY0OTsmIzI5NzAyOyI+PGVsbGlwc2UgY3g9IjE3NjcuMDgzMyIgY3k9IjExNS40ODU2IiBmaWxsPSIjRjFGMUYxIiByeD0iNTEuMDgzMyIgcnk9IjEzLjU5NTYiIHN0eWxlPSJzdHJva2U6IzE4MTgxODtzdHJva2Utd2lkdGg6MC41OyIvPjx0ZXh0IGZpbGw9IiMwMDAwMDAiIGZvbnQtZmFtaWx5PSJzYW5zLXNlcmlmIiBmb250LXNpemU9IjE0IiBsZW5ndGhBZGp1c3Q9InNwYWNpbmciIHRleHRMZW5ndGg9IjU2IiB4PSIxNzM5LjA4MzMiIHk9IjExOS4yMjc3Ij4mIzM4MTQ0OyYjMjE4MDY7JiMzMTY0OTsmIzI5NzAyOzwvdGV4dD48L2c+PGcgaWQ9ImVsZW1fJiMyNDIxMTsmIzIzMzg0OyYjMzE2NDk7JiMyOTcwMjsiPjxlbGxpcHNlIGN4PSIyMDg2LjA4MzMiIGN5PSIxMTUuNDg1NiIgZmlsbD0iI0YxRjFGMSIgcng9IjUxLjA4MzMiIHJ5PSIxMy41OTU2IiBzdHlsZT0ic3Ryb2tlOiMxODE4MTg7c3Ryb2tlLXdpZHRoOjAuNTsiLz48dGV4dCBmaWxsPSIjMDAwMDAwIiBmb250LWZhbWlseT0ic2Fucy1zZXJpZiIgZm9udC1zaXplPSIxNCIgbGVuZ3RoQWRqdXN0PSJzcGFjaW5nIiB0ZXh0TGVuZ3RoPSI1NiIgeD0iMjA1OC4wODMzIiB5PSIxMTkuMjI3NyI+JiMyNDIxMTsmIzIzMzg0OyYjMzE2NDk7JiMyOTcwMjs8L3RleHQ+PC9nPjxnIGlkPSJlbGVtXyYjMzI0Nzk7JiMzNTc0NTsmIzI1MjUzOyYjMzQ5MjA7Ij48ZWxsaXBzZSBjeD0iNDA4LjA4MzMiIGN5PSIxMTUuNDg1NiIgZmlsbD0iI0YxRjFGMSIgcng9IjUxLjA4MzMiIHJ5PSIxMy41OTU2IiBzdHlsZT0ic3Ryb2tlOiMxODE4MTg7c3Ryb2tlLXdpZHRoOjAuNTsiLz48dGV4dCBmaWxsPSIjMDAwMDAwIiBmb250LWZhbWlseT0ic2Fucy1zZXJpZiIgZm9udC1zaXplPSIxNCIgbGVuZ3RoQWRqdXN0PSJzcGFjaW5nIiB0ZXh0TGVuZ3RoPSI1NiIgeD0iMzgwLjA4MzMiIHk9IjExOS4yMjc3Ij4mIzMyNDc5OyYjMzU3NDU7JiMyNTI1MzsmIzM0OTIwOzwvdGV4dD48L2c+PGcgaWQ9ImVsZW1fJiMyMjUyMjsmIzMwNzg0OyYjMzYxNjQ7JiMyNjAwOTsiPjxlbGxpcHNlIGN4PSIyNzEuMDgzMyIgY3k9IjExNS40ODU2IiBmaWxsPSIjRjFGMUYxIiByeD0iNTEuMDgzMyIgcnk9IjEzLjU5NTYiIHN0eWxlPSJzdHJva2U6IzE4MTgxODtzdHJva2Utd2lkdGg6MC41OyIvPjx0ZXh0IGZpbGw9IiMwMDAwMDAiIGZvbnQtZmFtaWx5PSJzYW5zLXNlcmlmIiBmb250LXNpemU9IjE0IiBsZW5ndGhBZGp1c3Q9InNwYWNpbmciIHRleHRMZW5ndGg9IjU2IiB4PSIyNDMuMDgzMyIgeT0iMTE5LjIyNzciPiYjMjI1MjI7JiMzMDc4NDsmIzM2MTY0OyYjMjYwMDk7PC90ZXh0PjwvZz48ZyBpZD0iZWxlbV8mIzMxOTk1OyYjMzI0Nzk7JiMzMTY0OTsmIzI5NzAyOyI+PGVsbGlwc2UgY3g9IjEzNC4wODMzIiBjeT0iMTE1LjQ4NTYiIGZpbGw9IiNGMUYxRjEiIHJ4PSI1MS4wODMzIiByeT0iMTMuNTk1NiIgc3R5bGU9InN0cm9rZTojMTgxODE4O3N0cm9rZS13aWR0aDowLjU7Ii8+PHRleHQgZmlsbD0iIzAwMDAwMCIgZm9udC1mYW1pbHk9InNhbnMtc2VyaWYiIGZvbnQtc2l6ZT0iMTQiIGxlbmd0aEFkanVzdD0ic3BhY2luZyIgdGV4dExlbmd0aD0iNTYiIHg9IjEwNi4wODMzIiB5PSIxMTkuMjI3NyI+JiMzMTk5NTsmIzMyNDc5OyYjMzE2NDk7JiMyOTcwMjs8L3RleHQ+PC9nPjwhLS1lbnRpdHkgPz8/Py0tPjxnIGlkPSJlbGVtXyYjMzY4Mjc7JiMzNjEzNTsmIzIwODM3OyYjMjQyMTE7Ij48ZWxsaXBzZSBjeD0iMTQ4NSIgY3k9Ijg2LjM5IiBmaWxsPSIjRjFGMUYxIiByeD0iOCIgcnk9IjgiIHN0eWxlPSJzdHJva2U6IzE4MTgxODtzdHJva2Utd2lkdGg6MC41OyIvPjxwYXRoIGQ9Ik0xNDg1LDk0LjM5IEwxNDg1LDEyMS4zOSBNMTQ3MiwxMDIuMzkgTDE0OTgsMTAyLjM5IE0xNDg1LDEyMS4zOSBMMTQ3MiwxMzYuMzkgTTE0ODUsMTIxLjM5IEwxNDk4LDEzNi4zOSAiIGZpbGw9Im5vbmUiIHN0eWxlPSJzdHJva2U6IzE4MTgxODtzdHJva2Utd2lkdGg6MC41OyIvPjx0ZXh0IGZpbGw9IiMwMDAwMDAiIGZvbnQtZmFtaWx5PSJzYW5zLXNlcmlmIiBmb250LXNpemU9IjE0IiBsZW5ndGhBZGp1c3Q9InNwYWNpbmciIHRleHRMZW5ndGg9IjU2IiB4PSIxNDU3IiB5PSIxNTEuMTI0NCI+JiMzNjgyNzsmIzM2MTM1OyYjMjA4Mzc7JiMyNDIxMTs8L3RleHQ+PC9nPjwhLS1lbnRpdHkgPz8/Py0tPjxnIGlkPSJlbGVtXyYjMzY4NjQ7JiMzNjEzNTsmIzIwOTg2OyYjMjQyMTE7Ij48ZWxsaXBzZSBjeD0iMTM5NCIgY3k9Ijg2LjM5IiBmaWxsPSIjRjFGMUYxIiByeD0iOCIgcnk9IjgiIHN0eWxlPSJzdHJva2U6IzE4MTgxODtzdHJva2Utd2lkdGg6MC41OyIvPjxwYXRoIGQ9Ik0xMzk0LDk0LjM5IEwxMzk0LDEyMS4zOSBNMTM4MSwxMDIuMzkgTDE0MDcsMTAyLjM5IE0xMzk0LDEyMS4zOSBMMTM4MSwxMzYuMzkgTTEzOTQsMTIxLjM5IEwxNDA3LDEzNi4zOSAiIGZpbGw9Im5vbmUiIHN0eWxlPSJzdHJva2U6IzE4MTgxODtzdHJva2Utd2lkdGg6MC41OyIvPjx0ZXh0IGZpbGw9IiMwMDAwMDAiIGZvbnQtZmFtaWx5PSJzYW5zLXNlcmlmIiBmb250LXNpemU9IjE0IiBsZW5ndGhBZGp1c3Q9InNwYWNpbmciIHRleHRMZW5ndGg9IjU2IiB4PSIxMzY2IiB5PSIxNTEuMTI0NCI+JiMzNjg2NDsmIzM2MTM1OyYjMjA5ODY7JiMyNDIxMTs8L3RleHQ+PC9nPjwhLS1lbnRpdHkgPz8/Pz8/LS0+PGcgaWQ9ImVsZW1fJiMzNjgyNzsmIzM2MTM1OyYjMjEzMzM7JiMyNTQ1NDsmIzI2NTk3OyYjMzU4MTA7Ij48ZWxsaXBzZSBjeD0iMTI4OSIgY3k9Ijg2LjM5IiBmaWxsPSIjRjFGMUYxIiByeD0iOCIgcnk9IjgiIHN0eWxlPSJzdHJva2U6IzE4MTgxODtzdHJva2Utd2lkdGg6MC41OyIvPjxwYXRoIGQ9Ik0xMjg5LDk0LjM5IEwxMjg5LDEyMS4zOSBNMTI3NiwxMDIuMzkgTDEzMDIsMTAyLjM5IE0xMjg5LDEyMS4zOSBMMTI3NiwxMzYuMzkgTTEyODksMTIxLjM5IEwxMzAyLDEzNi4zOSAiIGZpbGw9Im5vbmUiIHN0eWxlPSJzdHJva2U6IzE4MTgxODtzdHJva2Utd2lkdGg6MC41OyIvPjx0ZXh0IGZpbGw9IiMwMDAwMDAiIGZvbnQtZmFtaWx5PSJzYW5zLXNlcmlmIiBmb250LXNpemU9IjE0IiBsZW5ndGhBZGp1c3Q9InNwYWNpbmciIHRleHRMZW5ndGg9Ijg0IiB4PSIxMjQ3IiB5PSIxNTEuMTI0NCI+JiMzNjgyNzsmIzM2MTM1OyYjMjEzMzM7JiMyNTQ1NDsmIzI2NTk3OyYjMzU4MTA7PC90ZXh0PjwvZz48IS0tZW50aXR5ID8/Pz8/Py0tPjxnIGlkPSJlbGVtXyYjMzY4NjQ7JiMzNjEzNTsmIzIxMzMzOyYjMjU0NTQ7JiMyNjU5NzsmIzM1ODEwOyI+PGVsbGlwc2UgY3g9IjExNzAiIGN5PSI4Ni4zOSIgZmlsbD0iI0YxRjFGMSIgcng9IjgiIHJ5PSI4IiBzdHlsZT0ic3Ryb2tlOiMxODE4MTg7c3Ryb2tlLXdpZHRoOjAuNTsiLz48cGF0aCBkPSJNMTE3MCw5NC4zOSBMMTE3MCwxMjEuMzkgTTExNTcsMTAyLjM5IEwxMTgzLDEwMi4zOSBNMTE3MCwxMjEuMzkgTDExNTcsMTM2LjM5IE0xMTcwLDEyMS4zOSBMMTE4MywxMzYuMzkgIiBmaWxsPSJub25lIiBzdHlsZT0ic3Ryb2tlOiMxODE4MTg7c3Ryb2tlLXdpZHRoOjAuNTsiLz48dGV4dCBmaWxsPSIjMDAwMDAwIiBmb250LWZhbWlseT0ic2Fucy1zZXJpZiIgZm9udC1zaXplPSIxNCIgbGVuZ3RoQWRqdXN0PSJzcGFjaW5nIiB0ZXh0TGVuZ3RoPSI4NCIgeD0iMTEyOCIgeT0iMTUxLjEyNDQiPiYjMzY4NjQ7JiMzNjEzNTsmIzIxMzMzOyYjMjU0NTQ7JiMyNjU5NzsmIzM1ODEwOzwvdGV4dD48L2c+PCEtLWVudGl0eSA/Pz8/Pz8tLT48ZyBpZD0iZWxlbV8mIzI0NDAzOyYjMjEwNjk7JiMyNDIxMTsmIzIzMzg0OyYjMjY1OTc7JiMzNTgxMDsiPjxlbGxpcHNlIGN4PSIxMDUxIiBjeT0iODYuMzkiIGZpbGw9IiNGMUYxRjEiIHJ4PSI4IiByeT0iOCIgc3R5bGU9InN0cm9rZTojMTgxODE4O3N0cm9rZS13aWR0aDowLjU7Ii8+PHBhdGggZD0iTTEwNTEsOTQuMzkgTDEwNTEsMTIxLjM5IE0xMDM4LDEwMi4zOSBMMTA2NCwxMDIuMzkgTTEwNTEsMTIxLjM5IEwxMDM4LDEzNi4zOSBNMTA1MSwxMjEuMzkgTDEwNjQsMTM2LjM5ICIgZmlsbD0ibm9uZSIgc3R5bGU9InN0cm9rZTojMTgxODE4O3N0cm9rZS13aWR0aDowLjU7Ii8+PHRleHQgZmlsbD0iIzAwMDAwMCIgZm9udC1mYW1pbHk9InNhbnMtc2VyaWYiIGZvbnQtc2l6ZT0iMTQiIGxlbmd0aEFkanVzdD0ic3BhY2luZyIgdGV4dExlbmd0aD0iODQiIHg9IjEwMDkiIHk9IjE1MS4xMjQ0Ij4mIzI0NDAzOyYjMjEwNjk7JiMyNDIxMTsmIzIzMzg0OyYjMjY1OTc7JiMzNTgxMDs8L3RleHQ+PC9nPjwhLS1lbnRpdHkgPz8/Py0tPjxnIGlkPSJlbGVtXyYjMzgxNDQ7JiMyMTgwNjsmIzIwOTg2OyYjMjQyMTE7Ij48ZWxsaXBzZSBjeD0iMTY1MyIgY3k9Ijg2LjM5IiBmaWxsPSIjRjFGMUYxIiByeD0iOCIgcnk9IjgiIHN0eWxlPSJzdHJva2U6IzE4MTgxODtzdHJva2Utd2lkdGg6MC41OyIvPjxwYXRoIGQ9Ik0xNjUzLDk0LjM5IEwxNjUzLDEyMS4zOSBNMTY0MCwxMDIuMzkgTDE2NjYsMTAyLjM5IE0xNjUzLDEyMS4zOSBMMTY0MCwxMzYuMzkgTTE2NTMsMTIxLjM5IEwxNjY2LDEzNi4zOSAiIGZpbGw9Im5vbmUiIHN0eWxlPSJzdHJva2U6IzE4MTgxODtzdHJva2Utd2lkdGg6MC41OyIvPjx0ZXh0IGZpbGw9IiMwMDAwMDAiIGZvbnQtZmFtaWx5PSJzYW5zLXNlcmlmIiBmb250LXNpemU9IjE0IiBsZW5ndGhBZGp1c3Q9InNwYWNpbmciIHRleHRMZW5ndGg9IjU2IiB4PSIxNjI1IiB5PSIxNTEuMTI0NCI+JiMzODE0NDsmIzIxODA2OyYjMjA5ODY7JiMyNDIxMTs8L3RleHQ+PC9nPjwhLS1lbnRpdHkgPz8/Py0tPjxnIGlkPSJlbGVtXyYjMjE4MzA7JiMyMTY5NzsmIzI1MjUzOyYjMjU0Mzk7Ij48ZWxsaXBzZSBjeD0iMTk3MiIgY3k9Ijg2LjM5IiBmaWxsPSIjRjFGMUYxIiByeD0iOCIgcnk9IjgiIHN0eWxlPSJzdHJva2U6IzE4MTgxODtzdHJva2Utd2lkdGg6MC41OyIvPjxwYXRoIGQ9Ik0xOTcyLDk0LjM5IEwxOTcyLDEyMS4zOSBNMTk1OSwxMDIuMzkgTDE5ODUsMTAyLjM5IE0xOTcyLDEyMS4zOSBMMTk1OSwxMzYuMzkgTTE5NzIsMTIxLjM5IEwxOTg1LDEzNi4zOSAiIGZpbGw9Im5vbmUiIHN0eWxlPSJzdHJva2U6IzE4MTgxODtzdHJva2Utd2lkdGg6MC41OyIvPjx0ZXh0IGZpbGw9IiMwMDAwMDAiIGZvbnQtZmFtaWx5PSJzYW5zLXNlcmlmIiBmb250LXNpemU9IjE0IiBsZW5ndGhBZGp1c3Q9InNwYWNpbmciIHRleHRMZW5ndGg9IjU2IiB4PSIxOTQ0IiB5PSIxNTEuMTI0NCI+JiMyMTgzMDsmIzIxNjk3OyYjMjUyNTM7JiMyNTQzOTs8L3RleHQ+PC9nPjwhLS1lbnRpdHkgPz8/Py0tPjxnIGlkPSJlbGVtXyYjMjM0NTg7JiMyNTE0MzsmIzM2ODY0OyYjMzYxMzU7Ij48ZWxsaXBzZSBjeD0iOTQ2IiBjeT0iODYuMzkiIGZpbGw9IiNGMUYxRjEiIHJ4PSI4IiByeT0iOCIgc3R5bGU9InN0cm9rZTojMTgxODE4O3N0cm9rZS13aWR0aDowLjU7Ii8+PHBhdGggZD0iTTk0Niw5NC4zOSBMOTQ2LDEyMS4zOSBNOTMzLDEwMi4zOSBMOTU5LDEwMi4zOSBNOTQ2LDEyMS4zOSBMOTMzLDEzNi4zOSBNOTQ2LDEyMS4zOSBMOTU5LDEzNi4zOSAiIGZpbGw9Im5vbmUiIHN0eWxlPSJzdHJva2U6IzE4MTgxODtzdHJva2Utd2lkdGg6MC41OyIvPjx0ZXh0IGZpbGw9IiMwMDAwMDAiIGZvbnQtZmFtaWx5PSJzYW5zLXNlcmlmIiBmb250LXNpemU9IjE0IiBsZW5ndGhBZGp1c3Q9InNwYWNpbmciIHRleHRMZW5ndGg9IjU2IiB4PSI5MTgiIHk9IjE1MS4xMjQ0Ij4mIzIzNDU4OyYjMjUxNDM7JiMzNjg2NDsmIzM2MTM1OzwvdGV4dD48L2c+PCEtLWVudGl0eSA/Pz8/Pz8tLT48ZyBpZD0iZWxlbV8mIzM4MTQ0OyYjMjE4MDY7JiMyMTMzMzsmIzI1NDU0OyYjMjY1OTc7JiMzNTgxMDsiPjxlbGxpcHNlIGN4PSI4NDEiIGN5PSI4Ni4zOSIgZmlsbD0iI0YxRjFGMSIgcng9IjgiIHJ5PSI4IiBzdHlsZT0ic3Ryb2tlOiMxODE4MTg7c3Ryb2tlLXdpZHRoOjAuNTsiLz48cGF0aCBkPSJNODQxLDk0LjM5IEw4NDEsMTIxLjM5IE04MjgsMTAyLjM5IEw4NTQsMTAyLjM5IE04NDEsMTIxLjM5IEw4MjgsMTM2LjM5IE04NDEsMTIxLjM5IEw4NTQsMTM2LjM5ICIgZmlsbD0ibm9uZSIgc3R5bGU9InN0cm9rZTojMTgxODE4O3N0cm9rZS13aWR0aDowLjU7Ii8+PHRleHQgZmlsbD0iIzAwMDAwMCIgZm9udC1mYW1pbHk9InNhbnMtc2VyaWYiIGZvbnQtc2l6ZT0iMTQiIGxlbmd0aEFkanVzdD0ic3BhY2luZyIgdGV4dExlbmd0aD0iODQiIHg9Ijc5OSIgeT0iMTUxLjEyNDQiPiYjMzgxNDQ7JiMyMTgwNjsmIzIxMzMzOyYjMjU0NTQ7JiMyNjU5NzsmIzM1ODEwOzwvdGV4dD48L2c+PCEtLWxpbmsgPz8/IHRvID8/Pz8tLT48ZyBpZD0ibGlua18mIzMxNjQ5OyYjMjk3MDI7JiMyMTU5MjtfJiMzNjgyNzsmIzM2MTM1OyYjMzE2NDk7JiMyOTcwMjsiPjxwYXRoIGQ9Ik00OC4xNCw3OS4wMiBDNTcuMzEsNjYuNzggNjkuMjQsNTQuNTUgODMuNSw0Ny44OSBDMTcxLjg5LDYuNjEgNDMwLjM0LDE1LjkgNTIyLjUsNDcuODkgQzU1My40MSw1OC42MiA1NzcuNTQwMyw4MS4yNDI4IDU5Mi41NjAzLDk3LjY2MjggIiBmaWxsPSJub25lIiBpZD0iJiMzMTY0OTsmIzI5NzAyOyYjMjE1OTI7LXRvLSYjMzY4Mjc7JiMzNjEzNTsmIzMxNjQ5OyYjMjk3MDI7IiBzdHlsZT0ic3Ryb2tlOiMxODE4MTg7c3Ryb2tlLXdpZHRoOjEuMDsiLz48cG9seWdvbiBmaWxsPSIjMTgxODE4IiBwb2ludHM9IjU5Ni42MSwxMDIuMDksNTkzLjQ4NjksOTIuNzQ5NCw1OTMuMjM1Miw5OC40MDA3LDU4Ny41ODQsOTguMTQ5LDU5Ni42MSwxMDIuMDkiIHN0eWxlPSJzdHJva2U6IzE4MTgxODtzdHJva2Utd2lkdGg6MS4wOyIvPjwvZz48IS0tbGluayA/Pz8gdG8gPz8/Py0tPjxnIGlkPSJsaW5rXyYjMzE2NDk7JiMyOTcwMjsmIzIxNTkyO18mIzM4MTQ0OyYjMjE4MDY7JiMzMTY0OTsmIzI5NzAyOyI+PHBhdGggZD0iTTQ4LjE0LDc5LjAyIEM1Ny4zMSw2Ni43OCA2OS4yNCw1NC41NSA4My41LDQ3Ljg5IEMxNjMuOTQsMTAuMzIgMTU5Ny42MywxOC43NyAxNjgxLjUsNDcuODkgQzE3MTIuNDEsNTguNjIgMTczNi41NDAzLDgxLjI0MjggMTc1MS41NjAzLDk3LjY2MjggIiBmaWxsPSJub25lIiBpZD0iJiMzMTY0OTsmIzI5NzAyOyYjMjE1OTI7LXRvLSYjMzgxNDQ7JiMyMTgwNjsmIzMxNjQ5OyYjMjk3MDI7IiBzdHlsZT0ic3Ryb2tlOiMxODE4MTg7c3Ryb2tlLXdpZHRoOjEuMDsiLz48cG9seWdvbiBmaWxsPSIjMTgxODE4IiBwb2ludHM9IjE3NTUuNjEsMTAyLjA5LDE3NTIuNDg2OSw5Mi43NDk0LDE3NTIuMjM1Miw5OC40MDA3LDE3NDYuNTg0LDk4LjE0OSwxNzU1LjYxLDEwMi4wOSIgc3R5bGU9InN0cm9rZTojMTgxODE4O3N0cm9rZS13aWR0aDoxLjA7Ii8+PC9nPjwhLS1saW5rID8/PyB0byA/Pz8/LS0+PGcgaWQ9ImxpbmtfJiMzMTY0OTsmIzI5NzAyOyYjMjE1OTI7XyYjMjQyMTE7JiMyMzM4NDsmIzMxNjQ5OyYjMjk3MDI7Ij48cGF0aCBkPSJNNDguMTQsNzkuMDIgQzU3LjMxLDY2Ljc4IDY5LjI0LDU0LjU1IDgzLjUsNDcuODkgQzEzMS43NSwyNS4zNiAxOTUwLjIsMzAuNDMgMjAwMC41LDQ3Ljg5IEMyMDMxLjQxLDU4LjYyIDIwNTUuNTQwMyw4MS4yNDI4IDIwNzAuNTYwMyw5Ny42NjI4ICIgZmlsbD0ibm9uZSIgaWQ9IiYjMzE2NDk7JiMyOTcwMjsmIzIxNTkyOy10by0mIzI0MjExOyYjMjMzODQ7JiMzMTY0OTsmIzI5NzAyOyIgc3R5bGU9InN0cm9rZTojMTgxODE4O3N0cm9rZS13aWR0aDoxLjA7Ii8+PHBvbHlnb24gZmlsbD0iIzE4MTgxOCIgcG9pbnRzPSIyMDc0LjYxLDEwMi4wOSwyMDcxLjQ4NjksOTIuNzQ5NCwyMDcxLjIzNTIsOTguNDAwNywyMDY1LjU4NCw5OC4xNDksMjA3NC42MSwxMDIuMDkiIHN0eWxlPSJzdHJva2U6IzE4MTgxODtzdHJva2Utd2lkdGg6MS4wOyIvPjwvZz48IS0tbGluayA/Pz8gdG8gPz8/Py0tPjxnIGlkPSJsaW5rXyYjMzE2NDk7JiMyOTcwMjsmIzIxNTkyO18mIzMyNDc5OyYjMzU3NDU7JiMyNTI1MzsmIzM0OTIwOyI+PHBhdGggZD0iTTQ4LjE0LDc5LjAyIEM1Ny4zMSw2Ni43OCA2OS4yNCw1NC41NSA4My41LDQ3Ljg5IEMxMzEuNjIsMjUuNDIgMjcyLjMzLDMwLjQ3IDMyMi41LDQ3Ljg5IEMzNTMuNDEsNTguNjIgMzc3LjU0MDMsODEuMjQyOCAzOTIuNTYwMyw5Ny42NjI4ICIgZmlsbD0ibm9uZSIgaWQ9IiYjMzE2NDk7JiMyOTcwMjsmIzIxNTkyOy10by0mIzMyNDc5OyYjMzU3NDU7JiMyNTI1MzsmIzM0OTIwOyIgc3R5bGU9InN0cm9rZTojMTgxODE4O3N0cm9rZS13aWR0aDoxLjA7Ii8+PHBvbHlnb24gZmlsbD0iIzE4MTgxOCIgcG9pbnRzPSIzOTYuNjEsMTAyLjA5LDM5My40ODY5LDkyLjc0OTQsMzkzLjIzNTIsOTguNDAwNywzODcuNTg0LDk4LjE0OSwzOTYuNjEsMTAyLjA5IiBzdHlsZT0ic3Ryb2tlOiMxODE4MTg7c3Ryb2tlLXdpZHRoOjEuMDsiLz48L2c+PCEtLWxpbmsgPz8/IHRvID8/Pz8tLT48ZyBpZD0ibGlua18mIzMxNjQ5OyYjMjk3MDI7JiMyMTU5MjtfJiMyMjUyMjsmIzMwNzg0OyYjMzYxNjQ7JiMyNjAwOTsiPjxwYXRoIGQ9Ik00OC4xNCw3OS4wMiBDNTcuMzEsNjYuNzggNjkuMjQsNTQuNTUgODMuNSw0Ny44OSBDMTI0LjU3LDI4LjcxIDE0Mi42NywzMy4wMiAxODUuNSw0Ny44OSBDMjE2LjQxLDU4LjYyIDI0MC41NDAzLDgxLjI0MjggMjU1LjU2MDMsOTcuNjYyOCAiIGZpbGw9Im5vbmUiIGlkPSImIzMxNjQ5OyYjMjk3MDI7JiMyMTU5MjstdG8tJiMyMjUyMjsmIzMwNzg0OyYjMzYxNjQ7JiMyNjAwOTsiIHN0eWxlPSJzdHJva2U6IzE4MTgxODtzdHJva2Utd2lkdGg6MS4wOyIvPjxwb2x5Z29uIGZpbGw9IiMxODE4MTgiIHBvaW50cz0iMjU5LjYxLDEwMi4wOSwyNTYuNDg2OSw5Mi43NDk0LDI1Ni4yMzUyLDk4LjQwMDcsMjUwLjU4NCw5OC4xNDksMjU5LjYxLDEwMi4wOSIgc3R5bGU9InN0cm9rZTojMTgxODE4O3N0cm9rZS13aWR0aDoxLjA7Ii8+PC9nPjwhLS1saW5rID8/PyB0byA/Pz8/LS0+PGcgaWQ9ImxpbmtfJiMzMTY0OTsmIzI5NzAyOyYjMjE1OTI7XyYjMzE5OTU7JiMzMjQ3OTsmIzMxNjQ5OyYjMjk3MDI7Ij48cGF0aCBkPSJNNDguMzIsMTE1LjM5IEM1OS44MSwxMTUuMzkgNjUuMywxMTUuMzkgNzYuNzksMTE1LjM5ICIgZmlsbD0ibm9uZSIgaWQ9IiYjMzE2NDk7JiMyOTcwMjsmIzIxNTkyOy10by0mIzMxOTk1OyYjMzI0Nzk7JiMzMTY0OTsmIzI5NzAyOyIgc3R5bGU9InN0cm9rZTojMTgxODE4O3N0cm9rZS13aWR0aDoxLjA7Ii8+PHBvbHlnb24gZmlsbD0iIzE4MTgxOCIgcG9pbnRzPSI4Mi43OSwxMTUuMzksNzMuNzksMTExLjM5LDc3Ljc5LDExNS4zOSw3My43OSwxMTkuMzksODIuNzksMTE1LjM5IiBzdHlsZT0ic3Ryb2tlOiMxODE4MTg7c3Ryb2tlLXdpZHRoOjEuMDsiLz48L2c+PCEtLWxpbmsgPz8gdG8gPz8/Py0tPjxnIGlkPSJsaW5rXyYjMjAwMjc7JiMzMTY0OTtfJiMzNjgyNzsmIzM2MTM1OyYjMzE2NDk7JiMyOTcwMjsiPjxwYXRoIGQ9Ik01MjIuMDYsMTE1LjM5IEM1MzMuNywxMTUuMzkgNTM5LjM0LDExNS4zOSA1NTAuOTcsMTE1LjM5ICIgZmlsbD0ibm9uZSIgaWQ9IiYjMjAwMjc7JiMzMTY0OTstdG8tJiMzNjgyNzsmIzM2MTM1OyYjMzE2NDk7JiMyOTcwMjsiIHN0eWxlPSJzdHJva2U6IzE4MTgxODtzdHJva2Utd2lkdGg6MS4wOyIvPjxwb2x5Z29uIGZpbGw9IiMxODE4MTgiIHBvaW50cz0iNTU2Ljk3LDExNS4zOSw1NDcuOTcsMTExLjM5LDU1MS45NywxMTUuMzksNTQ3Ljk3LDExOS4zOSw1NTYuOTcsMTE1LjM5IiBzdHlsZT0ic3Ryb2tlOiMxODE4MTg7c3Ryb2tlLXdpZHRoOjEuMDsiLz48L2c+PCEtLWxpbmsgPz8gdG8gPz8/Py0tPjxnIGlkPSJsaW5rXyYjMjAwMjc7JiMzMTY0OTtfJiMzNjgyNzsmIzM2MTM1OyYjMjA4Mzc7JiMyNDIxMTsiPjxwYXRoIGQ9Ik01MjIuMSw4NC44IEM1MzAuMjksNzAuODQgNTQyLjA3LDU1LjcxIDU1Ny41LDQ3Ljg5IEM2MDAuMzcsMjYuMTcgMTM3OC40NiwyOC42NSAxNDIyLjUsNDcuODkgQzE0MzcuMTMsNTQuMjggMTQ0NS45ODc4LDYxLjQwNTIgMTQ1Ni4wNzc4LDczLjI5NTIgIiBmaWxsPSJub25lIiBpZD0iJiMyMDAyNzsmIzMxNjQ5Oy10by0mIzM2ODI3OyYjMzYxMzU7JiMyMDgzNzsmIzI0MjExOyIgc3R5bGU9InN0cm9rZTojMTgxODE4O3N0cm9rZS13aWR0aDoxLjA7Ii8+PHBvbHlnb24gZmlsbD0iIzE4MTgxOCIgcG9pbnRzPSIxNDU5Ljk2LDc3Ljg3LDE0NTcuMTg2NSw2OC40MTk3LDE0NTYuNzI0OCw3NC4wNTc3LDE0NTEuMDg2OCw3My41OTYsMTQ1OS45Niw3Ny44NyIgc3R5bGU9InN0cm9rZTojMTgxODE4O3N0cm9rZS13aWR0aDoxLjA7Ii8+PC9nPjwhLS1saW5rID8/IHRvID8/Pz8tLT48ZyBpZD0ibGlua18mIzIwMDI3OyYjMzE2NDk7XyYjMzY4NjQ7JiMzNjEzNTsmIzIwOTg2OyYjMjQyMTE7Ij48cGF0aCBkPSJNNTIyLjEsODQuOCBDNTMwLjI5LDcwLjg0IDU0Mi4wNyw1NS43MSA1NTcuNSw0Ny44OSBDNjM0LjIxLDkuMDIgMTI1Mi42OSwxMy40NiAxMzMxLjUsNDcuODkgQzEzNDYuMTMsNTQuMjggMTM1NC45ODc4LDYxLjQwNTIgMTM2NS4wNzc4LDczLjI5NTIgIiBmaWxsPSJub25lIiBpZD0iJiMyMDAyNzsmIzMxNjQ5Oy10by0mIzM2ODY0OyYjMzYxMzU7JiMyMDk4NjsmIzI0MjExOyIgc3R5bGU9InN0cm9rZTojMTgxODE4O3N0cm9rZS13aWR0aDoxLjA7Ii8+PHBvbHlnb24gZmlsbD0iIzE4MTgxOCIgcG9pbnRzPSIxMzY4Ljk2LDc3Ljg3LDEzNjYuMTg2NSw2OC40MTk3LDEzNjUuNzI0OCw3NC4wNTc3LDEzNjAuMDg2OCw3My41OTYsMTM2OC45Niw3Ny44NyIgc3R5bGU9InN0cm9rZTojMTgxODE4O3N0cm9rZS13aWR0aDoxLjA7Ii8+PC9nPjwhLS1saW5rID8/IHRvID8/Pz8/Py0tPjxnIGlkPSJsaW5rXyYjMjAwMjc7JiMzMTY0OTtfJiMzNjgyNzsmIzM2MTM1OyYjMjEzMzM7JiMyNTQ1NDsmIzI2NTk3OyYjMzU4MTA7Ij48cGF0aCBkPSJNNTIyLjEsODQuOCBDNTMwLjI5LDcwLjg0IDU0Mi4wNyw1NS43MSA1NTcuNSw0Ny44OSBDNjIyLjQyLDE0Ljk5IDExNDQuNDMsMjIuMTUgMTIxMi41LDQ3Ljg5IEMxMjI5LjA3LDU0LjE1IDEyNDAuMDE0Myw2MS42ODI5IDEyNTIuNTE0Myw3My41ODI5ICIgZmlsbD0ibm9uZSIgaWQ9IiYjMjAwMjc7JiMzMTY0OTstdG8tJiMzNjgyNzsmIzM2MTM1OyYjMjEzMzM7JiMyNTQ1NDsmIzI2NTk3OyYjMzU4MTA7IiBzdHlsZT0ic3Ryb2tlOiMxODE4MTg7c3Ryb2tlLXdpZHRoOjEuMDsiLz48cG9seWdvbiBmaWxsPSIjMTgxODE4IiBwb2ludHM9IjEyNTYuODYsNzcuNzIsMTI1My4wOTk2LDY4LjYxNzMsMTI1My4yMzg2LDc0LjI3MjQsMTI0Ny41ODM1LDc0LjQxMTUsMTI1Ni44Niw3Ny43MiIgc3R5bGU9InN0cm9rZTojMTgxODE4O3N0cm9rZS13aWR0aDoxLjA7Ii8+PC9nPjwhLS1saW5rID8/IHRvID8/Pz8/Py0tPjxnIGlkPSJsaW5rXyYjMjAwMjc7JiMzMTY0OTtfJiMzNjg2NDsmIzM2MTM1OyYjMjEzMzM7JiMyNTQ1NDsmIzI2NTk3OyYjMzU4MTA7Ij48cGF0aCBkPSJNNTIyLjEsODQuOCBDNTMwLjI5LDcwLjg0IDU0Mi4wNyw1NS43MSA1NTcuNSw0Ny44OSBDNjEwLjYyLDIwLjk3IDEwMzcuNzksMjYuODMgMTA5My41LDQ3Ljg5IEMxMTEwLjA3LDU0LjE1IDExMjEuMDE0Myw2MS42ODI5IDExMzMuNTE0Myw3My41ODI5ICIgZmlsbD0ibm9uZSIgaWQ9IiYjMjAwMjc7JiMzMTY0OTstdG8tJiMzNjg2NDsmIzM2MTM1OyYjMjEzMzM7JiMyNTQ1NDsmIzI2NTk3OyYjMzU4MTA7IiBzdHlsZT0ic3Ryb2tlOiMxODE4MTg7c3Ryb2tlLXdpZHRoOjEuMDsiLz48cG9seWdvbiBmaWxsPSIjMTgxODE4IiBwb2ludHM9IjExMzcuODYsNzcuNzIsMTEzNC4wOTk2LDY4LjYxNzMsMTEzNC4yMzg2LDc0LjI3MjQsMTEyOC41ODM1LDc0LjQxMTUsMTEzNy44Niw3Ny43MiIgc3R5bGU9InN0cm9rZTojMTgxODE4O3N0cm9rZS13aWR0aDoxLjA7Ii8+PC9nPjwhLS1saW5rID8/IHRvID8/Pz8/Py0tPjxnIGlkPSJsaW5rXyYjMjAwMjc7JiMzMTY0OTtfJiMyNDQwMzsmIzIxMDY5OyYjMjQyMTE7JiMyMzM4NDsmIzI2NTk3OyYjMzU4MTA7Ij48cGF0aCBkPSJNNTIyLjEsODQuOCBDNTMwLjI5LDcwLjg0IDU0Mi4wNyw1NS43MSA1NTcuNSw0Ny44OSBDNjQwLjE2LDYgODg3LjgyLDE1LjEyIDk3NC41LDQ3Ljg5IEM5OTEuMDcsNTQuMTUgMTAwMi4wMTQzLDYxLjY4MjkgMTAxNC41MTQzLDczLjU4MjkgIiBmaWxsPSJub25lIiBpZD0iJiMyMDAyNzsmIzMxNjQ5Oy10by0mIzI0NDAzOyYjMjEwNjk7JiMyNDIxMTsmIzIzMzg0OyYjMjY1OTc7JiMzNTgxMDsiIHN0eWxlPSJzdHJva2U6IzE4MTgxODtzdHJva2Utd2lkdGg6MS4wOyIvPjxwb2x5Z29uIGZpbGw9IiMxODE4MTgiIHBvaW50cz0iMTAxOC44Niw3Ny43MiwxMDE1LjA5OTYsNjguNjE3MywxMDE1LjIzODYsNzQuMjcyNCwxMDA5LjU4MzUsNzQuNDExNSwxMDE4Ljg2LDc3LjcyIiBzdHlsZT0ic3Ryb2tlOiMxODE4MTg7c3Ryb2tlLXdpZHRoOjEuMDsiLz48L2c+PCEtLWxpbmsgPz8/IHRvID8/Pz8tLT48ZyBpZD0ibGlua18mIzM3MzE5OyYjMzYxNDE7JiMyMTU5MjtfJiMzODE0NDsmIzIxODA2OyYjMzE2NDk7JiMyOTcwMjsiPjxwYXRoIGQ9Ik0xNTkwLjE0LDc5LjAyIEMxNTk5LjMxLDY2Ljc4IDE2MTEuMjQsNTQuNTUgMTYyNS41LDQ3Ljg5IEMxNjQ4LjA1LDM3LjM2IDE2NTcuOTksMzkuNzMgMTY4MS41LDQ3Ljg5IEMxNzEyLjQxLDU4LjYyIDE3MzYuNTQwMyw4MS4yNDI4IDE3NTEuNTYwMyw5Ny42NjI4ICIgZmlsbD0ibm9uZSIgaWQ9IiYjMzczMTk7JiMzNjE0MTsmIzIxNTkyOy10by0mIzM4MTQ0OyYjMjE4MDY7JiMzMTY0OTsmIzI5NzAyOyIgc3R5bGU9InN0cm9rZTojMTgxODE4O3N0cm9rZS13aWR0aDoxLjA7Ii8+PHBvbHlnb24gZmlsbD0iIzE4MTgxOCIgcG9pbnRzPSIxNzU1LjYxLDEwMi4wOSwxNzUyLjQ4NjksOTIuNzQ5NCwxNzUyLjIzNTIsOTguNDAwNywxNzQ2LjU4NCw5OC4xNDksMTc1NS42MSwxMDIuMDkiIHN0eWxlPSJzdHJva2U6IzE4MTgxODtzdHJva2Utd2lkdGg6MS4wOyIvPjwvZz48IS0tbGluayA/Pz8gdG8gPz8/Py0tPjxnIGlkPSJsaW5rXyYjMzczMTk7JiMzNjE0MTsmIzIxNTkyO18mIzM4MTQ0OyYjMjE4MDY7JiMyMDk4NjsmIzI0MjExOyI+PHBhdGggZD0iTTE1OTAsMTE1LjM5IEMxNjAxLjY1LDExNS4zOSAxNjA3LjMsMTE1LjM5IDE2MTguOTUsMTE1LjM5ICIgZmlsbD0ibm9uZSIgaWQ9IiYjMzczMTk7JiMzNjE0MTsmIzIxNTkyOy10by0mIzM4MTQ0OyYjMjE4MDY7JiMyMDk4NjsmIzI0MjExOyIgc3R5bGU9InN0cm9rZTojMTgxODE4O3N0cm9rZS13aWR0aDoxLjA7Ii8+PHBvbHlnb24gZmlsbD0iIzE4MTgxOCIgcG9pbnRzPSIxNjI0Ljk1LDExNS4zOSwxNjE1Ljk1LDExMS4zOSwxNjE5Ljk1LDExNS4zOSwxNjE1Ljk1LDExOS4zOSwxNjI0Ljk1LDExNS4zOSIgc3R5bGU9InN0cm9rZTojMTgxODE4O3N0cm9rZS13aWR0aDoxLjA7Ii8+PC9nPjwhLS1saW5rID8/Pz8gdG8gPz8/Py0tPjxnIGlkPSJsaW5rXyYjMzgxNDQ7JiMyMTgwNjsmIzMyNDYzOyYjMjk3MDI7XyYjMjQyMTE7JiMyMzM4NDsmIzMxNjQ5OyYjMjk3MDI7Ij48cGF0aCBkPSJNMTkwNi41NSw3Ny44NSBDMTkxNi44MSw2NS45NyAxOTI5LjczLDU0LjI3IDE5NDQuNSw0Ny44OSBDMTk2Ny4zNSwzOC4wMiAxOTc2Ljk5LDM5LjczIDIwMDAuNSw0Ny44OSBDMjAzMS40MSw1OC42MiAyMDU1LjU0MDMsODEuMjQyOCAyMDcwLjU2MDMsOTcuNjYyOCAiIGZpbGw9Im5vbmUiIGlkPSImIzM4MTQ0OyYjMjE4MDY7JiMzMjQ2MzsmIzI5NzAyOy10by0mIzI0MjExOyYjMjMzODQ7JiMzMTY0OTsmIzI5NzAyOyIgc3R5bGU9InN0cm9rZTojMTgxODE4O3N0cm9rZS13aWR0aDoxLjA7Ii8+PHBvbHlnb24gZmlsbD0iIzE4MTgxOCIgcG9pbnRzPSIyMDc0LjYxLDEwMi4wOSwyMDcxLjQ4NjksOTIuNzQ5NCwyMDcxLjIzNTIsOTguNDAwNywyMDY1LjU4NCw5OC4xNDksMjA3NC42MSwxMDIuMDkiIHN0eWxlPSJzdHJva2U6IzE4MTgxODtzdHJva2Utd2lkdGg6MS4wOyIvPjwvZz48IS0tbGluayA/Pz8/IHRvID8/Pz8tLT48ZyBpZD0ibGlua18mIzM4MTQ0OyYjMjE4MDY7JiMzMjQ2MzsmIzI5NzAyO18mIzIxODMwOyYjMjE2OTc7JiMyNTI1MzsmIzI1NDM5OyI+PHBhdGggZD0iTTE5MDkuMDgsMTE1LjM5IEMxOTIwLjcyLDExNS4zOSAxOTI2LjM1LDExNS4zOSAxOTM3Ljk4LDExNS4zOSAiIGZpbGw9Im5vbmUiIGlkPSImIzM4MTQ0OyYjMjE4MDY7JiMzMjQ2MzsmIzI5NzAyOy10by0mIzIxODMwOyYjMjE2OTc7JiMyNTI1MzsmIzI1NDM5OyIgc3R5bGU9InN0cm9rZTojMTgxODE4O3N0cm9rZS13aWR0aDoxLjA7Ii8+PHBvbHlnb24gZmlsbD0iIzE4MTgxOCIgcG9pbnRzPSIxOTQzLjk4LDExNS4zOSwxOTM0Ljk4LDExMS4zOSwxOTM4Ljk4LDExNS4zOSwxOTM0Ljk4LDExOS4zOSwxOTQzLjk4LDExNS4zOSIgc3R5bGU9InN0cm9rZTojMTgxODE4O3N0cm9rZS13aWR0aDoxLjA7Ii8+PC9nPjwhLS1saW5rID8/Pz8/IHRvID8/Pz8tLT48ZyBpZD0ibGlua18mIzIwMTc5OyYjMjQyMTE7JiMzMTY0OTsmIzI5NzAyOyYjMjE1OTI7XyYjMzY4Mjc7JiMzNjEzNTsmIzIwODM3OyYjMjQyMTE7Ij48cGF0aCBkPSJNNzU4LjExLDc3Ljc4IEM3NjkuNTgsNjUuODggNzgzLjc4LDU0LjIgNzk5LjUsNDcuODkgQzg2My43NCwyMi4xIDEzNTkuMDcsMjAuMTggMTQyMi41LDQ3Ljg5IEMxNDM3LjEzLDU0LjI4IDE0NDUuOTg3OCw2MS40MDUyIDE0NTYuMDc3OCw3My4yOTUyICIgZmlsbD0ibm9uZSIgaWQ9IiYjMjAxNzk7JiMyNDIxMTsmIzMxNjQ5OyYjMjk3MDI7JiMyMTU5MjstdG8tJiMzNjgyNzsmIzM2MTM1OyYjMjA4Mzc7JiMyNDIxMTsiIHN0eWxlPSJzdHJva2U6IzE4MTgxODtzdHJva2Utd2lkdGg6MS4wOyIvPjxwb2x5Z29uIGZpbGw9IiMxODE4MTgiIHBvaW50cz0iMTQ1OS45Niw3Ny44NywxNDU3LjE4NjUsNjguNDE5NywxNDU2LjcyNDgsNzQuMDU3NywxNDUxLjA4NjgsNzMuNTk2LDE0NTkuOTYsNzcuODciIHN0eWxlPSJzdHJva2U6IzE4MTgxODtzdHJva2Utd2lkdGg6MS4wOyIvPjwvZz48IS0tbGluayA/Pz8/PyB0byA/Pz8/LS0+PGcgaWQ9ImxpbmtfJiMyMDE3OTsmIzI0MjExOyYjMzE2NDk7JiMyOTcwMjsmIzIxNTkyO18mIzM2ODY0OyYjMzYxMzU7JiMyMDk4NjsmIzI0MjExOyI+PHBhdGggZD0iTTc1OC4xMSw3Ny43OCBDNzY5LjU4LDY1Ljg4IDc4My43OCw1NC4yIDc5OS41LDQ3Ljg5IEM4NTQuMzUsMjUuODYgMTI3Ny4zMywyNC4yMiAxMzMxLjUsNDcuODkgQzEzNDYuMTMsNTQuMjggMTM1NC45ODc4LDYxLjQwNTIgMTM2NS4wNzc4LDczLjI5NTIgIiBmaWxsPSJub25lIiBpZD0iJiMyMDE3OTsmIzI0MjExOyYjMzE2NDk7JiMyOTcwMjsmIzIxNTkyOy10by0mIzM2ODY0OyYjMzYxMzU7JiMyMDk4NjsmIzI0MjExOyIgc3R5bGU9InN0cm9rZTojMTgxODE4O3N0cm9rZS13aWR0aDoxLjA7Ii8+PHBvbHlnb24gZmlsbD0iIzE4MTgxOCIgcG9pbnRzPSIxMzY4Ljk2LDc3Ljg3LDEzNjYuMTg2NSw2OC40MTk3LDEzNjUuNzI0OCw3NC4wNTc3LDEzNjAuMDg2OCw3My41OTYsMTM2OC45Niw3Ny44NyIgc3R5bGU9InN0cm9rZTojMTgxODE4O3N0cm9rZS13aWR0aDoxLjA7Ii8+PC9nPjwhLS1saW5rID8/Pz8/IHRvID8/Pz8/Py0tPjxnIGlkPSJsaW5rXyYjMjAxNzk7JiMyNDIxMTsmIzMxNjQ5OyYjMjk3MDI7JiMyMTU5MjtfJiMzNjgyNzsmIzM2MTM1OyYjMjEzMzM7JiMyNTQ1NDsmIzI2NTk3OyYjMzU4MTA7Ij48cGF0aCBkPSJNNzU4LjExLDc3Ljc4IEM3NjkuNTgsNjUuODggNzgzLjc4LDU0LjIgNzk5LjUsNDcuODkgQzg4NC42NywxMy42OSAxMTI2LjY1LDE1LjQzIDEyMTIuNSw0Ny44OSBDMTIyOS4wNyw1NC4xNSAxMjQwLjAxNDMsNjEuNjgyOSAxMjUyLjUxNDMsNzMuNTgyOSAiIGZpbGw9Im5vbmUiIGlkPSImIzIwMTc5OyYjMjQyMTE7JiMzMTY0OTsmIzI5NzAyOyYjMjE1OTI7LXRvLSYjMzY4Mjc7JiMzNjEzNTsmIzIxMzMzOyYjMjU0NTQ7JiMyNjU5NzsmIzM1ODEwOyIgc3R5bGU9InN0cm9rZTojMTgxODE4O3N0cm9rZS13aWR0aDoxLjA7Ii8+PHBvbHlnb24gZmlsbD0iIzE4MTgxOCIgcG9pbnRzPSIxMjU2Ljg2LDc3LjcyLDEyNTMuMDk5Niw2OC42MTczLDEyNTMuMjM4Niw3NC4yNzI0LDEyNDcuNTgzNSw3NC40MTE1LDEyNTYuODYsNzcuNzIiIHN0eWxlPSJzdHJva2U6IzE4MTgxODtzdHJva2Utd2lkdGg6MS4wOyIvPjwvZz48IS0tbGluayA/Pz8/PyB0byA/Pz8/Pz8tLT48ZyBpZD0ibGlua18mIzIwMTc5OyYjMjQyMTE7JiMzMTY0OTsmIzI5NzAyOyYjMjE1OTI7XyYjMzY4NjQ7JiMzNjEzNTsmIzIxMzMzOyYjMjU0NTQ7JiMyNjU5NzsmIzM1ODEwOyI+PHBhdGggZD0iTTc1OC4xMSw3Ny43OCBDNzY5LjU4LDY1Ljg4IDc4My43OCw1NC4yIDc5OS41LDQ3Ljg5IEM4NjAuMTMsMjMuNTUgMTAzMi4zOSwyNC43OCAxMDkzLjUsNDcuODkgQzExMTAuMDcsNTQuMTUgMTEyMS4wMTQzLDYxLjY4MjkgMTEzMy41MTQzLDczLjU4MjkgIiBmaWxsPSJub25lIiBpZD0iJiMyMDE3OTsmIzI0MjExOyYjMzE2NDk7JiMyOTcwMjsmIzIxNTkyOy10by0mIzM2ODY0OyYjMzYxMzU7JiMyMTMzMzsmIzI1NDU0OyYjMjY1OTc7JiMzNTgxMDsiIHN0eWxlPSJzdHJva2U6IzE4MTgxODtzdHJva2Utd2lkdGg6MS4wOyIvPjxwb2x5Z29uIGZpbGw9IiMxODE4MTgiIHBvaW50cz0iMTEzNy44Niw3Ny43MiwxMTM0LjA5OTYsNjguNjE3MywxMTM0LjIzODYsNzQuMjcyNCwxMTI4LjU4MzUsNzQuNDExNSwxMTM3Ljg2LDc3LjcyIiBzdHlsZT0ic3Ryb2tlOiMxODE4MTg7c3Ryb2tlLXdpZHRoOjEuMDsiLz48L2c+PCEtLWxpbmsgPz8/Pz8gdG8gPz8/Pz8/LS0+PGcgaWQ9ImxpbmtfJiMyMDE3OTsmIzI0MjExOyYjMzE2NDk7JiMyOTcwMjsmIzIxNTkyO18mIzI0NDAzOyYjMjEwNjk7JiMyNDIxMTsmIzIzMzg0OyYjMjY1OTc7JiMzNTgxMDsiPjxwYXRoIGQ9Ik03NTguMTEsNzcuNzggQzc2OS41OCw2NS44OCA3ODMuNzgsNTQuMiA3OTkuNSw0Ny44OSBDODcxLjY4LDE4LjkxIDkwMS43NSwyMC4zOCA5NzQuNSw0Ny44OSBDOTkxLjA3LDU0LjE1IDEwMDIuMDE0Myw2MS42ODI5IDEwMTQuNTE0Myw3My41ODI5ICIgZmlsbD0ibm9uZSIgaWQ9IiYjMjAxNzk7JiMyNDIxMTsmIzMxNjQ5OyYjMjk3MDI7JiMyMTU5MjstdG8tJiMyNDQwMzsmIzIxMDY5OyYjMjQyMTE7JiMyMzM4NDsmIzI2NTk3OyYjMzU4MTA7IiBzdHlsZT0ic3Ryb2tlOiMxODE4MTg7c3Ryb2tlLXdpZHRoOjEuMDsiLz48cG9seWdvbiBmaWxsPSIjMTgxODE4IiBwb2ludHM9IjEwMTguODYsNzcuNzIsMTAxNS4wOTk2LDY4LjYxNzMsMTAxNS4yMzg2LDc0LjI3MjQsMTAwOS41ODM1LDc0LjQxMTUsMTAxOC44Niw3Ny43MiIgc3R5bGU9InN0cm9rZTojMTgxODE4O3N0cm9rZS13aWR0aDoxLjA7Ii8+PC9nPjwhLS1saW5rID8/Pz8/IHRvID8/Pz8tLT48ZyBpZD0ibGlua18mIzIwMTc5OyYjMjQyMTE7JiMzMTY0OTsmIzI5NzAyOyYjMjE1OTI7XyYjMzgxNDQ7JiMyMTgwNjsmIzIwOTg2OyYjMjQyMTE7Ij48cGF0aCBkPSJNNzU4LjExLDc3Ljc4IEM3NjkuNTgsNjUuODggNzgzLjc4LDU0LjIgNzk5LjUsNDcuODkgQzg4MS4wNiwxNS4xNCAxNTA5Ljk2LDEyLjcgMTU5MC41LDQ3Ljg5IEMxNjA1LjEzLDU0LjI4IDE2MTMuOTg3OCw2MS40MDUyIDE2MjQuMDc3OCw3My4yOTUyICIgZmlsbD0ibm9uZSIgaWQ9IiYjMjAxNzk7JiMyNDIxMTsmIzMxNjQ5OyYjMjk3MDI7JiMyMTU5MjstdG8tJiMzODE0NDsmIzIxODA2OyYjMjA5ODY7JiMyNDIxMTsiIHN0eWxlPSJzdHJva2U6IzE4MTgxODtzdHJva2Utd2lkdGg6MS4wOyIvPjxwb2x5Z29uIGZpbGw9IiMxODE4MTgiIHBvaW50cz0iMTYyNy45Niw3Ny44NywxNjI1LjE4NjUsNjguNDE5NywxNjI0LjcyNDgsNzQuMDU3NywxNjE5LjA4NjgsNzMuNTk2LDE2MjcuOTYsNzcuODciIHN0eWxlPSJzdHJva2U6IzE4MTgxODtzdHJva2Utd2lkdGg6MS4wOyIvPjwvZz48IS0tbGluayA/Pz8/PyB0byA/Pz8/LS0+PGcgaWQ9ImxpbmtfJiMyMDE3OTsmIzI0MjExOyYjMzE2NDk7JiMyOTcwMjsmIzIxNTkyO18mIzIzNDU4OyYjMjUxNDM7JiMzNjg2NDsmIzM2MTM1OyI+PHBhdGggZD0iTTc1OC4xMSw3Ny43OCBDNzY5LjU4LDY1Ljg4IDc4My43OCw1NC4yIDc5OS41LDQ3Ljg5IEM4MzQuMTQsMzMuOTggODQ5LjI5LDMyLjk0IDg4My41LDQ3Ljg5IEM4OTguMTMsNTQuMjggOTA2Ljk4NzgsNjEuNDA1MiA5MTcuMDc3OCw3My4yOTUyICIgZmlsbD0ibm9uZSIgaWQ9IiYjMjAxNzk7JiMyNDIxMTsmIzMxNjQ5OyYjMjk3MDI7JiMyMTU5MjstdG8tJiMyMzQ1ODsmIzI1MTQzOyYjMzY4NjQ7JiMzNjEzNTsiIHN0eWxlPSJzdHJva2U6IzE4MTgxODtzdHJva2Utd2lkdGg6MS4wOyIvPjxwb2x5Z29uIGZpbGw9IiMxODE4MTgiIHBvaW50cz0iOTIwLjk2LDc3Ljg3LDkxOC4xODY1LDY4LjQxOTcsOTE3LjcyNDgsNzQuMDU3Nyw5MTIuMDg2OCw3My41OTYsOTIwLjk2LDc3Ljg3IiBzdHlsZT0ic3Ryb2tlOiMxODE4MTg7c3Ryb2tlLXdpZHRoOjEuMDsiLz48L2c+PCEtLWxpbmsgPz8/Pz8gdG8gPz8/Pz8/LS0+PGcgaWQ9ImxpbmtfJiMyMDE3OTsmIzI0MjExOyYjMzE2NDk7JiMyOTcwMjsmIzIxNTkyO18mIzM4MTQ0OyYjMjE4MDY7JiMyMTMzMzsmIzI1NDU0OyYjMjY1OTc7JiMzNTgxMDsiPjxwYXRoIGQ9Ik03NjQuNDQsMTE1LjM5IEM3NzUuOSwxMTUuMzkgNzgxLjM3LDExNS4zOSA3OTIuODMsMTE1LjM5ICIgZmlsbD0ibm9uZSIgaWQ9IiYjMjAxNzk7JiMyNDIxMTsmIzMxNjQ5OyYjMjk3MDI7JiMyMTU5MjstdG8tJiMzODE0NDsmIzIxODA2OyYjMjEzMzM7JiMyNTQ1NDsmIzI2NTk3OyYjMzU4MTA7IiBzdHlsZT0ic3Ryb2tlOiMxODE4MTg7c3Ryb2tlLXdpZHRoOjEuMDsiLz48cG9seWdvbiBmaWxsPSIjMTgxODE4IiBwb2ludHM9Ijc5OC44MywxMTUuMzksNzg5LjgzLDExMS4zOSw3OTMuODMsMTE1LjM5LDc4OS44MywxMTkuMzksNzk4LjgzLDExNS4zOSIgc3R5bGU9InN0cm9rZTojMTgxODE4O3N0cm9rZS13aWR0aDoxLjA7Ii8+PC9nPjwhLS1TUkM9W1hQQjFKZUQwNDhSbC1uSVJ0WnR1MGh1QkFQajhoRDJtNEVDRDRzdExYQVlYREpLVTI0czhOZWU3UXBHR3V5a3VvX09qdENnc0MwbEw2X0RfeXlfLUVvbXppa29YdUhoN1U2M1BuM2lUNGpvWnBpMG9VdVcyVDZBUHRZN1VSd1lrdXppY0NSN2QtV0dYZS15dkJZd3BmQm1UaVJpUERjWFRBRlp6S0tYZkpRZWw5UV82T3g1U0FDLXNzQzE5bTJQUE1UcDhJUi15S01fNjVYN0I4dDJvOVk3YUt6OHRBQzdZd3I0aWRvZ201VExDQTRlX015bXFpSW5ZYUlOeUVYTjlTenFQdnNLSVlCVHBWbHpHVHh1TWliZFBLSHJreG0xYzAwRzQwR0lhMEdINFdmdmNCa1cxdVRIbHFQRmZDaGo4UE9nNmwwZzJqSnBFZVFvd21vYUZDbndkdWNOVXpkSDN6WGNuZ3gyd2dlQWVWWHB3VlpnOG9lQjBlejZ0cnVCSjRPbEV2MDl2NkNqYlE4LWZUVnFzWHRsT3dHVHR0WmRiZHd3RTVOTkRRY3daUXFlc3Z2VmxyT2JfLTFqUFZXMDBdLS0+PC9nPjwvc3ZnPg==;" vertex="1" parent="1">
            <mxGeometry x="-650" y="330" width="2143" height="159" as="geometry" />
          </mxCell>
        </UserObject>
        <UserObject label="" plantUmlData="{&#xa;  &quot;data&quot;: &quot;@startuml\nleft to right direction\n\nactor \&quot;系统管理员\&quot; as admin\nactor \&quot;主管\&quot; as manager\nactor \&quot;采购员\&quot; as purchaser\nactor \&quot;销售经理\&quot; as salesmanager\nactor \&quot;仓库管理员\&quot; as warehousemanager\n\nrectangle \&quot;进销存管理系统\&quot; {\n    usecase \&quot;用户管理\&quot; as UC1\n    usecase \&quot;进货入库\&quot; as UC2\n    usecase \&quot;退货出库\&quot; as UC3\n    usecase \&quot;进货单据查询\&quot; as UC4\n    usecase \&quot;退货单据查询\&quot; as UC5\n    usecase \&quot;当前库存查询\&quot; as UC6\n    usecase \&quot;销售出库\&quot; as UC7\n    usecase \&quot;商品报损\&quot; as UC8\n    usecase \&quot;客户退货\&quot; as UC9\n    usecase \&quot;销售单据查询\&quot; as UC10\n    \n    admin --&gt; UC1\n    \n    manager --&gt; UC2\n    manager --&gt; UC3\n    manager --&gt; UC4\n    manager --&gt; UC5\n    manager --&gt; UC6\n    \n    purchaser --&gt; UC7\n    \n    salesmanager --&gt; UC8\n    \n    warehousemanager --&gt; UC7\n    warehousemanager --&gt; UC9\n    warehousemanager --&gt; UC10\n}\n\n@enduml&quot;,&#xa;  &quot;format&quot;: &quot;svg&quot;&#xa;}" id="Gx-qXyAOR5Icjh0oVwRY-2">
          <mxCell style="shape=image;noLabel=1;verticalAlign=top;aspect=fixed;imageAspect=0;image=data:image/svg+xml,PD94bWwgdmVyc2lvbj0iMS4wIiBlbmNvZGluZz0idXMtYXNjaWkiIHN0YW5kYWxvbmU9Im5vIj8+PHN2ZyB4bWxucz0iaHR0cDovL3d3dy53My5vcmcvMjAwMC9zdmciIHhtbG5zOnhsaW5rPSJodHRwOi8vd3d3LnczLm9yZy8xOTk5L3hsaW5rIiBjb250ZW50U3R5bGVUeXBlPSJ0ZXh0L2NzcyIgaGVpZ2h0PSI2NjFweCIgcHJlc2VydmVBc3BlY3RSYXRpbz0ibm9uZSIgc3R5bGU9IndpZHRoOjI4NnB4O2hlaWdodDo2NjFweDtiYWNrZ3JvdW5kOiNGRkZGRkY7IiB2ZXJzaW9uPSIxLjEiIHZpZXdCb3g9IjAgMCAyODYgNjYxIiB3aWR0aD0iMjg2cHgiIHpvb21BbmRQYW49Im1hZ25pZnkiPjxkZWZzLz48Zz48IS0tY2x1c3RlciA/Pz8/Pz8/LS0+PGcgaWQ9ImNsdXN0ZXJfJiMzNjgyNzsmIzM4MTQ0OyYjMjMzODQ7JiMzMTY0OTsmIzI5NzAyOyYjMzE5OTU7JiMzMjQ3OTsiPjxyZWN0IGZpbGw9Im5vbmUiIGhlaWdodD0iNjQ4IiByeD0iMi41IiByeT0iMi41IiBzdHlsZT0ic3Ryb2tlOiMxODE4MTg7c3Ryb2tlLXdpZHRoOjEuMDsiIHdpZHRoPSIxNjAiIHg9IjEyMCIgeT0iNyIvPjx0ZXh0IGZpbGw9IiMwMDAwMDAiIGZvbnQtZmFtaWx5PSJzYW5zLXNlcmlmIiBmb250LXNpemU9IjE0IiBmb250LXdlaWdodD0iYm9sZCIgbGVuZ3RoQWRqdXN0PSJzcGFjaW5nIiB0ZXh0TGVuZ3RoPSI5OCIgeD0iMTUxIiB5PSIyMi4yMzQ0Ij4mIzM2ODI3OyYjMzgxNDQ7JiMyMzM4NDsmIzMxNjQ5OyYjMjk3MDI7JiMzMTk5NTsmIzMyNDc5OzwvdGV4dD48L2c+PGcgaWQ9ImVsZW1fVUMxIj48ZWxsaXBzZSBjeD0iMjAwLjA4MzMiIGN5PSI1NC4wOTU2IiBmaWxsPSIjRjFGMUYxIiByeD0iNTEuMDgzMyIgcnk9IjEzLjU5NTYiIHN0eWxlPSJzdHJva2U6IzE4MTgxODtzdHJva2Utd2lkdGg6MC41OyIvPjx0ZXh0IGZpbGw9IiMwMDAwMDAiIGZvbnQtZmFtaWx5PSJzYW5zLXNlcmlmIiBmb250LXNpemU9IjE0IiBsZW5ndGhBZGp1c3Q9InNwYWNpbmciIHRleHRMZW5ndGg9IjU2IiB4PSIxNzIuMDgzMyIgeT0iNTcuODM3NyI+JiMyOTk5MjsmIzI1MTQzOyYjMzE2NDk7JiMyOTcwMjs8L3RleHQ+PC9nPjxnIGlkPSJlbGVtX1VDMiI+PGVsbGlwc2UgY3g9IjIwMC4wODMzIiBjeT0iMTE2LjA5NTYiIGZpbGw9IiNGMUYxRjEiIHJ4PSI1MS4wODMzIiByeT0iMTMuNTk1NiIgc3R5bGU9InN0cm9rZTojMTgxODE4O3N0cm9rZS13aWR0aDowLjU7Ii8+PHRleHQgZmlsbD0iIzAwMDAwMCIgZm9udC1mYW1pbHk9InNhbnMtc2VyaWYiIGZvbnQtc2l6ZT0iMTQiIGxlbmd0aEFkanVzdD0ic3BhY2luZyIgdGV4dExlbmd0aD0iNTYiIHg9IjE3Mi4wODMzIiB5PSIxMTkuODM3NyI+JiMzNjgyNzsmIzM2MTM1OyYjMjA4Mzc7JiMyNDIxMTs8L3RleHQ+PC9nPjxnIGlkPSJlbGVtX1VDMyI+PGVsbGlwc2UgY3g9IjIwMC4wODMzIiBjeT0iMTc4LjA5NTYiIGZpbGw9IiNGMUYxRjEiIHJ4PSI1MS4wODMzIiByeT0iMTMuNTk1NiIgc3R5bGU9InN0cm9rZTojMTgxODE4O3N0cm9rZS13aWR0aDowLjU7Ii8+PHRleHQgZmlsbD0iIzAwMDAwMCIgZm9udC1mYW1pbHk9InNhbnMtc2VyaWYiIGZvbnQtc2l6ZT0iMTQiIGxlbmd0aEFkanVzdD0ic3BhY2luZyIgdGV4dExlbmd0aD0iNTYiIHg9IjE3Mi4wODMzIiB5PSIxODEuODM3NyI+JiMzNjg2NDsmIzM2MTM1OyYjMjA5ODY7JiMyNDIxMTs8L3RleHQ+PC9nPjxnIGlkPSJlbGVtX1VDNCI+PGVsbGlwc2UgY3g9IjE5OS44ODc4IiBjeT0iMjQyLjE3NzYiIGZpbGw9IiNGMUYxRjEiIHJ4PSI2My44ODc4IiByeT0iMTUuMTc3NiIgc3R5bGU9InN0cm9rZTojMTgxODE4O3N0cm9rZS13aWR0aDowLjU7Ii8+PHRleHQgZmlsbD0iIzAwMDAwMCIgZm9udC1mYW1pbHk9InNhbnMtc2VyaWYiIGZvbnQtc2l6ZT0iMTQiIGxlbmd0aEFkanVzdD0ic3BhY2luZyIgdGV4dExlbmd0aD0iODQiIHg9IjE1Ny44ODc4IiB5PSIyNDUuOTE5NyI+JiMzNjgyNzsmIzM2MTM1OyYjMjEzMzM7JiMyNTQ1NDsmIzI2NTk3OyYjMzU4MTA7PC90ZXh0PjwvZz48ZyBpZD0iZWxlbV9VQzUiPjxlbGxpcHNlIGN4PSIxOTkuODg3OCIgY3k9IjMwNy4xNzc2IiBmaWxsPSIjRjFGMUYxIiByeD0iNjMuODg3OCIgcnk9IjE1LjE3NzYiIHN0eWxlPSJzdHJva2U6IzE4MTgxODtzdHJva2Utd2lkdGg6MC41OyIvPjx0ZXh0IGZpbGw9IiMwMDAwMDAiIGZvbnQtZmFtaWx5PSJzYW5zLXNlcmlmIiBmb250LXNpemU9IjE0IiBsZW5ndGhBZGp1c3Q9InNwYWNpbmciIHRleHRMZW5ndGg9Ijg0IiB4PSIxNTcuODg3OCIgeT0iMzEwLjkxOTciPiYjMzY4NjQ7JiMzNjEzNTsmIzIxMzMzOyYjMjU0NTQ7JiMyNjU5NzsmIzM1ODEwOzwvdGV4dD48L2c+PGcgaWQ9ImVsZW1fVUM2Ij48ZWxsaXBzZSBjeD0iMTk5Ljg4NzgiIGN5PSIzNzIuMTc3NiIgZmlsbD0iI0YxRjFGMSIgcng9IjYzLjg4NzgiIHJ5PSIxNS4xNzc2IiBzdHlsZT0ic3Ryb2tlOiMxODE4MTg7c3Ryb2tlLXdpZHRoOjAuNTsiLz48dGV4dCBmaWxsPSIjMDAwMDAwIiBmb250LWZhbWlseT0ic2Fucy1zZXJpZiIgZm9udC1zaXplPSIxNCIgbGVuZ3RoQWRqdXN0PSJzcGFjaW5nIiB0ZXh0TGVuZ3RoPSI4NCIgeD0iMTU3Ljg4NzgiIHk9IjM3NS45MTk3Ij4mIzI0NDAzOyYjMjEwNjk7JiMyNDIxMTsmIzIzMzg0OyYjMjY1OTc7JiMzNTgxMDs8L3RleHQ+PC9nPjxnIGlkPSJlbGVtX1VDNyI+PGVsbGlwc2UgY3g9IjIwMC4wODMzIiBjeT0iNDk4LjA5NTYiIGZpbGw9IiNGMUYxRjEiIHJ4PSI1MS4wODMzIiByeT0iMTMuNTk1NiIgc3R5bGU9InN0cm9rZTojMTgxODE4O3N0cm9rZS13aWR0aDowLjU7Ii8+PHRleHQgZmlsbD0iIzAwMDAwMCIgZm9udC1mYW1pbHk9InNhbnMtc2VyaWYiIGZvbnQtc2l6ZT0iMTQiIGxlbmd0aEFkanVzdD0ic3BhY2luZyIgdGV4dExlbmd0aD0iNTYiIHg9IjE3Mi4wODMzIiB5PSI1MDEuODM3NyI+JiMzODE0NDsmIzIxODA2OyYjMjA5ODY7JiMyNDIxMTs8L3RleHQ+PC9nPjxnIGlkPSJlbGVtX1VDOCI+PGVsbGlwc2UgY3g9IjIwMC4wODMzIiBjeT0iNDM2LjA5NTYiIGZpbGw9IiNGMUYxRjEiIHJ4PSI1MS4wODMzIiByeT0iMTMuNTk1NiIgc3R5bGU9InN0cm9rZTojMTgxODE4O3N0cm9rZS13aWR0aDowLjU7Ii8+PHRleHQgZmlsbD0iIzAwMDAwMCIgZm9udC1mYW1pbHk9InNhbnMtc2VyaWYiIGZvbnQtc2l6ZT0iMTQiIGxlbmd0aEFkanVzdD0ic3BhY2luZyIgdGV4dExlbmd0aD0iNTYiIHg9IjE3Mi4wODMzIiB5PSI0MzkuODM3NyI+JiMyMTgzMDsmIzIxNjk3OyYjMjUyNTM7JiMyNTQzOTs8L3RleHQ+PC9nPjxnIGlkPSJlbGVtX1VDOSI+PGVsbGlwc2UgY3g9IjIwMC4wODMzIiBjeT0iNTYwLjA5NTYiIGZpbGw9IiNGMUYxRjEiIHJ4PSI1MS4wODMzIiByeT0iMTMuNTk1NiIgc3R5bGU9InN0cm9rZTojMTgxODE4O3N0cm9rZS13aWR0aDowLjU7Ii8+PHRleHQgZmlsbD0iIzAwMDAwMCIgZm9udC1mYW1pbHk9InNhbnMtc2VyaWYiIGZvbnQtc2l6ZT0iMTQiIGxlbmd0aEFkanVzdD0ic3BhY2luZyIgdGV4dExlbmd0aD0iNTYiIHg9IjE3Mi4wODMzIiB5PSI1NjMuODM3NyI+JiMyMzQ1ODsmIzI1MTQzOyYjMzY4NjQ7JiMzNjEzNTs8L3RleHQ+PC9nPjxnIGlkPSJlbGVtX1VDMTAiPjxlbGxpcHNlIGN4PSIxOTkuODg3OCIgY3k9IjYyNC4xNzc2IiBmaWxsPSIjRjFGMUYxIiByeD0iNjMuODg3OCIgcnk9IjE1LjE3NzYiIHN0eWxlPSJzdHJva2U6IzE4MTgxODtzdHJva2Utd2lkdGg6MC41OyIvPjx0ZXh0IGZpbGw9IiMwMDAwMDAiIGZvbnQtZmFtaWx5PSJzYW5zLXNlcmlmIiBmb250LXNpemU9IjE0IiBsZW5ndGhBZGp1c3Q9InNwYWNpbmciIHRleHRMZW5ndGg9Ijg0IiB4PSIxNTcuODg3OCIgeT0iNjI3LjkxOTciPiYjMzgxNDQ7JiMyMTgwNjsmIzIxMzMzOyYjMjU0NTQ7JiMyNjU5NzsmIzM1ODEwOzwvdGV4dD48L2c+PCEtLWVudGl0eSBhZG1pbi0tPjxnIGlkPSJlbGVtX2FkbWluIj48ZWxsaXBzZSBjeD0iNDEiIGN5PSIyNSIgZmlsbD0iI0YxRjFGMSIgcng9IjgiIHJ5PSI4IiBzdHlsZT0ic3Ryb2tlOiMxODE4MTg7c3Ryb2tlLXdpZHRoOjAuNTsiLz48cGF0aCBkPSJNNDEsMzMgTDQxLDYwIE0yOCw0MSBMNTQsNDEgTTQxLDYwIEwyOCw3NSBNNDEsNjAgTDU0LDc1ICIgZmlsbD0ibm9uZSIgc3R5bGU9InN0cm9rZTojMTgxODE4O3N0cm9rZS13aWR0aDowLjU7Ii8+PHRleHQgZmlsbD0iIzAwMDAwMCIgZm9udC1mYW1pbHk9InNhbnMtc2VyaWYiIGZvbnQtc2l6ZT0iMTQiIGxlbmd0aEFkanVzdD0ic3BhY2luZyIgdGV4dExlbmd0aD0iNzAiIHg9IjYiIHk9Ijg5LjczNDQiPiYjMzE5OTU7JiMzMjQ3OTsmIzMxNjQ5OyYjMjk3MDI7JiMyMTU5Mjs8L3RleHQ+PC9nPjwhLS1lbnRpdHkgbWFuYWdlci0tPjxnIGlkPSJlbGVtX21hbmFnZXIiPjxlbGxpcHNlIGN4PSI0MSIgY3k9IjIxMyIgZmlsbD0iI0YxRjFGMSIgcng9IjgiIHJ5PSI4IiBzdHlsZT0ic3Ryb2tlOiMxODE4MTg7c3Ryb2tlLXdpZHRoOjAuNTsiLz48cGF0aCBkPSJNNDEsMjIxIEw0MSwyNDggTTI4LDIyOSBMNTQsMjI5IE00MSwyNDggTDI4LDI2MyBNNDEsMjQ4IEw1NCwyNjMgIiBmaWxsPSJub25lIiBzdHlsZT0ic3Ryb2tlOiMxODE4MTg7c3Ryb2tlLXdpZHRoOjAuNTsiLz48dGV4dCBmaWxsPSIjMDAwMDAwIiBmb250LWZhbWlseT0ic2Fucy1zZXJpZiIgZm9udC1zaXplPSIxNCIgbGVuZ3RoQWRqdXN0PSJzcGFjaW5nIiB0ZXh0TGVuZ3RoPSIyOCIgeD0iMjciIHk9IjI3Ny43MzQ0Ij4mIzIwMDI3OyYjMzE2NDk7PC90ZXh0PjwvZz48IS0tZW50aXR5IHB1cmNoYXNlci0tPjxnIGlkPSJlbGVtX3B1cmNoYXNlciI+PGVsbGlwc2UgY3g9IjQxIiBjeT0iNDY5IiBmaWxsPSIjRjFGMUYxIiByeD0iOCIgcnk9IjgiIHN0eWxlPSJzdHJva2U6IzE4MTgxODtzdHJva2Utd2lkdGg6MC41OyIvPjxwYXRoIGQ9Ik00MSw0NzcgTDQxLDUwNCBNMjgsNDg1IEw1NCw0ODUgTTQxLDUwNCBMMjgsNTE5IE00MSw1MDQgTDU0LDUxOSAiIGZpbGw9Im5vbmUiIHN0eWxlPSJzdHJva2U6IzE4MTgxODtzdHJva2Utd2lkdGg6MC41OyIvPjx0ZXh0IGZpbGw9IiMwMDAwMDAiIGZvbnQtZmFtaWx5PSJzYW5zLXNlcmlmIiBmb250LXNpemU9IjE0IiBsZW5ndGhBZGp1c3Q9InNwYWNpbmciIHRleHRMZW5ndGg9IjQyIiB4PSIyMCIgeT0iNTMzLjczNDQiPiYjMzczMTk7JiMzNjE0MTsmIzIxNTkyOzwvdGV4dD48L2c+PCEtLWVudGl0eSBzYWxlc21hbmFnZXItLT48ZyBpZD0iZWxlbV9zYWxlc21hbmFnZXIiPjxlbGxpcHNlIGN4PSI0MSIgY3k9IjM1OSIgZmlsbD0iI0YxRjFGMSIgcng9IjgiIHJ5PSI4IiBzdHlsZT0ic3Ryb2tlOiMxODE4MTg7c3Ryb2tlLXdpZHRoOjAuNTsiLz48cGF0aCBkPSJNNDEsMzY3IEw0MSwzOTQgTTI4LDM3NSBMNTQsMzc1IE00MSwzOTQgTDI4LDQwOSBNNDEsMzk0IEw1NCw0MDkgIiBmaWxsPSJub25lIiBzdHlsZT0ic3Ryb2tlOiMxODE4MTg7c3Ryb2tlLXdpZHRoOjAuNTsiLz48dGV4dCBmaWxsPSIjMDAwMDAwIiBmb250LWZhbWlseT0ic2Fucy1zZXJpZiIgZm9udC1zaXplPSIxNCIgbGVuZ3RoQWRqdXN0PSJzcGFjaW5nIiB0ZXh0TGVuZ3RoPSI1NiIgeD0iMTMiIHk9IjQyMy43MzQ0Ij4mIzM4MTQ0OyYjMjE4MDY7JiMzMjQ2MzsmIzI5NzAyOzwvdGV4dD48L2c+PCEtLWVudGl0eSB3YXJlaG91c2VtYW5hZ2VyLS0+PGcgaWQ9ImVsZW1fd2FyZWhvdXNlbWFuYWdlciI+PGVsbGlwc2UgY3g9IjQxIiBjeT0iNTc5IiBmaWxsPSIjRjFGMUYxIiByeD0iOCIgcnk9IjgiIHN0eWxlPSJzdHJva2U6IzE4MTgxODtzdHJva2Utd2lkdGg6MC41OyIvPjxwYXRoIGQ9Ik00MSw1ODcgTDQxLDYxNCBNMjgsNTk1IEw1NCw1OTUgTTQxLDYxNCBMMjgsNjI5IE00MSw2MTQgTDU0LDYyOSAiIGZpbGw9Im5vbmUiIHN0eWxlPSJzdHJva2U6IzE4MTgxODtzdHJva2Utd2lkdGg6MC41OyIvPjx0ZXh0IGZpbGw9IiMwMDAwMDAiIGZvbnQtZmFtaWx5PSJzYW5zLXNlcmlmIiBmb250LXNpemU9IjE0IiBsZW5ndGhBZGp1c3Q9InNwYWNpbmciIHRleHRMZW5ndGg9IjcwIiB4PSI2IiB5PSI2NDMuNzM0NCI+JiMyMDE3OTsmIzI0MjExOyYjMzE2NDk7JiMyOTcwMjsmIzIxNTkyOzwvdGV4dD48L2c+PCEtLWxpbmsgYWRtaW4gdG8gVUMxLS0+PGcgaWQ9ImxpbmtfYWRtaW5fVUMxIj48cGF0aCBkPSJNNzYuMDcsNTQgQzk3LjM1LDU0IDExOS4xMyw1NCAxNDIuOSw1NCAiIGZpbGw9Im5vbmUiIGlkPSJhZG1pbi10by1VQzEiIHN0eWxlPSJzdHJva2U6IzE4MTgxODtzdHJva2Utd2lkdGg6MS4wOyIvPjxwb2x5Z29uIGZpbGw9IiMxODE4MTgiIHBvaW50cz0iMTQ4LjksNTQsMTM5LjksNTAsMTQzLjksNTQsMTM5LjksNTgsMTQ4LjksNTQiIHN0eWxlPSJzdHJva2U6IzE4MTgxODtzdHJva2Utd2lkdGg6MS4wOyIvPjwvZz48IS0tbGluayBtYW5hZ2VyIHRvIFVDMi0tPjxnIGlkPSJsaW5rX21hbmFnZXJfVUMyIj48cGF0aCBkPSJNNTUuMTQsMjE2LjQ4IEM2Ny4yOCwxOTUuMTkgODcuMTcsMTY1LjQ1IDExMiwxNDcgQzEyNi4xNiwxMzYuNDggMTM4LjQ2MzMsMTMxLjAwNTEgMTU0LjQ1MzMsMTI2LjIwNTEgIiBmaWxsPSJub25lIiBpZD0ibWFuYWdlci10by1VQzIiIHN0eWxlPSJzdHJva2U6IzE4MTgxODtzdHJva2Utd2lkdGg6MS4wOyIvPjxwb2x5Z29uIGZpbGw9IiMxODE4MTgiIHBvaW50cz0iMTYwLjIsMTI0LjQ4LDE1MC40MywxMjMuMjM2NSwxNTUuNDExMSwxMjUuOTE3NiwxNTIuNzMwMSwxMzAuODk4NywxNjAuMiwxMjQuNDgiIHN0eWxlPSJzdHJva2U6IzE4MTgxODtzdHJva2Utd2lkdGg6MS4wOyIvPjwvZz48IS0tbGluayBtYW5hZ2VyIHRvIFVDMy0tPjxnIGlkPSJsaW5rX21hbmFnZXJfVUMzIj48cGF0aCBkPSJNNTUuMjQsMjM1LjI4IEM2OS4xOSwyMjguMzEgOTEuODgsMjE3LjMgMTEyLDIwOSBDMTMwLjA4LDIwMS41NCAxNDUuMDE0NSwxOTYuMDk2NSAxNjEuNjM0NSwxOTAuMzk2NSAiIGZpbGw9Im5vbmUiIGlkPSJtYW5hZ2VyLXRvLVVDMyIgc3R5bGU9InN0cm9rZTojMTgxODE4O3N0cm9rZS13aWR0aDoxLjA7Ii8+PHBvbHlnb24gZmlsbD0iIzE4MTgxOCIgcG9pbnRzPSIxNjcuMzEsMTg4LjQ1LDE1Ny40OTkxLDE4Ny41ODYsMTYyLjU4MDQsMTkwLjA3MjEsMTYwLjA5NDQsMTk1LjE1MzQsMTY3LjMxLDE4OC40NSIgc3R5bGU9InN0cm9rZTojMTgxODE4O3N0cm9rZS13aWR0aDoxLjA7Ii8+PC9nPjwhLS1saW5rIG1hbmFnZXIgdG8gVUM0LS0+PGcgaWQ9ImxpbmtfbWFuYWdlcl9VQzQiPjxwYXRoIGQ9Ik01NS4xMiwyNDIgQzcyLjg4LDI0MiA5OS44LDI0MiAxMjkuNjcsMjQyICIgZmlsbD0ibm9uZSIgaWQ9Im1hbmFnZXItdG8tVUM0IiBzdHlsZT0ic3Ryb2tlOiMxODE4MTg7c3Ryb2tlLXdpZHRoOjEuMDsiLz48cG9seWdvbiBmaWxsPSIjMTgxODE4IiBwb2ludHM9IjEzNS42NywyNDIsMTI2LjY3LDIzOCwxMzAuNjcsMjQyLDEyNi42NywyNDYsMTM1LjY3LDI0MiIgc3R5bGU9InN0cm9rZTojMTgxODE4O3N0cm9rZS13aWR0aDoxLjA7Ii8+PC9nPjwhLS1saW5rIG1hbmFnZXIgdG8gVUM1LS0+PGcgaWQ9ImxpbmtfbWFuYWdlcl9VQzUiPjxwYXRoIGQ9Ik01NS4wNSwyNDguMjggQzY5LjAyLDI1NC45MyA5MS45LDI2NS42MSAxMTIsMjc0IEMxMjkuMTQsMjgxLjE2IDE0Mi44MTQ5LDI4Ni40NjI1IDE1OC44NzQ5LDI5Mi40MjI1ICIgZmlsbD0ibm9uZSIgaWQ9Im1hbmFnZXItdG8tVUM1IiBzdHlsZT0ic3Ryb2tlOiMxODE4MTg7c3Ryb2tlLXdpZHRoOjEuMDsiLz48cG9seWdvbiBmaWxsPSIjMTgxODE4IiBwb2ludHM9IjE2NC41LDI5NC41MSwxNTcuNDU0LDI4Ny42Mjg2LDE1OS44MTI0LDI5Mi43NzA0LDE1NC42NzA2LDI5NS4xMjg4LDE2NC41LDI5NC41MSIgc3R5bGU9InN0cm9rZTojMTgxODE4O3N0cm9rZS13aWR0aDoxLjA7Ii8+PC9nPjwhLS1saW5rIG1hbmFnZXIgdG8gVUM2LS0+PGcgaWQ9ImxpbmtfbWFuYWdlcl9VQzYiPjxwYXRoIGQ9Ik01NS4xMSwyNjcuOTQgQzY3LjIzLDI4OS42IDg3LjExLDMxOS45MiAxMTIsMzM5IEMxMjQuODIsMzQ4LjgzIDEzNS4yMjY5LDM1NC4wNTY1IDE1MC4wNjY5LDM1OS4xNjY1ICIgZmlsbD0ibm9uZSIgaWQ9Im1hbmFnZXItdG8tVUM2IiBzdHlsZT0ic3Ryb2tlOiMxODE4MTg7c3Ryb2tlLXdpZHRoOjEuMDsiLz48cG9seWdvbiBmaWxsPSIjMTgxODE4IiBwb2ludHM9IjE1NS43NCwzNjEuMTIsMTQ4LjUzMjcsMzU0LjQwNzcsMTUxLjAxMjQsMzU5LjQ5MjEsMTQ1LjkyODEsMzYxLjk3MTksMTU1Ljc0LDM2MS4xMiIgc3R5bGU9InN0cm9rZTojMTgxODE4O3N0cm9rZS13aWR0aDoxLjA7Ii8+PC9nPjwhLS1saW5rIHB1cmNoYXNlciB0byBVQzctLT48ZyBpZD0ibGlua19wdXJjaGFzZXJfVUM3Ij48cGF0aCBkPSJNNjIuMiw0OTggQzgzLjk4LDQ5OCAxMTMuNDgsNDk4IDE0Mi44Niw0OTggIiBmaWxsPSJub25lIiBpZD0icHVyY2hhc2VyLXRvLVVDNyIgc3R5bGU9InN0cm9rZTojMTgxODE4O3N0cm9rZS13aWR0aDoxLjA7Ii8+PHBvbHlnb24gZmlsbD0iIzE4MTgxOCIgcG9pbnRzPSIxNDguODYsNDk4LDEzOS44Niw0OTQsMTQzLjg2LDQ5OCwxMzkuODYsNTAyLDE0OC44Niw0OTgiIHN0eWxlPSJzdHJva2U6IzE4MTgxODtzdHJva2Utd2lkdGg6MS4wOyIvPjwvZz48IS0tbGluayBzYWxlc21hbmFnZXIgdG8gVUM4LS0+PGcgaWQ9Imxpbmtfc2FsZXNtYW5hZ2VyX1VDOCI+PHBhdGggZD0iTTY5LjM1LDM5Ni4zNiBDOTYuMjMsNDA0LjU4IDEzMS41NTIxLDQxNS4zNzYgMTYwLjI0MjEsNDI0LjE0NiAiIGZpbGw9Im5vbmUiIGlkPSJzYWxlc21hbmFnZXItdG8tVUM4IiBzdHlsZT0ic3Ryb2tlOiMxODE4MTg7c3Ryb2tlLXdpZHRoOjEuMDsiLz48cG9seWdvbiBmaWxsPSIjMTgxODE4IiBwb2ludHM9IjE2NS45OCw0MjUuOSwxNTguNTQyNSw0MTkuNDQzOCwxNjEuMTk4NCw0MjQuNDM4NCwxNTYuMjAzOCw0MjcuMDk0MywxNjUuOTgsNDI1LjkiIHN0eWxlPSJzdHJva2U6IzE4MTgxODtzdHJva2Utd2lkdGg6MS4wOyIvPjwvZz48IS0tbGluayB3YXJlaG91c2VtYW5hZ2VyIHRvIFVDNy0tPjxnIGlkPSJsaW5rX3dhcmVob3VzZW1hbmFnZXJfVUM3Ij48cGF0aCBkPSJNNjguNjksNTcwLjQyIEM4MC41OCw1NTUuODcgOTUuNiw1NDAuMDggMTEyLDUyOSBDMTI2Ljc1LDUxOS4wNCAxMzkuMzIzNCw1MTMuNjQ4MiAxNTUuMzQzNCw1MDguNzM4MiAiIGZpbGw9Im5vbmUiIGlkPSJ3YXJlaG91c2VtYW5hZ2VyLXRvLVVDNyIgc3R5bGU9InN0cm9rZTojMTgxODE4O3N0cm9rZS13aWR0aDoxLjA7Ii8+PHBvbHlnb24gZmlsbD0iIzE4MTgxOCIgcG9pbnRzPSIxNjEuMDgsNTA2Ljk4LDE1MS4zMDI5LDUwNS43OTI5LDE1Ni4yOTk1LDUwOC40NDUyLDE1My42NDcyLDUxMy40NDE3LDE2MS4wOCw1MDYuOTgiIHN0eWxlPSJzdHJva2U6IzE4MTgxODtzdHJva2Utd2lkdGg6MS4wOyIvPjwvZz48IS0tbGluayB3YXJlaG91c2VtYW5hZ2VyIHRvIFVDOS0tPjxnIGlkPSJsaW5rX3dhcmVob3VzZW1hbmFnZXJfVUM5Ij48cGF0aCBkPSJNNzYuMDcsNTk3LjU4IEMxMDIuNjcsNTg5LjQ1IDEzMy42OTE5LDU3OS45NjMyIDE2MC4wNzE5LDU3MS45MDMyICIgZmlsbD0ibm9uZSIgaWQ9IndhcmVob3VzZW1hbmFnZXItdG8tVUM5IiBzdHlsZT0ic3Ryb2tlOiMxODE4MTg7c3Ryb2tlLXdpZHRoOjEuMDsiLz48cG9seWdvbiBmaWxsPSIjMTgxODE4IiBwb2ludHM9IjE2NS44MSw1NzAuMTUsMTU2LjAzNCw1NjguOTU0NCwxNjEuMDI4Miw1NzEuNjExLDE1OC4zNzE2LDU3Ni42MDUyLDE2NS44MSw1NzAuMTUiIHN0eWxlPSJzdHJva2U6IzE4MTgxODtzdHJva2Utd2lkdGg6MS4wOyIvPjwvZz48IS0tbGluayB3YXJlaG91c2VtYW5hZ2VyIHRvIFVDMTAtLT48ZyBpZD0ibGlua193YXJlaG91c2VtYW5hZ2VyX1VDMTAiPjxwYXRoIGQ9Ik03Ni4wNyw2MTEuNDcgQzk1LjAxLDYxMy40IDExMy4xMjA4LDYxNS4yNTI3IDEzNC45NDA4LDYxNy40NzI3ICIgZmlsbD0ibm9uZSIgaWQ9IndhcmVob3VzZW1hbmFnZXItdG8tVUMxMCIgc3R5bGU9InN0cm9rZTojMTgxODE4O3N0cm9rZS13aWR0aDoxLjA7Ii8+PHBvbHlnb24gZmlsbD0iIzE4MTgxOCIgcG9pbnRzPSIxNDAuOTEsNjE4LjA4LDEzMi4zNjExLDYxMy4xODk2LDEzNS45MzU3LDYxNy41NzM5LDEzMS41NTEzLDYyMS4xNDg1LDE0MC45MSw2MTguMDgiIHN0eWxlPSJzdHJva2U6IzE4MTgxODtzdHJva2Utd2lkdGg6MS4wOyIvPjwvZz48IS0tU1JDPVtWUEJGSWlEMDRDUmxVT2VienVCenRyd3ktMG0tbTlBa1JJMUQ5NGRuODQ4eXNBZUdMRDkybUtFbktGSklVQjJXRDhXbHFxdElqdDJwc0pKVFQ3S0ZVdlpsRHpfQ3BldzZwY25XNnkxS2twcVJUNUdKQVJQZ3c5ODQ1VGltV0huejE1NG1ZX29Odzc2OGR3T29XMVEwZFJ3Z1B5M2NBbzBnWlZVWDNobDhwOUpqUTFJbGJiZEktUzFLVWozUWF5U0U3bGpIeTQyU0FNNTEzTGE1WnF0V3VSTjdieC0wOWtlUDBtamJoOUdxM1ZNa1hlMFNfcG1kbmlqZmNmRXNCdURCMlAxM1NYSkkwZGRMLTJzeV9LbUh3ZGJ3S2tPOXVYRWxObDdEV2ZIZEg4S2RqZXdKNEFEckpiSTU3a3VhVEZybWplWlZ2dW9oMlBxRWtKaEZ1TXlGdHhjYTc3YVVucEtBVmRJb042VkRXakRhWUJ0aHk3dUhrWkQ2ajBnNEZvU0pJWmpaSDVqT3ZSM2h5WDQ1d0tMTjFQSEFueGk5cXVsejcxQ2dXYlhMNEFpOU9kTDFoOTROc2NxVGF2Z3ZqQnprSjZ0YlFkNzlrRm1fbkZQXzhmZEFySXkwXS0tPjwvZz48L3N2Zz4=;" vertex="1" parent="1">
            <mxGeometry x="-470" y="530" width="286" height="661" as="geometry" />
          </mxCell>
        </UserObject>
        <UserObject label="" plantUmlData="{&#xa;  &quot;data&quot;: &quot;@startuml\nstart\n:打开系统首页;\n:输入用户名和密码;\nif (需要验证码?) then (yes)\n    :输入验证码;\n    if (验证码正确?) then (yes)\n        :显示系统主页;\n        stop\n    else (no)\n        :显示错误信息;\n        stop\n    endif\nelse (no)\nendif\nif (用户名密码正确?) then (yes)\n    :显示系统主页;\n    stop\nelse (no)\n    :显示错误信息;\n    stop\nendif\n@enduml&quot;,&#xa;  &quot;format&quot;: &quot;svg&quot;&#xa;}" id="Gx-qXyAOR5Icjh0oVwRY-3">
          <mxCell style="shape=image;noLabel=1;verticalAlign=top;aspect=fixed;imageAspect=0;image=data:image/svg+xml,PD94bWwgdmVyc2lvbj0iMS4wIiBlbmNvZGluZz0idXMtYXNjaWkiIHN0YW5kYWxvbmU9Im5vIj8+PHN2ZyB4bWxucz0iaHR0cDovL3d3dy53My5vcmcvMjAwMC9zdmciIHhtbG5zOnhsaW5rPSJodHRwOi8vd3d3LnczLm9yZy8xOTk5L3hsaW5rIiBjb250ZW50U3R5bGVUeXBlPSJ0ZXh0L2NzcyIgaGVpZ2h0PSI1MjdweCIgcHJlc2VydmVBc3BlY3RSYXRpbz0ibm9uZSIgc3R5bGU9IndpZHRoOjI2OHB4O2hlaWdodDo1MjdweDtiYWNrZ3JvdW5kOiNGRkZGRkY7IiB2ZXJzaW9uPSIxLjEiIHZpZXdCb3g9IjAgMCAyNjggNTI3IiB3aWR0aD0iMjY4cHgiIHpvb21BbmRQYW49Im1hZ25pZnkiPjxkZWZzLz48Zz48ZWxsaXBzZSBjeD0iMTIwLjUiIGN5PSIyMCIgZmlsbD0iIzIyMjIyMiIgcng9IjEwIiByeT0iMTAiIHN0eWxlPSJzdHJva2U6IzIyMjIyMjtzdHJva2Utd2lkdGg6MS4wOyIvPjxyZWN0IGZpbGw9IiNGMUYxRjEiIGhlaWdodD0iMzIuODQzOCIgcng9IjEyLjUiIHJ5PSIxMi41IiBzdHlsZT0ic3Ryb2tlOiMxODE4MTg7c3Ryb2tlLXdpZHRoOjAuNTsiIHdpZHRoPSI5MiIgeD0iNzQuNSIgeT0iNTAiLz48dGV4dCBmaWxsPSIjMDAwMDAwIiBmb250LWZhbWlseT0ic2Fucy1zZXJpZiIgZm9udC1zaXplPSIxMiIgbGVuZ3RoQWRqdXN0PSJzcGFjaW5nIiB0ZXh0TGVuZ3RoPSI3MiIgeD0iODQuNSIgeT0iNzEuMzQzOCI+JiMyNTE3MTsmIzI0MzIwOyYjMzE5OTU7JiMzMjQ3OTsmIzM5MzE4OyYjMzkwMjk7PC90ZXh0PjxyZWN0IGZpbGw9IiNGMUYxRjEiIGhlaWdodD0iMzIuODQzOCIgcng9IjEyLjUiIHJ5PSIxMi41IiBzdHlsZT0ic3Ryb2tlOiMxODE4MTg7c3Ryb2tlLXdpZHRoOjAuNTsiIHdpZHRoPSIxMTYiIHg9IjYyLjUiIHk9IjEwMi44NDM4Ii8+PHRleHQgZmlsbD0iIzAwMDAwMCIgZm9udC1mYW1pbHk9InNhbnMtc2VyaWYiIGZvbnQtc2l6ZT0iMTIiIGxlbmd0aEFkanVzdD0ic3BhY2luZyIgdGV4dExlbmd0aD0iOTYiIHg9IjcyLjUiIHk9IjEyNC4xODc1Ij4mIzM2NzU1OyYjMjA4Mzc7JiMyOTk5MjsmIzI1MTQzOyYjMjE1MTc7JiMyMTY0NDsmIzIzNDk0OyYjMzA3MjE7PC90ZXh0PjxyZWN0IGZpbGw9IiNGMUYxRjEiIGhlaWdodD0iMzIuODQzOCIgcng9IjEyLjUiIHJ5PSIxMi41IiBzdHlsZT0ic3Ryb2tlOiMxODE4MTg7c3Ryb2tlLXdpZHRoOjAuNTsiIHdpZHRoPSI4MCIgeD0iODAuNSIgeT0iMjAzLjY4NzUiLz48dGV4dCBmaWxsPSIjMDAwMDAwIiBmb250LWZhbWlseT0ic2Fucy1zZXJpZiIgZm9udC1zaXplPSIxMiIgbGVuZ3RoQWRqdXN0PSJzcGFjaW5nIiB0ZXh0TGVuZ3RoPSI2MCIgeD0iOTAuNSIgeT0iMjI1LjAzMTMiPiYjMzY3NTU7JiMyMDgzNzsmIzM5NTY0OyYjMzU3Nzc7JiMzMDcyMTs8L3RleHQ+PHBvbHlnb24gZmlsbD0iI0YxRjFGMSIgcG9pbnRzPSI5MCwyNTYuNTMxMywxNTEsMjU2LjUzMTMsMTYzLDI2OC41MzEzLDE1MSwyODAuNTMxMyw5MCwyODAuNTMxMyw3OCwyNjguNTMxMyw5MCwyNTYuNTMxMyIgc3R5bGU9InN0cm9rZTojMTgxODE4O3N0cm9rZS13aWR0aDowLjU7Ii8+PHRleHQgZmlsbD0iIzAwMDAwMCIgZm9udC1mYW1pbHk9InNhbnMtc2VyaWYiIGZvbnQtc2l6ZT0iMTEiIGxlbmd0aEFkanVzdD0ic3BhY2luZyIgdGV4dExlbmd0aD0iNjEiIHg9IjkwIiB5PSIyNzMuMDQzIj4mIzM5NTY0OyYjMzU3Nzc7JiMzMDcyMTsmIzI3NDkxOyYjMzA4MzA7PzwvdGV4dD48dGV4dCBmaWxsPSIjMDAwMDAwIiBmb250LWZhbWlseT0ic2Fucy1zZXJpZiIgZm9udC1zaXplPSIxMSIgbGVuZ3RoQWRqdXN0PSJzcGFjaW5nIiB0ZXh0TGVuZ3RoPSIxOCIgeD0iNjAiIHk9IjI2Ny4xNTYzIj55ZXM8L3RleHQ+PHRleHQgZmlsbD0iIzAwMDAwMCIgZm9udC1mYW1pbHk9InNhbnMtc2VyaWYiIGZvbnQtc2l6ZT0iMTEiIGxlbmd0aEFkanVzdD0ic3BhY2luZyIgdGV4dExlbmd0aD0iMTIiIHg9IjE2MyIgeT0iMjY3LjE1NjMiPm5vPC90ZXh0PjxyZWN0IGZpbGw9IiNGMUYxRjEiIGhlaWdodD0iMzIuODQzOCIgcng9IjEyLjUiIHJ5PSIxMi41IiBzdHlsZT0ic3Ryb2tlOiMxODE4MTg7c3Ryb2tlLXdpZHRoOjAuNTsiIHdpZHRoPSI5MiIgeD0iMTguNSIgeT0iMjkwLjUzMTMiLz48dGV4dCBmaWxsPSIjMDAwMDAwIiBmb250LWZhbWlseT0ic2Fucy1zZXJpZiIgZm9udC1zaXplPSIxMiIgbGVuZ3RoQWRqdXN0PSJzcGFjaW5nIiB0ZXh0TGVuZ3RoPSI3MiIgeD0iMjguNSIgeT0iMzExLjg3NSI+JiMyNjE3NDsmIzMxMDM0OyYjMzE5OTU7JiMzMjQ3OTsmIzIwMDI3OyYjMzkwMjk7PC90ZXh0PjxlbGxpcHNlIGN4PSI2NC41IiBjeT0iMzU0LjM3NSIgZmlsbD0ibm9uZSIgcng9IjExIiByeT0iMTEiIHN0eWxlPSJzdHJva2U6IzIyMjIyMjtzdHJva2Utd2lkdGg6MS4wOyIvPjxlbGxpcHNlIGN4PSI2NC41IiBjeT0iMzU0LjM3NSIgZmlsbD0iIzIyMjIyMiIgcng9IjYiIHJ5PSI2IiBzdHlsZT0ic3Ryb2tlOiMyMjIyMjI7c3Ryb2tlLXdpZHRoOjEuMDsiLz48cmVjdCBmaWxsPSIjRjFGMUYxIiBoZWlnaHQ9IjMyLjg0MzgiIHJ4PSIxMi41IiByeT0iMTIuNSIgc3R5bGU9InN0cm9rZTojMTgxODE4O3N0cm9rZS13aWR0aDowLjU7IiB3aWR0aD0iOTIiIHg9IjEzMC41IiB5PSIyOTAuNTMxMyIvPjx0ZXh0IGZpbGw9IiMwMDAwMDAiIGZvbnQtZmFtaWx5PSJzYW5zLXNlcmlmIiBmb250LXNpemU9IjEyIiBsZW5ndGhBZGp1c3Q9InNwYWNpbmciIHRleHRMZW5ndGg9IjcyIiB4PSIxNDAuNSIgeT0iMzExLjg3NSI+JiMyNjE3NDsmIzMxMDM0OyYjMzgxNjk7JiMzNTgyMzsmIzIwNDQ5OyYjMjQ2ODc7PC90ZXh0PjxlbGxpcHNlIGN4PSIxNzYuNSIgY3k9IjM1NC4zNzUiIGZpbGw9Im5vbmUiIHJ4PSIxMSIgcnk9IjExIiBzdHlsZT0ic3Ryb2tlOiMyMjIyMjI7c3Ryb2tlLXdpZHRoOjEuMDsiLz48ZWxsaXBzZSBjeD0iMTc2LjUiIGN5PSIzNTQuMzc1IiBmaWxsPSIjMjIyMjIyIiByeD0iNiIgcnk9IjYiIHN0eWxlPSJzdHJva2U6IzIyMjIyMjtzdHJva2Utd2lkdGg6MS4wOyIvPjxwb2x5Z29uIGZpbGw9IiNGMUYxRjEiIHBvaW50cz0iOTAsMTU1LjY4NzUsMTUxLDE1NS42ODc1LDE2MywxNjcuNjg3NSwxNTEsMTc5LjY4NzUsOTAsMTc5LjY4NzUsNzgsMTY3LjY4NzUsOTAsMTU1LjY4NzUiIHN0eWxlPSJzdHJva2U6IzE4MTgxODtzdHJva2Utd2lkdGg6MC41OyIvPjx0ZXh0IGZpbGw9IiMwMDAwMDAiIGZvbnQtZmFtaWx5PSJzYW5zLXNlcmlmIiBmb250LXNpemU9IjExIiBsZW5ndGhBZGp1c3Q9InNwYWNpbmciIHRleHRMZW5ndGg9IjE4IiB4PSIxMjQuNSIgeT0iMTkwLjA4NTkiPnllczwvdGV4dD48dGV4dCBmaWxsPSIjMDAwMDAwIiBmb250LWZhbWlseT0ic2Fucy1zZXJpZiIgZm9udC1zaXplPSIxMSIgbGVuZ3RoQWRqdXN0PSJzcGFjaW5nIiB0ZXh0TGVuZ3RoPSI2MSIgeD0iOTAiIHk9IjE3Mi4xOTkyIj4mIzM4NjU2OyYjMzUyMDE7JiMzOTU2NDsmIzM1Nzc3OyYjMzA3MjE7PzwvdGV4dD48dGV4dCBmaWxsPSIjMDAwMDAwIiBmb250LWZhbWlseT0ic2Fucy1zZXJpZiIgZm9udC1zaXplPSIxMSIgbGVuZ3RoQWRqdXN0PSJzcGFjaW5nIiB0ZXh0TGVuZ3RoPSIxMiIgeD0iMTYzIiB5PSIxNjYuMzEyNSI+bm88L3RleHQ+PHBvbHlnb24gZmlsbD0iI0YxRjFGMSIgcG9pbnRzPSI3OSw0MDcuMzc1LDE2Miw0MDcuMzc1LDE3NCw0MTkuMzc1LDE2Miw0MzEuMzc1LDc5LDQzMS4zNzUsNjcsNDE5LjM3NSw3OSw0MDcuMzc1IiBzdHlsZT0ic3Ryb2tlOiMxODE4MTg7c3Ryb2tlLXdpZHRoOjAuNTsiLz48dGV4dCBmaWxsPSIjMDAwMDAwIiBmb250LWZhbWlseT0ic2Fucy1zZXJpZiIgZm9udC1zaXplPSIxMSIgbGVuZ3RoQWRqdXN0PSJzcGFjaW5nIiB0ZXh0TGVuZ3RoPSI4MyIgeD0iNzkiIHk9IjQyMy44ODY3Ij4mIzI5OTkyOyYjMjUxNDM7JiMyMTUxNzsmIzIzNDk0OyYjMzA3MjE7JiMyNzQ5MTsmIzMwODMwOz88L3RleHQ+PHRleHQgZmlsbD0iIzAwMDAwMCIgZm9udC1mYW1pbHk9InNhbnMtc2VyaWYiIGZvbnQtc2l6ZT0iMTEiIGxlbmd0aEFkanVzdD0ic3BhY2luZyIgdGV4dExlbmd0aD0iMTgiIHg9IjQ5IiB5PSI0MTgiPnllczwvdGV4dD48dGV4dCBmaWxsPSIjMDAwMDAwIiBmb250LWZhbWlseT0ic2Fucy1zZXJpZiIgZm9udC1zaXplPSIxMSIgbGVuZ3RoQWRqdXN0PSJzcGFjaW5nIiB0ZXh0TGVuZ3RoPSIxMiIgeD0iMTc0IiB5PSI0MTgiPm5vPC90ZXh0PjxyZWN0IGZpbGw9IiNGMUYxRjEiIGhlaWdodD0iMzIuODQzOCIgcng9IjEyLjUiIHJ5PSIxMi41IiBzdHlsZT0ic3Ryb2tlOiMxODE4MTg7c3Ryb2tlLXdpZHRoOjAuNTsiIHdpZHRoPSI5MiIgeD0iMTEiIHk9IjQ0MS4zNzUiLz48dGV4dCBmaWxsPSIjMDAwMDAwIiBmb250LWZhbWlseT0ic2Fucy1zZXJpZiIgZm9udC1zaXplPSIxMiIgbGVuZ3RoQWRqdXN0PSJzcGFjaW5nIiB0ZXh0TGVuZ3RoPSI3MiIgeD0iMjEiIHk9IjQ2Mi43MTg4Ij4mIzI2MTc0OyYjMzEwMzQ7JiMzMTk5NTsmIzMyNDc5OyYjMjAwMjc7JiMzOTAyOTs8L3RleHQ+PGVsbGlwc2UgY3g9IjU3IiBjeT0iNTA1LjIxODgiIGZpbGw9Im5vbmUiIHJ4PSIxMSIgcnk9IjExIiBzdHlsZT0ic3Ryb2tlOiMyMjIyMjI7c3Ryb2tlLXdpZHRoOjEuMDsiLz48ZWxsaXBzZSBjeD0iNTciIGN5PSI1MDUuMjE4OCIgZmlsbD0iIzIyMjIyMiIgcng9IjYiIHJ5PSI2IiBzdHlsZT0ic3Ryb2tlOiMyMjIyMjI7c3Ryb2tlLXdpZHRoOjEuMDsiLz48cmVjdCBmaWxsPSIjRjFGMUYxIiBoZWlnaHQ9IjMyLjg0MzgiIHJ4PSIxMi41IiByeT0iMTIuNSIgc3R5bGU9InN0cm9rZTojMTgxODE4O3N0cm9rZS13aWR0aDowLjU7IiB3aWR0aD0iOTIiIHg9IjEzOCIgeT0iNDQxLjM3NSIvPjx0ZXh0IGZpbGw9IiMwMDAwMDAiIGZvbnQtZmFtaWx5PSJzYW5zLXNlcmlmIiBmb250LXNpemU9IjEyIiBsZW5ndGhBZGp1c3Q9InNwYWNpbmciIHRleHRMZW5ndGg9IjcyIiB4PSIxNDgiIHk9IjQ2Mi43MTg4Ij4mIzI2MTc0OyYjMzEwMzQ7JiMzODE2OTsmIzM1ODIzOyYjMjA0NDk7JiMyNDY4Nzs8L3RleHQ+PGVsbGlwc2UgY3g9IjE4NCIgY3k9IjUwNS4yMTg4IiBmaWxsPSJub25lIiByeD0iMTEiIHJ5PSIxMSIgc3R5bGU9InN0cm9rZTojMjIyMjIyO3N0cm9rZS13aWR0aDoxLjA7Ii8+PGVsbGlwc2UgY3g9IjE4NCIgY3k9IjUwNS4yMTg4IiBmaWxsPSIjMjIyMjIyIiByeD0iNiIgcnk9IjYiIHN0eWxlPSJzdHJva2U6IzIyMjIyMjtzdHJva2Utd2lkdGg6MS4wOyIvPjxsaW5lIHN0eWxlPSJzdHJva2U6IzE4MTgxODtzdHJva2Utd2lkdGg6MS4wOyIgeDE9IjEyMC41IiB4Mj0iMTIwLjUiIHkxPSIzMCIgeTI9IjUwIi8+PHBvbHlnb24gZmlsbD0iIzE4MTgxOCIgcG9pbnRzPSIxMTYuNSw0MCwxMjAuNSw1MCwxMjQuNSw0MCwxMjAuNSw0NCIgc3R5bGU9InN0cm9rZTojMTgxODE4O3N0cm9rZS13aWR0aDoxLjA7Ii8+PGxpbmUgc3R5bGU9InN0cm9rZTojMTgxODE4O3N0cm9rZS13aWR0aDoxLjA7IiB4MT0iMTIwLjUiIHgyPSIxMjAuNSIgeTE9IjgyLjg0MzgiIHkyPSIxMDIuODQzOCIvPjxwb2x5Z29uIGZpbGw9IiMxODE4MTgiIHBvaW50cz0iMTE2LjUsOTIuODQzOCwxMjAuNSwxMDIuODQzOCwxMjQuNSw5Mi44NDM4LDEyMC41LDk2Ljg0MzgiIHN0eWxlPSJzdHJva2U6IzE4MTgxODtzdHJva2Utd2lkdGg6MS4wOyIvPjxsaW5lIHN0eWxlPSJzdHJva2U6IzE4MTgxODtzdHJva2Utd2lkdGg6MS4wOyIgeDE9IjY0LjUiIHgyPSI2NC41IiB5MT0iMzIzLjM3NSIgeTI9IjM0My4zNzUiLz48cG9seWdvbiBmaWxsPSIjMTgxODE4IiBwb2ludHM9IjYwLjUsMzMzLjM3NSw2NC41LDM0My4zNzUsNjguNSwzMzMuMzc1LDY0LjUsMzM3LjM3NSIgc3R5bGU9InN0cm9rZTojMTgxODE4O3N0cm9rZS13aWR0aDoxLjA7Ii8+PGxpbmUgc3R5bGU9InN0cm9rZTojMTgxODE4O3N0cm9rZS13aWR0aDoxLjA7IiB4MT0iMTc2LjUiIHgyPSIxNzYuNSIgeTE9IjMyMy4zNzUiIHkyPSIzNDMuMzc1Ii8+PHBvbHlnb24gZmlsbD0iIzE4MTgxOCIgcG9pbnRzPSIxNzIuNSwzMzMuMzc1LDE3Ni41LDM0My4zNzUsMTgwLjUsMzMzLjM3NSwxNzYuNSwzMzcuMzc1IiBzdHlsZT0ic3Ryb2tlOiMxODE4MTg7c3Ryb2tlLXdpZHRoOjEuMDsiLz48bGluZSBzdHlsZT0ic3Ryb2tlOiMxODE4MTg7c3Ryb2tlLXdpZHRoOjEuMDsiIHgxPSI3OCIgeDI9IjY0LjUiIHkxPSIyNjguNTMxMyIgeTI9IjI2OC41MzEzIi8+PGxpbmUgc3R5bGU9InN0cm9rZTojMTgxODE4O3N0cm9rZS13aWR0aDoxLjA7IiB4MT0iNjQuNSIgeDI9IjY0LjUiIHkxPSIyNjguNTMxMyIgeTI9IjI5MC41MzEzIi8+PHBvbHlnb24gZmlsbD0iIzE4MTgxOCIgcG9pbnRzPSI2MC41LDI4MC41MzEzLDY0LjUsMjkwLjUzMTMsNjguNSwyODAuNTMxMyw2NC41LDI4NC41MzEzIiBzdHlsZT0ic3Ryb2tlOiMxODE4MTg7c3Ryb2tlLXdpZHRoOjEuMDsiLz48bGluZSBzdHlsZT0ic3Ryb2tlOiMxODE4MTg7c3Ryb2tlLXdpZHRoOjEuMDsiIHgxPSIxNjMiIHgyPSIxNzYuNSIgeTE9IjI2OC41MzEzIiB5Mj0iMjY4LjUzMTMiLz48bGluZSBzdHlsZT0ic3Ryb2tlOiMxODE4MTg7c3Ryb2tlLXdpZHRoOjEuMDsiIHgxPSIxNzYuNSIgeDI9IjE3Ni41IiB5MT0iMjY4LjUzMTMiIHkyPSIyOTAuNTMxMyIvPjxwb2x5Z29uIGZpbGw9IiMxODE4MTgiIHBvaW50cz0iMTcyLjUsMjgwLjUzMTMsMTc2LjUsMjkwLjUzMTMsMTgwLjUsMjgwLjUzMTMsMTc2LjUsMjg0LjUzMTMiIHN0eWxlPSJzdHJva2U6IzE4MTgxODtzdHJva2Utd2lkdGg6MS4wOyIvPjxsaW5lIHN0eWxlPSJzdHJva2U6IzE4MTgxODtzdHJva2Utd2lkdGg6MS4wOyIgeDE9IjEyMC41IiB4Mj0iMTIwLjUiIHkxPSIyMzYuNTMxMyIgeTI9IjI1Ni41MzEzIi8+PHBvbHlnb24gZmlsbD0iIzE4MTgxOCIgcG9pbnRzPSIxMTYuNSwyNDYuNTMxMywxMjAuNSwyNTYuNTMxMywxMjQuNSwyNDYuNTMxMywxMjAuNSwyNTAuNTMxMyIgc3R5bGU9InN0cm9rZTojMTgxODE4O3N0cm9rZS13aWR0aDoxLjA7Ii8+PGxpbmUgc3R5bGU9InN0cm9rZTojMTgxODE4O3N0cm9rZS13aWR0aDoxLjA7IiB4MT0iMTIwLjUiIHgyPSIxMjAuNSIgeTE9IjE3OS42ODc1IiB5Mj0iMjAzLjY4NzUiLz48cG9seWdvbiBmaWxsPSIjMTgxODE4IiBwb2ludHM9IjExNi41LDE5My42ODc1LDEyMC41LDIwMy42ODc1LDEyNC41LDE5My42ODc1LDEyMC41LDE5Ny42ODc1IiBzdHlsZT0ic3Ryb2tlOiMxODE4MTg7c3Ryb2tlLXdpZHRoOjEuMDsiLz48bGluZSBzdHlsZT0ic3Ryb2tlOiMxODE4MTg7c3Ryb2tlLXdpZHRoOjEuMDsiIHgxPSIxNjMiIHgyPSIyNDIuNSIgeTE9IjE2Ny42ODc1IiB5Mj0iMTY3LjY4NzUiLz48cG9seWdvbiBmaWxsPSIjMTgxODE4IiBwb2ludHM9IjIzOC41LDI3NC41MzEzLDI0Mi41LDI4NC41MzEzLDI0Ni41LDI3NC41MzEzLDI0Mi41LDI3OC41MzEzIiBzdHlsZT0ic3Ryb2tlOiMxODE4MTg7c3Ryb2tlLXdpZHRoOjEuMDsiLz48bGluZSBzdHlsZT0ic3Ryb2tlOiMxODE4MTg7c3Ryb2tlLXdpZHRoOjEuMDsiIHgxPSIyNDIuNSIgeDI9IjI0Mi41IiB5MT0iMTY3LjY4NzUiIHkyPSIzODcuMzc1Ii8+PGxpbmUgc3R5bGU9InN0cm9rZTojMTgxODE4O3N0cm9rZS13aWR0aDoxLjA7IiB4MT0iMjQyLjUiIHgyPSIxMjAuNSIgeTE9IjM4Ny4zNzUiIHkyPSIzODcuMzc1Ii8+PGxpbmUgc3R5bGU9InN0cm9rZTojMTgxODE4O3N0cm9rZS13aWR0aDoxLjA7IiB4MT0iMTIwLjUiIHgyPSIxMjAuNSIgeTE9IjM4Ny4zNzUiIHkyPSI0MDcuMzc1Ii8+PHBvbHlnb24gZmlsbD0iIzE4MTgxOCIgcG9pbnRzPSIxMTYuNSwzOTcuMzc1LDEyMC41LDQwNy4zNzUsMTI0LjUsMzk3LjM3NSwxMjAuNSw0MDEuMzc1IiBzdHlsZT0ic3Ryb2tlOiMxODE4MTg7c3Ryb2tlLXdpZHRoOjEuMDsiLz48bGluZSBzdHlsZT0ic3Ryb2tlOiMxODE4MTg7c3Ryb2tlLXdpZHRoOjEuMDsiIHgxPSIxMjAuNSIgeDI9IjEyMC41IiB5MT0iMTM1LjY4NzUiIHkyPSIxNTUuNjg3NSIvPjxwb2x5Z29uIGZpbGw9IiMxODE4MTgiIHBvaW50cz0iMTE2LjUsMTQ1LjY4NzUsMTIwLjUsMTU1LjY4NzUsMTI0LjUsMTQ1LjY4NzUsMTIwLjUsMTQ5LjY4NzUiIHN0eWxlPSJzdHJva2U6IzE4MTgxODtzdHJva2Utd2lkdGg6MS4wOyIvPjxsaW5lIHN0eWxlPSJzdHJva2U6IzE4MTgxODtzdHJva2Utd2lkdGg6MS4wOyIgeDE9IjU3IiB4Mj0iNTciIHkxPSI0NzQuMjE4OCIgeTI9IjQ5NC4yMTg4Ii8+PHBvbHlnb24gZmlsbD0iIzE4MTgxOCIgcG9pbnRzPSI1Myw0ODQuMjE4OCw1Nyw0OTQuMjE4OCw2MSw0ODQuMjE4OCw1Nyw0ODguMjE4OCIgc3R5bGU9InN0cm9rZTojMTgxODE4O3N0cm9rZS13aWR0aDoxLjA7Ii8+PGxpbmUgc3R5bGU9InN0cm9rZTojMTgxODE4O3N0cm9rZS13aWR0aDoxLjA7IiB4MT0iMTg0IiB4Mj0iMTg0IiB5MT0iNDc0LjIxODgiIHkyPSI0OTQuMjE4OCIvPjxwb2x5Z29uIGZpbGw9IiMxODE4MTgiIHBvaW50cz0iMTgwLDQ4NC4yMTg4LDE4NCw0OTQuMjE4OCwxODgsNDg0LjIxODgsMTg0LDQ4OC4yMTg4IiBzdHlsZT0ic3Ryb2tlOiMxODE4MTg7c3Ryb2tlLXdpZHRoOjEuMDsiLz48bGluZSBzdHlsZT0ic3Ryb2tlOiMxODE4MTg7c3Ryb2tlLXdpZHRoOjEuMDsiIHgxPSI2NyIgeDI9IjU3IiB5MT0iNDE5LjM3NSIgeTI9IjQxOS4zNzUiLz48bGluZSBzdHlsZT0ic3Ryb2tlOiMxODE4MTg7c3Ryb2tlLXdpZHRoOjEuMDsiIHgxPSI1NyIgeDI9IjU3IiB5MT0iNDE5LjM3NSIgeTI9IjQ0MS4zNzUiLz48cG9seWdvbiBmaWxsPSIjMTgxODE4IiBwb2ludHM9IjUzLDQzMS4zNzUsNTcsNDQxLjM3NSw2MSw0MzEuMzc1LDU3LDQzNS4zNzUiIHN0eWxlPSJzdHJva2U6IzE4MTgxODtzdHJva2Utd2lkdGg6MS4wOyIvPjxsaW5lIHN0eWxlPSJzdHJva2U6IzE4MTgxODtzdHJva2Utd2lkdGg6MS4wOyIgeDE9IjE3NCIgeDI9IjE4NCIgeTE9IjQxOS4zNzUiIHkyPSI0MTkuMzc1Ii8+PGxpbmUgc3R5bGU9InN0cm9rZTojMTgxODE4O3N0cm9rZS13aWR0aDoxLjA7IiB4MT0iMTg0IiB4Mj0iMTg0IiB5MT0iNDE5LjM3NSIgeTI9IjQ0MS4zNzUiLz48cG9seWdvbiBmaWxsPSIjMTgxODE4IiBwb2ludHM9IjE4MCw0MzEuMzc1LDE4NCw0NDEuMzc1LDE4OCw0MzEuMzc1LDE4NCw0MzUuMzc1IiBzdHlsZT0ic3Ryb2tlOiMxODE4MTg7c3Ryb2tlLXdpZHRoOjEuMDsiLz48IS0tU1JDPVtBb3Y5QjJoWGlkaE1FVmRmZGVSZGN0U190cHRfdlI5ZkJuVGtqVVFvVWg1bHlqRk1mUy1kaDdaTWlWdGZYRHdkYXRnVWhjenhsZzNIY1lpcEpLN1p2UG82NXlpUU53eGdVUjYtNElYZWh3YkdhZjZRZncxSGNMZ2lvUUswMTUzelMxTk1PNTZtTGZaR2l4TUJkb3pTWHdhTGhGdFBaN3RGYi1vMmtFZDlaanJXRHk0YVlxbG8yeTJTcjlwWUwwTURsN21DVkktZHA3b25WbHNKX0drVkRReDdmWXlsOUpFRDJ3NFJtV1N2M2s1Vmk2VG5FSDZkeXkxTWUzZUJmdkNXUWE1TTBtMDBdLS0+PC9nPjwvc3ZnPg==;" vertex="1" parent="1">
            <mxGeometry x="-110" y="1090" width="268" height="527" as="geometry" />
          </mxCell>
        </UserObject>
        <UserObject label="" plantUmlData="{&#xa;  &quot;data&quot;: &quot;@startuml\nstart\n:登录系统;\nif (有进货管理权限?) then (yes)\n    :显示进货管理界面;\n    if (选择入库操作?) then (yes)\n        :执行入库流程;\n    else (no)\n        if (选择出库操作?) then (yes)\n            :执行出库流程;\n        else (no)\n            if (选择进货单据查询?) then (yes)\n                :执行进货单据查询;\n            else (no)\n                if (选择退货单据查询?) then (yes)\n                    :执行退货单据查询;\n                else (no)\n                    :执行当前库存查询;\n                endif\n            endif\n        endif\n    endif\nelse (no)\n    :显示无权限信息;\nendif\nstop\n@enduml&quot;,&#xa;  &quot;format&quot;: &quot;svg&quot;&#xa;}" id="Gx-qXyAOR5Icjh0oVwRY-4">
          <mxCell style="shape=image;noLabel=1;verticalAlign=top;aspect=fixed;imageAspect=0;image=data:image/svg+xml,PD94bWwgdmVyc2lvbj0iMS4wIiBlbmNvZGluZz0idXMtYXNjaWkiIHN0YW5kYWxvbmU9Im5vIj8+PHN2ZyB4bWxucz0iaHR0cDovL3d3dy53My5vcmcvMjAwMC9zdmciIHhtbG5zOnhsaW5rPSJodHRwOi8vd3d3LnczLm9yZy8xOTk5L3hsaW5rIiBjb250ZW50U3R5bGVUeXBlPSJ0ZXh0L2NzcyIgaGVpZ2h0PSI1NjFweCIgcHJlc2VydmVBc3BlY3RSYXRpbz0ibm9uZSIgc3R5bGU9IndpZHRoOjc4MHB4O2hlaWdodDo1NjFweDtiYWNrZ3JvdW5kOiNGRkZGRkY7IiB2ZXJzaW9uPSIxLjEiIHZpZXdCb3g9IjAgMCA3ODAgNTYxIiB3aWR0aD0iNzgwcHgiIHpvb21BbmRQYW49Im1hZ25pZnkiPjxkZWZzLz48Zz48ZWxsaXBzZSBjeD0iNDcyLjY4NzUiIGN5PSIyMCIgZmlsbD0iIzIyMjIyMiIgcng9IjEwIiByeT0iMTAiIHN0eWxlPSJzdHJva2U6IzIyMjIyMjtzdHJva2Utd2lkdGg6MS4wOyIvPjxyZWN0IGZpbGw9IiNGMUYxRjEiIGhlaWdodD0iMzIuODQzOCIgcng9IjEyLjUiIHJ5PSIxMi41IiBzdHlsZT0ic3Ryb2tlOiMxODE4MTg7c3Ryb2tlLXdpZHRoOjAuNTsiIHdpZHRoPSI2OCIgeD0iNDM4LjY4NzUiIHk9IjUwIi8+PHRleHQgZmlsbD0iIzAwMDAwMCIgZm9udC1mYW1pbHk9InNhbnMtc2VyaWYiIGZvbnQtc2l6ZT0iMTIiIGxlbmd0aEFkanVzdD0ic3BhY2luZyIgdGV4dExlbmd0aD0iNDgiIHg9IjQ0OC42ODc1IiB5PSI3MS4zNDM4Ij4mIzMwMzMxOyYjMjQ0MDU7JiMzMTk5NTsmIzMyNDc5OzwvdGV4dD48cG9seWdvbiBmaWxsPSIjRjFGMUYxIiBwb2ludHM9IjQzMS4xODc1LDEwMi44NDM4LDUxNC4xODc1LDEwMi44NDM4LDUyNi4xODc1LDExNC44NDM4LDUxNC4xODc1LDEyNi44NDM4LDQzMS4xODc1LDEyNi44NDM4LDQxOS4xODc1LDExNC44NDM4LDQzMS4xODc1LDEwMi44NDM4IiBzdHlsZT0ic3Ryb2tlOiMxODE4MTg7c3Ryb2tlLXdpZHRoOjAuNTsiLz48dGV4dCBmaWxsPSIjMDAwMDAwIiBmb250LWZhbWlseT0ic2Fucy1zZXJpZiIgZm9udC1zaXplPSIxMSIgbGVuZ3RoQWRqdXN0PSJzcGFjaW5nIiB0ZXh0TGVuZ3RoPSI4MyIgeD0iNDMxLjE4NzUiIHk9IjExOS4zNTU1Ij4mIzI2Mzc3OyYjMzY4Mjc7JiMzNjEzNTsmIzMxNjQ5OyYjMjk3MDI7JiMyNjQzNTsmIzM4NDgwOz88L3RleHQ+PHRleHQgZmlsbD0iIzAwMDAwMCIgZm9udC1mYW1pbHk9InNhbnMtc2VyaWYiIGZvbnQtc2l6ZT0iMTEiIGxlbmd0aEFkanVzdD0ic3BhY2luZyIgdGV4dExlbmd0aD0iMTgiIHg9IjQwMS4xODc1IiB5PSIxMTMuNDY4OCI+eWVzPC90ZXh0Pjx0ZXh0IGZpbGw9IiMwMDAwMDAiIGZvbnQtZmFtaWx5PSJzYW5zLXNlcmlmIiBmb250LXNpemU9IjExIiBsZW5ndGhBZGp1c3Q9InNwYWNpbmciIHRleHRMZW5ndGg9IjEyIiB4PSI1MjYuMTg3NSIgeT0iMTEzLjQ2ODgiPm5vPC90ZXh0PjxyZWN0IGZpbGw9IiNGMUYxRjEiIGhlaWdodD0iMzIuODQzOCIgcng9IjEyLjUiIHJ5PSIxMi41IiBzdHlsZT0ic3Ryb2tlOiMxODE4MTg7c3Ryb2tlLXdpZHRoOjAuNTsiIHdpZHRoPSIxMTYiIHg9IjEyMC4zNzUiIHk9IjEzNi44NDM4Ii8+PHRleHQgZmlsbD0iIzAwMDAwMCIgZm9udC1mYW1pbHk9InNhbnMtc2VyaWYiIGZvbnQtc2l6ZT0iMTIiIGxlbmd0aEFkanVzdD0ic3BhY2luZyIgdGV4dExlbmd0aD0iOTYiIHg9IjEzMC4zNzUiIHk9IjE1OC4xODc1Ij4mIzI2MTc0OyYjMzEwMzQ7JiMzNjgyNzsmIzM2MTM1OyYjMzE2NDk7JiMyOTcwMjsmIzMwMDI4OyYjMzg3NTQ7PC90ZXh0Pjxwb2x5Z29uIGZpbGw9IiNGMUYxRjEiIHBvaW50cz0iMTQyLjM3NSwxODkuNjg3NSwyMTQuMzc1LDE4OS42ODc1LDIyNi4zNzUsMjAxLjY4NzUsMjE0LjM3NSwyMTMuNjg3NSwxNDIuMzc1LDIxMy42ODc1LDEzMC4zNzUsMjAxLjY4NzUsMTQyLjM3NSwxODkuNjg3NSIgc3R5bGU9InN0cm9rZTojMTgxODE4O3N0cm9rZS13aWR0aDowLjU7Ii8+PHRleHQgZmlsbD0iIzAwMDAwMCIgZm9udC1mYW1pbHk9InNhbnMtc2VyaWYiIGZvbnQtc2l6ZT0iMTEiIGxlbmd0aEFkanVzdD0ic3BhY2luZyIgdGV4dExlbmd0aD0iNzIiIHg9IjE0Mi4zNzUiIHk9IjIwNi4xOTkyIj4mIzM2ODczOyYjMjUzMjE7JiMyMDgzNzsmIzI0MjExOyYjMjU4MDU7JiMyMDMxNjs/PC90ZXh0Pjx0ZXh0IGZpbGw9IiMwMDAwMDAiIGZvbnQtZmFtaWx5PSJzYW5zLXNlcmlmIiBmb250LXNpemU9IjExIiBsZW5ndGhBZGp1c3Q9InNwYWNpbmciIHRleHRMZW5ndGg9IjE4IiB4PSIxMTIuMzc1IiB5PSIyMDAuMzEyNSI+eWVzPC90ZXh0Pjx0ZXh0IGZpbGw9IiMwMDAwMDAiIGZvbnQtZmFtaWx5PSJzYW5zLXNlcmlmIiBmb250LXNpemU9IjExIiBsZW5ndGhBZGp1c3Q9InNwYWNpbmciIHRleHRMZW5ndGg9IjEyIiB4PSIyMjYuMzc1IiB5PSIyMDAuMzEyNSI+bm88L3RleHQ+PHJlY3QgZmlsbD0iI0YxRjFGMSIgaGVpZ2h0PSIzMi44NDM4IiByeD0iMTIuNSIgcnk9IjEyLjUiIHN0eWxlPSJzdHJva2U6IzE4MTgxODtzdHJva2Utd2lkdGg6MC41OyIgd2lkdGg9IjkyIiB4PSIxMSIgeT0iMjIzLjY4NzUiLz48dGV4dCBmaWxsPSIjMDAwMDAwIiBmb250LWZhbWlseT0ic2Fucy1zZXJpZiIgZm9udC1zaXplPSIxMiIgbGVuZ3RoQWRqdXN0PSJzcGFjaW5nIiB0ZXh0TGVuZ3RoPSI3MiIgeD0iMjEiIHk9IjI0NS4wMzEzIj4mIzI1MTkxOyYjMzQ4OTI7JiMyMDgzNzsmIzI0MjExOyYjMjc5Njk7JiMzMTI0Mzs8L3RleHQ+PHBvbHlnb24gZmlsbD0iI0YxRjFGMSIgcG9pbnRzPSIyNjMuNzUsMjIzLjY4NzUsMzM1Ljc1LDIyMy42ODc1LDM0Ny43NSwyMzUuNjg3NSwzMzUuNzUsMjQ3LjY4NzUsMjYzLjc1LDI0Ny42ODc1LDI1MS43NSwyMzUuNjg3NSwyNjMuNzUsMjIzLjY4NzUiIHN0eWxlPSJzdHJva2U6IzE4MTgxODtzdHJva2Utd2lkdGg6MC41OyIvPjx0ZXh0IGZpbGw9IiMwMDAwMDAiIGZvbnQtZmFtaWx5PSJzYW5zLXNlcmlmIiBmb250LXNpemU9IjExIiBsZW5ndGhBZGp1c3Q9InNwYWNpbmciIHRleHRMZW5ndGg9IjcyIiB4PSIyNjMuNzUiIHk9IjI0MC4xOTkyIj4mIzM2ODczOyYjMjUzMjE7JiMyMDk4NjsmIzI0MjExOyYjMjU4MDU7JiMyMDMxNjs/PC90ZXh0Pjx0ZXh0IGZpbGw9IiMwMDAwMDAiIGZvbnQtZmFtaWx5PSJzYW5zLXNlcmlmIiBmb250LXNpemU9IjExIiBsZW5ndGhBZGp1c3Q9InNwYWNpbmciIHRleHRMZW5ndGg9IjE4IiB4PSIyMzMuNzUiIHk9IjIzNC4zMTI1Ij55ZXM8L3RleHQ+PHRleHQgZmlsbD0iIzAwMDAwMCIgZm9udC1mYW1pbHk9InNhbnMtc2VyaWYiIGZvbnQtc2l6ZT0iMTEiIGxlbmd0aEFkanVzdD0ic3BhY2luZyIgdGV4dExlbmd0aD0iMTIiIHg9IjM0Ny43NSIgeT0iMjM0LjMxMjUiPm5vPC90ZXh0PjxyZWN0IGZpbGw9IiNGMUYxRjEiIGhlaWdodD0iMzIuODQzOCIgcng9IjEyLjUiIHJ5PSIxMi41IiBzdHlsZT0ic3Ryb2tlOiMxODE4MTg7c3Ryb2tlLXdpZHRoOjAuNTsiIHdpZHRoPSI5MiIgeD0iMTMzIiB5PSIyNTcuNjg3NSIvPjx0ZXh0IGZpbGw9IiMwMDAwMDAiIGZvbnQtZmFtaWx5PSJzYW5zLXNlcmlmIiBmb250LXNpemU9IjEyIiBsZW5ndGhBZGp1c3Q9InNwYWNpbmciIHRleHRMZW5ndGg9IjcyIiB4PSIxNDMiIHk9IjI3OS4wMzEzIj4mIzI1MTkxOyYjMzQ4OTI7JiMyMDk4NjsmIzI0MjExOyYjMjc5Njk7JiMzMTI0Mzs8L3RleHQ+PHBvbHlnb24gZmlsbD0iI0YxRjFGMSIgcG9pbnRzPSIzNzMuNSwyNTcuNjg3NSw0NjcuNSwyNTcuNjg3NSw0NzkuNSwyNjkuNjg3NSw0NjcuNSwyODEuNjg3NSwzNzMuNSwyODEuNjg3NSwzNjEuNSwyNjkuNjg3NSwzNzMuNSwyNTcuNjg3NSIgc3R5bGU9InN0cm9rZTojMTgxODE4O3N0cm9rZS13aWR0aDowLjU7Ii8+PHRleHQgZmlsbD0iIzAwMDAwMCIgZm9udC1mYW1pbHk9InNhbnMtc2VyaWYiIGZvbnQtc2l6ZT0iMTEiIGxlbmd0aEFkanVzdD0ic3BhY2luZyIgdGV4dExlbmd0aD0iOTQiIHg9IjM3My41IiB5PSIyNzQuMTk5MiI+JiMzNjg3MzsmIzI1MzIxOyYjMzY4Mjc7JiMzNjEzNTsmIzIxMzMzOyYjMjU0NTQ7JiMyNjU5NzsmIzM1ODEwOz88L3RleHQ+PHRleHQgZmlsbD0iIzAwMDAwMCIgZm9udC1mYW1pbHk9InNhbnMtc2VyaWYiIGZvbnQtc2l6ZT0iMTEiIGxlbmd0aEFkanVzdD0ic3BhY2luZyIgdGV4dExlbmd0aD0iMTgiIHg9IjM0My41IiB5PSIyNjguMzEyNSI+eWVzPC90ZXh0Pjx0ZXh0IGZpbGw9IiMwMDAwMDAiIGZvbnQtZmFtaWx5PSJzYW5zLXNlcmlmIiBmb250LXNpemU9IjExIiBsZW5ndGhBZGp1c3Q9InNwYWNpbmciIHRleHRMZW5ndGg9IjEyIiB4PSI0NzkuNSIgeT0iMjY4LjMxMjUiPm5vPC90ZXh0PjxyZWN0IGZpbGw9IiNGMUYxRjEiIGhlaWdodD0iMzIuODQzOCIgcng9IjEyLjUiIHJ5PSIxMi41IiBzdHlsZT0ic3Ryb2tlOiMxODE4MTg7c3Ryb2tlLXdpZHRoOjAuNTsiIHdpZHRoPSIxMTYiIHg9IjI1NSIgeT0iMjkxLjY4NzUiLz48dGV4dCBmaWxsPSIjMDAwMDAwIiBmb250LWZhbWlseT0ic2Fucy1zZXJpZiIgZm9udC1zaXplPSIxMiIgbGVuZ3RoQWRqdXN0PSJzcGFjaW5nIiB0ZXh0TGVuZ3RoPSI5NiIgeD0iMjY1IiB5PSIzMTMuMDMxMyI+JiMyNTE5MTsmIzM0ODkyOyYjMzY4Mjc7JiMzNjEzNTsmIzIxMzMzOyYjMjU0NTQ7JiMyNjU5NzsmIzM1ODEwOzwvdGV4dD48cG9seWdvbiBmaWxsPSIjRjFGMUYxIiBwb2ludHM9IjQ4MSwyOTEuNjg3NSw1NzUsMjkxLjY4NzUsNTg3LDMwMy42ODc1LDU3NSwzMTUuNjg3NSw0ODEsMzE1LjY4NzUsNDY5LDMwMy42ODc1LDQ4MSwyOTEuNjg3NSIgc3R5bGU9InN0cm9rZTojMTgxODE4O3N0cm9rZS13aWR0aDowLjU7Ii8+PHRleHQgZmlsbD0iIzAwMDAwMCIgZm9udC1mYW1pbHk9InNhbnMtc2VyaWYiIGZvbnQtc2l6ZT0iMTEiIGxlbmd0aEFkanVzdD0ic3BhY2luZyIgdGV4dExlbmd0aD0iOTQiIHg9IjQ4MSIgeT0iMzA4LjE5OTIiPiYjMzY4NzM7JiMyNTMyMTsmIzM2ODY0OyYjMzYxMzU7JiMyMTMzMzsmIzI1NDU0OyYjMjY1OTc7JiMzNTgxMDs/PC90ZXh0Pjx0ZXh0IGZpbGw9IiMwMDAwMDAiIGZvbnQtZmFtaWx5PSJzYW5zLXNlcmlmIiBmb250LXNpemU9IjExIiBsZW5ndGhBZGp1c3Q9InNwYWNpbmciIHRleHRMZW5ndGg9IjE4IiB4PSI0NTEiIHk9IjMwMi4zMTI1Ij55ZXM8L3RleHQ+PHRleHQgZmlsbD0iIzAwMDAwMCIgZm9udC1mYW1pbHk9InNhbnMtc2VyaWYiIGZvbnQtc2l6ZT0iMTEiIGxlbmd0aEFkanVzdD0ic3BhY2luZyIgdGV4dExlbmd0aD0iMTIiIHg9IjU4NyIgeT0iMzAyLjMxMjUiPm5vPC90ZXh0PjxyZWN0IGZpbGw9IiNGMUYxRjEiIGhlaWdodD0iMzIuODQzOCIgcng9IjEyLjUiIHJ5PSIxMi41IiBzdHlsZT0ic3Ryb2tlOiMxODE4MTg7c3Ryb2tlLXdpZHRoOjAuNTsiIHdpZHRoPSIxMTYiIHg9IjQwMSIgeT0iMzI1LjY4NzUiLz48dGV4dCBmaWxsPSIjMDAwMDAwIiBmb250LWZhbWlseT0ic2Fucy1zZXJpZiIgZm9udC1zaXplPSIxMiIgbGVuZ3RoQWRqdXN0PSJzcGFjaW5nIiB0ZXh0TGVuZ3RoPSI5NiIgeD0iNDExIiB5PSIzNDcuMDMxMyI+JiMyNTE5MTsmIzM0ODkyOyYjMzY4NjQ7JiMzNjEzNTsmIzIxMzMzOyYjMjU0NTQ7JiMyNjU5NzsmIzM1ODEwOzwvdGV4dD48cmVjdCBmaWxsPSIjRjFGMUYxIiBoZWlnaHQ9IjMyLjg0MzgiIHJ4PSIxMi41IiByeT0iMTIuNSIgc3R5bGU9InN0cm9rZTojMTgxODE4O3N0cm9rZS13aWR0aDowLjU7IiB3aWR0aD0iMTE2IiB4PSI1MzkiIHk9IjMyNS42ODc1Ii8+PHRleHQgZmlsbD0iIzAwMDAwMCIgZm9udC1mYW1pbHk9InNhbnMtc2VyaWYiIGZvbnQtc2l6ZT0iMTIiIGxlbmd0aEFkanVzdD0ic3BhY2luZyIgdGV4dExlbmd0aD0iOTYiIHg9IjU0OSIgeT0iMzQ3LjAzMTMiPiYjMjUxOTE7JiMzNDg5MjsmIzI0NDAzOyYjMjEwNjk7JiMyNDIxMTsmIzIzMzg0OyYjMjY1OTc7JiMzNTgxMDs8L3RleHQ+PHBvbHlnb24gZmlsbD0iI0YxRjFGMSIgcG9pbnRzPSI1MjgsMzY0LjUzMTMsNTQwLDM3Ni41MzEzLDUyOCwzODguNTMxMyw1MTYsMzc2LjUzMTMsNTI4LDM2NC41MzEzIiBzdHlsZT0ic3Ryb2tlOiMxODE4MTg7c3Ryb2tlLXdpZHRoOjAuNTsiLz48cG9seWdvbiBmaWxsPSIjRjFGMUYxIiBwb2ludHM9IjQyMC41LDM5NC41MzEzLDQzMi41LDQwNi41MzEzLDQyMC41LDQxOC41MzEzLDQwOC41LDQwNi41MzEzLDQyMC41LDM5NC41MzEzIiBzdHlsZT0ic3Ryb2tlOiMxODE4MTg7c3Ryb2tlLXdpZHRoOjAuNTsiLz48cG9seWdvbiBmaWxsPSIjRjFGMUYxIiBwb2ludHM9IjI5OS43NSw0MjQuNTMxMywzMTEuNzUsNDM2LjUzMTMsMjk5Ljc1LDQ0OC41MzEzLDI4Ny43NSw0MzYuNTMxMywyOTkuNzUsNDI0LjUzMTMiIHN0eWxlPSJzdHJva2U6IzE4MTgxODtzdHJva2Utd2lkdGg6MC41OyIvPjxwb2x5Z29uIGZpbGw9IiNGMUYxRjEiIHBvaW50cz0iMTc4LjM3NSw0NTQuNTMxMywxOTAuMzc1LDQ2Ni41MzEzLDE3OC4zNzUsNDc4LjUzMTMsMTY2LjM3NSw0NjYuNTMxMywxNzguMzc1LDQ1NC41MzEzIiBzdHlsZT0ic3Ryb2tlOiMxODE4MTg7c3Ryb2tlLXdpZHRoOjAuNTsiLz48cmVjdCBmaWxsPSIjRjFGMUYxIiBoZWlnaHQ9IjMyLjg0MzgiIHJ4PSIxMi41IiByeT0iMTIuNSIgc3R5bGU9InN0cm9rZTojMTgxODE4O3N0cm9rZS13aWR0aDowLjU7IiB3aWR0aD0iMTA0IiB4PSI2NjUiIHk9IjEzNi44NDM4Ii8+PHRleHQgZmlsbD0iIzAwMDAwMCIgZm9udC1mYW1pbHk9InNhbnMtc2VyaWYiIGZvbnQtc2l6ZT0iMTIiIGxlbmd0aEFkanVzdD0ic3BhY2luZyIgdGV4dExlbmd0aD0iODQiIHg9IjY3NSIgeT0iMTU4LjE4NzUiPiYjMjYxNzQ7JiMzMTAzNDsmIzI2MDgwOyYjMjY0MzU7JiMzODQ4MDsmIzIwNDQ5OyYjMjQ2ODc7PC90ZXh0Pjxwb2x5Z29uIGZpbGw9IiNGMUYxRjEiIHBvaW50cz0iNDcyLjY4NzUsNDg0LjUzMTMsNDg0LjY4NzUsNDk2LjUzMTMsNDcyLjY4NzUsNTA4LjUzMTMsNDYwLjY4NzUsNDk2LjUzMTMsNDcyLjY4NzUsNDg0LjUzMTMiIHN0eWxlPSJzdHJva2U6IzE4MTgxODtzdHJva2Utd2lkdGg6MC41OyIvPjxlbGxpcHNlIGN4PSI0NzIuNjg3NSIgY3k9IjUzOS41MzEzIiBmaWxsPSJub25lIiByeD0iMTEiIHJ5PSIxMSIgc3R5bGU9InN0cm9rZTojMjIyMjIyO3N0cm9rZS13aWR0aDoxLjA7Ii8+PGVsbGlwc2UgY3g9IjQ3Mi42ODc1IiBjeT0iNTM5LjUzMTMiIGZpbGw9IiMyMjIyMjIiIHJ4PSI2IiByeT0iNiIgc3R5bGU9InN0cm9rZTojMjIyMjIyO3N0cm9rZS13aWR0aDoxLjA7Ii8+PGxpbmUgc3R5bGU9InN0cm9rZTojMTgxODE4O3N0cm9rZS13aWR0aDoxLjA7IiB4MT0iNDcyLjY4NzUiIHgyPSI0NzIuNjg3NSIgeTE9IjMwIiB5Mj0iNTAiLz48cG9seWdvbiBmaWxsPSIjMTgxODE4IiBwb2ludHM9IjQ2OC42ODc1LDQwLDQ3Mi42ODc1LDUwLDQ3Ni42ODc1LDQwLDQ3Mi42ODc1LDQ0IiBzdHlsZT0ic3Ryb2tlOiMxODE4MTg7c3Ryb2tlLXdpZHRoOjEuMDsiLz48bGluZSBzdHlsZT0ic3Ryb2tlOiMxODE4MTg7c3Ryb2tlLXdpZHRoOjEuMDsiIHgxPSI0NjkiIHgyPSI0NTkiIHkxPSIzMDMuNjg3NSIgeTI9IjMwMy42ODc1Ii8+PGxpbmUgc3R5bGU9InN0cm9rZTojMTgxODE4O3N0cm9rZS13aWR0aDoxLjA7IiB4MT0iNDU5IiB4Mj0iNDU5IiB5MT0iMzAzLjY4NzUiIHkyPSIzMjUuNjg3NSIvPjxwb2x5Z29uIGZpbGw9IiMxODE4MTgiIHBvaW50cz0iNDU1LDMxNS42ODc1LDQ1OSwzMjUuNjg3NSw0NjMsMzE1LjY4NzUsNDU5LDMxOS42ODc1IiBzdHlsZT0ic3Ryb2tlOiMxODE4MTg7c3Ryb2tlLXdpZHRoOjEuMDsiLz48bGluZSBzdHlsZT0ic3Ryb2tlOiMxODE4MTg7c3Ryb2tlLXdpZHRoOjEuMDsiIHgxPSI1ODciIHgyPSI1OTciIHkxPSIzMDMuNjg3NSIgeTI9IjMwMy42ODc1Ii8+PGxpbmUgc3R5bGU9InN0cm9rZTojMTgxODE4O3N0cm9rZS13aWR0aDoxLjA7IiB4MT0iNTk3IiB4Mj0iNTk3IiB5MT0iMzAzLjY4NzUiIHkyPSIzMjUuNjg3NSIvPjxwb2x5Z29uIGZpbGw9IiMxODE4MTgiIHBvaW50cz0iNTkzLDMxNS42ODc1LDU5NywzMjUuNjg3NSw2MDEsMzE1LjY4NzUsNTk3LDMxOS42ODc1IiBzdHlsZT0ic3Ryb2tlOiMxODE4MTg7c3Ryb2tlLXdpZHRoOjEuMDsiLz48bGluZSBzdHlsZT0ic3Ryb2tlOiMxODE4MTg7c3Ryb2tlLXdpZHRoOjEuMDsiIHgxPSI0NTkiIHgyPSI0NTkiIHkxPSIzNTguNTMxMyIgeTI9IjM3Ni41MzEzIi8+PGxpbmUgc3R5bGU9InN0cm9rZTojMTgxODE4O3N0cm9rZS13aWR0aDoxLjA7IiB4MT0iNDU5IiB4Mj0iNTE2IiB5MT0iMzc2LjUzMTMiIHkyPSIzNzYuNTMxMyIvPjxwb2x5Z29uIGZpbGw9IiMxODE4MTgiIHBvaW50cz0iNTA2LDM3Mi41MzEzLDUxNiwzNzYuNTMxMyw1MDYsMzgwLjUzMTMsNTEwLDM3Ni41MzEzIiBzdHlsZT0ic3Ryb2tlOiMxODE4MTg7c3Ryb2tlLXdpZHRoOjEuMDsiLz48bGluZSBzdHlsZT0ic3Ryb2tlOiMxODE4MTg7c3Ryb2tlLXdpZHRoOjEuMDsiIHgxPSI1OTciIHgyPSI1OTciIHkxPSIzNTguNTMxMyIgeTI9IjM3Ni41MzEzIi8+PGxpbmUgc3R5bGU9InN0cm9rZTojMTgxODE4O3N0cm9rZS13aWR0aDoxLjA7IiB4MT0iNTk3IiB4Mj0iNTQwIiB5MT0iMzc2LjUzMTMiIHkyPSIzNzYuNTMxMyIvPjxwb2x5Z29uIGZpbGw9IiMxODE4MTgiIHBvaW50cz0iNTUwLDM3Mi41MzEzLDU0MCwzNzYuNTMxMyw1NTAsMzgwLjUzMTMsNTQ2LDM3Ni41MzEzIiBzdHlsZT0ic3Ryb2tlOiMxODE4MTg7c3Ryb2tlLXdpZHRoOjEuMDsiLz48bGluZSBzdHlsZT0ic3Ryb2tlOiMxODE4MTg7c3Ryb2tlLXdpZHRoOjEuMDsiIHgxPSIzNjEuNSIgeDI9IjMxMyIgeTE9IjI2OS42ODc1IiB5Mj0iMjY5LjY4NzUiLz48bGluZSBzdHlsZT0ic3Ryb2tlOiMxODE4MTg7c3Ryb2tlLXdpZHRoOjEuMDsiIHgxPSIzMTMiIHgyPSIzMTMiIHkxPSIyNjkuNjg3NSIgeTI9IjI5MS42ODc1Ii8+PHBvbHlnb24gZmlsbD0iIzE4MTgxOCIgcG9pbnRzPSIzMDksMjgxLjY4NzUsMzEzLDI5MS42ODc1LDMxNywyODEuNjg3NSwzMTMsMjg1LjY4NzUiIHN0eWxlPSJzdHJva2U6IzE4MTgxODtzdHJva2Utd2lkdGg6MS4wOyIvPjxsaW5lIHN0eWxlPSJzdHJva2U6IzE4MTgxODtzdHJva2Utd2lkdGg6MS4wOyIgeDE9IjQ3OS41IiB4Mj0iNTI4IiB5MT0iMjY5LjY4NzUiIHkyPSIyNjkuNjg3NSIvPjxsaW5lIHN0eWxlPSJzdHJva2U6IzE4MTgxODtzdHJva2Utd2lkdGg6MS4wOyIgeDE9IjUyOCIgeDI9IjUyOCIgeTE9IjI2OS42ODc1IiB5Mj0iMjkxLjY4NzUiLz48cG9seWdvbiBmaWxsPSIjMTgxODE4IiBwb2ludHM9IjUyNCwyODEuNjg3NSw1MjgsMjkxLjY4NzUsNTMyLDI4MS42ODc1LDUyOCwyODUuNjg3NSIgc3R5bGU9InN0cm9rZTojMTgxODE4O3N0cm9rZS13aWR0aDoxLjA7Ii8+PGxpbmUgc3R5bGU9InN0cm9rZTojMTgxODE4O3N0cm9rZS13aWR0aDoxLjA7IiB4MT0iMzEzIiB4Mj0iMzEzIiB5MT0iMzI0LjUzMTMiIHkyPSI0MDYuNTMxMyIvPjxsaW5lIHN0eWxlPSJzdHJva2U6IzE4MTgxODtzdHJva2Utd2lkdGg6MS4wOyIgeDE9IjMxMyIgeDI9IjQwOC41IiB5MT0iNDA2LjUzMTMiIHkyPSI0MDYuNTMxMyIvPjxwb2x5Z29uIGZpbGw9IiMxODE4MTgiIHBvaW50cz0iMzk4LjUsNDAyLjUzMTMsNDA4LjUsNDA2LjUzMTMsMzk4LjUsNDEwLjUzMTMsNDAyLjUsNDA2LjUzMTMiIHN0eWxlPSJzdHJva2U6IzE4MTgxODtzdHJva2Utd2lkdGg6MS4wOyIvPjxsaW5lIHN0eWxlPSJzdHJva2U6IzE4MTgxODtzdHJva2Utd2lkdGg6MS4wOyIgeDE9IjUyOCIgeDI9IjUyOCIgeTE9IjM4OC41MzEzIiB5Mj0iNDA2LjUzMTMiLz48bGluZSBzdHlsZT0ic3Ryb2tlOiMxODE4MTg7c3Ryb2tlLXdpZHRoOjEuMDsiIHgxPSI1MjgiIHgyPSI0MzIuNSIgeTE9IjQwNi41MzEzIiB5Mj0iNDA2LjUzMTMiLz48cG9seWdvbiBmaWxsPSIjMTgxODE4IiBwb2ludHM9IjQ0Mi41LDQwMi41MzEzLDQzMi41LDQwNi41MzEzLDQ0Mi41LDQxMC41MzEzLDQzOC41LDQwNi41MzEzIiBzdHlsZT0ic3Ryb2tlOiMxODE4MTg7c3Ryb2tlLXdpZHRoOjEuMDsiLz48bGluZSBzdHlsZT0ic3Ryb2tlOiMxODE4MTg7c3Ryb2tlLXdpZHRoOjEuMDsiIHgxPSIyNTEuNzUiIHgyPSIxNzkiIHkxPSIyMzUuNjg3NSIgeTI9IjIzNS42ODc1Ii8+PGxpbmUgc3R5bGU9InN0cm9rZTojMTgxODE4O3N0cm9rZS13aWR0aDoxLjA7IiB4MT0iMTc5IiB4Mj0iMTc5IiB5MT0iMjM1LjY4NzUiIHkyPSIyNTcuNjg3NSIvPjxwb2x5Z29uIGZpbGw9IiMxODE4MTgiIHBvaW50cz0iMTc1LDI0Ny42ODc1LDE3OSwyNTcuNjg3NSwxODMsMjQ3LjY4NzUsMTc5LDI1MS42ODc1IiBzdHlsZT0ic3Ryb2tlOiMxODE4MTg7c3Ryb2tlLXdpZHRoOjEuMDsiLz48bGluZSBzdHlsZT0ic3Ryb2tlOiMxODE4MTg7c3Ryb2tlLXdpZHRoOjEuMDsiIHgxPSIzNDcuNzUiIHgyPSI0MjAuNSIgeTE9IjIzNS42ODc1IiB5Mj0iMjM1LjY4NzUiLz48bGluZSBzdHlsZT0ic3Ryb2tlOiMxODE4MTg7c3Ryb2tlLXdpZHRoOjEuMDsiIHgxPSI0MjAuNSIgeDI9IjQyMC41IiB5MT0iMjM1LjY4NzUiIHkyPSIyNTcuNjg3NSIvPjxwb2x5Z29uIGZpbGw9IiMxODE4MTgiIHBvaW50cz0iNDE2LjUsMjQ3LjY4NzUsNDIwLjUsMjU3LjY4NzUsNDI0LjUsMjQ3LjY4NzUsNDIwLjUsMjUxLjY4NzUiIHN0eWxlPSJzdHJva2U6IzE4MTgxODtzdHJva2Utd2lkdGg6MS4wOyIvPjxsaW5lIHN0eWxlPSJzdHJva2U6IzE4MTgxODtzdHJva2Utd2lkdGg6MS4wOyIgeDE9IjE3OSIgeDI9IjE3OSIgeTE9IjI5MC41MzEzIiB5Mj0iNDM2LjUzMTMiLz48bGluZSBzdHlsZT0ic3Ryb2tlOiMxODE4MTg7c3Ryb2tlLXdpZHRoOjEuMDsiIHgxPSIxNzkiIHgyPSIyODcuNzUiIHkxPSI0MzYuNTMxMyIgeTI9IjQzNi41MzEzIi8+PHBvbHlnb24gZmlsbD0iIzE4MTgxOCIgcG9pbnRzPSIyNzcuNzUsNDMyLjUzMTMsMjg3Ljc1LDQzNi41MzEzLDI3Ny43NSw0NDAuNTMxMywyODEuNzUsNDM2LjUzMTMiIHN0eWxlPSJzdHJva2U6IzE4MTgxODtzdHJva2Utd2lkdGg6MS4wOyIvPjxsaW5lIHN0eWxlPSJzdHJva2U6IzE4MTgxODtzdHJva2Utd2lkdGg6MS4wOyIgeDE9IjQyMC41IiB4Mj0iNDIwLjUiIHkxPSI0MTguNTMxMyIgeTI9IjQzNi41MzEzIi8+PGxpbmUgc3R5bGU9InN0cm9rZTojMTgxODE4O3N0cm9rZS13aWR0aDoxLjA7IiB4MT0iNDIwLjUiIHgyPSIzMTEuNzUiIHkxPSI0MzYuNTMxMyIgeTI9IjQzNi41MzEzIi8+PHBvbHlnb24gZmlsbD0iIzE4MTgxOCIgcG9pbnRzPSIzMjEuNzUsNDMyLjUzMTMsMzExLjc1LDQzNi41MzEzLDMyMS43NSw0NDAuNTMxMywzMTcuNzUsNDM2LjUzMTMiIHN0eWxlPSJzdHJva2U6IzE4MTgxODtzdHJva2Utd2lkdGg6MS4wOyIvPjxsaW5lIHN0eWxlPSJzdHJva2U6IzE4MTgxODtzdHJva2Utd2lkdGg6MS4wOyIgeDE9IjEzMC4zNzUiIHgyPSI1NyIgeTE9IjIwMS42ODc1IiB5Mj0iMjAxLjY4NzUiLz48bGluZSBzdHlsZT0ic3Ryb2tlOiMxODE4MTg7c3Ryb2tlLXdpZHRoOjEuMDsiIHgxPSI1NyIgeDI9IjU3IiB5MT0iMjAxLjY4NzUiIHkyPSIyMjMuNjg3NSIvPjxwb2x5Z29uIGZpbGw9IiMxODE4MTgiIHBvaW50cz0iNTMsMjEzLjY4NzUsNTcsMjIzLjY4NzUsNjEsMjEzLjY4NzUsNTcsMjE3LjY4NzUiIHN0eWxlPSJzdHJva2U6IzE4MTgxODtzdHJva2Utd2lkdGg6MS4wOyIvPjxsaW5lIHN0eWxlPSJzdHJva2U6IzE4MTgxODtzdHJva2Utd2lkdGg6MS4wOyIgeDE9IjIyNi4zNzUiIHgyPSIyOTkuNzUiIHkxPSIyMDEuNjg3NSIgeTI9IjIwMS42ODc1Ii8+PGxpbmUgc3R5bGU9InN0cm9rZTojMTgxODE4O3N0cm9rZS13aWR0aDoxLjA7IiB4MT0iMjk5Ljc1IiB4Mj0iMjk5Ljc1IiB5MT0iMjAxLjY4NzUiIHkyPSIyMjMuNjg3NSIvPjxwb2x5Z29uIGZpbGw9IiMxODE4MTgiIHBvaW50cz0iMjk1Ljc1LDIxMy42ODc1LDI5OS43NSwyMjMuNjg3NSwzMDMuNzUsMjEzLjY4NzUsMjk5Ljc1LDIxNy42ODc1IiBzdHlsZT0ic3Ryb2tlOiMxODE4MTg7c3Ryb2tlLXdpZHRoOjEuMDsiLz48bGluZSBzdHlsZT0ic3Ryb2tlOiMxODE4MTg7c3Ryb2tlLXdpZHRoOjEuMDsiIHgxPSI1NyIgeDI9IjU3IiB5MT0iMjU2LjUzMTMiIHkyPSI0NjYuNTMxMyIvPjxsaW5lIHN0eWxlPSJzdHJva2U6IzE4MTgxODtzdHJva2Utd2lkdGg6MS4wOyIgeDE9IjU3IiB4Mj0iMTY2LjM3NSIgeTE9IjQ2Ni41MzEzIiB5Mj0iNDY2LjUzMTMiLz48cG9seWdvbiBmaWxsPSIjMTgxODE4IiBwb2ludHM9IjE1Ni4zNzUsNDYyLjUzMTMsMTY2LjM3NSw0NjYuNTMxMywxNTYuMzc1LDQ3MC41MzEzLDE2MC4zNzUsNDY2LjUzMTMiIHN0eWxlPSJzdHJva2U6IzE4MTgxODtzdHJva2Utd2lkdGg6MS4wOyIvPjxsaW5lIHN0eWxlPSJzdHJva2U6IzE4MTgxODtzdHJva2Utd2lkdGg6MS4wOyIgeDE9IjI5OS43NSIgeDI9IjI5OS43NSIgeTE9IjQ0OC41MzEzIiB5Mj0iNDY2LjUzMTMiLz48bGluZSBzdHlsZT0ic3Ryb2tlOiMxODE4MTg7c3Ryb2tlLXdpZHRoOjEuMDsiIHgxPSIyOTkuNzUiIHgyPSIxOTAuMzc1IiB5MT0iNDY2LjUzMTMiIHkyPSI0NjYuNTMxMyIvPjxwb2x5Z29uIGZpbGw9IiMxODE4MTgiIHBvaW50cz0iMjAwLjM3NSw0NjIuNTMxMywxOTAuMzc1LDQ2Ni41MzEzLDIwMC4zNzUsNDcwLjUzMTMsMTk2LjM3NSw0NjYuNTMxMyIgc3R5bGU9InN0cm9rZTojMTgxODE4O3N0cm9rZS13aWR0aDoxLjA7Ii8+PGxpbmUgc3R5bGU9InN0cm9rZTojMTgxODE4O3N0cm9rZS13aWR0aDoxLjA7IiB4MT0iMTc4LjM3NSIgeDI9IjE3OC4zNzUiIHkxPSIxNjkuNjg3NSIgeTI9IjE4OS42ODc1Ii8+PHBvbHlnb24gZmlsbD0iIzE4MTgxOCIgcG9pbnRzPSIxNzQuMzc1LDE3OS42ODc1LDE3OC4zNzUsMTg5LjY4NzUsMTgyLjM3NSwxNzkuNjg3NSwxNzguMzc1LDE4My42ODc1IiBzdHlsZT0ic3Ryb2tlOiMxODE4MTg7c3Ryb2tlLXdpZHRoOjEuMDsiLz48bGluZSBzdHlsZT0ic3Ryb2tlOiMxODE4MTg7c3Ryb2tlLXdpZHRoOjEuMDsiIHgxPSI0MTkuMTg3NSIgeDI9IjE3OC4zNzUiIHkxPSIxMTQuODQzOCIgeTI9IjExNC44NDM4Ii8+PGxpbmUgc3R5bGU9InN0cm9rZTojMTgxODE4O3N0cm9rZS13aWR0aDoxLjA7IiB4MT0iMTc4LjM3NSIgeDI9IjE3OC4zNzUiIHkxPSIxMTQuODQzOCIgeTI9IjEzNi44NDM4Ii8+PHBvbHlnb24gZmlsbD0iIzE4MTgxOCIgcG9pbnRzPSIxNzQuMzc1LDEyNi44NDM4LDE3OC4zNzUsMTM2Ljg0MzgsMTgyLjM3NSwxMjYuODQzOCwxNzguMzc1LDEzMC44NDM4IiBzdHlsZT0ic3Ryb2tlOiMxODE4MTg7c3Ryb2tlLXdpZHRoOjEuMDsiLz48bGluZSBzdHlsZT0ic3Ryb2tlOiMxODE4MTg7c3Ryb2tlLXdpZHRoOjEuMDsiIHgxPSI1MjYuMTg3NSIgeDI9IjcxNyIgeTE9IjExNC44NDM4IiB5Mj0iMTE0Ljg0MzgiLz48bGluZSBzdHlsZT0ic3Ryb2tlOiMxODE4MTg7c3Ryb2tlLXdpZHRoOjEuMDsiIHgxPSI3MTciIHgyPSI3MTciIHkxPSIxMTQuODQzOCIgeTI9IjEzNi44NDM4Ii8+PHBvbHlnb24gZmlsbD0iIzE4MTgxOCIgcG9pbnRzPSI3MTMsMTI2Ljg0MzgsNzE3LDEzNi44NDM4LDcyMSwxMjYuODQzOCw3MTcsMTMwLjg0MzgiIHN0eWxlPSJzdHJva2U6IzE4MTgxODtzdHJva2Utd2lkdGg6MS4wOyIvPjxsaW5lIHN0eWxlPSJzdHJva2U6IzE4MTgxODtzdHJva2Utd2lkdGg6MS4wOyIgeDE9IjE3OC4zNzUiIHgyPSIxNzguMzc1IiB5MT0iNDc4LjUzMTMiIHkyPSI0OTYuNTMxMyIvPjxsaW5lIHN0eWxlPSJzdHJva2U6IzE4MTgxODtzdHJva2Utd2lkdGg6MS4wOyIgeDE9IjE3OC4zNzUiIHgyPSI0NjAuNjg3NSIgeTE9IjQ5Ni41MzEzIiB5Mj0iNDk2LjUzMTMiLz48cG9seWdvbiBmaWxsPSIjMTgxODE4IiBwb2ludHM9IjQ1MC42ODc1LDQ5Mi41MzEzLDQ2MC42ODc1LDQ5Ni41MzEzLDQ1MC42ODc1LDUwMC41MzEzLDQ1NC42ODc1LDQ5Ni41MzEzIiBzdHlsZT0ic3Ryb2tlOiMxODE4MTg7c3Ryb2tlLXdpZHRoOjEuMDsiLz48bGluZSBzdHlsZT0ic3Ryb2tlOiMxODE4MTg7c3Ryb2tlLXdpZHRoOjEuMDsiIHgxPSI3MTciIHgyPSI3MTciIHkxPSIxNjkuNjg3NSIgeTI9IjQ5Ni41MzEzIi8+PGxpbmUgc3R5bGU9InN0cm9rZTojMTgxODE4O3N0cm9rZS13aWR0aDoxLjA7IiB4MT0iNzE3IiB4Mj0iNDg0LjY4NzUiIHkxPSI0OTYuNTMxMyIgeTI9IjQ5Ni41MzEzIi8+PHBvbHlnb24gZmlsbD0iIzE4MTgxOCIgcG9pbnRzPSI0OTQuNjg3NSw0OTIuNTMxMyw0ODQuNjg3NSw0OTYuNTMxMyw0OTQuNjg3NSw1MDAuNTMxMyw0OTAuNjg3NSw0OTYuNTMxMyIgc3R5bGU9InN0cm9rZTojMTgxODE4O3N0cm9rZS13aWR0aDoxLjA7Ii8+PGxpbmUgc3R5bGU9InN0cm9rZTojMTgxODE4O3N0cm9rZS13aWR0aDoxLjA7IiB4MT0iNDcyLjY4NzUiIHgyPSI0NzIuNjg3NSIgeTE9IjgyLjg0MzgiIHkyPSIxMDIuODQzOCIvPjxwb2x5Z29uIGZpbGw9IiMxODE4MTgiIHBvaW50cz0iNDY4LjY4NzUsOTIuODQzOCw0NzIuNjg3NSwxMDIuODQzOCw0NzYuNjg3NSw5Mi44NDM4LDQ3Mi42ODc1LDk2Ljg0MzgiIHN0eWxlPSJzdHJva2U6IzE4MTgxODtzdHJva2Utd2lkdGg6MS4wOyIvPjxsaW5lIHN0eWxlPSJzdHJva2U6IzE4MTgxODtzdHJva2Utd2lkdGg6MS4wOyIgeDE9IjQ3Mi42ODc1IiB4Mj0iNDcyLjY4NzUiIHkxPSI1MDguNTMxMyIgeTI9IjUyOC41MzEzIi8+PHBvbHlnb24gZmlsbD0iIzE4MTgxOCIgcG9pbnRzPSI0NjguNjg3NSw1MTguNTMxMyw0NzIuNjg3NSw1MjguNTMxMyw0NzYuNjg3NSw1MTguNTMxMyw0NzIuNjg3NSw1MjIuNTMxMyIgc3R5bGU9InN0cm9rZTojMTgxODE4O3N0cm9rZS13aWR0aDoxLjA7Ii8+PCEtLVNSQz1bYlBBeDJpOG01OFJ0RjRONi1XZmN5NWE0QW1mSW5OUG5ndVhBcUtBWDUxS0xoSVpnZTB4Z3FiOXo2TkZJbGVNTjJBUks4Y1JBdlNfdDlPVVpRbGN3WGg5aXZERjBPS1VWLUpFMm9hS2ltU0c4aC1GbWo2UHhicmFUY0JRWWFQTkJPQXFhQXJYZ282ZTZ1U1Y4bWwzMmJmdU9QS3VfY1l4OHdfWDlZZEczVWJsUU5iN0Yxamt5MVBDYVhnRUNUVVpzdHk1cGFzcnc3MjlOTDFiQklsS0o1UjFUeG1UTUhGRW1XRndFWm9sdXR3WmZXQmM3c0lleUJEOTVXWW52WlNJWXR4TG5UUUpoVndhNVZWOGdJU0pKZG8wTUJSMmZPSnhnSGRWM0w5MUlBMVRILWl2ZG5NVG55Ums3TzMzZE5OUXhrajB5NENJcGdiUWp0RzQwXS0tPjwvZz48L3N2Zz4=;" vertex="1" parent="1">
            <mxGeometry x="-660" y="1540" width="780" height="561" as="geometry" />
          </mxCell>
        </UserObject>
        <UserObject label="" plantUmlData="{&#xa;  &quot;data&quot;: &quot;@startuml\nstart\n:登录系统;\nif (有销售管理权限?) then (yes)\n    :显示销售管理界面;\n    if (选择销售出库?) then (yes)\n        :执行销售出库流程;\n    else (no)\n        if (选择客户退货?) then (yes)\n            :执行客户退货流程;\n        else (no)\n            if (选择销售单据查询?) then (yes)\n                :执行销售单据查询;\n            else (no)\n                if (选择客户退货查询?) then (yes)\n                    :执行客户退货查询;\n                else (no)\n                    :执行当前库存查询;\n                endif\n            endif\n        endif\n    endif\nelse (no)\n    :显示无权限信息;\nendif\nstop\n@enduml&quot;,&#xa;  &quot;format&quot;: &quot;svg&quot;&#xa;}" id="Gx-qXyAOR5Icjh0oVwRY-5">
          <mxCell style="shape=image;noLabel=1;verticalAlign=top;aspect=fixed;imageAspect=0;image=data:image/svg+xml,PD94bWwgdmVyc2lvbj0iMS4wIiBlbmNvZGluZz0idXMtYXNjaWkiIHN0YW5kYWxvbmU9Im5vIj8+PHN2ZyB4bWxucz0iaHR0cDovL3d3dy53My5vcmcvMjAwMC9zdmciIHhtbG5zOnhsaW5rPSJodHRwOi8vd3d3LnczLm9yZy8xOTk5L3hsaW5rIiBjb250ZW50U3R5bGVUeXBlPSJ0ZXh0L2NzcyIgaGVpZ2h0PSI1NjFweCIgcHJlc2VydmVBc3BlY3RSYXRpbz0ibm9uZSIgc3R5bGU9IndpZHRoOjgyNXB4O2hlaWdodDo1NjFweDtiYWNrZ3JvdW5kOiNGRkZGRkY7IiB2ZXJzaW9uPSIxLjEiIHZpZXdCb3g9IjAgMCA4MjUgNTYxIiB3aWR0aD0iODI1cHgiIHpvb21BbmRQYW49Im1hZ25pZnkiPjxkZWZzLz48Zz48ZWxsaXBzZSBjeD0iNTA3LjgxMjUiIGN5PSIyMCIgZmlsbD0iIzIyMjIyMiIgcng9IjEwIiByeT0iMTAiIHN0eWxlPSJzdHJva2U6IzIyMjIyMjtzdHJva2Utd2lkdGg6MS4wOyIvPjxyZWN0IGZpbGw9IiNGMUYxRjEiIGhlaWdodD0iMzIuODQzOCIgcng9IjEyLjUiIHJ5PSIxMi41IiBzdHlsZT0ic3Ryb2tlOiMxODE4MTg7c3Ryb2tlLXdpZHRoOjAuNTsiIHdpZHRoPSI2OCIgeD0iNDczLjgxMjUiIHk9IjUwIi8+PHRleHQgZmlsbD0iIzAwMDAwMCIgZm9udC1mYW1pbHk9InNhbnMtc2VyaWYiIGZvbnQtc2l6ZT0iMTIiIGxlbmd0aEFkanVzdD0ic3BhY2luZyIgdGV4dExlbmd0aD0iNDgiIHg9IjQ4My44MTI1IiB5PSI3MS4zNDM4Ij4mIzMwMzMxOyYjMjQ0MDU7JiMzMTk5NTsmIzMyNDc5OzwvdGV4dD48cG9seWdvbiBmaWxsPSIjRjFGMUYxIiBwb2ludHM9IjQ2Ni4zMTI1LDEwMi44NDM4LDU0OS4zMTI1LDEwMi44NDM4LDU2MS4zMTI1LDExNC44NDM4LDU0OS4zMTI1LDEyNi44NDM4LDQ2Ni4zMTI1LDEyNi44NDM4LDQ1NC4zMTI1LDExNC44NDM4LDQ2Ni4zMTI1LDEwMi44NDM4IiBzdHlsZT0ic3Ryb2tlOiMxODE4MTg7c3Ryb2tlLXdpZHRoOjAuNTsiLz48dGV4dCBmaWxsPSIjMDAwMDAwIiBmb250LWZhbWlseT0ic2Fucy1zZXJpZiIgZm9udC1zaXplPSIxMSIgbGVuZ3RoQWRqdXN0PSJzcGFjaW5nIiB0ZXh0TGVuZ3RoPSI4MyIgeD0iNDY2LjMxMjUiIHk9IjExOS4zNTU1Ij4mIzI2Mzc3OyYjMzgxNDQ7JiMyMTgwNjsmIzMxNjQ5OyYjMjk3MDI7JiMyNjQzNTsmIzM4NDgwOz88L3RleHQ+PHRleHQgZmlsbD0iIzAwMDAwMCIgZm9udC1mYW1pbHk9InNhbnMtc2VyaWYiIGZvbnQtc2l6ZT0iMTEiIGxlbmd0aEFkanVzdD0ic3BhY2luZyIgdGV4dExlbmd0aD0iMTgiIHg9IjQzNi4zMTI1IiB5PSIxMTMuNDY4OCI+eWVzPC90ZXh0Pjx0ZXh0IGZpbGw9IiMwMDAwMDAiIGZvbnQtZmFtaWx5PSJzYW5zLXNlcmlmIiBmb250LXNpemU9IjExIiBsZW5ndGhBZGp1c3Q9InNwYWNpbmciIHRleHRMZW5ndGg9IjEyIiB4PSI1NjEuMzEyNSIgeT0iMTEzLjQ2ODgiPm5vPC90ZXh0PjxyZWN0IGZpbGw9IiNGMUYxRjEiIGhlaWdodD0iMzIuODQzOCIgcng9IjEyLjUiIHJ5PSIxMi41IiBzdHlsZT0ic3Ryb2tlOiMxODE4MTg7c3Ryb2tlLXdpZHRoOjAuNTsiIHdpZHRoPSIxMTYiIHg9IjE0NSIgeT0iMTM2Ljg0MzgiLz48dGV4dCBmaWxsPSIjMDAwMDAwIiBmb250LWZhbWlseT0ic2Fucy1zZXJpZiIgZm9udC1zaXplPSIxMiIgbGVuZ3RoQWRqdXN0PSJzcGFjaW5nIiB0ZXh0TGVuZ3RoPSI5NiIgeD0iMTU1IiB5PSIxNTguMTg3NSI+JiMyNjE3NDsmIzMxMDM0OyYjMzgxNDQ7JiMyMTgwNjsmIzMxNjQ5OyYjMjk3MDI7JiMzMDAyODsmIzM4NzU0OzwvdGV4dD48cG9seWdvbiBmaWxsPSIjRjFGMUYxIiBwb2ludHM9IjE2NywxODkuNjg3NSwyMzksMTg5LjY4NzUsMjUxLDIwMS42ODc1LDIzOSwyMTMuNjg3NSwxNjcsMjEzLjY4NzUsMTU1LDIwMS42ODc1LDE2NywxODkuNjg3NSIgc3R5bGU9InN0cm9rZTojMTgxODE4O3N0cm9rZS13aWR0aDowLjU7Ii8+PHRleHQgZmlsbD0iIzAwMDAwMCIgZm9udC1mYW1pbHk9InNhbnMtc2VyaWYiIGZvbnQtc2l6ZT0iMTEiIGxlbmd0aEFkanVzdD0ic3BhY2luZyIgdGV4dExlbmd0aD0iNzIiIHg9IjE2NyIgeT0iMjA2LjE5OTIiPiYjMzY4NzM7JiMyNTMyMTsmIzM4MTQ0OyYjMjE4MDY7JiMyMDk4NjsmIzI0MjExOz88L3RleHQ+PHRleHQgZmlsbD0iIzAwMDAwMCIgZm9udC1mYW1pbHk9InNhbnMtc2VyaWYiIGZvbnQtc2l6ZT0iMTEiIGxlbmd0aEFkanVzdD0ic3BhY2luZyIgdGV4dExlbmd0aD0iMTgiIHg9IjEzNyIgeT0iMjAwLjMxMjUiPnllczwvdGV4dD48dGV4dCBmaWxsPSIjMDAwMDAwIiBmb250LWZhbWlseT0ic2Fucy1zZXJpZiIgZm9udC1zaXplPSIxMSIgbGVuZ3RoQWRqdXN0PSJzcGFjaW5nIiB0ZXh0TGVuZ3RoPSIxMiIgeD0iMjUxIiB5PSIyMDAuMzEyNSI+bm88L3RleHQ+PHJlY3QgZmlsbD0iI0YxRjFGMSIgaGVpZ2h0PSIzMi44NDM4IiByeD0iMTIuNSIgcnk9IjEyLjUiIHN0eWxlPSJzdHJva2U6IzE4MTgxODtzdHJva2Utd2lkdGg6MC41OyIgd2lkdGg9IjExNiIgeD0iMTEiIHk9IjIyMy42ODc1Ii8+PHRleHQgZmlsbD0iIzAwMDAwMCIgZm9udC1mYW1pbHk9InNhbnMtc2VyaWYiIGZvbnQtc2l6ZT0iMTIiIGxlbmd0aEFkanVzdD0ic3BhY2luZyIgdGV4dExlbmd0aD0iOTYiIHg9IjIxIiB5PSIyNDUuMDMxMyI+JiMyNTE5MTsmIzM0ODkyOyYjMzgxNDQ7JiMyMTgwNjsmIzIwOTg2OyYjMjQyMTE7JiMyNzk2OTsmIzMxMjQzOzwvdGV4dD48cG9seWdvbiBmaWxsPSIjRjFGMUYxIiBwb2ludHM9IjMwMy4zNzUsMjIzLjY4NzUsMzc1LjM3NSwyMjMuNjg3NSwzODcuMzc1LDIzNS42ODc1LDM3NS4zNzUsMjQ3LjY4NzUsMzAzLjM3NSwyNDcuNjg3NSwyOTEuMzc1LDIzNS42ODc1LDMwMy4zNzUsMjIzLjY4NzUiIHN0eWxlPSJzdHJva2U6IzE4MTgxODtzdHJva2Utd2lkdGg6MC41OyIvPjx0ZXh0IGZpbGw9IiMwMDAwMDAiIGZvbnQtZmFtaWx5PSJzYW5zLXNlcmlmIiBmb250LXNpemU9IjExIiBsZW5ndGhBZGp1c3Q9InNwYWNpbmciIHRleHRMZW5ndGg9IjcyIiB4PSIzMDMuMzc1IiB5PSIyNDAuMTk5MiI+JiMzNjg3MzsmIzI1MzIxOyYjMjM0NTg7JiMyNTE0MzsmIzM2ODY0OyYjMzYxMzU7PzwvdGV4dD48dGV4dCBmaWxsPSIjMDAwMDAwIiBmb250LWZhbWlseT0ic2Fucy1zZXJpZiIgZm9udC1zaXplPSIxMSIgbGVuZ3RoQWRqdXN0PSJzcGFjaW5nIiB0ZXh0TGVuZ3RoPSIxOCIgeD0iMjczLjM3NSIgeT0iMjM0LjMxMjUiPnllczwvdGV4dD48dGV4dCBmaWxsPSIjMDAwMDAwIiBmb250LWZhbWlseT0ic2Fucy1zZXJpZiIgZm9udC1zaXplPSIxMSIgbGVuZ3RoQWRqdXN0PSJzcGFjaW5nIiB0ZXh0TGVuZ3RoPSIxMiIgeD0iMzg3LjM3NSIgeT0iMjM0LjMxMjUiPm5vPC90ZXh0PjxyZWN0IGZpbGw9IiNGMUYxRjEiIGhlaWdodD0iMzIuODQzOCIgcng9IjEyLjUiIHJ5PSIxMi41IiBzdHlsZT0ic3Ryb2tlOiMxODE4MTg7c3Ryb2tlLXdpZHRoOjAuNTsiIHdpZHRoPSIxMTYiIHg9IjE1NC42MjUiIHk9IjI1Ny42ODc1Ii8+PHRleHQgZmlsbD0iIzAwMDAwMCIgZm9udC1mYW1pbHk9InNhbnMtc2VyaWYiIGZvbnQtc2l6ZT0iMTIiIGxlbmd0aEFkanVzdD0ic3BhY2luZyIgdGV4dExlbmd0aD0iOTYiIHg9IjE2NC42MjUiIHk9IjI3OS4wMzEzIj4mIzI1MTkxOyYjMzQ4OTI7JiMyMzQ1ODsmIzI1MTQzOyYjMzY4NjQ7JiMzNjEzNTsmIzI3OTY5OyYjMzEyNDM7PC90ZXh0Pjxwb2x5Z29uIGZpbGw9IiNGMUYxRjEiIHBvaW50cz0iNDE5LjEyNSwyNTcuNjg3NSw1MTMuMTI1LDI1Ny42ODc1LDUyNS4xMjUsMjY5LjY4NzUsNTEzLjEyNSwyODEuNjg3NSw0MTkuMTI1LDI4MS42ODc1LDQwNy4xMjUsMjY5LjY4NzUsNDE5LjEyNSwyNTcuNjg3NSIgc3R5bGU9InN0cm9rZTojMTgxODE4O3N0cm9rZS13aWR0aDowLjU7Ii8+PHRleHQgZmlsbD0iIzAwMDAwMCIgZm9udC1mYW1pbHk9InNhbnMtc2VyaWYiIGZvbnQtc2l6ZT0iMTEiIGxlbmd0aEFkanVzdD0ic3BhY2luZyIgdGV4dExlbmd0aD0iOTQiIHg9IjQxOS4xMjUiIHk9IjI3NC4xOTkyIj4mIzM2ODczOyYjMjUzMjE7JiMzODE0NDsmIzIxODA2OyYjMjEzMzM7JiMyNTQ1NDsmIzI2NTk3OyYjMzU4MTA7PzwvdGV4dD48dGV4dCBmaWxsPSIjMDAwMDAwIiBmb250LWZhbWlseT0ic2Fucy1zZXJpZiIgZm9udC1zaXplPSIxMSIgbGVuZ3RoQWRqdXN0PSJzcGFjaW5nIiB0ZXh0TGVuZ3RoPSIxOCIgeD0iMzg5LjEyNSIgeT0iMjY4LjMxMjUiPnllczwvdGV4dD48dGV4dCBmaWxsPSIjMDAwMDAwIiBmb250LWZhbWlseT0ic2Fucy1zZXJpZiIgZm9udC1zaXplPSIxMSIgbGVuZ3RoQWRqdXN0PSJzcGFjaW5nIiB0ZXh0TGVuZ3RoPSIxMiIgeD0iNTI1LjEyNSIgeT0iMjY4LjMxMjUiPm5vPC90ZXh0PjxyZWN0IGZpbGw9IiNGMUYxRjEiIGhlaWdodD0iMzIuODQzOCIgcng9IjEyLjUiIHJ5PSIxMi41IiBzdHlsZT0ic3Ryb2tlOiMxODE4MTg7c3Ryb2tlLXdpZHRoOjAuNTsiIHdpZHRoPSIxMTYiIHg9IjMwMC42MjUiIHk9IjI5MS42ODc1Ii8+PHRleHQgZmlsbD0iIzAwMDAwMCIgZm9udC1mYW1pbHk9InNhbnMtc2VyaWYiIGZvbnQtc2l6ZT0iMTIiIGxlbmd0aEFkanVzdD0ic3BhY2luZyIgdGV4dExlbmd0aD0iOTYiIHg9IjMxMC42MjUiIHk9IjMxMy4wMzEzIj4mIzI1MTkxOyYjMzQ4OTI7JiMzODE0NDsmIzIxODA2OyYjMjEzMzM7JiMyNTQ1NDsmIzI2NTk3OyYjMzU4MTA7PC90ZXh0Pjxwb2x5Z29uIGZpbGw9IiNGMUYxRjEiIHBvaW50cz0iNTI2LjYyNSwyOTEuNjg3NSw2MjAuNjI1LDI5MS42ODc1LDYzMi42MjUsMzAzLjY4NzUsNjIwLjYyNSwzMTUuNjg3NSw1MjYuNjI1LDMxNS42ODc1LDUxNC42MjUsMzAzLjY4NzUsNTI2LjYyNSwyOTEuNjg3NSIgc3R5bGU9InN0cm9rZTojMTgxODE4O3N0cm9rZS13aWR0aDowLjU7Ii8+PHRleHQgZmlsbD0iIzAwMDAwMCIgZm9udC1mYW1pbHk9InNhbnMtc2VyaWYiIGZvbnQtc2l6ZT0iMTEiIGxlbmd0aEFkanVzdD0ic3BhY2luZyIgdGV4dExlbmd0aD0iOTQiIHg9IjUyNi42MjUiIHk9IjMwOC4xOTkyIj4mIzM2ODczOyYjMjUzMjE7JiMyMzQ1ODsmIzI1MTQzOyYjMzY4NjQ7JiMzNjEzNTsmIzI2NTk3OyYjMzU4MTA7PzwvdGV4dD48dGV4dCBmaWxsPSIjMDAwMDAwIiBmb250LWZhbWlseT0ic2Fucy1zZXJpZiIgZm9udC1zaXplPSIxMSIgbGVuZ3RoQWRqdXN0PSJzcGFjaW5nIiB0ZXh0TGVuZ3RoPSIxOCIgeD0iNDk2LjYyNSIgeT0iMzAyLjMxMjUiPnllczwvdGV4dD48dGV4dCBmaWxsPSIjMDAwMDAwIiBmb250LWZhbWlseT0ic2Fucy1zZXJpZiIgZm9udC1zaXplPSIxMSIgbGVuZ3RoQWRqdXN0PSJzcGFjaW5nIiB0ZXh0TGVuZ3RoPSIxMiIgeD0iNjMyLjYyNSIgeT0iMzAyLjMxMjUiPm5vPC90ZXh0PjxyZWN0IGZpbGw9IiNGMUYxRjEiIGhlaWdodD0iMzIuODQzOCIgcng9IjEyLjUiIHJ5PSIxMi41IiBzdHlsZT0ic3Ryb2tlOiMxODE4MTg7c3Ryb2tlLXdpZHRoOjAuNTsiIHdpZHRoPSIxMTYiIHg9IjQ0Ni42MjUiIHk9IjMyNS42ODc1Ii8+PHRleHQgZmlsbD0iIzAwMDAwMCIgZm9udC1mYW1pbHk9InNhbnMtc2VyaWYiIGZvbnQtc2l6ZT0iMTIiIGxlbmd0aEFkanVzdD0ic3BhY2luZyIgdGV4dExlbmd0aD0iOTYiIHg9IjQ1Ni42MjUiIHk9IjM0Ny4wMzEzIj4mIzI1MTkxOyYjMzQ4OTI7JiMyMzQ1ODsmIzI1MTQzOyYjMzY4NjQ7JiMzNjEzNTsmIzI2NTk3OyYjMzU4MTA7PC90ZXh0PjxyZWN0IGZpbGw9IiNGMUYxRjEiIGhlaWdodD0iMzIuODQzOCIgcng9IjEyLjUiIHJ5PSIxMi41IiBzdHlsZT0ic3Ryb2tlOiMxODE4MTg7c3Ryb2tlLXdpZHRoOjAuNTsiIHdpZHRoPSIxMTYiIHg9IjU4NC42MjUiIHk9IjMyNS42ODc1Ii8+PHRleHQgZmlsbD0iIzAwMDAwMCIgZm9udC1mYW1pbHk9InNhbnMtc2VyaWYiIGZvbnQtc2l6ZT0iMTIiIGxlbmd0aEFkanVzdD0ic3BhY2luZyIgdGV4dExlbmd0aD0iOTYiIHg9IjU5NC42MjUiIHk9IjM0Ny4wMzEzIj4mIzI1MTkxOyYjMzQ4OTI7JiMyNDQwMzsmIzIxMDY5OyYjMjQyMTE7JiMyMzM4NDsmIzI2NTk3OyYjMzU4MTA7PC90ZXh0Pjxwb2x5Z29uIGZpbGw9IiNGMUYxRjEiIHBvaW50cz0iNTczLjYyNSwzNjQuNTMxMyw1ODUuNjI1LDM3Ni41MzEzLDU3My42MjUsMzg4LjUzMTMsNTYxLjYyNSwzNzYuNTMxMyw1NzMuNjI1LDM2NC41MzEzIiBzdHlsZT0ic3Ryb2tlOiMxODE4MTg7c3Ryb2tlLXdpZHRoOjAuNTsiLz48cG9seWdvbiBmaWxsPSIjRjFGMUYxIiBwb2ludHM9IjQ2Ni4xMjUsMzk0LjUzMTMsNDc4LjEyNSw0MDYuNTMxMyw0NjYuMTI1LDQxOC41MzEzLDQ1NC4xMjUsNDA2LjUzMTMsNDY2LjEyNSwzOTQuNTMxMyIgc3R5bGU9InN0cm9rZTojMTgxODE4O3N0cm9rZS13aWR0aDowLjU7Ii8+PHBvbHlnb24gZmlsbD0iI0YxRjFGMSIgcG9pbnRzPSIzMzkuMzc1LDQyNC41MzEzLDM1MS4zNzUsNDM2LjUzMTMsMzM5LjM3NSw0NDguNTMxMywzMjcuMzc1LDQzNi41MzEzLDMzOS4zNzUsNDI0LjUzMTMiIHN0eWxlPSJzdHJva2U6IzE4MTgxODtzdHJva2Utd2lkdGg6MC41OyIvPjxwb2x5Z29uIGZpbGw9IiNGMUYxRjEiIHBvaW50cz0iMjAzLDQ1NC41MzEzLDIxNSw0NjYuNTMxMywyMDMsNDc4LjUzMTMsMTkxLDQ2Ni41MzEzLDIwMyw0NTQuNTMxMyIgc3R5bGU9InN0cm9rZTojMTgxODE4O3N0cm9rZS13aWR0aDowLjU7Ii8+PHJlY3QgZmlsbD0iI0YxRjFGMSIgaGVpZ2h0PSIzMi44NDM4IiByeD0iMTIuNSIgcnk9IjEyLjUiIHN0eWxlPSJzdHJva2U6IzE4MTgxODtzdHJva2Utd2lkdGg6MC41OyIgd2lkdGg9IjEwNCIgeD0iNzEwLjYyNSIgeT0iMTM2Ljg0MzgiLz48dGV4dCBmaWxsPSIjMDAwMDAwIiBmb250LWZhbWlseT0ic2Fucy1zZXJpZiIgZm9udC1zaXplPSIxMiIgbGVuZ3RoQWRqdXN0PSJzcGFjaW5nIiB0ZXh0TGVuZ3RoPSI4NCIgeD0iNzIwLjYyNSIgeT0iMTU4LjE4NzUiPiYjMjYxNzQ7JiMzMTAzNDsmIzI2MDgwOyYjMjY0MzU7JiMzODQ4MDsmIzIwNDQ5OyYjMjQ2ODc7PC90ZXh0Pjxwb2x5Z29uIGZpbGw9IiNGMUYxRjEiIHBvaW50cz0iNTA3LjgxMjUsNDg0LjUzMTMsNTE5LjgxMjUsNDk2LjUzMTMsNTA3LjgxMjUsNTA4LjUzMTMsNDk1LjgxMjUsNDk2LjUzMTMsNTA3LjgxMjUsNDg0LjUzMTMiIHN0eWxlPSJzdHJva2U6IzE4MTgxODtzdHJva2Utd2lkdGg6MC41OyIvPjxlbGxpcHNlIGN4PSI1MDcuODEyNSIgY3k9IjUzOS41MzEzIiBmaWxsPSJub25lIiByeD0iMTEiIHJ5PSIxMSIgc3R5bGU9InN0cm9rZTojMjIyMjIyO3N0cm9rZS13aWR0aDoxLjA7Ii8+PGVsbGlwc2UgY3g9IjUwNy44MTI1IiBjeT0iNTM5LjUzMTMiIGZpbGw9IiMyMjIyMjIiIHJ4PSI2IiByeT0iNiIgc3R5bGU9InN0cm9rZTojMjIyMjIyO3N0cm9rZS13aWR0aDoxLjA7Ii8+PGxpbmUgc3R5bGU9InN0cm9rZTojMTgxODE4O3N0cm9rZS13aWR0aDoxLjA7IiB4MT0iNTA3LjgxMjUiIHgyPSI1MDcuODEyNSIgeTE9IjMwIiB5Mj0iNTAiLz48cG9seWdvbiBmaWxsPSIjMTgxODE4IiBwb2ludHM9IjUwMy44MTI1LDQwLDUwNy44MTI1LDUwLDUxMS44MTI1LDQwLDUwNy44MTI1LDQ0IiBzdHlsZT0ic3Ryb2tlOiMxODE4MTg7c3Ryb2tlLXdpZHRoOjEuMDsiLz48bGluZSBzdHlsZT0ic3Ryb2tlOiMxODE4MTg7c3Ryb2tlLXdpZHRoOjEuMDsiIHgxPSI1MTQuNjI1IiB4Mj0iNTA0LjYyNSIgeTE9IjMwMy42ODc1IiB5Mj0iMzAzLjY4NzUiLz48bGluZSBzdHlsZT0ic3Ryb2tlOiMxODE4MTg7c3Ryb2tlLXdpZHRoOjEuMDsiIHgxPSI1MDQuNjI1IiB4Mj0iNTA0LjYyNSIgeTE9IjMwMy42ODc1IiB5Mj0iMzI1LjY4NzUiLz48cG9seWdvbiBmaWxsPSIjMTgxODE4IiBwb2ludHM9IjUwMC42MjUsMzE1LjY4NzUsNTA0LjYyNSwzMjUuNjg3NSw1MDguNjI1LDMxNS42ODc1LDUwNC42MjUsMzE5LjY4NzUiIHN0eWxlPSJzdHJva2U6IzE4MTgxODtzdHJva2Utd2lkdGg6MS4wOyIvPjxsaW5lIHN0eWxlPSJzdHJva2U6IzE4MTgxODtzdHJva2Utd2lkdGg6MS4wOyIgeDE9IjYzMi42MjUiIHgyPSI2NDIuNjI1IiB5MT0iMzAzLjY4NzUiIHkyPSIzMDMuNjg3NSIvPjxsaW5lIHN0eWxlPSJzdHJva2U6IzE4MTgxODtzdHJva2Utd2lkdGg6MS4wOyIgeDE9IjY0Mi42MjUiIHgyPSI2NDIuNjI1IiB5MT0iMzAzLjY4NzUiIHkyPSIzMjUuNjg3NSIvPjxwb2x5Z29uIGZpbGw9IiMxODE4MTgiIHBvaW50cz0iNjM4LjYyNSwzMTUuNjg3NSw2NDIuNjI1LDMyNS42ODc1LDY0Ni42MjUsMzE1LjY4NzUsNjQyLjYyNSwzMTkuNjg3NSIgc3R5bGU9InN0cm9rZTojMTgxODE4O3N0cm9rZS13aWR0aDoxLjA7Ii8+PGxpbmUgc3R5bGU9InN0cm9rZTojMTgxODE4O3N0cm9rZS13aWR0aDoxLjA7IiB4MT0iNTA0LjYyNSIgeDI9IjUwNC42MjUiIHkxPSIzNTguNTMxMyIgeTI9IjM3Ni41MzEzIi8+PGxpbmUgc3R5bGU9InN0cm9rZTojMTgxODE4O3N0cm9rZS13aWR0aDoxLjA7IiB4MT0iNTA0LjYyNSIgeDI9IjU2MS42MjUiIHkxPSIzNzYuNTMxMyIgeTI9IjM3Ni41MzEzIi8+PHBvbHlnb24gZmlsbD0iIzE4MTgxOCIgcG9pbnRzPSI1NTEuNjI1LDM3Mi41MzEzLDU2MS42MjUsMzc2LjUzMTMsNTUxLjYyNSwzODAuNTMxMyw1NTUuNjI1LDM3Ni41MzEzIiBzdHlsZT0ic3Ryb2tlOiMxODE4MTg7c3Ryb2tlLXdpZHRoOjEuMDsiLz48bGluZSBzdHlsZT0ic3Ryb2tlOiMxODE4MTg7c3Ryb2tlLXdpZHRoOjEuMDsiIHgxPSI2NDIuNjI1IiB4Mj0iNjQyLjYyNSIgeTE9IjM1OC41MzEzIiB5Mj0iMzc2LjUzMTMiLz48bGluZSBzdHlsZT0ic3Ryb2tlOiMxODE4MTg7c3Ryb2tlLXdpZHRoOjEuMDsiIHgxPSI2NDIuNjI1IiB4Mj0iNTg1LjYyNSIgeTE9IjM3Ni41MzEzIiB5Mj0iMzc2LjUzMTMiLz48cG9seWdvbiBmaWxsPSIjMTgxODE4IiBwb2ludHM9IjU5NS42MjUsMzcyLjUzMTMsNTg1LjYyNSwzNzYuNTMxMyw1OTUuNjI1LDM4MC41MzEzLDU5MS42MjUsMzc2LjUzMTMiIHN0eWxlPSJzdHJva2U6IzE4MTgxODtzdHJva2Utd2lkdGg6MS4wOyIvPjxsaW5lIHN0eWxlPSJzdHJva2U6IzE4MTgxODtzdHJva2Utd2lkdGg6MS4wOyIgeDE9IjQwNy4xMjUiIHgyPSIzNTguNjI1IiB5MT0iMjY5LjY4NzUiIHkyPSIyNjkuNjg3NSIvPjxsaW5lIHN0eWxlPSJzdHJva2U6IzE4MTgxODtzdHJva2Utd2lkdGg6MS4wOyIgeDE9IjM1OC42MjUiIHgyPSIzNTguNjI1IiB5MT0iMjY5LjY4NzUiIHkyPSIyOTEuNjg3NSIvPjxwb2x5Z29uIGZpbGw9IiMxODE4MTgiIHBvaW50cz0iMzU0LjYyNSwyODEuNjg3NSwzNTguNjI1LDI5MS42ODc1LDM2Mi42MjUsMjgxLjY4NzUsMzU4LjYyNSwyODUuNjg3NSIgc3R5bGU9InN0cm9rZTojMTgxODE4O3N0cm9rZS13aWR0aDoxLjA7Ii8+PGxpbmUgc3R5bGU9InN0cm9rZTojMTgxODE4O3N0cm9rZS13aWR0aDoxLjA7IiB4MT0iNTI1LjEyNSIgeDI9IjU3My42MjUiIHkxPSIyNjkuNjg3NSIgeTI9IjI2OS42ODc1Ii8+PGxpbmUgc3R5bGU9InN0cm9rZTojMTgxODE4O3N0cm9rZS13aWR0aDoxLjA7IiB4MT0iNTczLjYyNSIgeDI9IjU3My42MjUiIHkxPSIyNjkuNjg3NSIgeTI9IjI5MS42ODc1Ii8+PHBvbHlnb24gZmlsbD0iIzE4MTgxOCIgcG9pbnRzPSI1NjkuNjI1LDI4MS42ODc1LDU3My42MjUsMjkxLjY4NzUsNTc3LjYyNSwyODEuNjg3NSw1NzMuNjI1LDI4NS42ODc1IiBzdHlsZT0ic3Ryb2tlOiMxODE4MTg7c3Ryb2tlLXdpZHRoOjEuMDsiLz48bGluZSBzdHlsZT0ic3Ryb2tlOiMxODE4MTg7c3Ryb2tlLXdpZHRoOjEuMDsiIHgxPSIzNTguNjI1IiB4Mj0iMzU4LjYyNSIgeTE9IjMyNC41MzEzIiB5Mj0iNDA2LjUzMTMiLz48bGluZSBzdHlsZT0ic3Ryb2tlOiMxODE4MTg7c3Ryb2tlLXdpZHRoOjEuMDsiIHgxPSIzNTguNjI1IiB4Mj0iNDU0LjEyNSIgeTE9IjQwNi41MzEzIiB5Mj0iNDA2LjUzMTMiLz48cG9seWdvbiBmaWxsPSIjMTgxODE4IiBwb2ludHM9IjQ0NC4xMjUsNDAyLjUzMTMsNDU0LjEyNSw0MDYuNTMxMyw0NDQuMTI1LDQxMC41MzEzLDQ0OC4xMjUsNDA2LjUzMTMiIHN0eWxlPSJzdHJva2U6IzE4MTgxODtzdHJva2Utd2lkdGg6MS4wOyIvPjxsaW5lIHN0eWxlPSJzdHJva2U6IzE4MTgxODtzdHJva2Utd2lkdGg6MS4wOyIgeDE9IjU3My42MjUiIHgyPSI1NzMuNjI1IiB5MT0iMzg4LjUzMTMiIHkyPSI0MDYuNTMxMyIvPjxsaW5lIHN0eWxlPSJzdHJva2U6IzE4MTgxODtzdHJva2Utd2lkdGg6MS4wOyIgeDE9IjU3My42MjUiIHgyPSI0NzguMTI1IiB5MT0iNDA2LjUzMTMiIHkyPSI0MDYuNTMxMyIvPjxwb2x5Z29uIGZpbGw9IiMxODE4MTgiIHBvaW50cz0iNDg4LjEyNSw0MDIuNTMxMyw0NzguMTI1LDQwNi41MzEzLDQ4OC4xMjUsNDEwLjUzMTMsNDg0LjEyNSw0MDYuNTMxMyIgc3R5bGU9InN0cm9rZTojMTgxODE4O3N0cm9rZS13aWR0aDoxLjA7Ii8+PGxpbmUgc3R5bGU9InN0cm9rZTojMTgxODE4O3N0cm9rZS13aWR0aDoxLjA7IiB4MT0iMjkxLjM3NSIgeDI9IjIxMi42MjUiIHkxPSIyMzUuNjg3NSIgeTI9IjIzNS42ODc1Ii8+PGxpbmUgc3R5bGU9InN0cm9rZTojMTgxODE4O3N0cm9rZS13aWR0aDoxLjA7IiB4MT0iMjEyLjYyNSIgeDI9IjIxMi42MjUiIHkxPSIyMzUuNjg3NSIgeTI9IjI1Ny42ODc1Ii8+PHBvbHlnb24gZmlsbD0iIzE4MTgxOCIgcG9pbnRzPSIyMDguNjI1LDI0Ny42ODc1LDIxMi42MjUsMjU3LjY4NzUsMjE2LjYyNSwyNDcuNjg3NSwyMTIuNjI1LDI1MS42ODc1IiBzdHlsZT0ic3Ryb2tlOiMxODE4MTg7c3Ryb2tlLXdpZHRoOjEuMDsiLz48bGluZSBzdHlsZT0ic3Ryb2tlOiMxODE4MTg7c3Ryb2tlLXdpZHRoOjEuMDsiIHgxPSIzODcuMzc1IiB4Mj0iNDY2LjEyNSIgeTE9IjIzNS42ODc1IiB5Mj0iMjM1LjY4NzUiLz48bGluZSBzdHlsZT0ic3Ryb2tlOiMxODE4MTg7c3Ryb2tlLXdpZHRoOjEuMDsiIHgxPSI0NjYuMTI1IiB4Mj0iNDY2LjEyNSIgeTE9IjIzNS42ODc1IiB5Mj0iMjU3LjY4NzUiLz48cG9seWdvbiBmaWxsPSIjMTgxODE4IiBwb2ludHM9IjQ2Mi4xMjUsMjQ3LjY4NzUsNDY2LjEyNSwyNTcuNjg3NSw0NzAuMTI1LDI0Ny42ODc1LDQ2Ni4xMjUsMjUxLjY4NzUiIHN0eWxlPSJzdHJva2U6IzE4MTgxODtzdHJva2Utd2lkdGg6MS4wOyIvPjxsaW5lIHN0eWxlPSJzdHJva2U6IzE4MTgxODtzdHJva2Utd2lkdGg6MS4wOyIgeDE9IjIxMi42MjUiIHgyPSIyMTIuNjI1IiB5MT0iMjkwLjUzMTMiIHkyPSI0MzYuNTMxMyIvPjxsaW5lIHN0eWxlPSJzdHJva2U6IzE4MTgxODtzdHJva2Utd2lkdGg6MS4wOyIgeDE9IjIxMi42MjUiIHgyPSIzMjcuMzc1IiB5MT0iNDM2LjUzMTMiIHkyPSI0MzYuNTMxMyIvPjxwb2x5Z29uIGZpbGw9IiMxODE4MTgiIHBvaW50cz0iMzE3LjM3NSw0MzIuNTMxMywzMjcuMzc1LDQzNi41MzEzLDMxNy4zNzUsNDQwLjUzMTMsMzIxLjM3NSw0MzYuNTMxMyIgc3R5bGU9InN0cm9rZTojMTgxODE4O3N0cm9rZS13aWR0aDoxLjA7Ii8+PGxpbmUgc3R5bGU9InN0cm9rZTojMTgxODE4O3N0cm9rZS13aWR0aDoxLjA7IiB4MT0iNDY2LjEyNSIgeDI9IjQ2Ni4xMjUiIHkxPSI0MTguNTMxMyIgeTI9IjQzNi41MzEzIi8+PGxpbmUgc3R5bGU9InN0cm9rZTojMTgxODE4O3N0cm9rZS13aWR0aDoxLjA7IiB4MT0iNDY2LjEyNSIgeDI9IjM1MS4zNzUiIHkxPSI0MzYuNTMxMyIgeTI9IjQzNi41MzEzIi8+PHBvbHlnb24gZmlsbD0iIzE4MTgxOCIgcG9pbnRzPSIzNjEuMzc1LDQzMi41MzEzLDM1MS4zNzUsNDM2LjUzMTMsMzYxLjM3NSw0NDAuNTMxMywzNTcuMzc1LDQzNi41MzEzIiBzdHlsZT0ic3Ryb2tlOiMxODE4MTg7c3Ryb2tlLXdpZHRoOjEuMDsiLz48bGluZSBzdHlsZT0ic3Ryb2tlOiMxODE4MTg7c3Ryb2tlLXdpZHRoOjEuMDsiIHgxPSIxNTUiIHgyPSI2OSIgeTE9IjIwMS42ODc1IiB5Mj0iMjAxLjY4NzUiLz48bGluZSBzdHlsZT0ic3Ryb2tlOiMxODE4MTg7c3Ryb2tlLXdpZHRoOjEuMDsiIHgxPSI2OSIgeDI9IjY5IiB5MT0iMjAxLjY4NzUiIHkyPSIyMjMuNjg3NSIvPjxwb2x5Z29uIGZpbGw9IiMxODE4MTgiIHBvaW50cz0iNjUsMjEzLjY4NzUsNjksMjIzLjY4NzUsNzMsMjEzLjY4NzUsNjksMjE3LjY4NzUiIHN0eWxlPSJzdHJva2U6IzE4MTgxODtzdHJva2Utd2lkdGg6MS4wOyIvPjxsaW5lIHN0eWxlPSJzdHJva2U6IzE4MTgxODtzdHJva2Utd2lkdGg6MS4wOyIgeDE9IjI1MSIgeDI9IjMzOS4zNzUiIHkxPSIyMDEuNjg3NSIgeTI9IjIwMS42ODc1Ii8+PGxpbmUgc3R5bGU9InN0cm9rZTojMTgxODE4O3N0cm9rZS13aWR0aDoxLjA7IiB4MT0iMzM5LjM3NSIgeDI9IjMzOS4zNzUiIHkxPSIyMDEuNjg3NSIgeTI9IjIyMy42ODc1Ii8+PHBvbHlnb24gZmlsbD0iIzE4MTgxOCIgcG9pbnRzPSIzMzUuMzc1LDIxMy42ODc1LDMzOS4zNzUsMjIzLjY4NzUsMzQzLjM3NSwyMTMuNjg3NSwzMzkuMzc1LDIxNy42ODc1IiBzdHlsZT0ic3Ryb2tlOiMxODE4MTg7c3Ryb2tlLXdpZHRoOjEuMDsiLz48bGluZSBzdHlsZT0ic3Ryb2tlOiMxODE4MTg7c3Ryb2tlLXdpZHRoOjEuMDsiIHgxPSI2OSIgeDI9IjY5IiB5MT0iMjU2LjUzMTMiIHkyPSI0NjYuNTMxMyIvPjxsaW5lIHN0eWxlPSJzdHJva2U6IzE4MTgxODtzdHJva2Utd2lkdGg6MS4wOyIgeDE9IjY5IiB4Mj0iMTkxIiB5MT0iNDY2LjUzMTMiIHkyPSI0NjYuNTMxMyIvPjxwb2x5Z29uIGZpbGw9IiMxODE4MTgiIHBvaW50cz0iMTgxLDQ2Mi41MzEzLDE5MSw0NjYuNTMxMywxODEsNDcwLjUzMTMsMTg1LDQ2Ni41MzEzIiBzdHlsZT0ic3Ryb2tlOiMxODE4MTg7c3Ryb2tlLXdpZHRoOjEuMDsiLz48bGluZSBzdHlsZT0ic3Ryb2tlOiMxODE4MTg7c3Ryb2tlLXdpZHRoOjEuMDsiIHgxPSIzMzkuMzc1IiB4Mj0iMzM5LjM3NSIgeTE9IjQ0OC41MzEzIiB5Mj0iNDY2LjUzMTMiLz48bGluZSBzdHlsZT0ic3Ryb2tlOiMxODE4MTg7c3Ryb2tlLXdpZHRoOjEuMDsiIHgxPSIzMzkuMzc1IiB4Mj0iMjE1IiB5MT0iNDY2LjUzMTMiIHkyPSI0NjYuNTMxMyIvPjxwb2x5Z29uIGZpbGw9IiMxODE4MTgiIHBvaW50cz0iMjI1LDQ2Mi41MzEzLDIxNSw0NjYuNTMxMywyMjUsNDcwLjUzMTMsMjIxLDQ2Ni41MzEzIiBzdHlsZT0ic3Ryb2tlOiMxODE4MTg7c3Ryb2tlLXdpZHRoOjEuMDsiLz48bGluZSBzdHlsZT0ic3Ryb2tlOiMxODE4MTg7c3Ryb2tlLXdpZHRoOjEuMDsiIHgxPSIyMDMiIHgyPSIyMDMiIHkxPSIxNjkuNjg3NSIgeTI9IjE4OS42ODc1Ii8+PHBvbHlnb24gZmlsbD0iIzE4MTgxOCIgcG9pbnRzPSIxOTksMTc5LjY4NzUsMjAzLDE4OS42ODc1LDIwNywxNzkuNjg3NSwyMDMsMTgzLjY4NzUiIHN0eWxlPSJzdHJva2U6IzE4MTgxODtzdHJva2Utd2lkdGg6MS4wOyIvPjxsaW5lIHN0eWxlPSJzdHJva2U6IzE4MTgxODtzdHJva2Utd2lkdGg6MS4wOyIgeDE9IjQ1NC4zMTI1IiB4Mj0iMjAzIiB5MT0iMTE0Ljg0MzgiIHkyPSIxMTQuODQzOCIvPjxsaW5lIHN0eWxlPSJzdHJva2U6IzE4MTgxODtzdHJva2Utd2lkdGg6MS4wOyIgeDE9IjIwMyIgeDI9IjIwMyIgeTE9IjExNC44NDM4IiB5Mj0iMTM2Ljg0MzgiLz48cG9seWdvbiBmaWxsPSIjMTgxODE4IiBwb2ludHM9IjE5OSwxMjYuODQzOCwyMDMsMTM2Ljg0MzgsMjA3LDEyNi44NDM4LDIwMywxMzAuODQzOCIgc3R5bGU9InN0cm9rZTojMTgxODE4O3N0cm9rZS13aWR0aDoxLjA7Ii8+PGxpbmUgc3R5bGU9InN0cm9rZTojMTgxODE4O3N0cm9rZS13aWR0aDoxLjA7IiB4MT0iNTYxLjMxMjUiIHgyPSI3NjIuNjI1IiB5MT0iMTE0Ljg0MzgiIHkyPSIxMTQuODQzOCIvPjxsaW5lIHN0eWxlPSJzdHJva2U6IzE4MTgxODtzdHJva2Utd2lkdGg6MS4wOyIgeDE9Ijc2Mi42MjUiIHgyPSI3NjIuNjI1IiB5MT0iMTE0Ljg0MzgiIHkyPSIxMzYuODQzOCIvPjxwb2x5Z29uIGZpbGw9IiMxODE4MTgiIHBvaW50cz0iNzU4LjYyNSwxMjYuODQzOCw3NjIuNjI1LDEzNi44NDM4LDc2Ni42MjUsMTI2Ljg0MzgsNzYyLjYyNSwxMzAuODQzOCIgc3R5bGU9InN0cm9rZTojMTgxODE4O3N0cm9rZS13aWR0aDoxLjA7Ii8+PGxpbmUgc3R5bGU9InN0cm9rZTojMTgxODE4O3N0cm9rZS13aWR0aDoxLjA7IiB4MT0iMjAzIiB4Mj0iMjAzIiB5MT0iNDc4LjUzMTMiIHkyPSI0OTYuNTMxMyIvPjxsaW5lIHN0eWxlPSJzdHJva2U6IzE4MTgxODtzdHJva2Utd2lkdGg6MS4wOyIgeDE9IjIwMyIgeDI9IjQ5NS44MTI1IiB5MT0iNDk2LjUzMTMiIHkyPSI0OTYuNTMxMyIvPjxwb2x5Z29uIGZpbGw9IiMxODE4MTgiIHBvaW50cz0iNDg1LjgxMjUsNDkyLjUzMTMsNDk1LjgxMjUsNDk2LjUzMTMsNDg1LjgxMjUsNTAwLjUzMTMsNDg5LjgxMjUsNDk2LjUzMTMiIHN0eWxlPSJzdHJva2U6IzE4MTgxODtzdHJva2Utd2lkdGg6MS4wOyIvPjxsaW5lIHN0eWxlPSJzdHJva2U6IzE4MTgxODtzdHJva2Utd2lkdGg6MS4wOyIgeDE9Ijc2Mi42MjUiIHgyPSI3NjIuNjI1IiB5MT0iMTY5LjY4NzUiIHkyPSI0OTYuNTMxMyIvPjxsaW5lIHN0eWxlPSJzdHJva2U6IzE4MTgxODtzdHJva2Utd2lkdGg6MS4wOyIgeDE9Ijc2Mi42MjUiIHgyPSI1MTkuODEyNSIgeTE9IjQ5Ni41MzEzIiB5Mj0iNDk2LjUzMTMiLz48cG9seWdvbiBmaWxsPSIjMTgxODE4IiBwb2ludHM9IjUyOS44MTI1LDQ5Mi41MzEzLDUxOS44MTI1LDQ5Ni41MzEzLDUyOS44MTI1LDUwMC41MzEzLDUyNS44MTI1LDQ5Ni41MzEzIiBzdHlsZT0ic3Ryb2tlOiMxODE4MTg7c3Ryb2tlLXdpZHRoOjEuMDsiLz48bGluZSBzdHlsZT0ic3Ryb2tlOiMxODE4MTg7c3Ryb2tlLXdpZHRoOjEuMDsiIHgxPSI1MDcuODEyNSIgeDI9IjUwNy44MTI1IiB5MT0iODIuODQzOCIgeTI9IjEwMi44NDM4Ii8+PHBvbHlnb24gZmlsbD0iIzE4MTgxOCIgcG9pbnRzPSI1MDMuODEyNSw5Mi44NDM4LDUwNy44MTI1LDEwMi44NDM4LDUxMS44MTI1LDkyLjg0MzgsNTA3LjgxMjUsOTYuODQzOCIgc3R5bGU9InN0cm9rZTojMTgxODE4O3N0cm9rZS13aWR0aDoxLjA7Ii8+PGxpbmUgc3R5bGU9InN0cm9rZTojMTgxODE4O3N0cm9rZS13aWR0aDoxLjA7IiB4MT0iNTA3LjgxMjUiIHgyPSI1MDcuODEyNSIgeTE9IjUwOC41MzEzIiB5Mj0iNTI4LjUzMTMiLz48cG9seWdvbiBmaWxsPSIjMTgxODE4IiBwb2ludHM9IjUwMy44MTI1LDUxOC41MzEzLDUwNy44MTI1LDUyOC41MzEzLDUxMS44MTI1LDUxOC41MzEzLDUwNy44MTI1LDUyMi41MzEzIiBzdHlsZT0ic3Ryb2tlOiMxODE4MTg7c3Ryb2tlLXdpZHRoOjEuMDsiLz48IS0tU1JDPVtBb3Y5QjJoWGlkZS1TX1ZKbExFVlJ6eHpWRlR5UXd4Q0QwTURQdEN3TnF2ZlUzZmJ0VkRyMnZ6RlE3aXNqX2RicDBkc2NXZWI2UWJ2MlhnTGdTTVFOMGYwT0ZMaW5oeGRJdE9YQXRxLWpVVmJ0NE5NTzZjR0lJeVJFZnpyaHVJZVVEZy13LWNrb1BaNkc4cGdORnZZT0ctb21jVFI2di1sdzhPT2JQZkpkQWdXYVBVRnE4MG1fRWN3SFN5d2poemlRN1luUEpic212NGlHNVFDUjA1c0l4M3dlZFZnaXp2cnAtT2xWUjUtNE14aENGczRmQ3FRSElic1F0N3hhSFloU1ZhT1lfTnVkTzFpcUR4OUpwanhXSDdwVEVxQ2QwUmJmTUljU1U0TUdWMFdCNUlCZVVkZnNWRzVhMUp0UEZfMlB1dGhoUmFXUWVqQnlXaTBdLS0+PC9nPjwvc3ZnPg==;" vertex="1" parent="1">
            <mxGeometry x="-630" y="2150" width="825" height="561" as="geometry" />
          </mxCell>
        </UserObject>
        <UserObject label="" plantUmlData="{&#xa;  &quot;data&quot;: &quot;@startuml\nstart\n:登录系统;\nif (有库存管理权限?) then (yes)\n    :显示库存管理界面;\n    if (选择商品报损?) then (yes)\n        :执行商品报损流程;\n    else (no)\n        if (选择商品报溢?) then (yes)\n            :执行商品报溢流程;\n        else (no)\n            if (选择库存报警?) then (yes)\n                :执行库存报警设置;\n            else (no)\n                if (选择报损报溢查询?) then (yes)\n                    :执行报损报溢查询;\n                else (no)\n                    :执行当前库存查询;\n                endif\n            endif\n        endif\n    endif\nelse (no)\n    :显示无权限信息;\nendif\nstop\n@enduml&quot;,&#xa;  &quot;format&quot;: &quot;svg&quot;&#xa;}" id="Gx-qXyAOR5Icjh0oVwRY-6">
          <mxCell style="shape=image;noLabel=1;verticalAlign=top;aspect=fixed;imageAspect=0;image=data:image/svg+xml,PD94bWwgdmVyc2lvbj0iMS4wIiBlbmNvZGluZz0idXMtYXNjaWkiIHN0YW5kYWxvbmU9Im5vIj8+PHN2ZyB4bWxucz0iaHR0cDovL3d3dy53My5vcmcvMjAwMC9zdmciIHhtbG5zOnhsaW5rPSJodHRwOi8vd3d3LnczLm9yZy8xOTk5L3hsaW5rIiBjb250ZW50U3R5bGVUeXBlPSJ0ZXh0L2NzcyIgaGVpZ2h0PSI1NjFweCIgcHJlc2VydmVBc3BlY3RSYXRpbz0ibm9uZSIgc3R5bGU9IndpZHRoOjgyNXB4O2hlaWdodDo1NjFweDtiYWNrZ3JvdW5kOiNGRkZGRkY7IiB2ZXJzaW9uPSIxLjEiIHZpZXdCb3g9IjAgMCA4MjUgNTYxIiB3aWR0aD0iODI1cHgiIHpvb21BbmRQYW49Im1hZ25pZnkiPjxkZWZzLz48Zz48ZWxsaXBzZSBjeD0iNTA3LjgxMjUiIGN5PSIyMCIgZmlsbD0iIzIyMjIyMiIgcng9IjEwIiByeT0iMTAiIHN0eWxlPSJzdHJva2U6IzIyMjIyMjtzdHJva2Utd2lkdGg6MS4wOyIvPjxyZWN0IGZpbGw9IiNGMUYxRjEiIGhlaWdodD0iMzIuODQzOCIgcng9IjEyLjUiIHJ5PSIxMi41IiBzdHlsZT0ic3Ryb2tlOiMxODE4MTg7c3Ryb2tlLXdpZHRoOjAuNTsiIHdpZHRoPSI2OCIgeD0iNDczLjgxMjUiIHk9IjUwIi8+PHRleHQgZmlsbD0iIzAwMDAwMCIgZm9udC1mYW1pbHk9InNhbnMtc2VyaWYiIGZvbnQtc2l6ZT0iMTIiIGxlbmd0aEFkanVzdD0ic3BhY2luZyIgdGV4dExlbmd0aD0iNDgiIHg9IjQ4My44MTI1IiB5PSI3MS4zNDM4Ij4mIzMwMzMxOyYjMjQ0MDU7JiMzMTk5NTsmIzMyNDc5OzwvdGV4dD48cG9seWdvbiBmaWxsPSIjRjFGMUYxIiBwb2ludHM9IjQ2Ni4zMTI1LDEwMi44NDM4LDU0OS4zMTI1LDEwMi44NDM4LDU2MS4zMTI1LDExNC44NDM4LDU0OS4zMTI1LDEyNi44NDM4LDQ2Ni4zMTI1LDEyNi44NDM4LDQ1NC4zMTI1LDExNC44NDM4LDQ2Ni4zMTI1LDEwMi44NDM4IiBzdHlsZT0ic3Ryb2tlOiMxODE4MTg7c3Ryb2tlLXdpZHRoOjAuNTsiLz48dGV4dCBmaWxsPSIjMDAwMDAwIiBmb250LWZhbWlseT0ic2Fucy1zZXJpZiIgZm9udC1zaXplPSIxMSIgbGVuZ3RoQWRqdXN0PSJzcGFjaW5nIiB0ZXh0TGVuZ3RoPSI4MyIgeD0iNDY2LjMxMjUiIHk9IjExOS4zNTU1Ij4mIzI2Mzc3OyYjMjQyMTE7JiMyMzM4NDsmIzMxNjQ5OyYjMjk3MDI7JiMyNjQzNTsmIzM4NDgwOz88L3RleHQ+PHRleHQgZmlsbD0iIzAwMDAwMCIgZm9udC1mYW1pbHk9InNhbnMtc2VyaWYiIGZvbnQtc2l6ZT0iMTEiIGxlbmd0aEFkanVzdD0ic3BhY2luZyIgdGV4dExlbmd0aD0iMTgiIHg9IjQzNi4zMTI1IiB5PSIxMTMuNDY4OCI+eWVzPC90ZXh0Pjx0ZXh0IGZpbGw9IiMwMDAwMDAiIGZvbnQtZmFtaWx5PSJzYW5zLXNlcmlmIiBmb250LXNpemU9IjExIiBsZW5ndGhBZGp1c3Q9InNwYWNpbmciIHRleHRMZW5ndGg9IjEyIiB4PSI1NjEuMzEyNSIgeT0iMTEzLjQ2ODgiPm5vPC90ZXh0PjxyZWN0IGZpbGw9IiNGMUYxRjEiIGhlaWdodD0iMzIuODQzOCIgcng9IjEyLjUiIHJ5PSIxMi41IiBzdHlsZT0ic3Ryb2tlOiMxODE4MTg7c3Ryb2tlLXdpZHRoOjAuNTsiIHdpZHRoPSIxMTYiIHg9IjE0NSIgeT0iMTM2Ljg0MzgiLz48dGV4dCBmaWxsPSIjMDAwMDAwIiBmb250LWZhbWlseT0ic2Fucy1zZXJpZiIgZm9udC1zaXplPSIxMiIgbGVuZ3RoQWRqdXN0PSJzcGFjaW5nIiB0ZXh0TGVuZ3RoPSI5NiIgeD0iMTU1IiB5PSIxNTguMTg3NSI+JiMyNjE3NDsmIzMxMDM0OyYjMjQyMTE7JiMyMzM4NDsmIzMxNjQ5OyYjMjk3MDI7JiMzMDAyODsmIzM4NzU0OzwvdGV4dD48cG9seWdvbiBmaWxsPSIjRjFGMUYxIiBwb2ludHM9IjE2NywxODkuNjg3NSwyMzksMTg5LjY4NzUsMjUxLDIwMS42ODc1LDIzOSwyMTMuNjg3NSwxNjcsMjEzLjY4NzUsMTU1LDIwMS42ODc1LDE2NywxODkuNjg3NSIgc3R5bGU9InN0cm9rZTojMTgxODE4O3N0cm9rZS13aWR0aDowLjU7Ii8+PHRleHQgZmlsbD0iIzAwMDAwMCIgZm9udC1mYW1pbHk9InNhbnMtc2VyaWYiIGZvbnQtc2l6ZT0iMTEiIGxlbmd0aEFkanVzdD0ic3BhY2luZyIgdGV4dExlbmd0aD0iNzIiIHg9IjE2NyIgeT0iMjA2LjE5OTIiPiYjMzY4NzM7JiMyNTMyMTsmIzIxODMwOyYjMjE2OTc7JiMyNTI1MzsmIzI1NDM5Oz88L3RleHQ+PHRleHQgZmlsbD0iIzAwMDAwMCIgZm9udC1mYW1pbHk9InNhbnMtc2VyaWYiIGZvbnQtc2l6ZT0iMTEiIGxlbmd0aEFkanVzdD0ic3BhY2luZyIgdGV4dExlbmd0aD0iMTgiIHg9IjEzNyIgeT0iMjAwLjMxMjUiPnllczwvdGV4dD48dGV4dCBmaWxsPSIjMDAwMDAwIiBmb250LWZhbWlseT0ic2Fucy1zZXJpZiIgZm9udC1zaXplPSIxMSIgbGVuZ3RoQWRqdXN0PSJzcGFjaW5nIiB0ZXh0TGVuZ3RoPSIxMiIgeD0iMjUxIiB5PSIyMDAuMzEyNSI+bm88L3RleHQ+PHJlY3QgZmlsbD0iI0YxRjFGMSIgaGVpZ2h0PSIzMi44NDM4IiByeD0iMTIuNSIgcnk9IjEyLjUiIHN0eWxlPSJzdHJva2U6IzE4MTgxODtzdHJva2Utd2lkdGg6MC41OyIgd2lkdGg9IjExNiIgeD0iMTEiIHk9IjIyMy42ODc1Ii8+PHRleHQgZmlsbD0iIzAwMDAwMCIgZm9udC1mYW1pbHk9InNhbnMtc2VyaWYiIGZvbnQtc2l6ZT0iMTIiIGxlbmd0aEFkanVzdD0ic3BhY2luZyIgdGV4dExlbmd0aD0iOTYiIHg9IjIxIiB5PSIyNDUuMDMxMyI+JiMyNTE5MTsmIzM0ODkyOyYjMjE4MzA7JiMyMTY5NzsmIzI1MjUzOyYjMjU0Mzk7JiMyNzk2OTsmIzMxMjQzOzwvdGV4dD48cG9seWdvbiBmaWxsPSIjRjFGMUYxIiBwb2ludHM9IjMwMy4zNzUsMjIzLjY4NzUsMzc1LjM3NSwyMjMuNjg3NSwzODcuMzc1LDIzNS42ODc1LDM3NS4zNzUsMjQ3LjY4NzUsMzAzLjM3NSwyNDcuNjg3NSwyOTEuMzc1LDIzNS42ODc1LDMwMy4zNzUsMjIzLjY4NzUiIHN0eWxlPSJzdHJva2U6IzE4MTgxODtzdHJva2Utd2lkdGg6MC41OyIvPjx0ZXh0IGZpbGw9IiMwMDAwMDAiIGZvbnQtZmFtaWx5PSJzYW5zLXNlcmlmIiBmb250LXNpemU9IjExIiBsZW5ndGhBZGp1c3Q9InNwYWNpbmciIHRleHRMZW5ndGg9IjcyIiB4PSIzMDMuMzc1IiB5PSIyNDAuMTk5MiI+JiMzNjg3MzsmIzI1MzIxOyYjMjE4MzA7JiMyMTY5NzsmIzI1MjUzOyYjMjgzMjI7PzwvdGV4dD48dGV4dCBmaWxsPSIjMDAwMDAwIiBmb250LWZhbWlseT0ic2Fucy1zZXJpZiIgZm9udC1zaXplPSIxMSIgbGVuZ3RoQWRqdXN0PSJzcGFjaW5nIiB0ZXh0TGVuZ3RoPSIxOCIgeD0iMjczLjM3NSIgeT0iMjM0LjMxMjUiPnllczwvdGV4dD48dGV4dCBmaWxsPSIjMDAwMDAwIiBmb250LWZhbWlseT0ic2Fucy1zZXJpZiIgZm9udC1zaXplPSIxMSIgbGVuZ3RoQWRqdXN0PSJzcGFjaW5nIiB0ZXh0TGVuZ3RoPSIxMiIgeD0iMzg3LjM3NSIgeT0iMjM0LjMxMjUiPm5vPC90ZXh0PjxyZWN0IGZpbGw9IiNGMUYxRjEiIGhlaWdodD0iMzIuODQzOCIgcng9IjEyLjUiIHJ5PSIxMi41IiBzdHlsZT0ic3Ryb2tlOiMxODE4MTg7c3Ryb2tlLXdpZHRoOjAuNTsiIHdpZHRoPSIxMTYiIHg9IjE1NC42MjUiIHk9IjI1Ny42ODc1Ii8+PHRleHQgZmlsbD0iIzAwMDAwMCIgZm9udC1mYW1pbHk9InNhbnMtc2VyaWYiIGZvbnQtc2l6ZT0iMTIiIGxlbmd0aEFkanVzdD0ic3BhY2luZyIgdGV4dExlbmd0aD0iOTYiIHg9IjE2NC42MjUiIHk9IjI3OS4wMzEzIj4mIzI1MTkxOyYjMzQ4OTI7JiMyMTgzMDsmIzIxNjk3OyYjMjUyNTM7JiMyODMyMjsmIzI3OTY5OyYjMzEyNDM7PC90ZXh0Pjxwb2x5Z29uIGZpbGw9IiNGMUYxRjEiIHBvaW50cz0iNDMwLjEyNSwyNTcuNjg3NSw1MDIuMTI1LDI1Ny42ODc1LDUxNC4xMjUsMjY5LjY4NzUsNTAyLjEyNSwyODEuNjg3NSw0MzAuMTI1LDI4MS42ODc1LDQxOC4xMjUsMjY5LjY4NzUsNDMwLjEyNSwyNTcuNjg3NSIgc3R5bGU9InN0cm9rZTojMTgxODE4O3N0cm9rZS13aWR0aDowLjU7Ii8+PHRleHQgZmlsbD0iIzAwMDAwMCIgZm9udC1mYW1pbHk9InNhbnMtc2VyaWYiIGZvbnQtc2l6ZT0iMTEiIGxlbmd0aEFkanVzdD0ic3BhY2luZyIgdGV4dExlbmd0aD0iNzIiIHg9IjQzMC4xMjUiIHk9IjI3NC4xOTkyIj4mIzM2ODczOyYjMjUzMjE7JiMyNDIxMTsmIzIzMzg0OyYjMjUyNTM7JiMzNTY4Njs/PC90ZXh0Pjx0ZXh0IGZpbGw9IiMwMDAwMDAiIGZvbnQtZmFtaWx5PSJzYW5zLXNlcmlmIiBmb250LXNpemU9IjExIiBsZW5ndGhBZGp1c3Q9InNwYWNpbmciIHRleHRMZW5ndGg9IjE4IiB4PSI0MDAuMTI1IiB5PSIyNjguMzEyNSI+eWVzPC90ZXh0Pjx0ZXh0IGZpbGw9IiMwMDAwMDAiIGZvbnQtZmFtaWx5PSJzYW5zLXNlcmlmIiBmb250LXNpemU9IjExIiBsZW5ndGhBZGp1c3Q9InNwYWNpbmciIHRleHRMZW5ndGg9IjEyIiB4PSI1MTQuMTI1IiB5PSIyNjguMzEyNSI+bm88L3RleHQ+PHJlY3QgZmlsbD0iI0YxRjFGMSIgaGVpZ2h0PSIzMi44NDM4IiByeD0iMTIuNSIgcnk9IjEyLjUiIHN0eWxlPSJzdHJva2U6IzE4MTgxODtzdHJva2Utd2lkdGg6MC41OyIgd2lkdGg9IjExNiIgeD0iMzAwLjYyNSIgeT0iMjkxLjY4NzUiLz48dGV4dCBmaWxsPSIjMDAwMDAwIiBmb250LWZhbWlseT0ic2Fucy1zZXJpZiIgZm9udC1zaXplPSIxMiIgbGVuZ3RoQWRqdXN0PSJzcGFjaW5nIiB0ZXh0TGVuZ3RoPSI5NiIgeD0iMzEwLjYyNSIgeT0iMzEzLjAzMTMiPiYjMjUxOTE7JiMzNDg5MjsmIzI0MjExOyYjMjMzODQ7JiMyNTI1MzsmIzM1Njg2OyYjMzU3NzQ7JiMzMjYyMjs8L3RleHQ+PHBvbHlnb24gZmlsbD0iI0YxRjFGMSIgcG9pbnRzPSI1MjYuNjI1LDI5MS42ODc1LDYyMC42MjUsMjkxLjY4NzUsNjMyLjYyNSwzMDMuNjg3NSw2MjAuNjI1LDMxNS42ODc1LDUyNi42MjUsMzE1LjY4NzUsNTE0LjYyNSwzMDMuNjg3NSw1MjYuNjI1LDI5MS42ODc1IiBzdHlsZT0ic3Ryb2tlOiMxODE4MTg7c3Ryb2tlLXdpZHRoOjAuNTsiLz48dGV4dCBmaWxsPSIjMDAwMDAwIiBmb250LWZhbWlseT0ic2Fucy1zZXJpZiIgZm9udC1zaXplPSIxMSIgbGVuZ3RoQWRqdXN0PSJzcGFjaW5nIiB0ZXh0TGVuZ3RoPSI5NCIgeD0iNTI2LjYyNSIgeT0iMzA4LjE5OTIiPiYjMzY4NzM7JiMyNTMyMTsmIzI1MjUzOyYjMjU0Mzk7JiMyNTI1MzsmIzI4MzIyOyYjMjY1OTc7JiMzNTgxMDs/PC90ZXh0Pjx0ZXh0IGZpbGw9IiMwMDAwMDAiIGZvbnQtZmFtaWx5PSJzYW5zLXNlcmlmIiBmb250LXNpemU9IjExIiBsZW5ndGhBZGp1c3Q9InNwYWNpbmciIHRleHRMZW5ndGg9IjE4IiB4PSI0OTYuNjI1IiB5PSIzMDIuMzEyNSI+eWVzPC90ZXh0Pjx0ZXh0IGZpbGw9IiMwMDAwMDAiIGZvbnQtZmFtaWx5PSJzYW5zLXNlcmlmIiBmb250LXNpemU9IjExIiBsZW5ndGhBZGp1c3Q9InNwYWNpbmciIHRleHRMZW5ndGg9IjEyIiB4PSI2MzIuNjI1IiB5PSIzMDIuMzEyNSI+bm88L3RleHQ+PHJlY3QgZmlsbD0iI0YxRjFGMSIgaGVpZ2h0PSIzMi44NDM4IiByeD0iMTIuNSIgcnk9IjEyLjUiIHN0eWxlPSJzdHJva2U6IzE4MTgxODtzdHJva2Utd2lkdGg6MC41OyIgd2lkdGg9IjExNiIgeD0iNDQ2LjYyNSIgeT0iMzI1LjY4NzUiLz48dGV4dCBmaWxsPSIjMDAwMDAwIiBmb250LWZhbWlseT0ic2Fucy1zZXJpZiIgZm9udC1zaXplPSIxMiIgbGVuZ3RoQWRqdXN0PSJzcGFjaW5nIiB0ZXh0TGVuZ3RoPSI5NiIgeD0iNDU2LjYyNSIgeT0iMzQ3LjAzMTMiPiYjMjUxOTE7JiMzNDg5MjsmIzI1MjUzOyYjMjU0Mzk7JiMyNTI1MzsmIzI4MzIyOyYjMjY1OTc7JiMzNTgxMDs8L3RleHQ+PHJlY3QgZmlsbD0iI0YxRjFGMSIgaGVpZ2h0PSIzMi44NDM4IiByeD0iMTIuNSIgcnk9IjEyLjUiIHN0eWxlPSJzdHJva2U6IzE4MTgxODtzdHJva2Utd2lkdGg6MC41OyIgd2lkdGg9IjExNiIgeD0iNTg0LjYyNSIgeT0iMzI1LjY4NzUiLz48dGV4dCBmaWxsPSIjMDAwMDAwIiBmb250LWZhbWlseT0ic2Fucy1zZXJpZiIgZm9udC1zaXplPSIxMiIgbGVuZ3RoQWRqdXN0PSJzcGFjaW5nIiB0ZXh0TGVuZ3RoPSI5NiIgeD0iNTk0LjYyNSIgeT0iMzQ3LjAzMTMiPiYjMjUxOTE7JiMzNDg5MjsmIzI0NDAzOyYjMjEwNjk7JiMyNDIxMTsmIzIzMzg0OyYjMjY1OTc7JiMzNTgxMDs8L3RleHQ+PHBvbHlnb24gZmlsbD0iI0YxRjFGMSIgcG9pbnRzPSI1NzMuNjI1LDM2NC41MzEzLDU4NS42MjUsMzc2LjUzMTMsNTczLjYyNSwzODguNTMxMyw1NjEuNjI1LDM3Ni41MzEzLDU3My42MjUsMzY0LjUzMTMiIHN0eWxlPSJzdHJva2U6IzE4MTgxODtzdHJva2Utd2lkdGg6MC41OyIvPjxwb2x5Z29uIGZpbGw9IiNGMUYxRjEiIHBvaW50cz0iNDY2LjEyNSwzOTQuNTMxMyw0NzguMTI1LDQwNi41MzEzLDQ2Ni4xMjUsNDE4LjUzMTMsNDU0LjEyNSw0MDYuNTMxMyw0NjYuMTI1LDM5NC41MzEzIiBzdHlsZT0ic3Ryb2tlOiMxODE4MTg7c3Ryb2tlLXdpZHRoOjAuNTsiLz48cG9seWdvbiBmaWxsPSIjRjFGMUYxIiBwb2ludHM9IjMzOS4zNzUsNDI0LjUzMTMsMzUxLjM3NSw0MzYuNTMxMywzMzkuMzc1LDQ0OC41MzEzLDMyNy4zNzUsNDM2LjUzMTMsMzM5LjM3NSw0MjQuNTMxMyIgc3R5bGU9InN0cm9rZTojMTgxODE4O3N0cm9rZS13aWR0aDowLjU7Ii8+PHBvbHlnb24gZmlsbD0iI0YxRjFGMSIgcG9pbnRzPSIyMDMsNDU0LjUzMTMsMjE1LDQ2Ni41MzEzLDIwMyw0NzguNTMxMywxOTEsNDY2LjUzMTMsMjAzLDQ1NC41MzEzIiBzdHlsZT0ic3Ryb2tlOiMxODE4MTg7c3Ryb2tlLXdpZHRoOjAuNTsiLz48cmVjdCBmaWxsPSIjRjFGMUYxIiBoZWlnaHQ9IjMyLjg0MzgiIHJ4PSIxMi41IiByeT0iMTIuNSIgc3R5bGU9InN0cm9rZTojMTgxODE4O3N0cm9rZS13aWR0aDowLjU7IiB3aWR0aD0iMTA0IiB4PSI3MTAuNjI1IiB5PSIxMzYuODQzOCIvPjx0ZXh0IGZpbGw9IiMwMDAwMDAiIGZvbnQtZmFtaWx5PSJzYW5zLXNlcmlmIiBmb250LXNpemU9IjEyIiBsZW5ndGhBZGp1c3Q9InNwYWNpbmciIHRleHRMZW5ndGg9Ijg0IiB4PSI3MjAuNjI1IiB5PSIxNTguMTg3NSI+JiMyNjE3NDsmIzMxMDM0OyYjMjYwODA7JiMyNjQzNTsmIzM4NDgwOyYjMjA0NDk7JiMyNDY4Nzs8L3RleHQ+PHBvbHlnb24gZmlsbD0iI0YxRjFGMSIgcG9pbnRzPSI1MDcuODEyNSw0ODQuNTMxMyw1MTkuODEyNSw0OTYuNTMxMyw1MDcuODEyNSw1MDguNTMxMyw0OTUuODEyNSw0OTYuNTMxMyw1MDcuODEyNSw0ODQuNTMxMyIgc3R5bGU9InN0cm9rZTojMTgxODE4O3N0cm9rZS13aWR0aDowLjU7Ii8+PGVsbGlwc2UgY3g9IjUwNy44MTI1IiBjeT0iNTM5LjUzMTMiIGZpbGw9Im5vbmUiIHJ4PSIxMSIgcnk9IjExIiBzdHlsZT0ic3Ryb2tlOiMyMjIyMjI7c3Ryb2tlLXdpZHRoOjEuMDsiLz48ZWxsaXBzZSBjeD0iNTA3LjgxMjUiIGN5PSI1MzkuNTMxMyIgZmlsbD0iIzIyMjIyMiIgcng9IjYiIHJ5PSI2IiBzdHlsZT0ic3Ryb2tlOiMyMjIyMjI7c3Ryb2tlLXdpZHRoOjEuMDsiLz48bGluZSBzdHlsZT0ic3Ryb2tlOiMxODE4MTg7c3Ryb2tlLXdpZHRoOjEuMDsiIHgxPSI1MDcuODEyNSIgeDI9IjUwNy44MTI1IiB5MT0iMzAiIHkyPSI1MCIvPjxwb2x5Z29uIGZpbGw9IiMxODE4MTgiIHBvaW50cz0iNTAzLjgxMjUsNDAsNTA3LjgxMjUsNTAsNTExLjgxMjUsNDAsNTA3LjgxMjUsNDQiIHN0eWxlPSJzdHJva2U6IzE4MTgxODtzdHJva2Utd2lkdGg6MS4wOyIvPjxsaW5lIHN0eWxlPSJzdHJva2U6IzE4MTgxODtzdHJva2Utd2lkdGg6MS4wOyIgeDE9IjUxNC42MjUiIHgyPSI1MDQuNjI1IiB5MT0iMzAzLjY4NzUiIHkyPSIzMDMuNjg3NSIvPjxsaW5lIHN0eWxlPSJzdHJva2U6IzE4MTgxODtzdHJva2Utd2lkdGg6MS4wOyIgeDE9IjUwNC42MjUiIHgyPSI1MDQuNjI1IiB5MT0iMzAzLjY4NzUiIHkyPSIzMjUuNjg3NSIvPjxwb2x5Z29uIGZpbGw9IiMxODE4MTgiIHBvaW50cz0iNTAwLjYyNSwzMTUuNjg3NSw1MDQuNjI1LDMyNS42ODc1LDUwOC42MjUsMzE1LjY4NzUsNTA0LjYyNSwzMTkuNjg3NSIgc3R5bGU9InN0cm9rZTojMTgxODE4O3N0cm9rZS13aWR0aDoxLjA7Ii8+PGxpbmUgc3R5bGU9InN0cm9rZTojMTgxODE4O3N0cm9rZS13aWR0aDoxLjA7IiB4MT0iNjMyLjYyNSIgeDI9IjY0Mi42MjUiIHkxPSIzMDMuNjg3NSIgeTI9IjMwMy42ODc1Ii8+PGxpbmUgc3R5bGU9InN0cm9rZTojMTgxODE4O3N0cm9rZS13aWR0aDoxLjA7IiB4MT0iNjQyLjYyNSIgeDI9IjY0Mi42MjUiIHkxPSIzMDMuNjg3NSIgeTI9IjMyNS42ODc1Ii8+PHBvbHlnb24gZmlsbD0iIzE4MTgxOCIgcG9pbnRzPSI2MzguNjI1LDMxNS42ODc1LDY0Mi42MjUsMzI1LjY4NzUsNjQ2LjYyNSwzMTUuNjg3NSw2NDIuNjI1LDMxOS42ODc1IiBzdHlsZT0ic3Ryb2tlOiMxODE4MTg7c3Ryb2tlLXdpZHRoOjEuMDsiLz48bGluZSBzdHlsZT0ic3Ryb2tlOiMxODE4MTg7c3Ryb2tlLXdpZHRoOjEuMDsiIHgxPSI1MDQuNjI1IiB4Mj0iNTA0LjYyNSIgeTE9IjM1OC41MzEzIiB5Mj0iMzc2LjUzMTMiLz48bGluZSBzdHlsZT0ic3Ryb2tlOiMxODE4MTg7c3Ryb2tlLXdpZHRoOjEuMDsiIHgxPSI1MDQuNjI1IiB4Mj0iNTYxLjYyNSIgeTE9IjM3Ni41MzEzIiB5Mj0iMzc2LjUzMTMiLz48cG9seWdvbiBmaWxsPSIjMTgxODE4IiBwb2ludHM9IjU1MS42MjUsMzcyLjUzMTMsNTYxLjYyNSwzNzYuNTMxMyw1NTEuNjI1LDM4MC41MzEzLDU1NS42MjUsMzc2LjUzMTMiIHN0eWxlPSJzdHJva2U6IzE4MTgxODtzdHJva2Utd2lkdGg6MS4wOyIvPjxsaW5lIHN0eWxlPSJzdHJva2U6IzE4MTgxODtzdHJva2Utd2lkdGg6MS4wOyIgeDE9IjY0Mi42MjUiIHgyPSI2NDIuNjI1IiB5MT0iMzU4LjUzMTMiIHkyPSIzNzYuNTMxMyIvPjxsaW5lIHN0eWxlPSJzdHJva2U6IzE4MTgxODtzdHJva2Utd2lkdGg6MS4wOyIgeDE9IjY0Mi42MjUiIHgyPSI1ODUuNjI1IiB5MT0iMzc2LjUzMTMiIHkyPSIzNzYuNTMxMyIvPjxwb2x5Z29uIGZpbGw9IiMxODE4MTgiIHBvaW50cz0iNTk1LjYyNSwzNzIuNTMxMyw1ODUuNjI1LDM3Ni41MzEzLDU5NS42MjUsMzgwLjUzMTMsNTkxLjYyNSwzNzYuNTMxMyIgc3R5bGU9InN0cm9rZTojMTgxODE4O3N0cm9rZS13aWR0aDoxLjA7Ii8+PGxpbmUgc3R5bGU9InN0cm9rZTojMTgxODE4O3N0cm9rZS13aWR0aDoxLjA7IiB4MT0iNDE4LjEyNSIgeDI9IjM1OC42MjUiIHkxPSIyNjkuNjg3NSIgeTI9IjI2OS42ODc1Ii8+PGxpbmUgc3R5bGU9InN0cm9rZTojMTgxODE4O3N0cm9rZS13aWR0aDoxLjA7IiB4MT0iMzU4LjYyNSIgeDI9IjM1OC42MjUiIHkxPSIyNjkuNjg3NSIgeTI9IjI5MS42ODc1Ii8+PHBvbHlnb24gZmlsbD0iIzE4MTgxOCIgcG9pbnRzPSIzNTQuNjI1LDI4MS42ODc1LDM1OC42MjUsMjkxLjY4NzUsMzYyLjYyNSwyODEuNjg3NSwzNTguNjI1LDI4NS42ODc1IiBzdHlsZT0ic3Ryb2tlOiMxODE4MTg7c3Ryb2tlLXdpZHRoOjEuMDsiLz48bGluZSBzdHlsZT0ic3Ryb2tlOiMxODE4MTg7c3Ryb2tlLXdpZHRoOjEuMDsiIHgxPSI1MTQuMTI1IiB4Mj0iNTczLjYyNSIgeTE9IjI2OS42ODc1IiB5Mj0iMjY5LjY4NzUiLz48bGluZSBzdHlsZT0ic3Ryb2tlOiMxODE4MTg7c3Ryb2tlLXdpZHRoOjEuMDsiIHgxPSI1NzMuNjI1IiB4Mj0iNTczLjYyNSIgeTE9IjI2OS42ODc1IiB5Mj0iMjkxLjY4NzUiLz48cG9seWdvbiBmaWxsPSIjMTgxODE4IiBwb2ludHM9IjU2OS42MjUsMjgxLjY4NzUsNTczLjYyNSwyOTEuNjg3NSw1NzcuNjI1LDI4MS42ODc1LDU3My42MjUsMjg1LjY4NzUiIHN0eWxlPSJzdHJva2U6IzE4MTgxODtzdHJva2Utd2lkdGg6MS4wOyIvPjxsaW5lIHN0eWxlPSJzdHJva2U6IzE4MTgxODtzdHJva2Utd2lkdGg6MS4wOyIgeDE9IjM1OC42MjUiIHgyPSIzNTguNjI1IiB5MT0iMzI0LjUzMTMiIHkyPSI0MDYuNTMxMyIvPjxsaW5lIHN0eWxlPSJzdHJva2U6IzE4MTgxODtzdHJva2Utd2lkdGg6MS4wOyIgeDE9IjM1OC42MjUiIHgyPSI0NTQuMTI1IiB5MT0iNDA2LjUzMTMiIHkyPSI0MDYuNTMxMyIvPjxwb2x5Z29uIGZpbGw9IiMxODE4MTgiIHBvaW50cz0iNDQ0LjEyNSw0MDIuNTMxMyw0NTQuMTI1LDQwNi41MzEzLDQ0NC4xMjUsNDEwLjUzMTMsNDQ4LjEyNSw0MDYuNTMxMyIgc3R5bGU9InN0cm9rZTojMTgxODE4O3N0cm9rZS13aWR0aDoxLjA7Ii8+PGxpbmUgc3R5bGU9InN0cm9rZTojMTgxODE4O3N0cm9rZS13aWR0aDoxLjA7IiB4MT0iNTczLjYyNSIgeDI9IjU3My42MjUiIHkxPSIzODguNTMxMyIgeTI9IjQwNi41MzEzIi8+PGxpbmUgc3R5bGU9InN0cm9rZTojMTgxODE4O3N0cm9rZS13aWR0aDoxLjA7IiB4MT0iNTczLjYyNSIgeDI9IjQ3OC4xMjUiIHkxPSI0MDYuNTMxMyIgeTI9IjQwNi41MzEzIi8+PHBvbHlnb24gZmlsbD0iIzE4MTgxOCIgcG9pbnRzPSI0ODguMTI1LDQwMi41MzEzLDQ3OC4xMjUsNDA2LjUzMTMsNDg4LjEyNSw0MTAuNTMxMyw0ODQuMTI1LDQwNi41MzEzIiBzdHlsZT0ic3Ryb2tlOiMxODE4MTg7c3Ryb2tlLXdpZHRoOjEuMDsiLz48bGluZSBzdHlsZT0ic3Ryb2tlOiMxODE4MTg7c3Ryb2tlLXdpZHRoOjEuMDsiIHgxPSIyOTEuMzc1IiB4Mj0iMjEyLjYyNSIgeTE9IjIzNS42ODc1IiB5Mj0iMjM1LjY4NzUiLz48bGluZSBzdHlsZT0ic3Ryb2tlOiMxODE4MTg7c3Ryb2tlLXdpZHRoOjEuMDsiIHgxPSIyMTIuNjI1IiB4Mj0iMjEyLjYyNSIgeTE9IjIzNS42ODc1IiB5Mj0iMjU3LjY4NzUiLz48cG9seWdvbiBmaWxsPSIjMTgxODE4IiBwb2ludHM9IjIwOC42MjUsMjQ3LjY4NzUsMjEyLjYyNSwyNTcuNjg3NSwyMTYuNjI1LDI0Ny42ODc1LDIxMi42MjUsMjUxLjY4NzUiIHN0eWxlPSJzdHJva2U6IzE4MTgxODtzdHJva2Utd2lkdGg6MS4wOyIvPjxsaW5lIHN0eWxlPSJzdHJva2U6IzE4MTgxODtzdHJva2Utd2lkdGg6MS4wOyIgeDE9IjM4Ny4zNzUiIHgyPSI0NjYuMTI1IiB5MT0iMjM1LjY4NzUiIHkyPSIyMzUuNjg3NSIvPjxsaW5lIHN0eWxlPSJzdHJva2U6IzE4MTgxODtzdHJva2Utd2lkdGg6MS4wOyIgeDE9IjQ2Ni4xMjUiIHgyPSI0NjYuMTI1IiB5MT0iMjM1LjY4NzUiIHkyPSIyNTcuNjg3NSIvPjxwb2x5Z29uIGZpbGw9IiMxODE4MTgiIHBvaW50cz0iNDYyLjEyNSwyNDcuNjg3NSw0NjYuMTI1LDI1Ny42ODc1LDQ3MC4xMjUsMjQ3LjY4NzUsNDY2LjEyNSwyNTEuNjg3NSIgc3R5bGU9InN0cm9rZTojMTgxODE4O3N0cm9rZS13aWR0aDoxLjA7Ii8+PGxpbmUgc3R5bGU9InN0cm9rZTojMTgxODE4O3N0cm9rZS13aWR0aDoxLjA7IiB4MT0iMjEyLjYyNSIgeDI9IjIxMi42MjUiIHkxPSIyOTAuNTMxMyIgeTI9IjQzNi41MzEzIi8+PGxpbmUgc3R5bGU9InN0cm9rZTojMTgxODE4O3N0cm9rZS13aWR0aDoxLjA7IiB4MT0iMjEyLjYyNSIgeDI9IjMyNy4zNzUiIHkxPSI0MzYuNTMxMyIgeTI9IjQzNi41MzEzIi8+PHBvbHlnb24gZmlsbD0iIzE4MTgxOCIgcG9pbnRzPSIzMTcuMzc1LDQzMi41MzEzLDMyNy4zNzUsNDM2LjUzMTMsMzE3LjM3NSw0NDAuNTMxMywzMjEuMzc1LDQzNi41MzEzIiBzdHlsZT0ic3Ryb2tlOiMxODE4MTg7c3Ryb2tlLXdpZHRoOjEuMDsiLz48bGluZSBzdHlsZT0ic3Ryb2tlOiMxODE4MTg7c3Ryb2tlLXdpZHRoOjEuMDsiIHgxPSI0NjYuMTI1IiB4Mj0iNDY2LjEyNSIgeTE9IjQxOC41MzEzIiB5Mj0iNDM2LjUzMTMiLz48bGluZSBzdHlsZT0ic3Ryb2tlOiMxODE4MTg7c3Ryb2tlLXdpZHRoOjEuMDsiIHgxPSI0NjYuMTI1IiB4Mj0iMzUxLjM3NSIgeTE9IjQzNi41MzEzIiB5Mj0iNDM2LjUzMTMiLz48cG9seWdvbiBmaWxsPSIjMTgxODE4IiBwb2ludHM9IjM2MS4zNzUsNDMyLjUzMTMsMzUxLjM3NSw0MzYuNTMxMywzNjEuMzc1LDQ0MC41MzEzLDM1Ny4zNzUsNDM2LjUzMTMiIHN0eWxlPSJzdHJva2U6IzE4MTgxODtzdHJva2Utd2lkdGg6MS4wOyIvPjxsaW5lIHN0eWxlPSJzdHJva2U6IzE4MTgxODtzdHJva2Utd2lkdGg6MS4wOyIgeDE9IjE1NSIgeDI9IjY5IiB5MT0iMjAxLjY4NzUiIHkyPSIyMDEuNjg3NSIvPjxsaW5lIHN0eWxlPSJzdHJva2U6IzE4MTgxODtzdHJva2Utd2lkdGg6MS4wOyIgeDE9IjY5IiB4Mj0iNjkiIHkxPSIyMDEuNjg3NSIgeTI9IjIyMy42ODc1Ii8+PHBvbHlnb24gZmlsbD0iIzE4MTgxOCIgcG9pbnRzPSI2NSwyMTMuNjg3NSw2OSwyMjMuNjg3NSw3MywyMTMuNjg3NSw2OSwyMTcuNjg3NSIgc3R5bGU9InN0cm9rZTojMTgxODE4O3N0cm9rZS13aWR0aDoxLjA7Ii8+PGxpbmUgc3R5bGU9InN0cm9rZTojMTgxODE4O3N0cm9rZS13aWR0aDoxLjA7IiB4MT0iMjUxIiB4Mj0iMzM5LjM3NSIgeTE9IjIwMS42ODc1IiB5Mj0iMjAxLjY4NzUiLz48bGluZSBzdHlsZT0ic3Ryb2tlOiMxODE4MTg7c3Ryb2tlLXdpZHRoOjEuMDsiIHgxPSIzMzkuMzc1IiB4Mj0iMzM5LjM3NSIgeTE9IjIwMS42ODc1IiB5Mj0iMjIzLjY4NzUiLz48cG9seWdvbiBmaWxsPSIjMTgxODE4IiBwb2ludHM9IjMzNS4zNzUsMjEzLjY4NzUsMzM5LjM3NSwyMjMuNjg3NSwzNDMuMzc1LDIxMy42ODc1LDMzOS4zNzUsMjE3LjY4NzUiIHN0eWxlPSJzdHJva2U6IzE4MTgxODtzdHJva2Utd2lkdGg6MS4wOyIvPjxsaW5lIHN0eWxlPSJzdHJva2U6IzE4MTgxODtzdHJva2Utd2lkdGg6MS4wOyIgeDE9IjY5IiB4Mj0iNjkiIHkxPSIyNTYuNTMxMyIgeTI9IjQ2Ni41MzEzIi8+PGxpbmUgc3R5bGU9InN0cm9rZTojMTgxODE4O3N0cm9rZS13aWR0aDoxLjA7IiB4MT0iNjkiIHgyPSIxOTEiIHkxPSI0NjYuNTMxMyIgeTI9IjQ2Ni41MzEzIi8+PHBvbHlnb24gZmlsbD0iIzE4MTgxOCIgcG9pbnRzPSIxODEsNDYyLjUzMTMsMTkxLDQ2Ni41MzEzLDE4MSw0NzAuNTMxMywxODUsNDY2LjUzMTMiIHN0eWxlPSJzdHJva2U6IzE4MTgxODtzdHJva2Utd2lkdGg6MS4wOyIvPjxsaW5lIHN0eWxlPSJzdHJva2U6IzE4MTgxODtzdHJva2Utd2lkdGg6MS4wOyIgeDE9IjMzOS4zNzUiIHgyPSIzMzkuMzc1IiB5MT0iNDQ4LjUzMTMiIHkyPSI0NjYuNTMxMyIvPjxsaW5lIHN0eWxlPSJzdHJva2U6IzE4MTgxODtzdHJva2Utd2lkdGg6MS4wOyIgeDE9IjMzOS4zNzUiIHgyPSIyMTUiIHkxPSI0NjYuNTMxMyIgeTI9IjQ2Ni41MzEzIi8+PHBvbHlnb24gZmlsbD0iIzE4MTgxOCIgcG9pbnRzPSIyMjUsNDYyLjUzMTMsMjE1LDQ2Ni41MzEzLDIyNSw0NzAuNTMxMywyMjEsNDY2LjUzMTMiIHN0eWxlPSJzdHJva2U6IzE4MTgxODtzdHJva2Utd2lkdGg6MS4wOyIvPjxsaW5lIHN0eWxlPSJzdHJva2U6IzE4MTgxODtzdHJva2Utd2lkdGg6MS4wOyIgeDE9IjIwMyIgeDI9IjIwMyIgeTE9IjE2OS42ODc1IiB5Mj0iMTg5LjY4NzUiLz48cG9seWdvbiBmaWxsPSIjMTgxODE4IiBwb2ludHM9IjE5OSwxNzkuNjg3NSwyMDMsMTg5LjY4NzUsMjA3LDE3OS42ODc1LDIwMywxODMuNjg3NSIgc3R5bGU9InN0cm9rZTojMTgxODE4O3N0cm9rZS13aWR0aDoxLjA7Ii8+PGxpbmUgc3R5bGU9InN0cm9rZTojMTgxODE4O3N0cm9rZS13aWR0aDoxLjA7IiB4MT0iNDU0LjMxMjUiIHgyPSIyMDMiIHkxPSIxMTQuODQzOCIgeTI9IjExNC44NDM4Ii8+PGxpbmUgc3R5bGU9InN0cm9rZTojMTgxODE4O3N0cm9rZS13aWR0aDoxLjA7IiB4MT0iMjAzIiB4Mj0iMjAzIiB5MT0iMTE0Ljg0MzgiIHkyPSIxMzYuODQzOCIvPjxwb2x5Z29uIGZpbGw9IiMxODE4MTgiIHBvaW50cz0iMTk5LDEyNi44NDM4LDIwMywxMzYuODQzOCwyMDcsMTI2Ljg0MzgsMjAzLDEzMC44NDM4IiBzdHlsZT0ic3Ryb2tlOiMxODE4MTg7c3Ryb2tlLXdpZHRoOjEuMDsiLz48bGluZSBzdHlsZT0ic3Ryb2tlOiMxODE4MTg7c3Ryb2tlLXdpZHRoOjEuMDsiIHgxPSI1NjEuMzEyNSIgeDI9Ijc2Mi42MjUiIHkxPSIxMTQuODQzOCIgeTI9IjExNC44NDM4Ii8+PGxpbmUgc3R5bGU9InN0cm9rZTojMTgxODE4O3N0cm9rZS13aWR0aDoxLjA7IiB4MT0iNzYyLjYyNSIgeDI9Ijc2Mi42MjUiIHkxPSIxMTQuODQzOCIgeTI9IjEzNi44NDM4Ii8+PHBvbHlnb24gZmlsbD0iIzE4MTgxOCIgcG9pbnRzPSI3NTguNjI1LDEyNi44NDM4LDc2Mi42MjUsMTM2Ljg0MzgsNzY2LjYyNSwxMjYuODQzOCw3NjIuNjI1LDEzMC44NDM4IiBzdHlsZT0ic3Ryb2tlOiMxODE4MTg7c3Ryb2tlLXdpZHRoOjEuMDsiLz48bGluZSBzdHlsZT0ic3Ryb2tlOiMxODE4MTg7c3Ryb2tlLXdpZHRoOjEuMDsiIHgxPSIyMDMiIHgyPSIyMDMiIHkxPSI0NzguNTMxMyIgeTI9IjQ5Ni41MzEzIi8+PGxpbmUgc3R5bGU9InN0cm9rZTojMTgxODE4O3N0cm9rZS13aWR0aDoxLjA7IiB4MT0iMjAzIiB4Mj0iNDk1LjgxMjUiIHkxPSI0OTYuNTMxMyIgeTI9IjQ5Ni41MzEzIi8+PHBvbHlnb24gZmlsbD0iIzE4MTgxOCIgcG9pbnRzPSI0ODUuODEyNSw0OTIuNTMxMyw0OTUuODEyNSw0OTYuNTMxMyw0ODUuODEyNSw1MDAuNTMxMyw0ODkuODEyNSw0OTYuNTMxMyIgc3R5bGU9InN0cm9rZTojMTgxODE4O3N0cm9rZS13aWR0aDoxLjA7Ii8+PGxpbmUgc3R5bGU9InN0cm9rZTojMTgxODE4O3N0cm9rZS13aWR0aDoxLjA7IiB4MT0iNzYyLjYyNSIgeDI9Ijc2Mi42MjUiIHkxPSIxNjkuNjg3NSIgeTI9IjQ5Ni41MzEzIi8+PGxpbmUgc3R5bGU9InN0cm9rZTojMTgxODE4O3N0cm9rZS13aWR0aDoxLjA7IiB4MT0iNzYyLjYyNSIgeDI9IjUxOS44MTI1IiB5MT0iNDk2LjUzMTMiIHkyPSI0OTYuNTMxMyIvPjxwb2x5Z29uIGZpbGw9IiMxODE4MTgiIHBvaW50cz0iNTI5LjgxMjUsNDkyLjUzMTMsNTE5LjgxMjUsNDk2LjUzMTMsNTI5LjgxMjUsNTAwLjUzMTMsNTI1LjgxMjUsNDk2LjUzMTMiIHN0eWxlPSJzdHJva2U6IzE4MTgxODtzdHJva2Utd2lkdGg6MS4wOyIvPjxsaW5lIHN0eWxlPSJzdHJva2U6IzE4MTgxODtzdHJva2Utd2lkdGg6MS4wOyIgeDE9IjUwNy44MTI1IiB4Mj0iNTA3LjgxMjUiIHkxPSI4Mi44NDM4IiB5Mj0iMTAyLjg0MzgiLz48cG9seWdvbiBmaWxsPSIjMTgxODE4IiBwb2ludHM9IjUwMy44MTI1LDkyLjg0MzgsNTA3LjgxMjUsMTAyLjg0MzgsNTExLjgxMjUsOTIuODQzOCw1MDcuODEyNSw5Ni44NDM4IiBzdHlsZT0ic3Ryb2tlOiMxODE4MTg7c3Ryb2tlLXdpZHRoOjEuMDsiLz48bGluZSBzdHlsZT0ic3Ryb2tlOiMxODE4MTg7c3Ryb2tlLXdpZHRoOjEuMDsiIHgxPSI1MDcuODEyNSIgeDI9IjUwNy44MTI1IiB5MT0iNTA4LjUzMTMiIHkyPSI1MjguNTMxMyIvPjxwb2x5Z29uIGZpbGw9IiMxODE4MTgiIHBvaW50cz0iNTAzLjgxMjUsNTE4LjUzMTMsNTA3LjgxMjUsNTI4LjUzMTMsNTExLjgxMjUsNTE4LjUzMTMsNTA3LjgxMjUsNTIyLjUzMTMiIHN0eWxlPSJzdHJva2U6IzE4MTgxODtzdHJva2Utd2lkdGg6MS4wOyIvPjwhLS1TUkM9W0FvdjlCMmhYaWRlLVNfVkpsTEVWUnp4elZGVHlRd3hDRDBNRFB0Q3dkLXdRXzdKalpFVmg1WndWcUZQaVJsRkJjSEZpREhMQUNiQnA1M0dnS3VpcmtISTBtRWhQWjd0RmItbjJMbGZ5UWlfQmtPa2ltVDhXYXJ1c1QzeGhObGJxUWpsSm9PdEZrZk8td3ZzRlFHcDRnQ3hiQm5SczgyanlqaE5uLU9ma1k1NmZFU01mMlhmdi1HV0RzMHBWakdZeHVMV2pzQks4c0dCaWJnMVAxRk9kS0UtQmpTam1NdUhpNlBBNjUtbHNGVC14cFhmNUFOT0JLSXM1WFdONG1WRU5sYllfMkJfTElEUFpRaE42Szh4UjJTWi1zM2x2UU1TbHIzVXUzQ2ZCb0twWm1ZczJ1NDVPZzFQM0t6QXB3R2lXUVV0OV9lTkY2alRSU3E3SzVmVmE1bTAwXS0tPjwvZz48L3N2Zz4=;" vertex="1" parent="1">
            <mxGeometry x="-650" y="2840" width="825" height="561" as="geometry" />
          </mxCell>
        </UserObject>
        <UserObject label="" plantUmlData="{&#xa;  &quot;data&quot;: &quot;@startuml\nstart\n:登录系统;\nif (有统计报表权限?) then (yes)\n    :显示统计报表界面;\n    if (选择供应商统计?) then (yes)\n        :执行供应商统计报表;\n    else (no)\n        if (选择客户统计?) then (yes)\n            :执行客户统计报表;\n        else (no)\n            if (选择商品采购统计?) then (yes)\n                :执行商品采购统计报表;\n            else (no)\n                if (选择商品销售统计?) then (yes)\n                    :执行商品销售统计报表;\n                else (no)\n                    if (选择按日统计分析?) then (yes)\n                        :执行按日统计分析报表;\n                    else (no)\n                        :执行按月统计分析报表;\n                    endif\n                endif\n            endif\n        endif\n    endif\nelse (no)\n    :显示无权限信息;\nendif\nstop\n@enduml&quot;,&#xa;  &quot;format&quot;: &quot;svg&quot;&#xa;}" id="Gx-qXyAOR5Icjh0oVwRY-7">
          <mxCell style="shape=image;noLabel=1;verticalAlign=top;aspect=fixed;imageAspect=0;image=data:image/svg+xml,PD94bWwgdmVyc2lvbj0iMS4wIiBlbmNvZGluZz0idXMtYXNjaWkiIHN0YW5kYWxvbmU9Im5vIj8+PHN2ZyB4bWxucz0iaHR0cDovL3d3dy53My5vcmcvMjAwMC9zdmciIHhtbG5zOnhsaW5rPSJodHRwOi8vd3d3LnczLm9yZy8xOTk5L3hsaW5rIiBjb250ZW50U3R5bGVUeXBlPSJ0ZXh0L2NzcyIgaGVpZ2h0PSI2MjVweCIgcHJlc2VydmVBc3BlY3RSYXRpbz0ibm9uZSIgc3R5bGU9IndpZHRoOjEwNjJweDtoZWlnaHQ6NjI1cHg7YmFja2dyb3VuZDojRkZGRkZGOyIgdmVyc2lvbj0iMS4xIiB2aWV3Qm94PSIwIDAgMTA2MiA2MjUiIHdpZHRoPSIxMDYycHgiIHpvb21BbmRQYW49Im1hZ25pZnkiPjxkZWZzLz48Zz48ZWxsaXBzZSBjeD0iNjM0LjQzNzUiIGN5PSIyMCIgZmlsbD0iIzIyMjIyMiIgcng9IjEwIiByeT0iMTAiIHN0eWxlPSJzdHJva2U6IzIyMjIyMjtzdHJva2Utd2lkdGg6MS4wOyIvPjxyZWN0IGZpbGw9IiNGMUYxRjEiIGhlaWdodD0iMzIuODQzOCIgcng9IjEyLjUiIHJ5PSIxMi41IiBzdHlsZT0ic3Ryb2tlOiMxODE4MTg7c3Ryb2tlLXdpZHRoOjAuNTsiIHdpZHRoPSI2OCIgeD0iNjAwLjQzNzUiIHk9IjUwIi8+PHRleHQgZmlsbD0iIzAwMDAwMCIgZm9udC1mYW1pbHk9InNhbnMtc2VyaWYiIGZvbnQtc2l6ZT0iMTIiIGxlbmd0aEFkanVzdD0ic3BhY2luZyIgdGV4dExlbmd0aD0iNDgiIHg9IjYxMC40Mzc1IiB5PSI3MS4zNDM4Ij4mIzMwMzMxOyYjMjQ0MDU7JiMzMTk5NTsmIzMyNDc5OzwvdGV4dD48cG9seWdvbiBmaWxsPSIjRjFGMUYxIiBwb2ludHM9IjU5Mi45Mzc1LDEwMi44NDM4LDY3NS45Mzc1LDEwMi44NDM4LDY4Ny45Mzc1LDExNC44NDM4LDY3NS45Mzc1LDEyNi44NDM4LDU5Mi45Mzc1LDEyNi44NDM4LDU4MC45Mzc1LDExNC44NDM4LDU5Mi45Mzc1LDEwMi44NDM4IiBzdHlsZT0ic3Ryb2tlOiMxODE4MTg7c3Ryb2tlLXdpZHRoOjAuNTsiLz48dGV4dCBmaWxsPSIjMDAwMDAwIiBmb250LWZhbWlseT0ic2Fucy1zZXJpZiIgZm9udC1zaXplPSIxMSIgbGVuZ3RoQWRqdXN0PSJzcGFjaW5nIiB0ZXh0TGVuZ3RoPSI4MyIgeD0iNTkyLjkzNzUiIHk9IjExOS4zNTU1Ij4mIzI2Mzc3OyYjMzI0Nzk7JiMzNTc0NTsmIzI1MjUzOyYjMzQ5MjA7JiMyNjQzNTsmIzM4NDgwOz88L3RleHQ+PHRleHQgZmlsbD0iIzAwMDAwMCIgZm9udC1mYW1pbHk9InNhbnMtc2VyaWYiIGZvbnQtc2l6ZT0iMTEiIGxlbmd0aEFkanVzdD0ic3BhY2luZyIgdGV4dExlbmd0aD0iMTgiIHg9IjU2Mi45Mzc1IiB5PSIxMTMuNDY4OCI+eWVzPC90ZXh0Pjx0ZXh0IGZpbGw9IiMwMDAwMDAiIGZvbnQtZmFtaWx5PSJzYW5zLXNlcmlmIiBmb250LXNpemU9IjExIiBsZW5ndGhBZGp1c3Q9InNwYWNpbmciIHRleHRMZW5ndGg9IjEyIiB4PSI2ODcuOTM3NSIgeT0iMTEzLjQ2ODgiPm5vPC90ZXh0PjxyZWN0IGZpbGw9IiNGMUYxRjEiIGhlaWdodD0iMzIuODQzOCIgcng9IjEyLjUiIHJ5PSIxMi41IiBzdHlsZT0ic3Ryb2tlOiMxODE4MTg7c3Ryb2tlLXdpZHRoOjAuNTsiIHdpZHRoPSIxMTYiIHg9IjE2Mi41IiB5PSIxMzYuODQzOCIvPjx0ZXh0IGZpbGw9IiMwMDAwMDAiIGZvbnQtZmFtaWx5PSJzYW5zLXNlcmlmIiBmb250LXNpemU9IjEyIiBsZW5ndGhBZGp1c3Q9InNwYWNpbmciIHRleHRMZW5ndGg9Ijk2IiB4PSIxNzIuNSIgeT0iMTU4LjE4NzUiPiYjMjYxNzQ7JiMzMTAzNDsmIzMyNDc5OyYjMzU3NDU7JiMyNTI1MzsmIzM0OTIwOyYjMzAwMjg7JiMzODc1NDs8L3RleHQ+PHBvbHlnb24gZmlsbD0iI0YxRjFGMSIgcG9pbnRzPSIxNzksMTg5LjY4NzUsMjYyLDE4OS42ODc1LDI3NCwyMDEuNjg3NSwyNjIsMjEzLjY4NzUsMTc5LDIxMy42ODc1LDE2NywyMDEuNjg3NSwxNzksMTg5LjY4NzUiIHN0eWxlPSJzdHJva2U6IzE4MTgxODtzdHJva2Utd2lkdGg6MC41OyIvPjx0ZXh0IGZpbGw9IiMwMDAwMDAiIGZvbnQtZmFtaWx5PSJzYW5zLXNlcmlmIiBmb250LXNpemU9IjExIiBsZW5ndGhBZGp1c3Q9InNwYWNpbmciIHRleHRMZW5ndGg9IjgzIiB4PSIxNzkiIHk9IjIwNi4xOTkyIj4mIzM2ODczOyYjMjUzMjE7JiMyMDM3OTsmIzI0MjEyOyYjMjE4MzA7JiMzMjQ3OTsmIzM1NzQ1Oz88L3RleHQ+PHRleHQgZmlsbD0iIzAwMDAwMCIgZm9udC1mYW1pbHk9InNhbnMtc2VyaWYiIGZvbnQtc2l6ZT0iMTEiIGxlbmd0aEFkanVzdD0ic3BhY2luZyIgdGV4dExlbmd0aD0iMTgiIHg9IjE0OSIgeT0iMjAwLjMxMjUiPnllczwvdGV4dD48dGV4dCBmaWxsPSIjMDAwMDAwIiBmb250LWZhbWlseT0ic2Fucy1zZXJpZiIgZm9udC1zaXplPSIxMSIgbGVuZ3RoQWRqdXN0PSJzcGFjaW5nIiB0ZXh0TGVuZ3RoPSIxMiIgeD0iMjc0IiB5PSIyMDAuMzEyNSI+bm88L3RleHQ+PHJlY3QgZmlsbD0iI0YxRjFGMSIgaGVpZ2h0PSIzMi44NDM4IiByeD0iMTIuNSIgcnk9IjEyLjUiIHN0eWxlPSJzdHJva2U6IzE4MTgxODtzdHJva2Utd2lkdGg6MC41OyIgd2lkdGg9IjEyOCIgeD0iMTEiIHk9IjIyMy42ODc1Ii8+PHRleHQgZmlsbD0iIzAwMDAwMCIgZm9udC1mYW1pbHk9InNhbnMtc2VyaWYiIGZvbnQtc2l6ZT0iMTIiIGxlbmd0aEFkanVzdD0ic3BhY2luZyIgdGV4dExlbmd0aD0iMTA4IiB4PSIyMSIgeT0iMjQ1LjAzMTMiPiYjMjUxOTE7JiMzNDg5MjsmIzIwMzc5OyYjMjQyMTI7JiMyMTgzMDsmIzMyNDc5OyYjMzU3NDU7JiMyNTI1MzsmIzM0OTIwOzwvdGV4dD48cG9seWdvbiBmaWxsPSIjRjFGMUYxIiBwb2ludHM9IjMyNiwyMjMuNjg3NSwzOTgsMjIzLjY4NzUsNDEwLDIzNS42ODc1LDM5OCwyNDcuNjg3NSwzMjYsMjQ3LjY4NzUsMzE0LDIzNS42ODc1LDMyNiwyMjMuNjg3NSIgc3R5bGU9InN0cm9rZTojMTgxODE4O3N0cm9rZS13aWR0aDowLjU7Ii8+PHRleHQgZmlsbD0iIzAwMDAwMCIgZm9udC1mYW1pbHk9InNhbnMtc2VyaWYiIGZvbnQtc2l6ZT0iMTEiIGxlbmd0aEFkanVzdD0ic3BhY2luZyIgdGV4dExlbmd0aD0iNzIiIHg9IjMyNiIgeT0iMjQwLjE5OTIiPiYjMzY4NzM7JiMyNTMyMTsmIzIzNDU4OyYjMjUxNDM7JiMzMjQ3OTsmIzM1NzQ1Oz88L3RleHQ+PHRleHQgZmlsbD0iIzAwMDAwMCIgZm9udC1mYW1pbHk9InNhbnMtc2VyaWYiIGZvbnQtc2l6ZT0iMTEiIGxlbmd0aEFkanVzdD0ic3BhY2luZyIgdGV4dExlbmd0aD0iMTgiIHg9IjI5NiIgeT0iMjM0LjMxMjUiPnllczwvdGV4dD48dGV4dCBmaWxsPSIjMDAwMDAwIiBmb250LWZhbWlseT0ic2Fucy1zZXJpZiIgZm9udC1zaXplPSIxMSIgbGVuZ3RoQWRqdXN0PSJzcGFjaW5nIiB0ZXh0TGVuZ3RoPSIxMiIgeD0iNDEwIiB5PSIyMzQuMzEyNSI+bm88L3RleHQ+PHJlY3QgZmlsbD0iI0YxRjFGMSIgaGVpZ2h0PSIzMi44NDM4IiByeD0iMTIuNSIgcnk9IjEyLjUiIHN0eWxlPSJzdHJva2U6IzE4MTgxODtzdHJva2Utd2lkdGg6MC41OyIgd2lkdGg9IjExNiIgeD0iMTYyLjEyNSIgeT0iMjU3LjY4NzUiLz48dGV4dCBmaWxsPSIjMDAwMDAwIiBmb250LWZhbWlseT0ic2Fucy1zZXJpZiIgZm9udC1zaXplPSIxMiIgbGVuZ3RoQWRqdXN0PSJzcGFjaW5nIiB0ZXh0TGVuZ3RoPSI5NiIgeD0iMTcyLjEyNSIgeT0iMjc5LjAzMTMiPiYjMjUxOTE7JiMzNDg5MjsmIzIzNDU4OyYjMjUxNDM7JiMzMjQ3OTsmIzM1NzQ1OyYjMjUyNTM7JiMzNDkyMDs8L3RleHQ+PHBvbHlnb24gZmlsbD0iI0YxRjFGMSIgcG9pbnRzPSI0NjcuNzUsMjU3LjY4NzUsNTYxLjc1LDI1Ny42ODc1LDU3My43NSwyNjkuNjg3NSw1NjEuNzUsMjgxLjY4NzUsNDY3Ljc1LDI4MS42ODc1LDQ1NS43NSwyNjkuNjg3NSw0NjcuNzUsMjU3LjY4NzUiIHN0eWxlPSJzdHJva2U6IzE4MTgxODtzdHJva2Utd2lkdGg6MC41OyIvPjx0ZXh0IGZpbGw9IiMwMDAwMDAiIGZvbnQtZmFtaWx5PSJzYW5zLXNlcmlmIiBmb250LXNpemU9IjExIiBsZW5ndGhBZGp1c3Q9InNwYWNpbmciIHRleHRMZW5ndGg9Ijk0IiB4PSI0NjcuNzUiIHk9IjI3NC4xOTkyIj4mIzM2ODczOyYjMjUzMjE7JiMyMTgzMDsmIzIxNjk3OyYjMzczMTk7JiMzNjE0MTsmIzMyNDc5OyYjMzU3NDU7PzwvdGV4dD48dGV4dCBmaWxsPSIjMDAwMDAwIiBmb250LWZhbWlseT0ic2Fucy1zZXJpZiIgZm9udC1zaXplPSIxMSIgbGVuZ3RoQWRqdXN0PSJzcGFjaW5nIiB0ZXh0TGVuZ3RoPSIxOCIgeD0iNDM3Ljc1IiB5PSIyNjguMzEyNSI+eWVzPC90ZXh0Pjx0ZXh0IGZpbGw9IiMwMDAwMDAiIGZvbnQtZmFtaWx5PSJzYW5zLXNlcmlmIiBmb250LXNpemU9IjExIiBsZW5ndGhBZGp1c3Q9InNwYWNpbmciIHRleHRMZW5ndGg9IjEyIiB4PSI1NzMuNzUiIHk9IjI2OC4zMTI1Ij5ubzwvdGV4dD48cmVjdCBmaWxsPSIjRjFGMUYxIiBoZWlnaHQ9IjMyLjg0MzgiIHJ4PSIxMi41IiByeT0iMTIuNSIgc3R5bGU9InN0cm9rZTojMTgxODE4O3N0cm9rZS13aWR0aDowLjU7IiB3aWR0aD0iMTQwIiB4PSIyOTcuMjUiIHk9IjI5MS42ODc1Ii8+PHRleHQgZmlsbD0iIzAwMDAwMCIgZm9udC1mYW1pbHk9InNhbnMtc2VyaWYiIGZvbnQtc2l6ZT0iMTIiIGxlbmd0aEFkanVzdD0ic3BhY2luZyIgdGV4dExlbmd0aD0iMTIwIiB4PSIzMDcuMjUiIHk9IjMxMy4wMzEzIj4mIzI1MTkxOyYjMzQ4OTI7JiMyMTgzMDsmIzIxNjk3OyYjMzczMTk7JiMzNjE0MTsmIzMyNDc5OyYjMzU3NDU7JiMyNTI1MzsmIzM0OTIwOzwvdGV4dD48cG9seWdvbiBmaWxsPSIjRjFGMUYxIiBwb2ludHM9IjYxNS4yNSwyOTEuNjg3NSw3MDkuMjUsMjkxLjY4NzUsNzIxLjI1LDMwMy42ODc1LDcwOS4yNSwzMTUuNjg3NSw2MTUuMjUsMzE1LjY4NzUsNjAzLjI1LDMwMy42ODc1LDYxNS4yNSwyOTEuNjg3NSIgc3R5bGU9InN0cm9rZTojMTgxODE4O3N0cm9rZS13aWR0aDowLjU7Ii8+PHRleHQgZmlsbD0iIzAwMDAwMCIgZm9udC1mYW1pbHk9InNhbnMtc2VyaWYiIGZvbnQtc2l6ZT0iMTEiIGxlbmd0aEFkanVzdD0ic3BhY2luZyIgdGV4dExlbmd0aD0iOTQiIHg9IjYxNS4yNSIgeT0iMzA4LjE5OTIiPiYjMzY4NzM7JiMyNTMyMTsmIzIxODMwOyYjMjE2OTc7JiMzODE0NDsmIzIxODA2OyYjMzI0Nzk7JiMzNTc0NTs/PC90ZXh0Pjx0ZXh0IGZpbGw9IiMwMDAwMDAiIGZvbnQtZmFtaWx5PSJzYW5zLXNlcmlmIiBmb250LXNpemU9IjExIiBsZW5ndGhBZGp1c3Q9InNwYWNpbmciIHRleHRMZW5ndGg9IjE4IiB4PSI1ODUuMjUiIHk9IjMwMi4zMTI1Ij55ZXM8L3RleHQ+PHRleHQgZmlsbD0iIzAwMDAwMCIgZm9udC1mYW1pbHk9InNhbnMtc2VyaWYiIGZvbnQtc2l6ZT0iMTEiIGxlbmd0aEFkanVzdD0ic3BhY2luZyIgdGV4dExlbmd0aD0iMTIiIHg9IjcyMS4yNSIgeT0iMzAyLjMxMjUiPm5vPC90ZXh0PjxyZWN0IGZpbGw9IiNGMUYxRjEiIGhlaWdodD0iMzIuODQzOCIgcng9IjEyLjUiIHJ5PSIxMi41IiBzdHlsZT0ic3Ryb2tlOiMxODE4MTg7c3Ryb2tlLXdpZHRoOjAuNTsiIHdpZHRoPSIxNDAiIHg9IjQ2Ny4yNSIgeT0iMzI1LjY4NzUiLz48dGV4dCBmaWxsPSIjMDAwMDAwIiBmb250LWZhbWlseT0ic2Fucy1zZXJpZiIgZm9udC1zaXplPSIxMiIgbGVuZ3RoQWRqdXN0PSJzcGFjaW5nIiB0ZXh0TGVuZ3RoPSIxMjAiIHg9IjQ3Ny4yNSIgeT0iMzQ3LjAzMTMiPiYjMjUxOTE7JiMzNDg5MjsmIzIxODMwOyYjMjE2OTc7JiMzODE0NDsmIzIxODA2OyYjMzI0Nzk7JiMzNTc0NTsmIzI1MjUzOyYjMzQ5MjA7PC90ZXh0Pjxwb2x5Z29uIGZpbGw9IiNGMUYxRjEiIHBvaW50cz0iNzQwLjI1LDMyNS42ODc1LDgzNC4yNSwzMjUuNjg3NSw4NDYuMjUsMzM3LjY4NzUsODM0LjI1LDM0OS42ODc1LDc0MC4yNSwzNDkuNjg3NSw3MjguMjUsMzM3LjY4NzUsNzQwLjI1LDMyNS42ODc1IiBzdHlsZT0ic3Ryb2tlOiMxODE4MTg7c3Ryb2tlLXdpZHRoOjAuNTsiLz48dGV4dCBmaWxsPSIjMDAwMDAwIiBmb250LWZhbWlseT0ic2Fucy1zZXJpZiIgZm9udC1zaXplPSIxMSIgbGVuZ3RoQWRqdXN0PSJzcGFjaW5nIiB0ZXh0TGVuZ3RoPSI5NCIgeD0iNzQwLjI1IiB5PSIzNDIuMTk5MiI+JiMzNjg3MzsmIzI1MzIxOyYjMjUzNTM7JiMyNjA4NTsmIzMyNDc5OyYjMzU3NDU7JiMyMDk5ODsmIzI2NTEyOz88L3RleHQ+PHRleHQgZmlsbD0iIzAwMDAwMCIgZm9udC1mYW1pbHk9InNhbnMtc2VyaWYiIGZvbnQtc2l6ZT0iMTEiIGxlbmd0aEFkanVzdD0ic3BhY2luZyIgdGV4dExlbmd0aD0iMTgiIHg9IjcxMC4yNSIgeT0iMzM2LjMxMjUiPnllczwvdGV4dD48dGV4dCBmaWxsPSIjMDAwMDAwIiBmb250LWZhbWlseT0ic2Fucy1zZXJpZiIgZm9udC1zaXplPSIxMSIgbGVuZ3RoQWRqdXN0PSJzcGFjaW5nIiB0ZXh0TGVuZ3RoPSIxMiIgeD0iODQ2LjI1IiB5PSIzMzYuMzEyNSI+bm88L3RleHQ+PHJlY3QgZmlsbD0iI0YxRjFGMSIgaGVpZ2h0PSIzMi44NDM4IiByeD0iMTIuNSIgcnk9IjEyLjUiIHN0eWxlPSJzdHJva2U6IzE4MTgxODtzdHJva2Utd2lkdGg6MC41OyIgd2lkdGg9IjE0MCIgeD0iNjM3LjI1IiB5PSIzNTkuNjg3NSIvPjx0ZXh0IGZpbGw9IiMwMDAwMDAiIGZvbnQtZmFtaWx5PSJzYW5zLXNlcmlmIiBmb250LXNpemU9IjEyIiBsZW5ndGhBZGp1c3Q9InNwYWNpbmciIHRleHRMZW5ndGg9IjEyMCIgeD0iNjQ3LjI1IiB5PSIzODEuMDMxMyI+JiMyNTE5MTsmIzM0ODkyOyYjMjUzNTM7JiMyNjA4NTsmIzMyNDc5OyYjMzU3NDU7JiMyMDk5ODsmIzI2NTEyOyYjMjUyNTM7JiMzNDkyMDs8L3RleHQ+PHJlY3QgZmlsbD0iI0YxRjFGMSIgaGVpZ2h0PSIzMi44NDM4IiByeD0iMTIuNSIgcnk9IjEyLjUiIHN0eWxlPSJzdHJva2U6IzE4MTgxODtzdHJva2Utd2lkdGg6MC41OyIgd2lkdGg9IjE0MCIgeD0iNzk3LjI1IiB5PSIzNTkuNjg3NSIvPjx0ZXh0IGZpbGw9IiMwMDAwMDAiIGZvbnQtZmFtaWx5PSJzYW5zLXNlcmlmIiBmb250LXNpemU9IjEyIiBsZW5ndGhBZGp1c3Q9InNwYWNpbmciIHRleHRMZW5ndGg9IjEyMCIgeD0iODA3LjI1IiB5PSIzODEuMDMxMyI+JiMyNTE5MTsmIzM0ODkyOyYjMjUzNTM7JiMyNjM3NjsmIzMyNDc5OyYjMzU3NDU7JiMyMDk5ODsmIzI2NTEyOyYjMjUyNTM7JiMzNDkyMDs8L3RleHQ+PHBvbHlnb24gZmlsbD0iI0YxRjFGMSIgcG9pbnRzPSI3ODcuMjUsMzk4LjUzMTMsNzk5LjI1LDQxMC41MzEzLDc4Ny4yNSw0MjIuNTMxMyw3NzUuMjUsNDEwLjUzMTMsNzg3LjI1LDM5OC41MzEzIiBzdHlsZT0ic3Ryb2tlOiMxODE4MTg7c3Ryb2tlLXdpZHRoOjAuNTsiLz48cG9seWdvbiBmaWxsPSIjRjFGMUYxIiBwb2ludHM9IjY2Mi4yNSw0MjguNTMxMyw2NzQuMjUsNDQwLjUzMTMsNjYyLjI1LDQ1Mi41MzEzLDY1MC4yNSw0NDAuNTMxMyw2NjIuMjUsNDI4LjUzMTMiIHN0eWxlPSJzdHJva2U6IzE4MTgxODtzdHJva2Utd2lkdGg6MC41OyIvPjxwb2x5Z29uIGZpbGw9IiNGMUYxRjEiIHBvaW50cz0iNTE0Ljc1LDQ1OC41MzEzLDUyNi43NSw0NzAuNTMxMyw1MTQuNzUsNDgyLjUzMTMsNTAyLjc1LDQ3MC41MzEzLDUxNC43NSw0NTguNTMxMyIgc3R5bGU9InN0cm9rZTojMTgxODE4O3N0cm9rZS13aWR0aDowLjU7Ii8+PHBvbHlnb24gZmlsbD0iI0YxRjFGMSIgcG9pbnRzPSIzNjIsNDg4LjUzMTMsMzc0LDUwMC41MzEzLDM2Miw1MTIuNTMxMywzNTAsNTAwLjUzMTMsMzYyLDQ4OC41MzEzIiBzdHlsZT0ic3Ryb2tlOiMxODE4MTg7c3Ryb2tlLXdpZHRoOjAuNTsiLz48cG9seWdvbiBmaWxsPSIjRjFGMUYxIiBwb2ludHM9IjIyMC41LDUxOC41MzEzLDIzMi41LDUzMC41MzEzLDIyMC41LDU0Mi41MzEzLDIwOC41LDUzMC41MzEzLDIyMC41LDUxOC41MzEzIiBzdHlsZT0ic3Ryb2tlOiMxODE4MTg7c3Ryb2tlLXdpZHRoOjAuNTsiLz48cmVjdCBmaWxsPSIjRjFGMUYxIiBoZWlnaHQ9IjMyLjg0MzgiIHJ4PSIxMi41IiByeT0iMTIuNSIgc3R5bGU9InN0cm9rZTojMTgxODE4O3N0cm9rZS13aWR0aDowLjU7IiB3aWR0aD0iMTA0IiB4PSI5NDcuMjUiIHk9IjEzNi44NDM4Ii8+PHRleHQgZmlsbD0iIzAwMDAwMCIgZm9udC1mYW1pbHk9InNhbnMtc2VyaWYiIGZvbnQtc2l6ZT0iMTIiIGxlbmd0aEFkanVzdD0ic3BhY2luZyIgdGV4dExlbmd0aD0iODQiIHg9Ijk1Ny4yNSIgeT0iMTU4LjE4NzUiPiYjMjYxNzQ7JiMzMTAzNDsmIzI2MDgwOyYjMjY0MzU7JiMzODQ4MDsmIzIwNDQ5OyYjMjQ2ODc7PC90ZXh0Pjxwb2x5Z29uIGZpbGw9IiNGMUYxRjEiIHBvaW50cz0iNjM0LjQzNzUsNTQ4LjUzMTMsNjQ2LjQzNzUsNTYwLjUzMTMsNjM0LjQzNzUsNTcyLjUzMTMsNjIyLjQzNzUsNTYwLjUzMTMsNjM0LjQzNzUsNTQ4LjUzMTMiIHN0eWxlPSJzdHJva2U6IzE4MTgxODtzdHJva2Utd2lkdGg6MC41OyIvPjxlbGxpcHNlIGN4PSI2MzQuNDM3NSIgY3k9IjYwMy41MzEzIiBmaWxsPSJub25lIiByeD0iMTEiIHJ5PSIxMSIgc3R5bGU9InN0cm9rZTojMjIyMjIyO3N0cm9rZS13aWR0aDoxLjA7Ii8+PGVsbGlwc2UgY3g9IjYzNC40Mzc1IiBjeT0iNjAzLjUzMTMiIGZpbGw9IiMyMjIyMjIiIHJ4PSI2IiByeT0iNiIgc3R5bGU9InN0cm9rZTojMjIyMjIyO3N0cm9rZS13aWR0aDoxLjA7Ii8+PGxpbmUgc3R5bGU9InN0cm9rZTojMTgxODE4O3N0cm9rZS13aWR0aDoxLjA7IiB4MT0iNjM0LjQzNzUiIHgyPSI2MzQuNDM3NSIgeTE9IjMwIiB5Mj0iNTAiLz48cG9seWdvbiBmaWxsPSIjMTgxODE4IiBwb2ludHM9IjYzMC40Mzc1LDQwLDYzNC40Mzc1LDUwLDYzOC40Mzc1LDQwLDYzNC40Mzc1LDQ0IiBzdHlsZT0ic3Ryb2tlOiMxODE4MTg7c3Ryb2tlLXdpZHRoOjEuMDsiLz48bGluZSBzdHlsZT0ic3Ryb2tlOiMxODE4MTg7c3Ryb2tlLXdpZHRoOjEuMDsiIHgxPSI3MjguMjUiIHgyPSI3MDcuMjUiIHkxPSIzMzcuNjg3NSIgeTI9IjMzNy42ODc1Ii8+PGxpbmUgc3R5bGU9InN0cm9rZTojMTgxODE4O3N0cm9rZS13aWR0aDoxLjA7IiB4MT0iNzA3LjI1IiB4Mj0iNzA3LjI1IiB5MT0iMzM3LjY4NzUiIHkyPSIzNTkuNjg3NSIvPjxwb2x5Z29uIGZpbGw9IiMxODE4MTgiIHBvaW50cz0iNzAzLjI1LDM0OS42ODc1LDcwNy4yNSwzNTkuNjg3NSw3MTEuMjUsMzQ5LjY4NzUsNzA3LjI1LDM1My42ODc1IiBzdHlsZT0ic3Ryb2tlOiMxODE4MTg7c3Ryb2tlLXdpZHRoOjEuMDsiLz48bGluZSBzdHlsZT0ic3Ryb2tlOiMxODE4MTg7c3Ryb2tlLXdpZHRoOjEuMDsiIHgxPSI4NDYuMjUiIHgyPSI4NjcuMjUiIHkxPSIzMzcuNjg3NSIgeTI9IjMzNy42ODc1Ii8+PGxpbmUgc3R5bGU9InN0cm9rZTojMTgxODE4O3N0cm9rZS13aWR0aDoxLjA7IiB4MT0iODY3LjI1IiB4Mj0iODY3LjI1IiB5MT0iMzM3LjY4NzUiIHkyPSIzNTkuNjg3NSIvPjxwb2x5Z29uIGZpbGw9IiMxODE4MTgiIHBvaW50cz0iODYzLjI1LDM0OS42ODc1LDg2Ny4yNSwzNTkuNjg3NSw4NzEuMjUsMzQ5LjY4NzUsODY3LjI1LDM1My42ODc1IiBzdHlsZT0ic3Ryb2tlOiMxODE4MTg7c3Ryb2tlLXdpZHRoOjEuMDsiLz48bGluZSBzdHlsZT0ic3Ryb2tlOiMxODE4MTg7c3Ryb2tlLXdpZHRoOjEuMDsiIHgxPSI3MDcuMjUiIHgyPSI3MDcuMjUiIHkxPSIzOTIuNTMxMyIgeTI9IjQxMC41MzEzIi8+PGxpbmUgc3R5bGU9InN0cm9rZTojMTgxODE4O3N0cm9rZS13aWR0aDoxLjA7IiB4MT0iNzA3LjI1IiB4Mj0iNzc1LjI1IiB5MT0iNDEwLjUzMTMiIHkyPSI0MTAuNTMxMyIvPjxwb2x5Z29uIGZpbGw9IiMxODE4MTgiIHBvaW50cz0iNzY1LjI1LDQwNi41MzEzLDc3NS4yNSw0MTAuNTMxMyw3NjUuMjUsNDE0LjUzMTMsNzY5LjI1LDQxMC41MzEzIiBzdHlsZT0ic3Ryb2tlOiMxODE4MTg7c3Ryb2tlLXdpZHRoOjEuMDsiLz48bGluZSBzdHlsZT0ic3Ryb2tlOiMxODE4MTg7c3Ryb2tlLXdpZHRoOjEuMDsiIHgxPSI4NjcuMjUiIHgyPSI4NjcuMjUiIHkxPSIzOTIuNTMxMyIgeTI9IjQxMC41MzEzIi8+PGxpbmUgc3R5bGU9InN0cm9rZTojMTgxODE4O3N0cm9rZS13aWR0aDoxLjA7IiB4MT0iODY3LjI1IiB4Mj0iNzk5LjI1IiB5MT0iNDEwLjUzMTMiIHkyPSI0MTAuNTMxMyIvPjxwb2x5Z29uIGZpbGw9IiMxODE4MTgiIHBvaW50cz0iODA5LjI1LDQwNi41MzEzLDc5OS4yNSw0MTAuNTMxMyw4MDkuMjUsNDE0LjUzMTMsODA1LjI1LDQxMC41MzEzIiBzdHlsZT0ic3Ryb2tlOiMxODE4MTg7c3Ryb2tlLXdpZHRoOjEuMDsiLz48bGluZSBzdHlsZT0ic3Ryb2tlOiMxODE4MTg7c3Ryb2tlLXdpZHRoOjEuMDsiIHgxPSI2MDMuMjUiIHgyPSI1MzcuMjUiIHkxPSIzMDMuNjg3NSIgeTI9IjMwMy42ODc1Ii8+PGxpbmUgc3R5bGU9InN0cm9rZTojMTgxODE4O3N0cm9rZS13aWR0aDoxLjA7IiB4MT0iNTM3LjI1IiB4Mj0iNTM3LjI1IiB5MT0iMzAzLjY4NzUiIHkyPSIzMjUuNjg3NSIvPjxwb2x5Z29uIGZpbGw9IiMxODE4MTgiIHBvaW50cz0iNTMzLjI1LDMxNS42ODc1LDUzNy4yNSwzMjUuNjg3NSw1NDEuMjUsMzE1LjY4NzUsNTM3LjI1LDMxOS42ODc1IiBzdHlsZT0ic3Ryb2tlOiMxODE4MTg7c3Ryb2tlLXdpZHRoOjEuMDsiLz48bGluZSBzdHlsZT0ic3Ryb2tlOiMxODE4MTg7c3Ryb2tlLXdpZHRoOjEuMDsiIHgxPSI3MjEuMjUiIHgyPSI3ODcuMjUiIHkxPSIzMDMuNjg3NSIgeTI9IjMwMy42ODc1Ii8+PGxpbmUgc3R5bGU9InN0cm9rZTojMTgxODE4O3N0cm9rZS13aWR0aDoxLjA7IiB4MT0iNzg3LjI1IiB4Mj0iNzg3LjI1IiB5MT0iMzAzLjY4NzUiIHkyPSIzMjUuNjg3NSIvPjxwb2x5Z29uIGZpbGw9IiMxODE4MTgiIHBvaW50cz0iNzgzLjI1LDMxNS42ODc1LDc4Ny4yNSwzMjUuNjg3NSw3OTEuMjUsMzE1LjY4NzUsNzg3LjI1LDMxOS42ODc1IiBzdHlsZT0ic3Ryb2tlOiMxODE4MTg7c3Ryb2tlLXdpZHRoOjEuMDsiLz48bGluZSBzdHlsZT0ic3Ryb2tlOiMxODE4MTg7c3Ryb2tlLXdpZHRoOjEuMDsiIHgxPSI1MzcuMjUiIHgyPSI1MzcuMjUiIHkxPSIzNTguNTMxMyIgeTI9IjQ0MC41MzEzIi8+PGxpbmUgc3R5bGU9InN0cm9rZTojMTgxODE4O3N0cm9rZS13aWR0aDoxLjA7IiB4MT0iNTM3LjI1IiB4Mj0iNjUwLjI1IiB5MT0iNDQwLjUzMTMiIHkyPSI0NDAuNTMxMyIvPjxwb2x5Z29uIGZpbGw9IiMxODE4MTgiIHBvaW50cz0iNjQwLjI1LDQzNi41MzEzLDY1MC4yNSw0NDAuNTMxMyw2NDAuMjUsNDQ0LjUzMTMsNjQ0LjI1LDQ0MC41MzEzIiBzdHlsZT0ic3Ryb2tlOiMxODE4MTg7c3Ryb2tlLXdpZHRoOjEuMDsiLz48bGluZSBzdHlsZT0ic3Ryb2tlOiMxODE4MTg7c3Ryb2tlLXdpZHRoOjEuMDsiIHgxPSI3ODcuMjUiIHgyPSI3ODcuMjUiIHkxPSI0MjIuNTMxMyIgeTI9IjQ0MC41MzEzIi8+PGxpbmUgc3R5bGU9InN0cm9rZTojMTgxODE4O3N0cm9rZS13aWR0aDoxLjA7IiB4MT0iNzg3LjI1IiB4Mj0iNjc0LjI1IiB5MT0iNDQwLjUzMTMiIHkyPSI0NDAuNTMxMyIvPjxwb2x5Z29uIGZpbGw9IiMxODE4MTgiIHBvaW50cz0iNjg0LjI1LDQzNi41MzEzLDY3NC4yNSw0NDAuNTMxMyw2ODQuMjUsNDQ0LjUzMTMsNjgwLjI1LDQ0MC41MzEzIiBzdHlsZT0ic3Ryb2tlOiMxODE4MTg7c3Ryb2tlLXdpZHRoOjEuMDsiLz48bGluZSBzdHlsZT0ic3Ryb2tlOiMxODE4MTg7c3Ryb2tlLXdpZHRoOjEuMDsiIHgxPSI0NTUuNzUiIHgyPSIzNjcuMjUiIHkxPSIyNjkuNjg3NSIgeTI9IjI2OS42ODc1Ii8+PGxpbmUgc3R5bGU9InN0cm9rZTojMTgxODE4O3N0cm9rZS13aWR0aDoxLjA7IiB4MT0iMzY3LjI1IiB4Mj0iMzY3LjI1IiB5MT0iMjY5LjY4NzUiIHkyPSIyOTEuNjg3NSIvPjxwb2x5Z29uIGZpbGw9IiMxODE4MTgiIHBvaW50cz0iMzYzLjI1LDI4MS42ODc1LDM2Ny4yNSwyOTEuNjg3NSwzNzEuMjUsMjgxLjY4NzUsMzY3LjI1LDI4NS42ODc1IiBzdHlsZT0ic3Ryb2tlOiMxODE4MTg7c3Ryb2tlLXdpZHRoOjEuMDsiLz48bGluZSBzdHlsZT0ic3Ryb2tlOiMxODE4MTg7c3Ryb2tlLXdpZHRoOjEuMDsiIHgxPSI1NzMuNzUiIHgyPSI2NjIuMjUiIHkxPSIyNjkuNjg3NSIgeTI9IjI2OS42ODc1Ii8+PGxpbmUgc3R5bGU9InN0cm9rZTojMTgxODE4O3N0cm9rZS13aWR0aDoxLjA7IiB4MT0iNjYyLjI1IiB4Mj0iNjYyLjI1IiB5MT0iMjY5LjY4NzUiIHkyPSIyOTEuNjg3NSIvPjxwb2x5Z29uIGZpbGw9IiMxODE4MTgiIHBvaW50cz0iNjU4LjI1LDI4MS42ODc1LDY2Mi4yNSwyOTEuNjg3NSw2NjYuMjUsMjgxLjY4NzUsNjYyLjI1LDI4NS42ODc1IiBzdHlsZT0ic3Ryb2tlOiMxODE4MTg7c3Ryb2tlLXdpZHRoOjEuMDsiLz48bGluZSBzdHlsZT0ic3Ryb2tlOiMxODE4MTg7c3Ryb2tlLXdpZHRoOjEuMDsiIHgxPSIzNjcuMjUiIHgyPSIzNjcuMjUiIHkxPSIzMjQuNTMxMyIgeTI9IjQ3MC41MzEzIi8+PGxpbmUgc3R5bGU9InN0cm9rZTojMTgxODE4O3N0cm9rZS13aWR0aDoxLjA7IiB4MT0iMzY3LjI1IiB4Mj0iNTAyLjc1IiB5MT0iNDcwLjUzMTMiIHkyPSI0NzAuNTMxMyIvPjxwb2x5Z29uIGZpbGw9IiMxODE4MTgiIHBvaW50cz0iNDkyLjc1LDQ2Ni41MzEzLDUwMi43NSw0NzAuNTMxMyw0OTIuNzUsNDc0LjUzMTMsNDk2Ljc1LDQ3MC41MzEzIiBzdHlsZT0ic3Ryb2tlOiMxODE4MTg7c3Ryb2tlLXdpZHRoOjEuMDsiLz48bGluZSBzdHlsZT0ic3Ryb2tlOiMxODE4MTg7c3Ryb2tlLXdpZHRoOjEuMDsiIHgxPSI2NjIuMjUiIHgyPSI2NjIuMjUiIHkxPSI0NTIuNTMxMyIgeTI9IjQ3MC41MzEzIi8+PGxpbmUgc3R5bGU9InN0cm9rZTojMTgxODE4O3N0cm9rZS13aWR0aDoxLjA7IiB4MT0iNjYyLjI1IiB4Mj0iNTI2Ljc1IiB5MT0iNDcwLjUzMTMiIHkyPSI0NzAuNTMxMyIvPjxwb2x5Z29uIGZpbGw9IiMxODE4MTgiIHBvaW50cz0iNTM2Ljc1LDQ2Ni41MzEzLDUyNi43NSw0NzAuNTMxMyw1MzYuNzUsNDc0LjUzMTMsNTMyLjc1LDQ3MC41MzEzIiBzdHlsZT0ic3Ryb2tlOiMxODE4MTg7c3Ryb2tlLXdpZHRoOjEuMDsiLz48bGluZSBzdHlsZT0ic3Ryb2tlOiMxODE4MTg7c3Ryb2tlLXdpZHRoOjEuMDsiIHgxPSIzMTQiIHgyPSIyMjAuMTI1IiB5MT0iMjM1LjY4NzUiIHkyPSIyMzUuNjg3NSIvPjxsaW5lIHN0eWxlPSJzdHJva2U6IzE4MTgxODtzdHJva2Utd2lkdGg6MS4wOyIgeDE9IjIyMC4xMjUiIHgyPSIyMjAuMTI1IiB5MT0iMjM1LjY4NzUiIHkyPSIyNTcuNjg3NSIvPjxwb2x5Z29uIGZpbGw9IiMxODE4MTgiIHBvaW50cz0iMjE2LjEyNSwyNDcuNjg3NSwyMjAuMTI1LDI1Ny42ODc1LDIyNC4xMjUsMjQ3LjY4NzUsMjIwLjEyNSwyNTEuNjg3NSIgc3R5bGU9InN0cm9rZTojMTgxODE4O3N0cm9rZS13aWR0aDoxLjA7Ii8+PGxpbmUgc3R5bGU9InN0cm9rZTojMTgxODE4O3N0cm9rZS13aWR0aDoxLjA7IiB4MT0iNDEwIiB4Mj0iNTE0Ljc1IiB5MT0iMjM1LjY4NzUiIHkyPSIyMzUuNjg3NSIvPjxsaW5lIHN0eWxlPSJzdHJva2U6IzE4MTgxODtzdHJva2Utd2lkdGg6MS4wOyIgeDE9IjUxNC43NSIgeDI9IjUxNC43NSIgeTE9IjIzNS42ODc1IiB5Mj0iMjU3LjY4NzUiLz48cG9seWdvbiBmaWxsPSIjMTgxODE4IiBwb2ludHM9IjUxMC43NSwyNDcuNjg3NSw1MTQuNzUsMjU3LjY4NzUsNTE4Ljc1LDI0Ny42ODc1LDUxNC43NSwyNTEuNjg3NSIgc3R5bGU9InN0cm9rZTojMTgxODE4O3N0cm9rZS13aWR0aDoxLjA7Ii8+PGxpbmUgc3R5bGU9InN0cm9rZTojMTgxODE4O3N0cm9rZS13aWR0aDoxLjA7IiB4MT0iMjIwLjEyNSIgeDI9IjIyMC4xMjUiIHkxPSIyOTAuNTMxMyIgeTI9IjUwMC41MzEzIi8+PGxpbmUgc3R5bGU9InN0cm9rZTojMTgxODE4O3N0cm9rZS13aWR0aDoxLjA7IiB4MT0iMjIwLjEyNSIgeDI9IjM1MCIgeTE9IjUwMC41MzEzIiB5Mj0iNTAwLjUzMTMiLz48cG9seWdvbiBmaWxsPSIjMTgxODE4IiBwb2ludHM9IjM0MCw0OTYuNTMxMywzNTAsNTAwLjUzMTMsMzQwLDUwNC41MzEzLDM0NCw1MDAuNTMxMyIgc3R5bGU9InN0cm9rZTojMTgxODE4O3N0cm9rZS13aWR0aDoxLjA7Ii8+PGxpbmUgc3R5bGU9InN0cm9rZTojMTgxODE4O3N0cm9rZS13aWR0aDoxLjA7IiB4MT0iNTE0Ljc1IiB4Mj0iNTE0Ljc1IiB5MT0iNDgyLjUzMTMiIHkyPSI1MDAuNTMxMyIvPjxsaW5lIHN0eWxlPSJzdHJva2U6IzE4MTgxODtzdHJva2Utd2lkdGg6MS4wOyIgeDE9IjUxNC43NSIgeDI9IjM3NCIgeTE9IjUwMC41MzEzIiB5Mj0iNTAwLjUzMTMiLz48cG9seWdvbiBmaWxsPSIjMTgxODE4IiBwb2ludHM9IjM4NCw0OTYuNTMxMywzNzQsNTAwLjUzMTMsMzg0LDUwNC41MzEzLDM4MCw1MDAuNTMxMyIgc3R5bGU9InN0cm9rZTojMTgxODE4O3N0cm9rZS13aWR0aDoxLjA7Ii8+PGxpbmUgc3R5bGU9InN0cm9rZTojMTgxODE4O3N0cm9rZS13aWR0aDoxLjA7IiB4MT0iMTY3IiB4Mj0iNzUiIHkxPSIyMDEuNjg3NSIgeTI9IjIwMS42ODc1Ii8+PGxpbmUgc3R5bGU9InN0cm9rZTojMTgxODE4O3N0cm9rZS13aWR0aDoxLjA7IiB4MT0iNzUiIHgyPSI3NSIgeTE9IjIwMS42ODc1IiB5Mj0iMjIzLjY4NzUiLz48cG9seWdvbiBmaWxsPSIjMTgxODE4IiBwb2ludHM9IjcxLDIxMy42ODc1LDc1LDIyMy42ODc1LDc5LDIxMy42ODc1LDc1LDIxNy42ODc1IiBzdHlsZT0ic3Ryb2tlOiMxODE4MTg7c3Ryb2tlLXdpZHRoOjEuMDsiLz48bGluZSBzdHlsZT0ic3Ryb2tlOiMxODE4MTg7c3Ryb2tlLXdpZHRoOjEuMDsiIHgxPSIyNzQiIHgyPSIzNjIiIHkxPSIyMDEuNjg3NSIgeTI9IjIwMS42ODc1Ii8+PGxpbmUgc3R5bGU9InN0cm9rZTojMTgxODE4O3N0cm9rZS13aWR0aDoxLjA7IiB4MT0iMzYyIiB4Mj0iMzYyIiB5MT0iMjAxLjY4NzUiIHkyPSIyMjMuNjg3NSIvPjxwb2x5Z29uIGZpbGw9IiMxODE4MTgiIHBvaW50cz0iMzU4LDIxMy42ODc1LDM2MiwyMjMuNjg3NSwzNjYsMjEzLjY4NzUsMzYyLDIxNy42ODc1IiBzdHlsZT0ic3Ryb2tlOiMxODE4MTg7c3Ryb2tlLXdpZHRoOjEuMDsiLz48bGluZSBzdHlsZT0ic3Ryb2tlOiMxODE4MTg7c3Ryb2tlLXdpZHRoOjEuMDsiIHgxPSI3NSIgeDI9Ijc1IiB5MT0iMjU2LjUzMTMiIHkyPSI1MzAuNTMxMyIvPjxsaW5lIHN0eWxlPSJzdHJva2U6IzE4MTgxODtzdHJva2Utd2lkdGg6MS4wOyIgeDE9Ijc1IiB4Mj0iMjA4LjUiIHkxPSI1MzAuNTMxMyIgeTI9IjUzMC41MzEzIi8+PHBvbHlnb24gZmlsbD0iIzE4MTgxOCIgcG9pbnRzPSIxOTguNSw1MjYuNTMxMywyMDguNSw1MzAuNTMxMywxOTguNSw1MzQuNTMxMywyMDIuNSw1MzAuNTMxMyIgc3R5bGU9InN0cm9rZTojMTgxODE4O3N0cm9rZS13aWR0aDoxLjA7Ii8+PGxpbmUgc3R5bGU9InN0cm9rZTojMTgxODE4O3N0cm9rZS13aWR0aDoxLjA7IiB4MT0iMzYyIiB4Mj0iMzYyIiB5MT0iNTEyLjUzMTMiIHkyPSI1MzAuNTMxMyIvPjxsaW5lIHN0eWxlPSJzdHJva2U6IzE4MTgxODtzdHJva2Utd2lkdGg6MS4wOyIgeDE9IjM2MiIgeDI9IjIzMi41IiB5MT0iNTMwLjUzMTMiIHkyPSI1MzAuNTMxMyIvPjxwb2x5Z29uIGZpbGw9IiMxODE4MTgiIHBvaW50cz0iMjQyLjUsNTI2LjUzMTMsMjMyLjUsNTMwLjUzMTMsMjQyLjUsNTM0LjUzMTMsMjM4LjUsNTMwLjUzMTMiIHN0eWxlPSJzdHJva2U6IzE4MTgxODtzdHJva2Utd2lkdGg6MS4wOyIvPjxsaW5lIHN0eWxlPSJzdHJva2U6IzE4MTgxODtzdHJva2Utd2lkdGg6MS4wOyIgeDE9IjIyMC41IiB4Mj0iMjIwLjUiIHkxPSIxNjkuNjg3NSIgeTI9IjE4OS42ODc1Ii8+PHBvbHlnb24gZmlsbD0iIzE4MTgxOCIgcG9pbnRzPSIyMTYuNSwxNzkuNjg3NSwyMjAuNSwxODkuNjg3NSwyMjQuNSwxNzkuNjg3NSwyMjAuNSwxODMuNjg3NSIgc3R5bGU9InN0cm9rZTojMTgxODE4O3N0cm9rZS13aWR0aDoxLjA7Ii8+PGxpbmUgc3R5bGU9InN0cm9rZTojMTgxODE4O3N0cm9rZS13aWR0aDoxLjA7IiB4MT0iNTgwLjkzNzUiIHgyPSIyMjAuNSIgeTE9IjExNC44NDM4IiB5Mj0iMTE0Ljg0MzgiLz48bGluZSBzdHlsZT0ic3Ryb2tlOiMxODE4MTg7c3Ryb2tlLXdpZHRoOjEuMDsiIHgxPSIyMjAuNSIgeDI9IjIyMC41IiB5MT0iMTE0Ljg0MzgiIHkyPSIxMzYuODQzOCIvPjxwb2x5Z29uIGZpbGw9IiMxODE4MTgiIHBvaW50cz0iMjE2LjUsMTI2Ljg0MzgsMjIwLjUsMTM2Ljg0MzgsMjI0LjUsMTI2Ljg0MzgsMjIwLjUsMTMwLjg0MzgiIHN0eWxlPSJzdHJva2U6IzE4MTgxODtzdHJva2Utd2lkdGg6MS4wOyIvPjxsaW5lIHN0eWxlPSJzdHJva2U6IzE4MTgxODtzdHJva2Utd2lkdGg6MS4wOyIgeDE9IjY4Ny45Mzc1IiB4Mj0iOTk5LjI1IiB5MT0iMTE0Ljg0MzgiIHkyPSIxMTQuODQzOCIvPjxsaW5lIHN0eWxlPSJzdHJva2U6IzE4MTgxODtzdHJva2Utd2lkdGg6MS4wOyIgeDE9Ijk5OS4yNSIgeDI9Ijk5OS4yNSIgeTE9IjExNC44NDM4IiB5Mj0iMTM2Ljg0MzgiLz48cG9seWdvbiBmaWxsPSIjMTgxODE4IiBwb2ludHM9Ijk5NS4yNSwxMjYuODQzOCw5OTkuMjUsMTM2Ljg0MzgsMTAwMy4yNSwxMjYuODQzOCw5OTkuMjUsMTMwLjg0MzgiIHN0eWxlPSJzdHJva2U6IzE4MTgxODtzdHJva2Utd2lkdGg6MS4wOyIvPjxsaW5lIHN0eWxlPSJzdHJva2U6IzE4MTgxODtzdHJva2Utd2lkdGg6MS4wOyIgeDE9IjIyMC41IiB4Mj0iMjIwLjUiIHkxPSI1NDIuNTMxMyIgeTI9IjU2MC41MzEzIi8+PGxpbmUgc3R5bGU9InN0cm9rZTojMTgxODE4O3N0cm9rZS13aWR0aDoxLjA7IiB4MT0iMjIwLjUiIHgyPSI2MjIuNDM3NSIgeTE9IjU2MC41MzEzIiB5Mj0iNTYwLjUzMTMiLz48cG9seWdvbiBmaWxsPSIjMTgxODE4IiBwb2ludHM9IjYxMi40Mzc1LDU1Ni41MzEzLDYyMi40Mzc1LDU2MC41MzEzLDYxMi40Mzc1LDU2NC41MzEzLDYxNi40Mzc1LDU2MC41MzEzIiBzdHlsZT0ic3Ryb2tlOiMxODE4MTg7c3Ryb2tlLXdpZHRoOjEuMDsiLz48bGluZSBzdHlsZT0ic3Ryb2tlOiMxODE4MTg7c3Ryb2tlLXdpZHRoOjEuMDsiIHgxPSI5OTkuMjUiIHgyPSI5OTkuMjUiIHkxPSIxNjkuNjg3NSIgeTI9IjU2MC41MzEzIi8+PGxpbmUgc3R5bGU9InN0cm9rZTojMTgxODE4O3N0cm9rZS13aWR0aDoxLjA7IiB4MT0iOTk5LjI1IiB4Mj0iNjQ2LjQzNzUiIHkxPSI1NjAuNTMxMyIgeTI9IjU2MC41MzEzIi8+PHBvbHlnb24gZmlsbD0iIzE4MTgxOCIgcG9pbnRzPSI2NTYuNDM3NSw1NTYuNTMxMyw2NDYuNDM3NSw1NjAuNTMxMyw2NTYuNDM3NSw1NjQuNTMxMyw2NTIuNDM3NSw1NjAuNTMxMyIgc3R5bGU9InN0cm9rZTojMTgxODE4O3N0cm9rZS13aWR0aDoxLjA7Ii8+PGxpbmUgc3R5bGU9InN0cm9rZTojMTgxODE4O3N0cm9rZS13aWR0aDoxLjA7IiB4MT0iNjM0LjQzNzUiIHgyPSI2MzQuNDM3NSIgeTE9IjgyLjg0MzgiIHkyPSIxMDIuODQzOCIvPjxwb2x5Z29uIGZpbGw9IiMxODE4MTgiIHBvaW50cz0iNjMwLjQzNzUsOTIuODQzOCw2MzQuNDM3NSwxMDIuODQzOCw2MzguNDM3NSw5Mi44NDM4LDYzNC40Mzc1LDk2Ljg0MzgiIHN0eWxlPSJzdHJva2U6IzE4MTgxODtzdHJva2Utd2lkdGg6MS4wOyIvPjxsaW5lIHN0eWxlPSJzdHJva2U6IzE4MTgxODtzdHJva2Utd2lkdGg6MS4wOyIgeDE9IjYzNC40Mzc1IiB4Mj0iNjM0LjQzNzUiIHkxPSI1NzIuNTMxMyIgeTI9IjU5Mi41MzEzIi8+PHBvbHlnb24gZmlsbD0iIzE4MTgxOCIgcG9pbnRzPSI2MzAuNDM3NSw1ODIuNTMxMyw2MzQuNDM3NSw1OTIuNTMxMyw2MzguNDM3NSw1ODIuNTMxMyw2MzQuNDM3NSw1ODYuNTMxMyIgc3R5bGU9InN0cm9rZTojMTgxODE4O3N0cm9rZS13aWR0aDoxLjA7Ii8+PCEtLVNSQz1bWlBDellpOTA2OFJ4RVNNS3lHZ2N5MnAySFhHYUJmaXFzb2IySjNJNU84QkF3Z3VISElzQ1hPOVdLMl9aVjlGU0dqU0hDbGRIRUROeWxEX3BGaXFlUWw1QkhOYXd6Q1pIZmJrRlVkeVlnZkltMDJGWmpsVFQxemZwdHJkMmsxYUNrdUtTTGlrSVo4TGxJU2FYVjVqdjY5cGV4QzE3Z01xNnV3YnVWX3VkMU5LM0VnbEJ3T1NTQjY5aEI5ZWFDUGdueTFxcGJjTE8xZklnWWVHNWtIUkVYMU40ZE9BLVZ5TmRFbFdtTnYxVTRZa29EVDloMUFzTWxyamRyVjZMWVI1dXlWRm9MMDZoSllwdDdPNmExM1VROWw1UTkyZTNmVzd6RU1DSE5PRlZSaE9DOXZHU1ZvUUtCSE4zWmxJdGlWOTdmT0lvUndDdHVPZGplZEFGaG03ejJWaXlieEMzWk9zOE01UEhRdnpOXS0tPjwvZz48L3N2Zz4=;" vertex="1" parent="1">
            <mxGeometry x="-740" y="3310" width="1062" height="625" as="geometry" />
          </mxCell>
        </UserObject>
        <UserObject label="" plantUmlData="{&#xa;  &quot;data&quot;: &quot;@startuml\nstart\n:登录系统;\nif (有基础资料管理权限?) then (yes)\n    :显示基础资料管理界面;\n    if (选择供应商管理?) then (yes)\n        :执行供应商管理;\n    else (no)\n        if (选择客户管理?) then (yes)\n            :执行客户管理;\n        else (no)\n            if (选择商品管理?) then (yes)\n                :执行商品管理;\n            else (no)\n                :执行期初库存设置;\n            endif\n        endif\n    endif\nelse (no)\n    :显示无权限信息;\nendif\nstop\n@enduml&quot;,&#xa;  &quot;format&quot;: &quot;svg&quot;&#xa;}" id="Gx-qXyAOR5Icjh0oVwRY-8">
          <mxCell style="shape=image;noLabel=1;verticalAlign=top;aspect=fixed;imageAspect=0;image=data:image/svg+xml,PD94bWwgdmVyc2lvbj0iMS4wIiBlbmNvZGluZz0idXMtYXNjaWkiIHN0YW5kYWxvbmU9Im5vIj8+PHN2ZyB4bWxucz0iaHR0cDovL3d3dy53My5vcmcvMjAwMC9zdmciIHhtbG5zOnhsaW5rPSJodHRwOi8vd3d3LnczLm9yZy8xOTk5L3hsaW5rIiBjb250ZW50U3R5bGVUeXBlPSJ0ZXh0L2NzcyIgaGVpZ2h0PSI0OTdweCIgcHJlc2VydmVBc3BlY3RSYXRpbz0ibm9uZSIgc3R5bGU9IndpZHRoOjYyMHB4O2hlaWdodDo0OTdweDtiYWNrZ3JvdW5kOiNGRkZGRkY7IiB2ZXJzaW9uPSIxLjEiIHZpZXdCb3g9IjAgMCA2MjAgNDk3IiB3aWR0aD0iNjIwcHgiIHpvb21BbmRQYW49Im1hZ25pZnkiPjxkZWZzLz48Zz48ZWxsaXBzZSBjeD0iMzg1IiBjeT0iMjAiIGZpbGw9IiMyMjIyMjIiIHJ4PSIxMCIgcnk9IjEwIiBzdHlsZT0ic3Ryb2tlOiMyMjIyMjI7c3Ryb2tlLXdpZHRoOjEuMDsiLz48cmVjdCBmaWxsPSIjRjFGMUYxIiBoZWlnaHQ9IjMyLjg0MzgiIHJ4PSIxMi41IiByeT0iMTIuNSIgc3R5bGU9InN0cm9rZTojMTgxODE4O3N0cm9rZS13aWR0aDowLjU7IiB3aWR0aD0iNjgiIHg9IjM1MSIgeT0iNTAiLz48dGV4dCBmaWxsPSIjMDAwMDAwIiBmb250LWZhbWlseT0ic2Fucy1zZXJpZiIgZm9udC1zaXplPSIxMiIgbGVuZ3RoQWRqdXN0PSJzcGFjaW5nIiB0ZXh0TGVuZ3RoPSI0OCIgeD0iMzYxIiB5PSI3MS4zNDM4Ij4mIzMwMzMxOyYjMjQ0MDU7JiMzMTk5NTsmIzMyNDc5OzwvdGV4dD48cG9seWdvbiBmaWxsPSIjRjFGMUYxIiBwb2ludHM9IjMzMi41LDEwMi44NDM4LDQzNy41LDEwMi44NDM4LDQ0OS41LDExNC44NDM4LDQzNy41LDEyNi44NDM4LDMzMi41LDEyNi44NDM4LDMyMC41LDExNC44NDM4LDMzMi41LDEwMi44NDM4IiBzdHlsZT0ic3Ryb2tlOiMxODE4MTg7c3Ryb2tlLXdpZHRoOjAuNTsiLz48dGV4dCBmaWxsPSIjMDAwMDAwIiBmb250LWZhbWlseT0ic2Fucy1zZXJpZiIgZm9udC1zaXplPSIxMSIgbGVuZ3RoQWRqdXN0PSJzcGFjaW5nIiB0ZXh0TGVuZ3RoPSIxMDUiIHg9IjMzMi41IiB5PSIxMTkuMzU1NSI+JiMyNjM3NzsmIzIyNTIyOyYjMzA3ODQ7JiMzNjE2NDsmIzI2MDA5OyYjMzE2NDk7JiMyOTcwMjsmIzI2NDM1OyYjMzg0ODA7PzwvdGV4dD48dGV4dCBmaWxsPSIjMDAwMDAwIiBmb250LWZhbWlseT0ic2Fucy1zZXJpZiIgZm9udC1zaXplPSIxMSIgbGVuZ3RoQWRqdXN0PSJzcGFjaW5nIiB0ZXh0TGVuZ3RoPSIxOCIgeD0iMzAyLjUiIHk9IjExMy40Njg4Ij55ZXM8L3RleHQ+PHRleHQgZmlsbD0iIzAwMDAwMCIgZm9udC1mYW1pbHk9InNhbnMtc2VyaWYiIGZvbnQtc2l6ZT0iMTEiIGxlbmd0aEFkanVzdD0ic3BhY2luZyIgdGV4dExlbmd0aD0iMTIiIHg9IjQ0OS41IiB5PSIxMTMuNDY4OCI+bm88L3RleHQ+PHJlY3QgZmlsbD0iI0YxRjFGMSIgaGVpZ2h0PSIzMi44NDM4IiByeD0iMTIuNSIgcnk9IjEyLjUiIHN0eWxlPSJzdHJva2U6IzE4MTgxODtzdHJva2Utd2lkdGg6MC41OyIgd2lkdGg9IjE0MCIgeD0iMTAzIiB5PSIxMzYuODQzOCIvPjx0ZXh0IGZpbGw9IiMwMDAwMDAiIGZvbnQtZmFtaWx5PSJzYW5zLXNlcmlmIiBmb250LXNpemU9IjEyIiBsZW5ndGhBZGp1c3Q9InNwYWNpbmciIHRleHRMZW5ndGg9IjEyMCIgeD0iMTEzIiB5PSIxNTguMTg3NSI+JiMyNjE3NDsmIzMxMDM0OyYjMjI1MjI7JiMzMDc4NDsmIzM2MTY0OyYjMjYwMDk7JiMzMTY0OTsmIzI5NzAyOyYjMzAwMjg7JiMzODc1NDs8L3RleHQ+PHBvbHlnb24gZmlsbD0iI0YxRjFGMSIgcG9pbnRzPSIxMzEuNSwxODkuNjg3NSwyMTQuNSwxODkuNjg3NSwyMjYuNSwyMDEuNjg3NSwyMTQuNSwyMTMuNjg3NSwxMzEuNSwyMTMuNjg3NSwxMTkuNSwyMDEuNjg3NSwxMzEuNSwxODkuNjg3NSIgc3R5bGU9InN0cm9rZTojMTgxODE4O3N0cm9rZS13aWR0aDowLjU7Ii8+PHRleHQgZmlsbD0iIzAwMDAwMCIgZm9udC1mYW1pbHk9InNhbnMtc2VyaWYiIGZvbnQtc2l6ZT0iMTEiIGxlbmd0aEFkanVzdD0ic3BhY2luZyIgdGV4dExlbmd0aD0iODMiIHg9IjEzMS41IiB5PSIyMDYuMTk5MiI+JiMzNjg3MzsmIzI1MzIxOyYjMjAzNzk7JiMyNDIxMjsmIzIxODMwOyYjMzE2NDk7JiMyOTcwMjs/PC90ZXh0Pjx0ZXh0IGZpbGw9IiMwMDAwMDAiIGZvbnQtZmFtaWx5PSJzYW5zLXNlcmlmIiBmb250LXNpemU9IjExIiBsZW5ndGhBZGp1c3Q9InNwYWNpbmciIHRleHRMZW5ndGg9IjE4IiB4PSIxMDEuNSIgeT0iMjAwLjMxMjUiPnllczwvdGV4dD48dGV4dCBmaWxsPSIjMDAwMDAwIiBmb250LWZhbWlseT0ic2Fucy1zZXJpZiIgZm9udC1zaXplPSIxMSIgbGVuZ3RoQWRqdXN0PSJzcGFjaW5nIiB0ZXh0TGVuZ3RoPSIxMiIgeD0iMjI2LjUiIHk9IjIwMC4zMTI1Ij5ubzwvdGV4dD48cmVjdCBmaWxsPSIjRjFGMUYxIiBoZWlnaHQ9IjMyLjg0MzgiIHJ4PSIxMi41IiByeT0iMTIuNSIgc3R5bGU9InN0cm9rZTojMTgxODE4O3N0cm9rZS13aWR0aDowLjU7IiB3aWR0aD0iMTA0IiB4PSIxMSIgeT0iMjIzLjY4NzUiLz48dGV4dCBmaWxsPSIjMDAwMDAwIiBmb250LWZhbWlseT0ic2Fucy1zZXJpZiIgZm9udC1zaXplPSIxMiIgbGVuZ3RoQWRqdXN0PSJzcGFjaW5nIiB0ZXh0TGVuZ3RoPSI4NCIgeD0iMjEiIHk9IjI0NS4wMzEzIj4mIzI1MTkxOyYjMzQ4OTI7JiMyMDM3OTsmIzI0MjEyOyYjMjE4MzA7JiMzMTY0OTsmIzI5NzAyOzwvdGV4dD48cG9seWdvbiBmaWxsPSIjRjFGMUYxIiBwb2ludHM9IjI0NywyMjMuNjg3NSwzMTksMjIzLjY4NzUsMzMxLDIzNS42ODc1LDMxOSwyNDcuNjg3NSwyNDcsMjQ3LjY4NzUsMjM1LDIzNS42ODc1LDI0NywyMjMuNjg3NSIgc3R5bGU9InN0cm9rZTojMTgxODE4O3N0cm9rZS13aWR0aDowLjU7Ii8+PHRleHQgZmlsbD0iIzAwMDAwMCIgZm9udC1mYW1pbHk9InNhbnMtc2VyaWYiIGZvbnQtc2l6ZT0iMTEiIGxlbmd0aEFkanVzdD0ic3BhY2luZyIgdGV4dExlbmd0aD0iNzIiIHg9IjI0NyIgeT0iMjQwLjE5OTIiPiYjMzY4NzM7JiMyNTMyMTsmIzIzNDU4OyYjMjUxNDM7JiMzMTY0OTsmIzI5NzAyOz88L3RleHQ+PHRleHQgZmlsbD0iIzAwMDAwMCIgZm9udC1mYW1pbHk9InNhbnMtc2VyaWYiIGZvbnQtc2l6ZT0iMTEiIGxlbmd0aEFkanVzdD0ic3BhY2luZyIgdGV4dExlbmd0aD0iMTgiIHg9IjIxNyIgeT0iMjM0LjMxMjUiPnllczwvdGV4dD48dGV4dCBmaWxsPSIjMDAwMDAwIiBmb250LWZhbWlseT0ic2Fucy1zZXJpZiIgZm9udC1zaXplPSIxMSIgbGVuZ3RoQWRqdXN0PSJzcGFjaW5nIiB0ZXh0TGVuZ3RoPSIxMiIgeD0iMzMxIiB5PSIyMzQuMzEyNSI+bm88L3RleHQ+PHJlY3QgZmlsbD0iI0YxRjFGMSIgaGVpZ2h0PSIzMi44NDM4IiByeD0iMTIuNSIgcnk9IjEyLjUiIHN0eWxlPSJzdHJva2U6IzE4MTgxODtzdHJva2Utd2lkdGg6MC41OyIgd2lkdGg9IjkyIiB4PSIxNDUiIHk9IjI1Ny42ODc1Ii8+PHRleHQgZmlsbD0iIzAwMDAwMCIgZm9udC1mYW1pbHk9InNhbnMtc2VyaWYiIGZvbnQtc2l6ZT0iMTIiIGxlbmd0aEFkanVzdD0ic3BhY2luZyIgdGV4dExlbmd0aD0iNzIiIHg9IjE1NSIgeT0iMjc5LjAzMTMiPiYjMjUxOTE7JiMzNDg5MjsmIzIzNDU4OyYjMjUxNDM7JiMzMTY0OTsmIzI5NzAyOzwvdGV4dD48cG9seWdvbiBmaWxsPSIjRjFGMUYxIiBwb2ludHM9IjMzOSwyNTcuNjg3NSw0MTEsMjU3LjY4NzUsNDIzLDI2OS42ODc1LDQxMSwyODEuNjg3NSwzMzksMjgxLjY4NzUsMzI3LDI2OS42ODc1LDMzOSwyNTcuNjg3NSIgc3R5bGU9InN0cm9rZTojMTgxODE4O3N0cm9rZS13aWR0aDowLjU7Ii8+PHRleHQgZmlsbD0iIzAwMDAwMCIgZm9udC1mYW1pbHk9InNhbnMtc2VyaWYiIGZvbnQtc2l6ZT0iMTEiIGxlbmd0aEFkanVzdD0ic3BhY2luZyIgdGV4dExlbmd0aD0iNzIiIHg9IjMzOSIgeT0iMjc0LjE5OTIiPiYjMzY4NzM7JiMyNTMyMTsmIzIxODMwOyYjMjE2OTc7JiMzMTY0OTsmIzI5NzAyOz88L3RleHQ+PHRleHQgZmlsbD0iIzAwMDAwMCIgZm9udC1mYW1pbHk9InNhbnMtc2VyaWYiIGZvbnQtc2l6ZT0iMTEiIGxlbmd0aEFkanVzdD0ic3BhY2luZyIgdGV4dExlbmd0aD0iMTgiIHg9IjMwOSIgeT0iMjY4LjMxMjUiPnllczwvdGV4dD48dGV4dCBmaWxsPSIjMDAwMDAwIiBmb250LWZhbWlseT0ic2Fucy1zZXJpZiIgZm9udC1zaXplPSIxMSIgbGVuZ3RoQWRqdXN0PSJzcGFjaW5nIiB0ZXh0TGVuZ3RoPSIxMiIgeD0iNDIzIiB5PSIyNjguMzEyNSI+bm88L3RleHQ+PHJlY3QgZmlsbD0iI0YxRjFGMSIgaGVpZ2h0PSIzMi44NDM4IiByeD0iMTIuNSIgcnk9IjEyLjUiIHN0eWxlPSJzdHJva2U6IzE4MTgxODtzdHJva2Utd2lkdGg6MC41OyIgd2lkdGg9IjkyIiB4PSIyNjciIHk9IjI5MS42ODc1Ii8+PHRleHQgZmlsbD0iIzAwMDAwMCIgZm9udC1mYW1pbHk9InNhbnMtc2VyaWYiIGZvbnQtc2l6ZT0iMTIiIGxlbmd0aEFkanVzdD0ic3BhY2luZyIgdGV4dExlbmd0aD0iNzIiIHg9IjI3NyIgeT0iMzEzLjAzMTMiPiYjMjUxOTE7JiMzNDg5MjsmIzIxODMwOyYjMjE2OTc7JiMzMTY0OTsmIzI5NzAyOzwvdGV4dD48cmVjdCBmaWxsPSIjRjFGMUYxIiBoZWlnaHQ9IjMyLjg0MzgiIHJ4PSIxMi41IiByeT0iMTIuNSIgc3R5bGU9InN0cm9rZTojMTgxODE4O3N0cm9rZS13aWR0aDowLjU7IiB3aWR0aD0iMTE2IiB4PSIzNzkiIHk9IjI5MS42ODc1Ii8+PHRleHQgZmlsbD0iIzAwMDAwMCIgZm9udC1mYW1pbHk9InNhbnMtc2VyaWYiIGZvbnQtc2l6ZT0iMTIiIGxlbmd0aEFkanVzdD0ic3BhY2luZyIgdGV4dExlbmd0aD0iOTYiIHg9IjM4OSIgeT0iMzEzLjAzMTMiPiYjMjUxOTE7JiMzNDg5MjsmIzI2Mzk5OyYjMjEwMjE7JiMyNDIxMTsmIzIzMzg0OyYjMzU3NzQ7JiMzMjYyMjs8L3RleHQ+PHBvbHlnb24gZmlsbD0iI0YxRjFGMSIgcG9pbnRzPSIzNzUsMzMwLjUzMTMsMzg3LDM0Mi41MzEzLDM3NSwzNTQuNTMxMywzNjMsMzQyLjUzMTMsMzc1LDMzMC41MzEzIiBzdHlsZT0ic3Ryb2tlOiMxODE4MTg7c3Ryb2tlLXdpZHRoOjAuNTsiLz48cG9seWdvbiBmaWxsPSIjRjFGMUYxIiBwb2ludHM9IjI4MywzNjAuNTMxMywyOTUsMzcyLjUzMTMsMjgzLDM4NC41MzEzLDI3MSwzNzIuNTMxMywyODMsMzYwLjUzMTMiIHN0eWxlPSJzdHJva2U6IzE4MTgxODtzdHJva2Utd2lkdGg6MC41OyIvPjxwb2x5Z29uIGZpbGw9IiNGMUYxRjEiIHBvaW50cz0iMTczLDM5MC41MzEzLDE4NSw0MDIuNTMxMywxNzMsNDE0LjUzMTMsMTYxLDQwMi41MzEzLDE3MywzOTAuNTMxMyIgc3R5bGU9InN0cm9rZTojMTgxODE4O3N0cm9rZS13aWR0aDowLjU7Ii8+PHJlY3QgZmlsbD0iI0YxRjFGMSIgaGVpZ2h0PSIzMi44NDM4IiByeD0iMTIuNSIgcnk9IjEyLjUiIHN0eWxlPSJzdHJva2U6IzE4MTgxODtzdHJva2Utd2lkdGg6MC41OyIgd2lkdGg9IjEwNCIgeD0iNTA1IiB5PSIxMzYuODQzOCIvPjx0ZXh0IGZpbGw9IiMwMDAwMDAiIGZvbnQtZmFtaWx5PSJzYW5zLXNlcmlmIiBmb250LXNpemU9IjEyIiBsZW5ndGhBZGp1c3Q9InNwYWNpbmciIHRleHRMZW5ndGg9Ijg0IiB4PSI1MTUiIHk9IjE1OC4xODc1Ij4mIzI2MTc0OyYjMzEwMzQ7JiMyNjA4MDsmIzI2NDM1OyYjMzg0ODA7JiMyMDQ0OTsmIzI0Njg3OzwvdGV4dD48cG9seWdvbiBmaWxsPSIjRjFGMUYxIiBwb2ludHM9IjM4NSw0MjAuNTMxMywzOTcsNDMyLjUzMTMsMzg1LDQ0NC41MzEzLDM3Myw0MzIuNTMxMywzODUsNDIwLjUzMTMiIHN0eWxlPSJzdHJva2U6IzE4MTgxODtzdHJva2Utd2lkdGg6MC41OyIvPjxlbGxpcHNlIGN4PSIzODUiIGN5PSI0NzUuNTMxMyIgZmlsbD0ibm9uZSIgcng9IjExIiByeT0iMTEiIHN0eWxlPSJzdHJva2U6IzIyMjIyMjtzdHJva2Utd2lkdGg6MS4wOyIvPjxlbGxpcHNlIGN4PSIzODUiIGN5PSI0NzUuNTMxMyIgZmlsbD0iIzIyMjIyMiIgcng9IjYiIHJ5PSI2IiBzdHlsZT0ic3Ryb2tlOiMyMjIyMjI7c3Ryb2tlLXdpZHRoOjEuMDsiLz48bGluZSBzdHlsZT0ic3Ryb2tlOiMxODE4MTg7c3Ryb2tlLXdpZHRoOjEuMDsiIHgxPSIzODUiIHgyPSIzODUiIHkxPSIzMCIgeTI9IjUwIi8+PHBvbHlnb24gZmlsbD0iIzE4MTgxOCIgcG9pbnRzPSIzODEsNDAsMzg1LDUwLDM4OSw0MCwzODUsNDQiIHN0eWxlPSJzdHJva2U6IzE4MTgxODtzdHJva2Utd2lkdGg6MS4wOyIvPjxsaW5lIHN0eWxlPSJzdHJva2U6IzE4MTgxODtzdHJva2Utd2lkdGg6MS4wOyIgeDE9IjMyNyIgeDI9IjMxMyIgeTE9IjI2OS42ODc1IiB5Mj0iMjY5LjY4NzUiLz48bGluZSBzdHlsZT0ic3Ryb2tlOiMxODE4MTg7c3Ryb2tlLXdpZHRoOjEuMDsiIHgxPSIzMTMiIHgyPSIzMTMiIHkxPSIyNjkuNjg3NSIgeTI9IjI5MS42ODc1Ii8+PHBvbHlnb24gZmlsbD0iIzE4MTgxOCIgcG9pbnRzPSIzMDksMjgxLjY4NzUsMzEzLDI5MS42ODc1LDMxNywyODEuNjg3NSwzMTMsMjg1LjY4NzUiIHN0eWxlPSJzdHJva2U6IzE4MTgxODtzdHJva2Utd2lkdGg6MS4wOyIvPjxsaW5lIHN0eWxlPSJzdHJva2U6IzE4MTgxODtzdHJva2Utd2lkdGg6MS4wOyIgeDE9IjQyMyIgeDI9IjQzNyIgeTE9IjI2OS42ODc1IiB5Mj0iMjY5LjY4NzUiLz48bGluZSBzdHlsZT0ic3Ryb2tlOiMxODE4MTg7c3Ryb2tlLXdpZHRoOjEuMDsiIHgxPSI0MzciIHgyPSI0MzciIHkxPSIyNjkuNjg3NSIgeTI9IjI5MS42ODc1Ii8+PHBvbHlnb24gZmlsbD0iIzE4MTgxOCIgcG9pbnRzPSI0MzMsMjgxLjY4NzUsNDM3LDI5MS42ODc1LDQ0MSwyODEuNjg3NSw0MzcsMjg1LjY4NzUiIHN0eWxlPSJzdHJva2U6IzE4MTgxODtzdHJva2Utd2lkdGg6MS4wOyIvPjxsaW5lIHN0eWxlPSJzdHJva2U6IzE4MTgxODtzdHJva2Utd2lkdGg6MS4wOyIgeDE9IjMxMyIgeDI9IjMxMyIgeTE9IjMyNC41MzEzIiB5Mj0iMzQyLjUzMTMiLz48bGluZSBzdHlsZT0ic3Ryb2tlOiMxODE4MTg7c3Ryb2tlLXdpZHRoOjEuMDsiIHgxPSIzMTMiIHgyPSIzNjMiIHkxPSIzNDIuNTMxMyIgeTI9IjM0Mi41MzEzIi8+PHBvbHlnb24gZmlsbD0iIzE4MTgxOCIgcG9pbnRzPSIzNTMsMzM4LjUzMTMsMzYzLDM0Mi41MzEzLDM1MywzNDYuNTMxMywzNTcsMzQyLjUzMTMiIHN0eWxlPSJzdHJva2U6IzE4MTgxODtzdHJva2Utd2lkdGg6MS4wOyIvPjxsaW5lIHN0eWxlPSJzdHJva2U6IzE4MTgxODtzdHJva2Utd2lkdGg6MS4wOyIgeDE9IjQzNyIgeDI9IjQzNyIgeTE9IjMyNC41MzEzIiB5Mj0iMzQyLjUzMTMiLz48bGluZSBzdHlsZT0ic3Ryb2tlOiMxODE4MTg7c3Ryb2tlLXdpZHRoOjEuMDsiIHgxPSI0MzciIHgyPSIzODciIHkxPSIzNDIuNTMxMyIgeTI9IjM0Mi41MzEzIi8+PHBvbHlnb24gZmlsbD0iIzE4MTgxOCIgcG9pbnRzPSIzOTcsMzM4LjUzMTMsMzg3LDM0Mi41MzEzLDM5NywzNDYuNTMxMywzOTMsMzQyLjUzMTMiIHN0eWxlPSJzdHJva2U6IzE4MTgxODtzdHJva2Utd2lkdGg6MS4wOyIvPjxsaW5lIHN0eWxlPSJzdHJva2U6IzE4MTgxODtzdHJva2Utd2lkdGg6MS4wOyIgeDE9IjIzNSIgeDI9IjE5MSIgeTE9IjIzNS42ODc1IiB5Mj0iMjM1LjY4NzUiLz48bGluZSBzdHlsZT0ic3Ryb2tlOiMxODE4MTg7c3Ryb2tlLXdpZHRoOjEuMDsiIHgxPSIxOTEiIHgyPSIxOTEiIHkxPSIyMzUuNjg3NSIgeTI9IjI1Ny42ODc1Ii8+PHBvbHlnb24gZmlsbD0iIzE4MTgxOCIgcG9pbnRzPSIxODcsMjQ3LjY4NzUsMTkxLDI1Ny42ODc1LDE5NSwyNDcuNjg3NSwxOTEsMjUxLjY4NzUiIHN0eWxlPSJzdHJva2U6IzE4MTgxODtzdHJva2Utd2lkdGg6MS4wOyIvPjxsaW5lIHN0eWxlPSJzdHJva2U6IzE4MTgxODtzdHJva2Utd2lkdGg6MS4wOyIgeDE9IjMzMSIgeDI9IjM3NSIgeTE9IjIzNS42ODc1IiB5Mj0iMjM1LjY4NzUiLz48bGluZSBzdHlsZT0ic3Ryb2tlOiMxODE4MTg7c3Ryb2tlLXdpZHRoOjEuMDsiIHgxPSIzNzUiIHgyPSIzNzUiIHkxPSIyMzUuNjg3NSIgeTI9IjI1Ny42ODc1Ii8+PHBvbHlnb24gZmlsbD0iIzE4MTgxOCIgcG9pbnRzPSIzNzEsMjQ3LjY4NzUsMzc1LDI1Ny42ODc1LDM3OSwyNDcuNjg3NSwzNzUsMjUxLjY4NzUiIHN0eWxlPSJzdHJva2U6IzE4MTgxODtzdHJva2Utd2lkdGg6MS4wOyIvPjxsaW5lIHN0eWxlPSJzdHJva2U6IzE4MTgxODtzdHJva2Utd2lkdGg6MS4wOyIgeDE9IjE5MSIgeDI9IjE5MSIgeTE9IjI5MC41MzEzIiB5Mj0iMzcyLjUzMTMiLz48bGluZSBzdHlsZT0ic3Ryb2tlOiMxODE4MTg7c3Ryb2tlLXdpZHRoOjEuMDsiIHgxPSIxOTEiIHgyPSIyNzEiIHkxPSIzNzIuNTMxMyIgeTI9IjM3Mi41MzEzIi8+PHBvbHlnb24gZmlsbD0iIzE4MTgxOCIgcG9pbnRzPSIyNjEsMzY4LjUzMTMsMjcxLDM3Mi41MzEzLDI2MSwzNzYuNTMxMywyNjUsMzcyLjUzMTMiIHN0eWxlPSJzdHJva2U6IzE4MTgxODtzdHJva2Utd2lkdGg6MS4wOyIvPjxsaW5lIHN0eWxlPSJzdHJva2U6IzE4MTgxODtzdHJva2Utd2lkdGg6MS4wOyIgeDE9IjM3NSIgeDI9IjM3NSIgeTE9IjM1NC41MzEzIiB5Mj0iMzcyLjUzMTMiLz48bGluZSBzdHlsZT0ic3Ryb2tlOiMxODE4MTg7c3Ryb2tlLXdpZHRoOjEuMDsiIHgxPSIzNzUiIHgyPSIyOTUiIHkxPSIzNzIuNTMxMyIgeTI9IjM3Mi41MzEzIi8+PHBvbHlnb24gZmlsbD0iIzE4MTgxOCIgcG9pbnRzPSIzMDUsMzY4LjUzMTMsMjk1LDM3Mi41MzEzLDMwNSwzNzYuNTMxMywzMDEsMzcyLjUzMTMiIHN0eWxlPSJzdHJva2U6IzE4MTgxODtzdHJva2Utd2lkdGg6MS4wOyIvPjxsaW5lIHN0eWxlPSJzdHJva2U6IzE4MTgxODtzdHJva2Utd2lkdGg6MS4wOyIgeDE9IjExOS41IiB4Mj0iNjMiIHkxPSIyMDEuNjg3NSIgeTI9IjIwMS42ODc1Ii8+PGxpbmUgc3R5bGU9InN0cm9rZTojMTgxODE4O3N0cm9rZS13aWR0aDoxLjA7IiB4MT0iNjMiIHgyPSI2MyIgeTE9IjIwMS42ODc1IiB5Mj0iMjIzLjY4NzUiLz48cG9seWdvbiBmaWxsPSIjMTgxODE4IiBwb2ludHM9IjU5LDIxMy42ODc1LDYzLDIyMy42ODc1LDY3LDIxMy42ODc1LDYzLDIxNy42ODc1IiBzdHlsZT0ic3Ryb2tlOiMxODE4MTg7c3Ryb2tlLXdpZHRoOjEuMDsiLz48bGluZSBzdHlsZT0ic3Ryb2tlOiMxODE4MTg7c3Ryb2tlLXdpZHRoOjEuMDsiIHgxPSIyMjYuNSIgeDI9IjI4MyIgeTE9IjIwMS42ODc1IiB5Mj0iMjAxLjY4NzUiLz48bGluZSBzdHlsZT0ic3Ryb2tlOiMxODE4MTg7c3Ryb2tlLXdpZHRoOjEuMDsiIHgxPSIyODMiIHgyPSIyODMiIHkxPSIyMDEuNjg3NSIgeTI9IjIyMy42ODc1Ii8+PHBvbHlnb24gZmlsbD0iIzE4MTgxOCIgcG9pbnRzPSIyNzksMjEzLjY4NzUsMjgzLDIyMy42ODc1LDI4NywyMTMuNjg3NSwyODMsMjE3LjY4NzUiIHN0eWxlPSJzdHJva2U6IzE4MTgxODtzdHJva2Utd2lkdGg6MS4wOyIvPjxsaW5lIHN0eWxlPSJzdHJva2U6IzE4MTgxODtzdHJva2Utd2lkdGg6MS4wOyIgeDE9IjYzIiB4Mj0iNjMiIHkxPSIyNTYuNTMxMyIgeTI9IjQwMi41MzEzIi8+PGxpbmUgc3R5bGU9InN0cm9rZTojMTgxODE4O3N0cm9rZS13aWR0aDoxLjA7IiB4MT0iNjMiIHgyPSIxNjEiIHkxPSI0MDIuNTMxMyIgeTI9IjQwMi41MzEzIi8+PHBvbHlnb24gZmlsbD0iIzE4MTgxOCIgcG9pbnRzPSIxNTEsMzk4LjUzMTMsMTYxLDQwMi41MzEzLDE1MSw0MDYuNTMxMywxNTUsNDAyLjUzMTMiIHN0eWxlPSJzdHJva2U6IzE4MTgxODtzdHJva2Utd2lkdGg6MS4wOyIvPjxsaW5lIHN0eWxlPSJzdHJva2U6IzE4MTgxODtzdHJva2Utd2lkdGg6MS4wOyIgeDE9IjI4MyIgeDI9IjI4MyIgeTE9IjM4NC41MzEzIiB5Mj0iNDAyLjUzMTMiLz48bGluZSBzdHlsZT0ic3Ryb2tlOiMxODE4MTg7c3Ryb2tlLXdpZHRoOjEuMDsiIHgxPSIyODMiIHgyPSIxODUiIHkxPSI0MDIuNTMxMyIgeTI9IjQwMi41MzEzIi8+PHBvbHlnb24gZmlsbD0iIzE4MTgxOCIgcG9pbnRzPSIxOTUsMzk4LjUzMTMsMTg1LDQwMi41MzEzLDE5NSw0MDYuNTMxMywxOTEsNDAyLjUzMTMiIHN0eWxlPSJzdHJva2U6IzE4MTgxODtzdHJva2Utd2lkdGg6MS4wOyIvPjxsaW5lIHN0eWxlPSJzdHJva2U6IzE4MTgxODtzdHJva2Utd2lkdGg6MS4wOyIgeDE9IjE3MyIgeDI9IjE3MyIgeTE9IjE2OS42ODc1IiB5Mj0iMTg5LjY4NzUiLz48cG9seWdvbiBmaWxsPSIjMTgxODE4IiBwb2ludHM9IjE2OSwxNzkuNjg3NSwxNzMsMTg5LjY4NzUsMTc3LDE3OS42ODc1LDE3MywxODMuNjg3NSIgc3R5bGU9InN0cm9rZTojMTgxODE4O3N0cm9rZS13aWR0aDoxLjA7Ii8+PGxpbmUgc3R5bGU9InN0cm9rZTojMTgxODE4O3N0cm9rZS13aWR0aDoxLjA7IiB4MT0iMzIwLjUiIHgyPSIxNzMiIHkxPSIxMTQuODQzOCIgeTI9IjExNC44NDM4Ii8+PGxpbmUgc3R5bGU9InN0cm9rZTojMTgxODE4O3N0cm9rZS13aWR0aDoxLjA7IiB4MT0iMTczIiB4Mj0iMTczIiB5MT0iMTE0Ljg0MzgiIHkyPSIxMzYuODQzOCIvPjxwb2x5Z29uIGZpbGw9IiMxODE4MTgiIHBvaW50cz0iMTY5LDEyNi44NDM4LDE3MywxMzYuODQzOCwxNzcsMTI2Ljg0MzgsMTczLDEzMC44NDM4IiBzdHlsZT0ic3Ryb2tlOiMxODE4MTg7c3Ryb2tlLXdpZHRoOjEuMDsiLz48bGluZSBzdHlsZT0ic3Ryb2tlOiMxODE4MTg7c3Ryb2tlLXdpZHRoOjEuMDsiIHgxPSI0NDkuNSIgeDI9IjU1NyIgeTE9IjExNC44NDM4IiB5Mj0iMTE0Ljg0MzgiLz48bGluZSBzdHlsZT0ic3Ryb2tlOiMxODE4MTg7c3Ryb2tlLXdpZHRoOjEuMDsiIHgxPSI1NTciIHgyPSI1NTciIHkxPSIxMTQuODQzOCIgeTI9IjEzNi44NDM4Ii8+PHBvbHlnb24gZmlsbD0iIzE4MTgxOCIgcG9pbnRzPSI1NTMsMTI2Ljg0MzgsNTU3LDEzNi44NDM4LDU2MSwxMjYuODQzOCw1NTcsMTMwLjg0MzgiIHN0eWxlPSJzdHJva2U6IzE4MTgxODtzdHJva2Utd2lkdGg6MS4wOyIvPjxsaW5lIHN0eWxlPSJzdHJva2U6IzE4MTgxODtzdHJva2Utd2lkdGg6MS4wOyIgeDE9IjE3MyIgeDI9IjE3MyIgeTE9IjQxNC41MzEzIiB5Mj0iNDMyLjUzMTMiLz48bGluZSBzdHlsZT0ic3Ryb2tlOiMxODE4MTg7c3Ryb2tlLXdpZHRoOjEuMDsiIHgxPSIxNzMiIHgyPSIzNzMiIHkxPSI0MzIuNTMxMyIgeTI9IjQzMi41MzEzIi8+PHBvbHlnb24gZmlsbD0iIzE4MTgxOCIgcG9pbnRzPSIzNjMsNDI4LjUzMTMsMzczLDQzMi41MzEzLDM2Myw0MzYuNTMxMywzNjcsNDMyLjUzMTMiIHN0eWxlPSJzdHJva2U6IzE4MTgxODtzdHJva2Utd2lkdGg6MS4wOyIvPjxsaW5lIHN0eWxlPSJzdHJva2U6IzE4MTgxODtzdHJva2Utd2lkdGg6MS4wOyIgeDE9IjU1NyIgeDI9IjU1NyIgeTE9IjE2OS42ODc1IiB5Mj0iNDMyLjUzMTMiLz48bGluZSBzdHlsZT0ic3Ryb2tlOiMxODE4MTg7c3Ryb2tlLXdpZHRoOjEuMDsiIHgxPSI1NTciIHgyPSIzOTciIHkxPSI0MzIuNTMxMyIgeTI9IjQzMi41MzEzIi8+PHBvbHlnb24gZmlsbD0iIzE4MTgxOCIgcG9pbnRzPSI0MDcsNDI4LjUzMTMsMzk3LDQzMi41MzEzLDQwNyw0MzYuNTMxMyw0MDMsNDMyLjUzMTMiIHN0eWxlPSJzdHJva2U6IzE4MTgxODtzdHJva2Utd2lkdGg6MS4wOyIvPjxsaW5lIHN0eWxlPSJzdHJva2U6IzE4MTgxODtzdHJva2Utd2lkdGg6MS4wOyIgeDE9IjM4NSIgeDI9IjM4NSIgeTE9IjgyLjg0MzgiIHkyPSIxMDIuODQzOCIvPjxwb2x5Z29uIGZpbGw9IiMxODE4MTgiIHBvaW50cz0iMzgxLDkyLjg0MzgsMzg1LDEwMi44NDM4LDM4OSw5Mi44NDM4LDM4NSw5Ni44NDM4IiBzdHlsZT0ic3Ryb2tlOiMxODE4MTg7c3Ryb2tlLXdpZHRoOjEuMDsiLz48bGluZSBzdHlsZT0ic3Ryb2tlOiMxODE4MTg7c3Ryb2tlLXdpZHRoOjEuMDsiIHgxPSIzODUiIHgyPSIzODUiIHkxPSI0NDQuNTMxMyIgeTI9IjQ2NC41MzEzIi8+PHBvbHlnb24gZmlsbD0iIzE4MTgxOCIgcG9pbnRzPSIzODEsNDU0LjUzMTMsMzg1LDQ2NC41MzEzLDM4OSw0NTQuNTMxMywzODUsNDU4LjUzMTMiIHN0eWxlPSJzdHJva2U6IzE4MTgxODtzdHJva2Utd2lkdGg6MS4wOyIvPjwhLS1TUkM9W1hQNzFRaTkwNDhSbC1uSHhaQV9XN2RvTUdZQ0w5NGdKSXN6QTlIWnE4NllpZU9PT0FPWTduYUNIOFM3dUNpdkN5WFBqTlQ0ckFOTEVDXzN6dHR5T3F0ZnVqYllMbDBKc0JkcWJiMEkyRFVmU214YTNHS25YOXpsc1NFZkg1REI4SGx5cnpxUXIyaFVVVDhEaEJ4ZlBPVm5kZ1pYQndJQ2sxeVdUdmx2SWRBMVZRenZuU0IwLWZreUdKeTJyOUxKc0lRVXBvaTlYV1BLZ2xNZGdOM0RRTF9lZ1hzWTlfVHJfUGlNa21rODJiRk01MmpVNlNWVFVYTGdaMUNHRHo3VUw0aUx2MDdxVnVaNXlwaDhlZk5ySzQxWUZaSmVoTnRBeHJQX1ZYNnlCLVNaWjhTSmtIWjM5Y2JRaF9HcTBdLS0+PC9nPjwvc3ZnPg==;" vertex="1" parent="1">
            <mxGeometry x="-547.5" y="3960" width="620" height="497" as="geometry" />
          </mxCell>
        </UserObject>
        <UserObject label="" plantUmlData="{&#xa;  &quot;data&quot;: &quot;@startuml\nstart\n:登录系统;\nif (有系统管理权限?) then (yes)\n    :显示系统管理界面;\n    if (选择角色管理?) then (yes)\n        :执行角色管理;\n    else (no)\n        if (选择用户管理?) then (yes)\n            :执行用户管理;\n        else (no)\n            if (选择查看系统日志?) then (yes)\n                :查看系统日志;\n            else (no)\n                :修改密码;\n            endif\n        endif\n    endif\nelse (no)\n    :显示无权限信息;\nendif\nstop\n@enduml&quot;,&#xa;  &quot;format&quot;: &quot;svg&quot;&#xa;}" id="Gx-qXyAOR5Icjh0oVwRY-9">
          <mxCell style="shape=image;noLabel=1;verticalAlign=top;aspect=fixed;imageAspect=0;image=data:image/svg+xml,PD94bWwgdmVyc2lvbj0iMS4wIiBlbmNvZGluZz0idXMtYXNjaWkiIHN0YW5kYWxvbmU9Im5vIj8+PHN2ZyB4bWxucz0iaHR0cDovL3d3dy53My5vcmcvMjAwMC9zdmciIHhtbG5zOnhsaW5rPSJodHRwOi8vd3d3LnczLm9yZy8xOTk5L3hsaW5rIiBjb250ZW50U3R5bGVUeXBlPSJ0ZXh0L2NzcyIgaGVpZ2h0PSI0OTdweCIgcHJlc2VydmVBc3BlY3RSYXRpbz0ibm9uZSIgc3R5bGU9IndpZHRoOjU5OHB4O2hlaWdodDo0OTdweDtiYWNrZ3JvdW5kOiNGRkZGRkY7IiB2ZXJzaW9uPSIxLjEiIHZpZXdCb3g9IjAgMCA1OTggNDk3IiB3aWR0aD0iNTk4cHgiIHpvb21BbmRQYW49Im1hZ25pZnkiPjxkZWZzLz48Zz48ZWxsaXBzZSBjeD0iMzcwLjM3NSIgY3k9IjIwIiBmaWxsPSIjMjIyMjIyIiByeD0iMTAiIHJ5PSIxMCIgc3R5bGU9InN0cm9rZTojMjIyMjIyO3N0cm9rZS13aWR0aDoxLjA7Ii8+PHJlY3QgZmlsbD0iI0YxRjFGMSIgaGVpZ2h0PSIzMi44NDM4IiByeD0iMTIuNSIgcnk9IjEyLjUiIHN0eWxlPSJzdHJva2U6IzE4MTgxODtzdHJva2Utd2lkdGg6MC41OyIgd2lkdGg9IjY4IiB4PSIzMzYuMzc1IiB5PSI1MCIvPjx0ZXh0IGZpbGw9IiMwMDAwMDAiIGZvbnQtZmFtaWx5PSJzYW5zLXNlcmlmIiBmb250LXNpemU9IjEyIiBsZW5ndGhBZGp1c3Q9InNwYWNpbmciIHRleHRMZW5ndGg9IjQ4IiB4PSIzNDYuMzc1IiB5PSI3MS4zNDM4Ij4mIzMwMzMxOyYjMjQ0MDU7JiMzMTk5NTsmIzMyNDc5OzwvdGV4dD48cG9seWdvbiBmaWxsPSIjRjFGMUYxIiBwb2ludHM9IjMyOC44NzUsMTAyLjg0MzgsNDExLjg3NSwxMDIuODQzOCw0MjMuODc1LDExNC44NDM4LDQxMS44NzUsMTI2Ljg0MzgsMzI4Ljg3NSwxMjYuODQzOCwzMTYuODc1LDExNC44NDM4LDMyOC44NzUsMTAyLjg0MzgiIHN0eWxlPSJzdHJva2U6IzE4MTgxODtzdHJva2Utd2lkdGg6MC41OyIvPjx0ZXh0IGZpbGw9IiMwMDAwMDAiIGZvbnQtZmFtaWx5PSJzYW5zLXNlcmlmIiBmb250LXNpemU9IjExIiBsZW5ndGhBZGp1c3Q9InNwYWNpbmciIHRleHRMZW5ndGg9IjgzIiB4PSIzMjguODc1IiB5PSIxMTkuMzU1NSI+JiMyNjM3NzsmIzMxOTk1OyYjMzI0Nzk7JiMzMTY0OTsmIzI5NzAyOyYjMjY0MzU7JiMzODQ4MDs/PC90ZXh0Pjx0ZXh0IGZpbGw9IiMwMDAwMDAiIGZvbnQtZmFtaWx5PSJzYW5zLXNlcmlmIiBmb250LXNpemU9IjExIiBsZW5ndGhBZGp1c3Q9InNwYWNpbmciIHRleHRMZW5ndGg9IjE4IiB4PSIyOTguODc1IiB5PSIxMTMuNDY4OCI+eWVzPC90ZXh0Pjx0ZXh0IGZpbGw9IiMwMDAwMDAiIGZvbnQtZmFtaWx5PSJzYW5zLXNlcmlmIiBmb250LXNpemU9IjExIiBsZW5ndGhBZGp1c3Q9InNwYWNpbmciIHRleHRMZW5ndGg9IjEyIiB4PSI0MjMuODc1IiB5PSIxMTMuNDY4OCI+bm88L3RleHQ+PHJlY3QgZmlsbD0iI0YxRjFGMSIgaGVpZ2h0PSIzMi44NDM4IiByeD0iMTIuNSIgcnk9IjEyLjUiIHN0eWxlPSJzdHJva2U6IzE4MTgxODtzdHJva2Utd2lkdGg6MC41OyIgd2lkdGg9IjExNiIgeD0iMTA3Ljc1IiB5PSIxMzYuODQzOCIvPjx0ZXh0IGZpbGw9IiMwMDAwMDAiIGZvbnQtZmFtaWx5PSJzYW5zLXNlcmlmIiBmb250LXNpemU9IjEyIiBsZW5ndGhBZGp1c3Q9InNwYWNpbmciIHRleHRMZW5ndGg9Ijk2IiB4PSIxMTcuNzUiIHk9IjE1OC4xODc1Ij4mIzI2MTc0OyYjMzEwMzQ7JiMzMTk5NTsmIzMyNDc5OyYjMzE2NDk7JiMyOTcwMjsmIzMwMDI4OyYjMzg3NTQ7PC90ZXh0Pjxwb2x5Z29uIGZpbGw9IiNGMUYxRjEiIHBvaW50cz0iMTI5Ljc1LDE4OS42ODc1LDIwMS43NSwxODkuNjg3NSwyMTMuNzUsMjAxLjY4NzUsMjAxLjc1LDIxMy42ODc1LDEyOS43NSwyMTMuNjg3NSwxMTcuNzUsMjAxLjY4NzUsMTI5Ljc1LDE4OS42ODc1IiBzdHlsZT0ic3Ryb2tlOiMxODE4MTg7c3Ryb2tlLXdpZHRoOjAuNTsiLz48dGV4dCBmaWxsPSIjMDAwMDAwIiBmb250LWZhbWlseT0ic2Fucy1zZXJpZiIgZm9udC1zaXplPSIxMSIgbGVuZ3RoQWRqdXN0PSJzcGFjaW5nIiB0ZXh0TGVuZ3RoPSI3MiIgeD0iMTI5Ljc1IiB5PSIyMDYuMTk5MiI+JiMzNjg3MzsmIzI1MzIxOyYjMzUyODI7JiMzMzM5NDsmIzMxNjQ5OyYjMjk3MDI7PzwvdGV4dD48dGV4dCBmaWxsPSIjMDAwMDAwIiBmb250LWZhbWlseT0ic2Fucy1zZXJpZiIgZm9udC1zaXplPSIxMSIgbGVuZ3RoQWRqdXN0PSJzcGFjaW5nIiB0ZXh0TGVuZ3RoPSIxOCIgeD0iOTkuNzUiIHk9IjIwMC4zMTI1Ij55ZXM8L3RleHQ+PHRleHQgZmlsbD0iIzAwMDAwMCIgZm9udC1mYW1pbHk9InNhbnMtc2VyaWYiIGZvbnQtc2l6ZT0iMTEiIGxlbmd0aEFkanVzdD0ic3BhY2luZyIgdGV4dExlbmd0aD0iMTIiIHg9IjIxMy43NSIgeT0iMjAwLjMxMjUiPm5vPC90ZXh0PjxyZWN0IGZpbGw9IiNGMUYxRjEiIGhlaWdodD0iMzIuODQzOCIgcng9IjEyLjUiIHJ5PSIxMi41IiBzdHlsZT0ic3Ryb2tlOiMxODE4MTg7c3Ryb2tlLXdpZHRoOjAuNTsiIHdpZHRoPSI5MiIgeD0iMTEiIHk9IjIyMy42ODc1Ii8+PHRleHQgZmlsbD0iIzAwMDAwMCIgZm9udC1mYW1pbHk9InNhbnMtc2VyaWYiIGZvbnQtc2l6ZT0iMTIiIGxlbmd0aEFkanVzdD0ic3BhY2luZyIgdGV4dExlbmd0aD0iNzIiIHg9IjIxIiB5PSIyNDUuMDMxMyI+JiMyNTE5MTsmIzM0ODkyOyYjMzUyODI7JiMzMzM5NDsmIzMxNjQ5OyYjMjk3MDI7PC90ZXh0Pjxwb2x5Z29uIGZpbGw9IiNGMUYxRjEiIHBvaW50cz0iMjM4LjUsMjIzLjY4NzUsMzEwLjUsMjIzLjY4NzUsMzIyLjUsMjM1LjY4NzUsMzEwLjUsMjQ3LjY4NzUsMjM4LjUsMjQ3LjY4NzUsMjI2LjUsMjM1LjY4NzUsMjM4LjUsMjIzLjY4NzUiIHN0eWxlPSJzdHJva2U6IzE4MTgxODtzdHJva2Utd2lkdGg6MC41OyIvPjx0ZXh0IGZpbGw9IiMwMDAwMDAiIGZvbnQtZmFtaWx5PSJzYW5zLXNlcmlmIiBmb250LXNpemU9IjExIiBsZW5ndGhBZGp1c3Q9InNwYWNpbmciIHRleHRMZW5ndGg9IjcyIiB4PSIyMzguNSIgeT0iMjQwLjE5OTIiPiYjMzY4NzM7JiMyNTMyMTsmIzI5OTkyOyYjMjUxNDM7JiMzMTY0OTsmIzI5NzAyOz88L3RleHQ+PHRleHQgZmlsbD0iIzAwMDAwMCIgZm9udC1mYW1pbHk9InNhbnMtc2VyaWYiIGZvbnQtc2l6ZT0iMTEiIGxlbmd0aEFkanVzdD0ic3BhY2luZyIgdGV4dExlbmd0aD0iMTgiIHg9IjIwOC41IiB5PSIyMzQuMzEyNSI+eWVzPC90ZXh0Pjx0ZXh0IGZpbGw9IiMwMDAwMDAiIGZvbnQtZmFtaWx5PSJzYW5zLXNlcmlmIiBmb250LXNpemU9IjExIiBsZW5ndGhBZGp1c3Q9InNwYWNpbmciIHRleHRMZW5ndGg9IjEyIiB4PSIzMjIuNSIgeT0iMjM0LjMxMjUiPm5vPC90ZXh0PjxyZWN0IGZpbGw9IiNGMUYxRjEiIGhlaWdodD0iMzIuODQzOCIgcng9IjEyLjUiIHJ5PSIxMi41IiBzdHlsZT0ic3Ryb2tlOiMxODE4MTg7c3Ryb2tlLXdpZHRoOjAuNTsiIHdpZHRoPSI5MiIgeD0iMTMzIiB5PSIyNTcuNjg3NSIvPjx0ZXh0IGZpbGw9IiMwMDAwMDAiIGZvbnQtZmFtaWx5PSJzYW5zLXNlcmlmIiBmb250LXNpemU9IjEyIiBsZW5ndGhBZGp1c3Q9InNwYWNpbmciIHRleHRMZW5ndGg9IjcyIiB4PSIxNDMiIHk9IjI3OS4wMzEzIj4mIzI1MTkxOyYjMzQ4OTI7JiMyOTk5MjsmIzI1MTQzOyYjMzE2NDk7JiMyOTcwMjs8L3RleHQ+PHBvbHlnb24gZmlsbD0iI0YxRjFGMSIgcG9pbnRzPSIzMjMsMjU3LjY4NzUsNDE3LDI1Ny42ODc1LDQyOSwyNjkuNjg3NSw0MTcsMjgxLjY4NzUsMzIzLDI4MS42ODc1LDMxMSwyNjkuNjg3NSwzMjMsMjU3LjY4NzUiIHN0eWxlPSJzdHJva2U6IzE4MTgxODtzdHJva2Utd2lkdGg6MC41OyIvPjx0ZXh0IGZpbGw9IiMwMDAwMDAiIGZvbnQtZmFtaWx5PSJzYW5zLXNlcmlmIiBmb250LXNpemU9IjExIiBsZW5ndGhBZGp1c3Q9InNwYWNpbmciIHRleHRMZW5ndGg9Ijk0IiB4PSIzMjMiIHk9IjI3NC4xOTkyIj4mIzM2ODczOyYjMjUzMjE7JiMyNjU5NzsmIzMwNDc1OyYjMzE5OTU7JiMzMjQ3OTsmIzI2MDg1OyYjMjQ1MzU7PzwvdGV4dD48dGV4dCBmaWxsPSIjMDAwMDAwIiBmb250LWZhbWlseT0ic2Fucy1zZXJpZiIgZm9udC1zaXplPSIxMSIgbGVuZ3RoQWRqdXN0PSJzcGFjaW5nIiB0ZXh0TGVuZ3RoPSIxOCIgeD0iMjkzIiB5PSIyNjguMzEyNSI+eWVzPC90ZXh0Pjx0ZXh0IGZpbGw9IiMwMDAwMDAiIGZvbnQtZmFtaWx5PSJzYW5zLXNlcmlmIiBmb250LXNpemU9IjExIiBsZW5ndGhBZGp1c3Q9InNwYWNpbmciIHRleHRMZW5ndGg9IjEyIiB4PSI0MjkiIHk9IjI2OC4zMTI1Ij5ubzwvdGV4dD48cmVjdCBmaWxsPSIjRjFGMUYxIiBoZWlnaHQ9IjMyLjg0MzgiIHJ4PSIxMi41IiByeT0iMTIuNSIgc3R5bGU9InN0cm9rZTojMTgxODE4O3N0cm9rZS13aWR0aDowLjU7IiB3aWR0aD0iOTIiIHg9IjI1NSIgeT0iMjkxLjY4NzUiLz48dGV4dCBmaWxsPSIjMDAwMDAwIiBmb250LWZhbWlseT0ic2Fucy1zZXJpZiIgZm9udC1zaXplPSIxMiIgbGVuZ3RoQWRqdXN0PSJzcGFjaW5nIiB0ZXh0TGVuZ3RoPSI3MiIgeD0iMjY1IiB5PSIzMTMuMDMxMyI+JiMyNjU5NzsmIzMwNDc1OyYjMzE5OTU7JiMzMjQ3OTsmIzI2MDg1OyYjMjQ1MzU7PC90ZXh0PjxyZWN0IGZpbGw9IiNGMUYxRjEiIGhlaWdodD0iMzIuODQzOCIgcng9IjEyLjUiIHJ5PSIxMi41IiBzdHlsZT0ic3Ryb2tlOiMxODE4MTg7c3Ryb2tlLXdpZHRoOjAuNTsiIHdpZHRoPSI2OCIgeD0iNDA1IiB5PSIyOTEuNjg3NSIvPjx0ZXh0IGZpbGw9IiMwMDAwMDAiIGZvbnQtZmFtaWx5PSJzYW5zLXNlcmlmIiBmb250LXNpemU9IjEyIiBsZW5ndGhBZGp1c3Q9InNwYWNpbmciIHRleHRMZW5ndGg9IjQ4IiB4PSI0MTUiIHk9IjMxMy4wMzEzIj4mIzIwNDYyOyYjMjU5MTM7JiMyMzQ5NDsmIzMwNzIxOzwvdGV4dD48cG9seWdvbiBmaWxsPSIjRjFGMUYxIiBwb2ludHM9IjM3MCwzMzAuNTMxMywzODIsMzQyLjUzMTMsMzcwLDM1NC41MzEzLDM1OCwzNDIuNTMxMywzNzAsMzMwLjUzMTMiIHN0eWxlPSJzdHJva2U6IzE4MTgxODtzdHJva2Utd2lkdGg6MC41OyIvPjxwb2x5Z29uIGZpbGw9IiNGMUYxRjEiIHBvaW50cz0iMjc0LjUsMzYwLjUzMTMsMjg2LjUsMzcyLjUzMTMsMjc0LjUsMzg0LjUzMTMsMjYyLjUsMzcyLjUzMTMsMjc0LjUsMzYwLjUzMTMiIHN0eWxlPSJzdHJva2U6IzE4MTgxODtzdHJva2Utd2lkdGg6MC41OyIvPjxwb2x5Z29uIGZpbGw9IiNGMUYxRjEiIHBvaW50cz0iMTY1Ljc1LDM5MC41MzEzLDE3Ny43NSw0MDIuNTMxMywxNjUuNzUsNDE0LjUzMTMsMTUzLjc1LDQwMi41MzEzLDE2NS43NSwzOTAuNTMxMyIgc3R5bGU9InN0cm9rZTojMTgxODE4O3N0cm9rZS13aWR0aDowLjU7Ii8+PHJlY3QgZmlsbD0iI0YxRjFGMSIgaGVpZ2h0PSIzMi44NDM4IiByeD0iMTIuNSIgcnk9IjEyLjUiIHN0eWxlPSJzdHJva2U6IzE4MTgxODtzdHJva2Utd2lkdGg6MC41OyIgd2lkdGg9IjEwNCIgeD0iNDgzIiB5PSIxMzYuODQzOCIvPjx0ZXh0IGZpbGw9IiMwMDAwMDAiIGZvbnQtZmFtaWx5PSJzYW5zLXNlcmlmIiBmb250LXNpemU9IjEyIiBsZW5ndGhBZGp1c3Q9InNwYWNpbmciIHRleHRMZW5ndGg9Ijg0IiB4PSI0OTMiIHk9IjE1OC4xODc1Ij4mIzI2MTc0OyYjMzEwMzQ7JiMyNjA4MDsmIzI2NDM1OyYjMzg0ODA7JiMyMDQ0OTsmIzI0Njg3OzwvdGV4dD48cG9seWdvbiBmaWxsPSIjRjFGMUYxIiBwb2ludHM9IjM3MC4zNzUsNDIwLjUzMTMsMzgyLjM3NSw0MzIuNTMxMywzNzAuMzc1LDQ0NC41MzEzLDM1OC4zNzUsNDMyLjUzMTMsMzcwLjM3NSw0MjAuNTMxMyIgc3R5bGU9InN0cm9rZTojMTgxODE4O3N0cm9rZS13aWR0aDowLjU7Ii8+PGVsbGlwc2UgY3g9IjM3MC4zNzUiIGN5PSI0NzUuNTMxMyIgZmlsbD0ibm9uZSIgcng9IjExIiByeT0iMTEiIHN0eWxlPSJzdHJva2U6IzIyMjIyMjtzdHJva2Utd2lkdGg6MS4wOyIvPjxlbGxpcHNlIGN4PSIzNzAuMzc1IiBjeT0iNDc1LjUzMTMiIGZpbGw9IiMyMjIyMjIiIHJ4PSI2IiByeT0iNiIgc3R5bGU9InN0cm9rZTojMjIyMjIyO3N0cm9rZS13aWR0aDoxLjA7Ii8+PGxpbmUgc3R5bGU9InN0cm9rZTojMTgxODE4O3N0cm9rZS13aWR0aDoxLjA7IiB4MT0iMzcwLjM3NSIgeDI9IjM3MC4zNzUiIHkxPSIzMCIgeTI9IjUwIi8+PHBvbHlnb24gZmlsbD0iIzE4MTgxOCIgcG9pbnRzPSIzNjYuMzc1LDQwLDM3MC4zNzUsNTAsMzc0LjM3NSw0MCwzNzAuMzc1LDQ0IiBzdHlsZT0ic3Ryb2tlOiMxODE4MTg7c3Ryb2tlLXdpZHRoOjEuMDsiLz48bGluZSBzdHlsZT0ic3Ryb2tlOiMxODE4MTg7c3Ryb2tlLXdpZHRoOjEuMDsiIHgxPSIzMTEiIHgyPSIzMDEiIHkxPSIyNjkuNjg3NSIgeTI9IjI2OS42ODc1Ii8+PGxpbmUgc3R5bGU9InN0cm9rZTojMTgxODE4O3N0cm9rZS13aWR0aDoxLjA7IiB4MT0iMzAxIiB4Mj0iMzAxIiB5MT0iMjY5LjY4NzUiIHkyPSIyOTEuNjg3NSIvPjxwb2x5Z29uIGZpbGw9IiMxODE4MTgiIHBvaW50cz0iMjk3LDI4MS42ODc1LDMwMSwyOTEuNjg3NSwzMDUsMjgxLjY4NzUsMzAxLDI4NS42ODc1IiBzdHlsZT0ic3Ryb2tlOiMxODE4MTg7c3Ryb2tlLXdpZHRoOjEuMDsiLz48bGluZSBzdHlsZT0ic3Ryb2tlOiMxODE4MTg7c3Ryb2tlLXdpZHRoOjEuMDsiIHgxPSI0MjkiIHgyPSI0MzkiIHkxPSIyNjkuNjg3NSIgeTI9IjI2OS42ODc1Ii8+PGxpbmUgc3R5bGU9InN0cm9rZTojMTgxODE4O3N0cm9rZS13aWR0aDoxLjA7IiB4MT0iNDM5IiB4Mj0iNDM5IiB5MT0iMjY5LjY4NzUiIHkyPSIyOTEuNjg3NSIvPjxwb2x5Z29uIGZpbGw9IiMxODE4MTgiIHBvaW50cz0iNDM1LDI4MS42ODc1LDQzOSwyOTEuNjg3NSw0NDMsMjgxLjY4NzUsNDM5LDI4NS42ODc1IiBzdHlsZT0ic3Ryb2tlOiMxODE4MTg7c3Ryb2tlLXdpZHRoOjEuMDsiLz48bGluZSBzdHlsZT0ic3Ryb2tlOiMxODE4MTg7c3Ryb2tlLXdpZHRoOjEuMDsiIHgxPSIzMDEiIHgyPSIzMDEiIHkxPSIzMjQuNTMxMyIgeTI9IjM0Mi41MzEzIi8+PGxpbmUgc3R5bGU9InN0cm9rZTojMTgxODE4O3N0cm9rZS13aWR0aDoxLjA7IiB4MT0iMzAxIiB4Mj0iMzU4IiB5MT0iMzQyLjUzMTMiIHkyPSIzNDIuNTMxMyIvPjxwb2x5Z29uIGZpbGw9IiMxODE4MTgiIHBvaW50cz0iMzQ4LDMzOC41MzEzLDM1OCwzNDIuNTMxMywzNDgsMzQ2LjUzMTMsMzUyLDM0Mi41MzEzIiBzdHlsZT0ic3Ryb2tlOiMxODE4MTg7c3Ryb2tlLXdpZHRoOjEuMDsiLz48bGluZSBzdHlsZT0ic3Ryb2tlOiMxODE4MTg7c3Ryb2tlLXdpZHRoOjEuMDsiIHgxPSI0MzkiIHgyPSI0MzkiIHkxPSIzMjQuNTMxMyIgeTI9IjM0Mi41MzEzIi8+PGxpbmUgc3R5bGU9InN0cm9rZTojMTgxODE4O3N0cm9rZS13aWR0aDoxLjA7IiB4MT0iNDM5IiB4Mj0iMzgyIiB5MT0iMzQyLjUzMTMiIHkyPSIzNDIuNTMxMyIvPjxwb2x5Z29uIGZpbGw9IiMxODE4MTgiIHBvaW50cz0iMzkyLDMzOC41MzEzLDM4MiwzNDIuNTMxMywzOTIsMzQ2LjUzMTMsMzg4LDM0Mi41MzEzIiBzdHlsZT0ic3Ryb2tlOiMxODE4MTg7c3Ryb2tlLXdpZHRoOjEuMDsiLz48bGluZSBzdHlsZT0ic3Ryb2tlOiMxODE4MTg7c3Ryb2tlLXdpZHRoOjEuMDsiIHgxPSIyMjYuNSIgeDI9IjE3OSIgeTE9IjIzNS42ODc1IiB5Mj0iMjM1LjY4NzUiLz48bGluZSBzdHlsZT0ic3Ryb2tlOiMxODE4MTg7c3Ryb2tlLXdpZHRoOjEuMDsiIHgxPSIxNzkiIHgyPSIxNzkiIHkxPSIyMzUuNjg3NSIgeTI9IjI1Ny42ODc1Ii8+PHBvbHlnb24gZmlsbD0iIzE4MTgxOCIgcG9pbnRzPSIxNzUsMjQ3LjY4NzUsMTc5LDI1Ny42ODc1LDE4MywyNDcuNjg3NSwxNzksMjUxLjY4NzUiIHN0eWxlPSJzdHJva2U6IzE4MTgxODtzdHJva2Utd2lkdGg6MS4wOyIvPjxsaW5lIHN0eWxlPSJzdHJva2U6IzE4MTgxODtzdHJva2Utd2lkdGg6MS4wOyIgeDE9IjMyMi41IiB4Mj0iMzcwIiB5MT0iMjM1LjY4NzUiIHkyPSIyMzUuNjg3NSIvPjxsaW5lIHN0eWxlPSJzdHJva2U6IzE4MTgxODtzdHJva2Utd2lkdGg6MS4wOyIgeDE9IjM3MCIgeDI9IjM3MCIgeTE9IjIzNS42ODc1IiB5Mj0iMjU3LjY4NzUiLz48cG9seWdvbiBmaWxsPSIjMTgxODE4IiBwb2ludHM9IjM2NiwyNDcuNjg3NSwzNzAsMjU3LjY4NzUsMzc0LDI0Ny42ODc1LDM3MCwyNTEuNjg3NSIgc3R5bGU9InN0cm9rZTojMTgxODE4O3N0cm9rZS13aWR0aDoxLjA7Ii8+PGxpbmUgc3R5bGU9InN0cm9rZTojMTgxODE4O3N0cm9rZS13aWR0aDoxLjA7IiB4MT0iMTc5IiB4Mj0iMTc5IiB5MT0iMjkwLjUzMTMiIHkyPSIzNzIuNTMxMyIvPjxsaW5lIHN0eWxlPSJzdHJva2U6IzE4MTgxODtzdHJva2Utd2lkdGg6MS4wOyIgeDE9IjE3OSIgeDI9IjI2Mi41IiB5MT0iMzcyLjUzMTMiIHkyPSIzNzIuNTMxMyIvPjxwb2x5Z29uIGZpbGw9IiMxODE4MTgiIHBvaW50cz0iMjUyLjUsMzY4LjUzMTMsMjYyLjUsMzcyLjUzMTMsMjUyLjUsMzc2LjUzMTMsMjU2LjUsMzcyLjUzMTMiIHN0eWxlPSJzdHJva2U6IzE4MTgxODtzdHJva2Utd2lkdGg6MS4wOyIvPjxsaW5lIHN0eWxlPSJzdHJva2U6IzE4MTgxODtzdHJva2Utd2lkdGg6MS4wOyIgeDE9IjM3MCIgeDI9IjM3MCIgeTE9IjM1NC41MzEzIiB5Mj0iMzcyLjUzMTMiLz48bGluZSBzdHlsZT0ic3Ryb2tlOiMxODE4MTg7c3Ryb2tlLXdpZHRoOjEuMDsiIHgxPSIzNzAiIHgyPSIyODYuNSIgeTE9IjM3Mi41MzEzIiB5Mj0iMzcyLjUzMTMiLz48cG9seWdvbiBmaWxsPSIjMTgxODE4IiBwb2ludHM9IjI5Ni41LDM2OC41MzEzLDI4Ni41LDM3Mi41MzEzLDI5Ni41LDM3Ni41MzEzLDI5Mi41LDM3Mi41MzEzIiBzdHlsZT0ic3Ryb2tlOiMxODE4MTg7c3Ryb2tlLXdpZHRoOjEuMDsiLz48bGluZSBzdHlsZT0ic3Ryb2tlOiMxODE4MTg7c3Ryb2tlLXdpZHRoOjEuMDsiIHgxPSIxMTcuNzUiIHgyPSI1NyIgeTE9IjIwMS42ODc1IiB5Mj0iMjAxLjY4NzUiLz48bGluZSBzdHlsZT0ic3Ryb2tlOiMxODE4MTg7c3Ryb2tlLXdpZHRoOjEuMDsiIHgxPSI1NyIgeDI9IjU3IiB5MT0iMjAxLjY4NzUiIHkyPSIyMjMuNjg3NSIvPjxwb2x5Z29uIGZpbGw9IiMxODE4MTgiIHBvaW50cz0iNTMsMjEzLjY4NzUsNTcsMjIzLjY4NzUsNjEsMjEzLjY4NzUsNTcsMjE3LjY4NzUiIHN0eWxlPSJzdHJva2U6IzE4MTgxODtzdHJva2Utd2lkdGg6MS4wOyIvPjxsaW5lIHN0eWxlPSJzdHJva2U6IzE4MTgxODtzdHJva2Utd2lkdGg6MS4wOyIgeDE9IjIxMy43NSIgeDI9IjI3NC41IiB5MT0iMjAxLjY4NzUiIHkyPSIyMDEuNjg3NSIvPjxsaW5lIHN0eWxlPSJzdHJva2U6IzE4MTgxODtzdHJva2Utd2lkdGg6MS4wOyIgeDE9IjI3NC41IiB4Mj0iMjc0LjUiIHkxPSIyMDEuNjg3NSIgeTI9IjIyMy42ODc1Ii8+PHBvbHlnb24gZmlsbD0iIzE4MTgxOCIgcG9pbnRzPSIyNzAuNSwyMTMuNjg3NSwyNzQuNSwyMjMuNjg3NSwyNzguNSwyMTMuNjg3NSwyNzQuNSwyMTcuNjg3NSIgc3R5bGU9InN0cm9rZTojMTgxODE4O3N0cm9rZS13aWR0aDoxLjA7Ii8+PGxpbmUgc3R5bGU9InN0cm9rZTojMTgxODE4O3N0cm9rZS13aWR0aDoxLjA7IiB4MT0iNTciIHgyPSI1NyIgeTE9IjI1Ni41MzEzIiB5Mj0iNDAyLjUzMTMiLz48bGluZSBzdHlsZT0ic3Ryb2tlOiMxODE4MTg7c3Ryb2tlLXdpZHRoOjEuMDsiIHgxPSI1NyIgeDI9IjE1My43NSIgeTE9IjQwMi41MzEzIiB5Mj0iNDAyLjUzMTMiLz48cG9seWdvbiBmaWxsPSIjMTgxODE4IiBwb2ludHM9IjE0My43NSwzOTguNTMxMywxNTMuNzUsNDAyLjUzMTMsMTQzLjc1LDQwNi41MzEzLDE0Ny43NSw0MDIuNTMxMyIgc3R5bGU9InN0cm9rZTojMTgxODE4O3N0cm9rZS13aWR0aDoxLjA7Ii8+PGxpbmUgc3R5bGU9InN0cm9rZTojMTgxODE4O3N0cm9rZS13aWR0aDoxLjA7IiB4MT0iMjc0LjUiIHgyPSIyNzQuNSIgeTE9IjM4NC41MzEzIiB5Mj0iNDAyLjUzMTMiLz48bGluZSBzdHlsZT0ic3Ryb2tlOiMxODE4MTg7c3Ryb2tlLXdpZHRoOjEuMDsiIHgxPSIyNzQuNSIgeDI9IjE3Ny43NSIgeTE9IjQwMi41MzEzIiB5Mj0iNDAyLjUzMTMiLz48cG9seWdvbiBmaWxsPSIjMTgxODE4IiBwb2ludHM9IjE4Ny43NSwzOTguNTMxMywxNzcuNzUsNDAyLjUzMTMsMTg3Ljc1LDQwNi41MzEzLDE4My43NSw0MDIuNTMxMyIgc3R5bGU9InN0cm9rZTojMTgxODE4O3N0cm9rZS13aWR0aDoxLjA7Ii8+PGxpbmUgc3R5bGU9InN0cm9rZTojMTgxODE4O3N0cm9rZS13aWR0aDoxLjA7IiB4MT0iMTY1Ljc1IiB4Mj0iMTY1Ljc1IiB5MT0iMTY5LjY4NzUiIHkyPSIxODkuNjg3NSIvPjxwb2x5Z29uIGZpbGw9IiMxODE4MTgiIHBvaW50cz0iMTYxLjc1LDE3OS42ODc1LDE2NS43NSwxODkuNjg3NSwxNjkuNzUsMTc5LjY4NzUsMTY1Ljc1LDE4My42ODc1IiBzdHlsZT0ic3Ryb2tlOiMxODE4MTg7c3Ryb2tlLXdpZHRoOjEuMDsiLz48bGluZSBzdHlsZT0ic3Ryb2tlOiMxODE4MTg7c3Ryb2tlLXdpZHRoOjEuMDsiIHgxPSIzMTYuODc1IiB4Mj0iMTY1Ljc1IiB5MT0iMTE0Ljg0MzgiIHkyPSIxMTQuODQzOCIvPjxsaW5lIHN0eWxlPSJzdHJva2U6IzE4MTgxODtzdHJva2Utd2lkdGg6MS4wOyIgeDE9IjE2NS43NSIgeDI9IjE2NS43NSIgeTE9IjExNC44NDM4IiB5Mj0iMTM2Ljg0MzgiLz48cG9seWdvbiBmaWxsPSIjMTgxODE4IiBwb2ludHM9IjE2MS43NSwxMjYuODQzOCwxNjUuNzUsMTM2Ljg0MzgsMTY5Ljc1LDEyNi44NDM4LDE2NS43NSwxMzAuODQzOCIgc3R5bGU9InN0cm9rZTojMTgxODE4O3N0cm9rZS13aWR0aDoxLjA7Ii8+PGxpbmUgc3R5bGU9InN0cm9rZTojMTgxODE4O3N0cm9rZS13aWR0aDoxLjA7IiB4MT0iNDIzLjg3NSIgeDI9IjUzNSIgeTE9IjExNC44NDM4IiB5Mj0iMTE0Ljg0MzgiLz48bGluZSBzdHlsZT0ic3Ryb2tlOiMxODE4MTg7c3Ryb2tlLXdpZHRoOjEuMDsiIHgxPSI1MzUiIHgyPSI1MzUiIHkxPSIxMTQuODQzOCIgeTI9IjEzNi44NDM4Ii8+PHBvbHlnb24gZmlsbD0iIzE4MTgxOCIgcG9pbnRzPSI1MzEsMTI2Ljg0MzgsNTM1LDEzNi44NDM4LDUzOSwxMjYuODQzOCw1MzUsMTMwLjg0MzgiIHN0eWxlPSJzdHJva2U6IzE4MTgxODtzdHJva2Utd2lkdGg6MS4wOyIvPjxsaW5lIHN0eWxlPSJzdHJva2U6IzE4MTgxODtzdHJva2Utd2lkdGg6MS4wOyIgeDE9IjE2NS43NSIgeDI9IjE2NS43NSIgeTE9IjQxNC41MzEzIiB5Mj0iNDMyLjUzMTMiLz48bGluZSBzdHlsZT0ic3Ryb2tlOiMxODE4MTg7c3Ryb2tlLXdpZHRoOjEuMDsiIHgxPSIxNjUuNzUiIHgyPSIzNTguMzc1IiB5MT0iNDMyLjUzMTMiIHkyPSI0MzIuNTMxMyIvPjxwb2x5Z29uIGZpbGw9IiMxODE4MTgiIHBvaW50cz0iMzQ4LjM3NSw0MjguNTMxMywzNTguMzc1LDQzMi41MzEzLDM0OC4zNzUsNDM2LjUzMTMsMzUyLjM3NSw0MzIuNTMxMyIgc3R5bGU9InN0cm9rZTojMTgxODE4O3N0cm9rZS13aWR0aDoxLjA7Ii8+PGxpbmUgc3R5bGU9InN0cm9rZTojMTgxODE4O3N0cm9rZS13aWR0aDoxLjA7IiB4MT0iNTM1IiB4Mj0iNTM1IiB5MT0iMTY5LjY4NzUiIHkyPSI0MzIuNTMxMyIvPjxsaW5lIHN0eWxlPSJzdHJva2U6IzE4MTgxODtzdHJva2Utd2lkdGg6MS4wOyIgeDE9IjUzNSIgeDI9IjM4Mi4zNzUiIHkxPSI0MzIuNTMxMyIgeTI9IjQzMi41MzEzIi8+PHBvbHlnb24gZmlsbD0iIzE4MTgxOCIgcG9pbnRzPSIzOTIuMzc1LDQyOC41MzEzLDM4Mi4zNzUsNDMyLjUzMTMsMzkyLjM3NSw0MzYuNTMxMywzODguMzc1LDQzMi41MzEzIiBzdHlsZT0ic3Ryb2tlOiMxODE4MTg7c3Ryb2tlLXdpZHRoOjEuMDsiLz48bGluZSBzdHlsZT0ic3Ryb2tlOiMxODE4MTg7c3Ryb2tlLXdpZHRoOjEuMDsiIHgxPSIzNzAuMzc1IiB4Mj0iMzcwLjM3NSIgeTE9IjgyLjg0MzgiIHkyPSIxMDIuODQzOCIvPjxwb2x5Z29uIGZpbGw9IiMxODE4MTgiIHBvaW50cz0iMzY2LjM3NSw5Mi44NDM4LDM3MC4zNzUsMTAyLjg0MzgsMzc0LjM3NSw5Mi44NDM4LDM3MC4zNzUsOTYuODQzOCIgc3R5bGU9InN0cm9rZTojMTgxODE4O3N0cm9rZS13aWR0aDoxLjA7Ii8+PGxpbmUgc3R5bGU9InN0cm9rZTojMTgxODE4O3N0cm9rZS13aWR0aDoxLjA7IiB4MT0iMzcwLjM3NSIgeDI9IjM3MC4zNzUiIHkxPSI0NDQuNTMxMyIgeTI9IjQ2NC41MzEzIi8+PHBvbHlnb24gZmlsbD0iIzE4MTgxOCIgcG9pbnRzPSIzNjYuMzc1LDQ1NC41MzEzLDM3MC4zNzUsNDY0LjUzMTMsMzc0LjM3NSw0NTQuNTMxMywzNzAuMzc1LDQ1OC41MzEzIiBzdHlsZT0ic3Ryb2tlOiMxODE4MTg7c3Ryb2tlLXdpZHRoOjEuMDsiLz48IS0tU1JDPVtWUDdEM2k1MDU0UnR5bklwUjVfMUIzb0JIOEw0SWhHUkVvOEgzR2tISWFjOExXV3M5Mm80WGh3Q3Rqay1YUHloajhmUHBTc1N4dG9QTjR0Rkw3SU1tZzdoZF9ndVN6NlQyNVI4U0diNjFlc3VUaDNSWDc0Wjc3UkpDalZwWWlnYmdnQjlaRHpFMldQZGQxc1pBRk94dU5XZzdpenRLcldwZUJxQTVodDBzMUFIcjkzQU0wSEU5bWdJSDJiZzJmVktxWGp6UXo1U0djbF9KbmpISHM3bjBmQndVMExDdlpYZ3FtXzFjbGtVelJrOG9YODE0T0UtNXB3WTVzeUR2aTdWREQ2a1Z1SktSMjc3YVhGVHVpaGRLaTJvUU1xTnB1N3dIWjFZRFJyS2xXODBdLS0+PC9nPjwvc3ZnPg==;" vertex="1" parent="1">
            <mxGeometry x="-547.5" y="4460" width="598" height="497" as="geometry" />
          </mxCell>
        </UserObject>
      </root>
    </mxGraphModel>
  </diagram>
</mxfile>
